<svg id="Layer_1" data-name="Layer 1" xmlns="http://www.w3.org/2000/svg" xmlns:xlink="http://www.w3.org/1999/xlink" viewBox="0 0 1537.822 387.555"><defs><style>.cls-1{fill:#faa71a;}.cls-2{fill:none;stroke:#faa71a;stroke-linecap:round;stroke-miterlimit:10;stroke-width:2.164px;}.cls-3{fill:#1a1d50;}.cls-4{fill:url(#linear-gradient);}.cls-5{fill:url(#linear-gradient-2);}.cls-6{fill:url(#linear-gradient-3);}.cls-7{fill:url(#linear-gradient-4);}.cls-8{fill:url(#linear-gradient-5);}.cls-9{fill:url(#linear-gradient-6);}.cls-10{fill:url(#linear-gradient-7);}.cls-11{fill:url(#linear-gradient-8);}.cls-12{fill:url(#linear-gradient-9);}.cls-13{fill:url(#linear-gradient-10);}.cls-14{fill:url(#linear-gradient-11);}.cls-15{fill:url(#linear-gradient-12);}.cls-16{fill:#010101;}</style><linearGradient id="linear-gradient" x1="96.943" y1="200.964" x2="63.202" y2="158.454" gradientUnits="userSpaceOnUse"><stop offset="0" stop-color="#079247"/><stop offset="1" stop-color="#3db54a"/></linearGradient><linearGradient id="linear-gradient-2" x1="76.709" y1="137.668" x2="62.789" y2="101.275" xlink:href="#linear-gradient"/><linearGradient id="linear-gradient-3" x1="110.711" y1="235.871" x2="63.401" y2="219.991" xlink:href="#linear-gradient"/><linearGradient id="linear-gradient-4" x1="95.384" y1="83.135" x2="105.372" y2="65.49" xlink:href="#linear-gradient"/><linearGradient id="linear-gradient-5" x1="83.997" y1="114.264" x2="95.093" y2="97.433" xlink:href="#linear-gradient"/><linearGradient id="linear-gradient-6" x1="126.391" y1="50.247" x2="146.786" y2="24.53" xlink:href="#linear-gradient"/><linearGradient id="linear-gradient-7" x1="4175.597" y1="200.964" x2="4141.857" y2="158.454" gradientTransform="matrix(-1, 0, 0, 1, 4680.232, 0)" xlink:href="#linear-gradient"/><linearGradient id="linear-gradient-8" x1="4155.364" y1="137.668" x2="4141.443" y2="101.275" gradientTransform="matrix(-1, 0, 0, 1, 4680.232, 0)" xlink:href="#linear-gradient"/><linearGradient id="linear-gradient-9" x1="4189.365" y1="235.871" x2="4142.056" y2="219.991" gradientTransform="matrix(-1, 0, 0, 1, 4680.232, 0)" xlink:href="#linear-gradient"/><linearGradient id="linear-gradient-10" x1="4174.038" y1="83.135" x2="4184.027" y2="65.49" gradientTransform="matrix(-1, 0, 0, 1, 4680.232, 0)" xlink:href="#linear-gradient"/><linearGradient id="linear-gradient-11" x1="4162.651" y1="114.264" x2="4173.748" y2="97.433" gradientTransform="matrix(-1, 0, 0, 1, 4680.232, 0)" xlink:href="#linear-gradient"/><linearGradient id="linear-gradient-12" x1="4205.046" y1="50.247" x2="4225.44" y2="24.53" gradientTransform="matrix(-1, 0, 0, 1, 4680.232, 0)" xlink:href="#linear-gradient"/></defs><path class="cls-1" d="M416.879,283.477c-21.834-39.006-64.728-65.534-114.069-65.534-49.294,0-92.15,26.474-114.012,65.434a120.332,120.332,0,0,0-9.138,20.516c91.6,23.942,121.56,75.633,123.094,78.381v.009c.009.009.009.009.009.018a.272.272,0,0,1,.038.082v.009h.018v-.009c.453-.832,29.767-54.087,123.141-78.481h.01A120.259,120.259,0,0,0,416.879,283.477ZM283.81,259.245l36.862-.081V270.2l-36.862.072ZM302.857,381.3l2.522-55.57a8.274,8.274,0,0,0,5.252-7.631,8.613,8.613,0,0,0-17.213,0,8.271,8.271,0,0,0,5.449,7.694l3.783,55.091a.033.033,0,0,0-.009-.027c-1.911-18.536-37.145-60.507-37.145-60.507,15.876-13.381,18.266-45.967,18.266-45.967l20.563-.145,16.168.145s2.4,32.586,18.276,45.967c0,0-34.576,42.686-35.9,60.959Z" transform="translate(-28.544 -9.103)"/><line class="cls-2" x1="165.204" y1="259.957" x2="148.417" y2="248.373"/><path class="cls-2" d="M176.961,257.476" transform="translate(-28.544 -9.103)"/><path class="cls-2" d="M193.748,269.06" transform="translate(-28.544 -9.103)"/><line class="cls-2" x1="175.525" y1="246.759" x2="150.135" y2="224.484"/><line class="cls-2" x1="188.018" y1="234.51" x2="176.201" y2="218.219"/><line class="cls-2" x1="203.25" y1="223.55" x2="187.594" y2="194.139"/><line class="cls-2" x1="219.419" y1="214.727" x2="214.293" y2="195.49"/><line class="cls-2" x1="239.184" y1="208.583" x2="231.751" y2="176.33"/><line class="cls-2" x1="255.465" y1="204.562" x2="253.039" y2="184.842"/><line class="cls-2" x1="273.207" y1="203.547" x2="273.871" y2="170.519"/><line class="cls-2" x1="393.15" y1="276.132" x2="425.166" y2="264.085"/><line class="cls-2" x1="384.275" y1="261.122" x2="401.386" y2="249.985"/><line class="cls-2" x1="373.524" y1="247.657" x2="399.541" y2="226.059"/><line class="cls-2" x1="361.385" y1="235.862" x2="373.663" y2="219.888"/><line class="cls-2" x1="346.472" y1="224.504" x2="362.961" y2="195.517"/><line class="cls-2" x1="330.561" y1="216.037" x2="336.234" y2="196.942"/><line class="cls-2" x1="310.978" y1="208.596" x2="319.329" y2="176.551"/><line class="cls-2" x1="294.818" y1="204.926" x2="297.806" y2="185.277"/><path class="cls-2" d="M176.961,255.042" transform="translate(-28.544 -9.103)"/><path class="cls-2" d="M193.748,266.626" transform="translate(-28.544 -9.103)"/><path class="cls-2" d="M176.961,255.042" transform="translate(-28.544 -9.103)"/><path class="cls-2" d="M193.748,266.626" transform="translate(-28.544 -9.103)"/><line class="cls-2" x1="393.15" y1="273.698" x2="425.166" y2="261.651"/><path class="cls-3" d="M520.975,312.038a352,352,0,0,0-54.95-.126c-83.785,6.528-134.631,43.255-157.34,64.394a1.848,1.848,0,0,0-.235.226c-.329.307-.649.606-.969.913-.781.751-1.826,1.754-2.673,2.577-.329.316-.64.624-.95.931v.018c-.2.19-.386.38-.574.57-.1.108-.207.208-.283.28a.514.514,0,0,1-.1.1,1.091,1.091,0,0,0-.1-.109c-.282-.289-.574-.587-.884-.886-1.336-1.347-2.833-2.8-4.489-4.349a.551.551,0,0,1-.085-.072c-22.548-21.085-73.5-58.119-157.669-64.693a351.028,351.028,0,0,0-54.968.109l19.809-50.651a355.883,355.883,0,0,1,46.434,7.866,292.778,292.778,0,0,1,37.633,11.718c73.819,28.689,104.413,77.8,114.3,98.065,9.947-20.344,40.579-69.349,114.294-97.984a293.132,293.132,0,0,1,37.615-11.7,353.046,353.046,0,0,1,46.377-7.848Z" transform="translate(-28.544 -9.103)"/><path class="cls-3" d="M577.15,328.254v68.4A1002.778,1002.778,0,0,0,459.7,375.549c-54.468-6.315-115.584-7.809-154.344,8.492-.311.114-2.043.868-2.413,1.039-.074-.029-2.532-1.11-2.606-1.138-38.76-16.316-99.9-14.808-154.388-8.506A1003.753,1003.753,0,0,0,28.544,396.559V328.154a418.109,418.109,0,0,1,50.337-9.345,348.342,348.342,0,0,1,60.332-2.305c84.907,4.282,136.666,40.895,158.119,60a.381.381,0,0,0,.089.072q2.487,2.325,4.486,4.352c.311.3.607.6.888.882.029.043.074.071.1.114a.387.387,0,0,0,.1-.114c.282-.27.563-.555.859-.839v-.014q2.066-2.07,4.59-4.424a1.753,1.753,0,0,1,.236-.228C330.333,357.157,382,320.871,466.5,316.6a348.155,348.155,0,0,1,60.316,2.3A423.911,423.911,0,0,1,577.15,328.254Z" transform="translate(-28.544 -9.103)"/><path class="cls-3" d="M319.86,70.906v23.65c7.967-7.592,13.582-3.076,19.631,3.435V74.012L363.9,83.024l.517-1.095c-6.695-3.128-13.257-6.575-20.142-9.253-3.671-1.428-4.865-3.224-4.694-6.875.291-6.2.081-12.417.081-19.49l90.809,36.81c-3,1.638-4.489,2.647-6.13,3.321-13.906,5.7-27.8,11.447-41.8,16.924-3.17,1.24-4.334,2.778-4.286,6.075.189,13,.111,26.011.064,39.017-.022,5.96-1.825,7.315-7.8,6.481-34.734-4.851-69.577-6.964-104.612-3.55-9.829.957-19.641,2.094-29.454,3.2-6.6.744-8.165-.479-8.181-6.862q-.057-21.851-.012-43.7c0-8.533,3.674-14.624,11.763-18.854,23.315-12.19,48.2-16.759,74.477-15.346A40.6,40.6,0,0,1,319.86,70.906Z" transform="translate(-28.544 -9.103)"/><path class="cls-3" d="M221.071,102.068c-14.567-5.959-28.19-11.33-41.567-17.219-2.052-.9-2.98-4.191-4.382-6.4-.162-.255-.037-.682-.034-1.029.132-15.543-2.2-13.272,13.274-19.611,35.94-14.721,71.86-29.493,107.953-43.861,3.736-1.487,9.16-1.737,12.829-.288,38.484,15.2,82.9,33.126,121.247,48.659.662.268-.1,6.027-.1,6.027s-10.159-3.707-12.152-4.515q-53.265-21.6-106.533-43.194c-2.274-.922-4.615-1.694-6.884-2.521-3.928,8.046-1.989,13.123,5.877,16.344,9.224,3.777,9.223,3.777,9.217,13.759,0,5.528,0,11.056,0,16.974-5.757-.386-11.072-.761-16.39-1.094-23.235-1.457-45.018,3.387-65.737,13.491C227.419,82.6,220.149,89.169,221.071,102.068Z" transform="translate(-28.544 -9.103)"/><path class="cls-4" d="M130.612,223.572c-11.159-4.722-22.341-9.391-33.464-14.188-4.779-2.062-9.545-4.2-14.12-6.641-6.6-3.524-8.853-9.938-6.006-16.077,3.678-7.927,12.782-9.531,19.287-2.868,8.3,8.5,16.1,17.458,24.032,26.283,3.721,4.138,7.26,8.427,10.882,12.648Z" transform="translate(-28.544 -9.103)"/><path class="cls-5" d="M104.944,180.348c-7.771-6.915-16.51-14.456-24.946-22.3a143.689,143.689,0,0,1-12.149-12.985c-3.932-4.686-4.12-10.407-.994-14.865,2.872-4.1,6.945-5.629,11.929-4.721,5.392.982,7.721,5.084,9.4,9.415,4.5,11.623,8.793,23.323,13.119,35.008C102.758,173.839,104.068,177.826,104.944,180.348Z" transform="translate(-28.544 -9.103)"/><path class="cls-6" d="M152.764,239.951c-12.388,6.775-24.341,10.986-37.763,9.988-5.362-.4-9.377-2.859-11.246-7.8-1.951-5.162-1.02-10.045,3.007-13.974,3.862-3.766,8.7-4.264,13.622-2.191C130.961,230.422,141.455,235.054,152.764,239.951Z" transform="translate(-28.544 -9.103)"/><path class="cls-7" d="M103.819,90.821q0-6.292,0-12.585c.013-10.555-.034-21.11.069-31.665.065-6.589,3.525-11.745,8.19-12.616,7.99-1.493,14.978,5.619,12.045,13.1-5.812,14.822-12.363,29.376-18.609,44.04Z" transform="translate(-28.544 -9.103)"/><path class="cls-8" d="M95.1,135.848c-5.608-14.4-11.256-28.788-16.8-43.211-1.711-4.449-1.385-8.8,2.3-12.271,2.843-2.675,6.373-3.922,10.363-2.426,4.9,1.836,6.814,5.8,7.127,10.424a115.945,115.945,0,0,1,.024,13.712c-.571,11.168-1.339,22.327-2.027,33.49Z" transform="translate(-28.544 -9.103)"/><path class="cls-9" d="M127.36,55.49c5.064-13.346,9.947-26.76,15.274-40.009,2.435-6.058,8.415-7.957,13.53-5.021,5.381,3.09,6.665,9.485,2.11,14.639-6.875,7.779-14.3,15.111-21.565,22.57-2.76,2.835-5.712,5.5-8.577,8.238Z" transform="translate(-28.544 -9.103)"/><path class="cls-10" d="M470.966,223.572c11.158-4.722,22.341-9.391,33.464-14.188,4.779-2.062,9.545-4.2,14.12-6.641,6.6-3.524,8.853-9.938,6.006-16.077-3.678-7.927-12.782-9.531-19.287-2.868-8.3,8.5-16.1,17.458-24.032,26.283-3.721,4.138-7.26,8.427-10.882,12.648Z" transform="translate(-28.544 -9.103)"/><path class="cls-11" d="M496.634,180.348c7.771-6.915,16.51-14.456,24.946-22.3a143.689,143.689,0,0,0,12.149-12.985c3.932-4.686,4.12-10.407.994-14.865-2.873-4.1-6.945-5.629-11.929-4.721-5.392.982-7.721,5.084-9.4,9.415-4.5,11.623-8.793,23.323-13.119,35.008C498.82,173.839,497.51,177.826,496.634,180.348Z" transform="translate(-28.544 -9.103)"/><path class="cls-12" d="M448.814,239.951c12.388,6.775,24.341,10.986,37.763,9.988,5.362-.4,9.377-2.859,11.246-7.8,1.951-5.162,1.02-10.045-3.007-13.974-3.862-3.766-8.7-4.264-13.622-2.191C470.617,230.422,460.123,235.054,448.814,239.951Z" transform="translate(-28.544 -9.103)"/><path class="cls-13" d="M497.759,90.821q0-6.292,0-12.585c-.013-10.555.034-21.11-.069-31.665-.065-6.589-3.525-11.745-8.19-12.616-7.99-1.493-14.979,5.619-12.045,13.1,5.812,14.822,12.363,29.376,18.609,44.04Z" transform="translate(-28.544 -9.103)"/><path class="cls-14" d="M506.48,135.848c5.608-14.4,11.256-28.788,16.8-43.211,1.71-4.449,1.385-8.8-2.3-12.271-2.843-2.675-6.373-3.922-10.363-2.426-4.9,1.836-6.814,5.8-7.127,10.424a115.945,115.945,0,0,0-.024,13.712c.571,11.168,1.339,22.327,2.027,33.49Z" transform="translate(-28.544 -9.103)"/><path class="cls-15" d="M474.218,55.49c-5.064-13.346-9.947-26.76-15.274-40.009-2.435-6.058-8.415-7.957-13.53-5.021-5.381,3.09-6.666,9.485-2.11,14.639,6.875,7.779,14.3,15.111,21.565,22.57,2.76,2.835,5.712,5.5,8.577,8.238Z" transform="translate(-28.544 -9.103)"/><path class="cls-16" d="M1105.557,105.686a19.378,19.378,0,0,0,6.232-.862,8.472,8.472,0,0,0,3.994-2.716,11.623,11.623,0,0,0,2.135-4.771,31.745,31.745,0,0,0,.655-6.891h2.411v36.177h-2.411a35.451,35.451,0,0,0-.586-6.891,11.542,11.542,0,0,0-2.066-4.837,9.175,9.175,0,0,0-4-2.915,17.475,17.475,0,0,0-6.369-.994v29.948a39.045,39.045,0,0,0,.551,7.223,11.127,11.127,0,0,0,1.892,4.637,7.1,7.1,0,0,0,3.548,2.519,17.5,17.5,0,0,0,5.441.728,17.1,17.1,0,0,0,6.2-.994,9.442,9.442,0,0,0,4.27-3.379,19.037,19.037,0,0,0,2.754-6.294,72.1,72.1,0,0,0,1.723-9.74h2.616l-1.032,26.105H1090.75V156.7a11.07,11.07,0,0,0,3.89-.8,4.767,4.767,0,0,0,2.308-2.253,12.579,12.579,0,0,0,1.1-4.5q.274-2.915.276-7.554V79.845q0-4.636-.241-7.487a14.631,14.631,0,0,0-.965-4.505,4.089,4.089,0,0,0-2.1-2.253,13.123,13.123,0,0,0-3.58-.861V59.7h39.807l.62,23.322h-2.411a47.422,47.422,0,0,0-1.343-8.679,14.553,14.553,0,0,0-2.548-5.367,8.531,8.531,0,0,0-4.1-2.783,19.815,19.815,0,0,0-5.993-.8h-8.746q-1.172,0-1.17,2.253Z" transform="translate(-28.544 -9.103)"/><path class="cls-16" d="M1140.268,161.739V156.7a14.6,14.6,0,0,0,4.235-.728,4.638,4.638,0,0,0,2.514-2.253,12.434,12.434,0,0,0,1.2-4.506,73.772,73.772,0,0,0,.309-7.619V79.845q0-4.636-.24-7.487a14.66,14.66,0,0,0-.965-4.505,4.089,4.089,0,0,0-2.1-2.253,13.141,13.141,0,0,0-3.58-.861V59.7h24.174a18.635,18.635,0,0,1,11.465,3.975,33.612,33.612,0,0,1,9.092,11,63.561,63.561,0,0,1,5.957,16.7,97.847,97.847,0,0,1,2.135,21.07,92.893,92.893,0,0,1-2,19.943,57.183,57.183,0,0,1-5.613,15.57,30.648,30.648,0,0,1-8.643,10.138,18.362,18.362,0,0,1-11.019,3.644ZM1156.934,66.2q-1.171,0-1.171,2.253v71.69q0,15.106,10.262,15.107,9.435,0,14.462-10.8t5.027-31.737a125.253,125.253,0,0,0-1.377-19.613,61.378,61.378,0,0,0-3.959-14.576,25.172,25.172,0,0,0-6.234-9.144,12.243,12.243,0,0,0-8.264-3.18Z" transform="translate(-28.544 -9.103)"/><path class="cls-16" d="M1247.429,120.66a140.135,140.135,0,0,1-1.068,18.419,48.407,48.407,0,0,1-3.444,13.251,19.249,19.249,0,0,1-6.163,8.018,15.31,15.31,0,0,1-9.16,2.716,19.41,19.41,0,0,1-8.885-1.922,15.451,15.451,0,0,1-6.336-6.359,35.645,35.645,0,0,1-3.788-11.6,105.588,105.588,0,0,1-1.239-17.624V90.579q0-9.8-.242-15.107a22.025,22.025,0,0,0-1.411-7.818,4.462,4.462,0,0,0-2.238-2.319,9.808,9.808,0,0,0-3.754-.6V59.7h23.485v5.036a11.235,11.235,0,0,0-3.788.53,4.186,4.186,0,0,0-2.272,2.651,25.476,25.476,0,0,0-1.24,7.618q-.276,5.236-.275,15.041v36.044a88.489,88.489,0,0,0,.722,11.992,32.27,32.27,0,0,0,2.376,8.879,13.094,13.094,0,0,0,4.3,5.5,11.063,11.063,0,0,0,6.509,1.856q6.885,0,10.33-7.355t3.444-21.667V93.892q0-11.793-.482-17.89t-1.791-8.613a4.357,4.357,0,0,0-2.41-2.186,11.877,11.877,0,0,0-3.582-.464V59.7H1255v5.036a8.543,8.543,0,0,0-3.616.662,4.836,4.836,0,0,0-2.238,2.916A32.23,32.23,0,0,0,1247.773,77q-.346,5.9-.344,16.9Z" transform="translate(-28.544 -9.103)"/><path class="cls-16" d="M1303.763,59.7h1.929l.62,30.478h-2.549q-1.515-11.658-5.854-18.286t-10.468-6.626a10.542,10.542,0,0,0-7.506,3.18,24.694,24.694,0,0,0-5.578,9.144,67.555,67.555,0,0,0-3.479,14.577,141.568,141.568,0,0,0-1.2,19.478q0,21.338,4.615,32.8t13.36,11.462q13.292,0,17.079-27.165h2.824v33h-2.41l-1.584-10.468q-7.231,11.795-17.493,11.793a17.058,17.058,0,0,1-10.572-3.578,28.836,28.836,0,0,1-8.057-10.137,60.636,60.636,0,0,1-5.165-15.968,110.2,110.2,0,0,1-1.826-20.937,115.863,115.863,0,0,1,1.928-22,69.358,69.358,0,0,1,5.407-17.094,31.681,31.681,0,0,1,8.333-11.065,16.689,16.689,0,0,1,10.709-3.909,14.57,14.57,0,0,1,7.782,2.253,35.4,35.4,0,0,1,7.921,7.289Z" transform="translate(-28.544 -9.103)"/><path class="cls-16" d="M1345.154,124.768h-18.389q-1.172,5.436-2,9.607t-1.343,7.222q-.516,3.049-.723,5.168t-.207,3.445q0,3.713,1.239,5.1t4.133,1.39v5.036h-16.735V156.7a10.351,10.351,0,0,0,2.72-1.059,6.544,6.544,0,0,0,2-1.856,11.872,11.872,0,0,0,1.516-3.114,45.735,45.735,0,0,0,1.273-4.7L1336.545,59.7h2.961l15.634,74.738q1.584,7.423,2.754,11.86a38.127,38.127,0,0,0,2.274,6.692,6.189,6.189,0,0,0,2.375,2.915,6.554,6.554,0,0,0,3.066.664v5.167h-22.453v-5.167q3.651,0,5.028-1.326t1.377-4.372q0-1.324-.069-2.453t-.241-2.451q-.172-1.323-.482-2.982t-.792-3.909Zm-17.012-6.626h15.7L1336.2,79.05Z" transform="translate(-28.544 -9.103)"/><path class="cls-16" d="M1413.817,85.014h-2.824a62.366,62.366,0,0,0-.964-9.542,17.443,17.443,0,0,0-2.17-6.029,8,8,0,0,0-3.546-3.114,12.772,12.772,0,0,0-5.1-.928,33.515,33.515,0,0,0-4.1.2,5.843,5.843,0,0,0-2.376.729,2.433,2.433,0,0,0-1.067,1.258,6.28,6.28,0,0,0-.241,1.922v70.9q0,4.244.31,7.289a15.011,15.011,0,0,0,1.239,4.97,6.508,6.508,0,0,0,2.687,2.914,10.376,10.376,0,0,0,4.648,1.126v5.036h-26.033V156.7a10.631,10.631,0,0,0,4.684-1.126,6.463,6.463,0,0,0,2.72-2.914,14.962,14.962,0,0,0,1.239-4.97q.31-3.047.311-7.289V69.509a6.307,6.307,0,0,0-.242-1.922,2.566,2.566,0,0,0-.964-1.258A4.6,4.6,0,0,0,1380,65.6a24.406,24.406,0,0,0-3.512-.2,29.536,29.536,0,0,0-4.993.4,6.761,6.761,0,0,0-4,2.32,14.479,14.479,0,0,0-2.72,5.9,47.663,47.663,0,0,0-1.1,11h-2.548V59.7h52Z" transform="translate(-28.544 -9.103)"/><path class="cls-16" d="M1432.9,136.694q0,6.629.275,10.469a22.222,22.222,0,0,0,1.067,5.963,4.565,4.565,0,0,0,2.273,2.782,11.061,11.061,0,0,0,3.891.8v5.036h-22.314V156.7a10.087,10.087,0,0,0,3.891-.861,4.959,4.959,0,0,0,2.307-2.716,18.948,18.948,0,0,0,1.1-5.632q.274-3.643.275-9.872V83.82q0-5.565-.24-9.209a23.277,23.277,0,0,0-.965-5.765,5.407,5.407,0,0,0-2.1-2.981,8.686,8.686,0,0,0-3.58-1.126V59.7h20.936v5.036a6.9,6.9,0,0,0-3.546,1.059,5.861,5.861,0,0,0-2.067,3.115,24.936,24.936,0,0,0-.964,6.03q-.243,3.844-.24,9.805Z" transform="translate(-28.544 -9.103)"/><path class="cls-16" d="M1475.179,58.378a17.948,17.948,0,0,1,11.3,4.108,35.384,35.384,0,0,1,9.09,11.263,66.665,66.665,0,0,1,6.062,16.83,94.269,94.269,0,0,1,2.2,20.938,86.9,86.9,0,0,1-2.239,20.141,64.4,64.4,0,0,1-6.095,16.366,35.148,35.148,0,0,1-9.09,11,17.61,17.61,0,0,1-22.452,0,35.137,35.137,0,0,1-9.091-11,64.323,64.323,0,0,1-6.1-16.366,86.787,86.787,0,0,1-2.238-20.141,94.21,94.21,0,0,1,2.2-20.938,66.588,66.588,0,0,1,6.061-16.83,35.373,35.373,0,0,1,9.091-11.263A17.941,17.941,0,0,1,1475.179,58.378Zm0,97.4a12.315,12.315,0,0,0,8.161-3.049,24.352,24.352,0,0,0,6.2-8.746,56.6,56.6,0,0,0,3.959-13.847,109.909,109.909,0,0,0,1.377-18.221,121.063,121.063,0,0,0-1.377-19.149,63.776,63.776,0,0,0-3.926-14.576,25.443,25.443,0,0,0-6.2-9.276,11.968,11.968,0,0,0-16.39,0,25.42,25.42,0,0,0-6.2,9.276,63.625,63.625,0,0,0-3.925,14.576,120.938,120.938,0,0,0-1.378,19.149,109.8,109.8,0,0,0,1.378,18.221,57.517,57.517,0,0,0,3.925,13.847,23.773,23.773,0,0,0,6.2,8.746A12.444,12.444,0,0,0,1475.179,155.777Z" transform="translate(-28.544 -9.103)"/><path class="cls-16" d="M1554.657,163.064,1521.945,80.11h-.276v56.584q0,6.629.24,10.469a23.985,23.985,0,0,0,.966,5.963,4.5,4.5,0,0,0,2.065,2.782,9.288,9.288,0,0,0,3.547.8v5.036h-18.525V156.7a10.077,10.077,0,0,0,3.89-.861,4.965,4.965,0,0,0,2.308-2.716,18.984,18.984,0,0,0,1.1-5.632q.274-3.643.276-9.872V83.82q0-5.565-.241-9.209a23.277,23.277,0,0,0-.965-5.765,5.407,5.407,0,0,0-2.1-2.981,8.676,8.676,0,0,0-3.58-1.126V59.7h13.636l30.1,77.256h.275V84.748q0-6.49-.24-10.4a24.233,24.233,0,0,0-.964-6.029,4.522,4.522,0,0,0-2.067-2.783,9.367,9.367,0,0,0-3.546-.8V59.7h18.526v5.036a10.176,10.176,0,0,0-3.892.861,4.976,4.976,0,0,0-2.307,2.717,19.132,19.132,0,0,0-1.1,5.7q-.276,3.711-.275,9.8v79.244Z" transform="translate(-28.544 -9.103)"/><path class="cls-16" d="M628.926,141.586a78.318,78.318,0,0,0,.356,8.34,10.553,10.553,0,0,0,1.543,4.881,6.2,6.2,0,0,0,3.363,2.374,22.644,22.644,0,0,0,5.736.813v5.154h-28.01v-5.154a14.12,14.12,0,0,0,4.47-.813,5.247,5.247,0,0,0,2.651-2.305,11.767,11.767,0,0,0,1.266-4.612,76.339,76.339,0,0,0,.317-7.729V79.341q0-4.746-.277-7.662a13.651,13.651,0,0,0-1.108-4.611,4.43,4.43,0,0,0-2.414-2.3,16.646,16.646,0,0,0-4.114-.882V58.728H658.44l.87,25.9h-2.769a53.207,53.207,0,0,0-1.5-9.56,15.175,15.175,0,0,0-2.888-5.9,9.946,9.946,0,0,0-4.708-3.052,24.509,24.509,0,0,0-7.121-.881H630.271q-1.347,0-1.345,2.306V108.5a24.971,24.971,0,0,0,6.528-.746,9.427,9.427,0,0,0,4.51-2.644,12.53,12.53,0,0,0,2.73-5.154,36.884,36.884,0,0,0,1.187-8.408h2.769v39.734h-2.769a50.911,50.911,0,0,0-1.267-8.543,12.473,12.473,0,0,0-2.571-5.289,9.417,9.417,0,0,0-4.392-2.712,23.573,23.573,0,0,0-6.725-.814Z" transform="translate(-28.544 -9.103)"/><path class="cls-16" d="M698.794,57.372a22.221,22.221,0,0,1,12.977,4.2A37.4,37.4,0,0,1,722.215,73.1a63.542,63.542,0,0,1,6.964,17.222,86.356,86.356,0,0,1,2.532,21.427,79.67,79.67,0,0,1-2.571,20.612,61.592,61.592,0,0,1-7,16.748,37.329,37.329,0,0,1-10.445,11.256,22.176,22.176,0,0,1-25.794,0,37.292,37.292,0,0,1-10.445-11.256,61.56,61.56,0,0,1-7-16.748,79.583,79.583,0,0,1-2.572-20.612,86.309,86.309,0,0,1,2.532-21.427A63.478,63.478,0,0,1,675.373,73.1a37.371,37.371,0,0,1,10.444-11.527A22.221,22.221,0,0,1,698.794,57.372Zm0,99.673a15.213,15.213,0,0,0,9.377-3.119,25.222,25.222,0,0,0,7.121-8.95,53.168,53.168,0,0,0,4.55-14.171,100.524,100.524,0,0,0,1.582-18.647,110.686,110.686,0,0,0-1.582-19.595,59.783,59.783,0,0,0-4.51-14.917,26.115,26.115,0,0,0-7.122-9.493,15,15,0,0,0-18.832,0,26.091,26.091,0,0,0-7.121,9.493,59.657,59.657,0,0,0-4.51,14.917,110.4,110.4,0,0,0-1.583,19.6,100.263,100.263,0,0,0,1.583,18.647,54.088,54.088,0,0,0,4.51,14.171,24.637,24.637,0,0,0,7.121,8.95A15.376,15.376,0,0,0,698.794,157.045Z" transform="translate(-28.544 -9.103)"/><path class="cls-16" d="M787.259,84.9q0,10.851-3.8,18.037a19.148,19.148,0,0,1-12.106,9.628l17.486,36.073a15.052,15.052,0,0,0,10.841,9.356v5.154H784.411l-19.387-42.582a25.125,25.125,0,0,0-1.938-3.661,8.642,8.642,0,0,0-1.9-2.1,5.039,5.039,0,0,0-2.295-.949,20.581,20.581,0,0,0-3.125-.2v28.207a76.682,76.682,0,0,0,.356,8.2,11.422,11.422,0,0,0,1.5,4.95,5.609,5.609,0,0,0,3.323,2.373,21.891,21.891,0,0,0,5.736.61v5.154H738.755v-5.154a14.108,14.108,0,0,0,4.47-.813,5.247,5.247,0,0,0,2.651-2.305,11.75,11.75,0,0,0,1.266-4.612,76.339,76.339,0,0,0,.317-7.729V79.341q0-4.746-.277-7.662a13.6,13.6,0,0,0-1.109-4.611,4.425,4.425,0,0,0-2.413-2.3,16.635,16.635,0,0,0-4.114-.882V58.728h24.846q10.918,0,16.893,6.916T787.259,84.9Zm-31.492,21.969h5.618q7.911,0,11.75-4.949t3.838-16.341q0-10.984-3.047-15.731T764.392,65.1h-7.28q-1.345,0-1.345,2.3Z" transform="translate(-28.544 -9.103)"/><path class="cls-16" d="M857.84,84.629H854.6a57.122,57.122,0,0,0-1.107-9.763A16.7,16.7,0,0,0,851,68.695a8.961,8.961,0,0,0-4.075-3.186,16.247,16.247,0,0,0-5.856-.95,43.211,43.211,0,0,0-4.708.2,7.294,7.294,0,0,0-2.73.746A2.587,2.587,0,0,0,832.4,66.8a5.736,5.736,0,0,0-.277,1.966v72.552a67.043,67.043,0,0,0,.356,7.458,14.025,14.025,0,0,0,1.424,5.085,7.03,7.03,0,0,0,3.086,2.984,13.126,13.126,0,0,0,5.341,1.152v5.154h-29.91v-5.154a13.433,13.433,0,0,0,5.381-1.152,6.98,6.98,0,0,0,3.126-2.984,14.025,14.025,0,0,0,1.424-5.085,67.043,67.043,0,0,0,.356-7.458V68.763a5.786,5.786,0,0,0-.277-1.966,2.686,2.686,0,0,0-1.108-1.288,5.69,5.69,0,0,0-2.334-.746,31.473,31.473,0,0,0-4.036-.2,37.906,37.906,0,0,0-5.736.407,8.013,8.013,0,0,0-4.589,2.373,14.158,14.158,0,0,0-3.126,6.035,43.66,43.66,0,0,0-1.266,11.255h-2.928v-25.9h59.741Z" transform="translate(-28.544 -9.103)"/><path class="cls-16" d="M916.315,121.108a127.959,127.959,0,0,1-1.227,18.851,45.288,45.288,0,0,1-3.956,13.56,20.185,20.185,0,0,1-7.082,8.2,19.145,19.145,0,0,1-10.524,2.781,24.606,24.606,0,0,1-10.207-1.967,16.923,16.923,0,0,1-7.279-6.509,33.749,33.749,0,0,1-4.352-11.866,96.4,96.4,0,0,1-1.425-18.036v-35.8q0-10.034-.277-15.459t-1.622-8a4.865,4.865,0,0,0-2.571-2.374,12.554,12.554,0,0,0-4.313-.61V58.728h26.982v5.153a14.382,14.382,0,0,0-4.352.543,4.5,4.5,0,0,0-2.611,2.712,23.545,23.545,0,0,0-1.424,7.8q-.317,5.359-.317,15.392v36.886a80.618,80.618,0,0,0,.832,12.272,30.183,30.183,0,0,0,2.729,9.086,12.836,12.836,0,0,0,12.423,7.527q7.911,0,11.869-7.527t3.956-22.171V93.715q0-12.067-.554-18.307t-2.057-8.814a4.858,4.858,0,0,0-2.77-2.238,15.223,15.223,0,0,0-4.114-.475V58.728h22.947v5.153a10.878,10.878,0,0,0-4.154.678,5.094,5.094,0,0,0-2.572,2.984,29.718,29.718,0,0,0-1.582,8.882q-.4,6.036-.4,17.29Z" transform="translate(-28.544 -9.103)"/><path class="cls-16" d="M982.226,164.5,944.642,79.612h-.317v57.905q0,6.783.276,10.714a22.07,22.07,0,0,0,1.109,6.1,4.724,4.724,0,0,0,2.373,2.848,11.811,11.811,0,0,0,4.075.813v5.154H930.873v-5.154a12.818,12.818,0,0,0,4.471-.881,5.31,5.31,0,0,0,2.651-2.78,17.555,17.555,0,0,0,1.266-5.764q.315-3.727.316-10.1V83.409q0-5.7-.276-9.425a21.461,21.461,0,0,0-1.109-5.9,5.607,5.607,0,0,0-2.413-3.051,10.879,10.879,0,0,0-4.114-1.153V58.728h15.667l34.578,79.061h.316V84.358q0-6.642-.277-10.645a22.345,22.345,0,0,0-1.107-6.17,4.734,4.734,0,0,0-2.374-2.848,11.879,11.879,0,0,0-4.075-.814V58.728h21.285v5.153a12.9,12.9,0,0,0-4.471.882,5.312,5.312,0,0,0-2.65,2.78,17.727,17.727,0,0,0-1.266,5.831q-.318,3.8-.317,10.035V164.5Z" transform="translate(-28.544 -9.103)"/><path class="cls-16" d="M1019.257,105.784a24.826,24.826,0,0,0,7.161-.881,9.845,9.845,0,0,0,4.589-2.78,11.329,11.329,0,0,0,2.454-4.882,29.109,29.109,0,0,0,.752-7.051h2.768v37.021h-2.768a32.5,32.5,0,0,0-.673-7.052,11.187,11.187,0,0,0-2.374-4.949,10.565,10.565,0,0,0-4.589-2.984,22.355,22.355,0,0,0-7.32-1.017v30.648a35.68,35.68,0,0,0,.634,7.391,10.754,10.754,0,0,0,2.175,4.746,8.215,8.215,0,0,0,4.075,2.577,22.446,22.446,0,0,0,6.252.745,21.836,21.836,0,0,0,7.12-1.017,10.737,10.737,0,0,0,4.906-3.458,18.506,18.506,0,0,0,3.166-6.441,66.548,66.548,0,0,0,1.978-9.968h3.006l-1.186,26.716h-49.138v-5.154a14.108,14.108,0,0,0,4.47-.813,5.25,5.25,0,0,0,2.652-2.305,11.784,11.784,0,0,0,1.266-4.612,76.382,76.382,0,0,0,.316-7.729V79.341q0-4.746-.277-7.662a13.58,13.58,0,0,0-1.108-4.611,4.428,4.428,0,0,0-2.413-2.3,16.644,16.644,0,0,0-4.115-.882V58.728h45.735l.712,23.867h-2.769a43.755,43.755,0,0,0-1.543-8.882,14.258,14.258,0,0,0-2.927-5.492,9.918,9.918,0,0,0-4.708-2.848,25.309,25.309,0,0,0-6.884-.814H1020.6q-1.347,0-1.346,2.306Z" transform="translate(-28.544 -9.103)"/><path class="cls-16" d="M685.469,252.509a34.634,34.634,0,0,1-16.7,4.5c-15.185,0-25.512-11.359-25.512-26.682s10.4-26.681,25.816-26.681c6.3,0,11.009,1.143,15.261,3.659l.3,11.053H680l-1.9-11.282,4.708,1.525v4.345c-4.1-3.811-8.276-5.489-13.136-5.489-10.63,0-18.45,8.31-18.45,22.87,0,14.485,7.137,22.794,18.982,22.794,4.328,0,7.517-.991,11.845-3.126l-3.417,3.583v-4.421c0-5.794-.076-11.74-.228-17.534H685.7c-.152,5.718-.228,11.588-.228,17.534Zm-14.957-17.838v-3.05h19.741v3.05l-8.353.762h-1.518Z" transform="translate(-28.544 -9.103)"/><path class="cls-16" d="M704.6,242.37c0,6.785,1.974,9.148,6.15,9.148,3.872,0,7.82-1.906,11.617-5.717h1.594v3.887H720.09l2.657-1.143c-4.328,5.87-9.491,8.309-14.426,8.309-6.074,0-9.871-3.659-9.8-13.721l.228-20.126,1.6,1.448-7.062-1.524v-2.668l10.934-.992.759.763-.379,10.672Zm18.07,14.1-1.063-8.92.228-24.547,1.6,1.448-7.062-1.524v-2.668l10.782-.992.759.763-.227,10.672V253.5l-1.823-1.829,7.062,1.524v2.668Z" transform="translate(-28.544 -9.103)"/><path class="cls-16" d="M744,255.863c.152-3.43.228-11.282.228-16.009v-3.583c0-4.192-.076-6.555-.228-9.6l-6.226-.687v-2.667l11.465-4.574,1.139.762-.228,10.292v10.062c0,4.727.076,12.579.228,16.009ZM755.7,253.2v2.668H738.233V253.2l8.353-1.524H748.1Zm-13.591-47.874a5.016,5.016,0,1,1,5.011,4.8A4.736,4.736,0,0,1,742.106,205.321Z" transform="translate(-28.544 -9.103)"/><path class="cls-16" d="M778.778,252.661c3.872,0,6.53-1.677,10.022-6.175l.683,2.059c-2.884,5.184-6.453,8.309-12.376,8.309-9.263,0-15.489-7.7-15.489-18.753,0-11.587,6.834-19.363,16.173-19.363,4.328,0,8.048,1.753,12,7.7l-.759,1.981c-4.4-4.269-7.441-5.488-10.326-5.488-5.7,0-10.63,4.574-10.63,15.017C768.072,248.088,772.628,252.661,778.778,252.661Zm21.108.534v2.668l-11.617.763-.759-7.776V226.514l.227-.992v-19.21l-6.529-.762v-2.668l11.616-3.431,1.064.609-.3,10.826v44.977l-1.215-3.887Z" transform="translate(-28.544 -9.103)"/><path class="cls-16" d="M816.208,235.891a82.623,82.623,0,0,1,11.77-3.2v2.745a68.585,68.585,0,0,0-10.175,3.049c-6.833,2.668-7.593,5.565-7.593,7.776,0,4.04,2.658,5.641,6.15,5.641,2.658,0,4.176-.991,8.959-4.421l1.52-1.144,1.062,1.6-2.2,2.211c-4.555,4.574-7.137,6.708-11.768,6.708-5.543,0-10.174-3.2-10.174-9.529C803.757,243.056,806.034,239.626,816.208,235.891Zm8.732,12.959V231.469c0-7.471-2.126-9.3-7.137-9.3a17.609,17.609,0,0,0-6.833,1.372l3.037-2.362-1.975,6.555c-.683,2.211-1.822,3.431-3.872,3.431a3.106,3.106,0,0,1-3.417-3.05c1.444-5.793,7.062-9.376,14.654-9.376,7.821,0,11.618,3.583,11.618,13.188v16.162c0,3.43,1.062,4.649,2.808,4.649a3.754,3.754,0,0,0,2.962-1.676l1.519,1.676c-1.823,2.9-3.873,3.889-6.454,3.889C827.674,256.626,824.94,253.576,824.94,248.85Z" transform="translate(-28.544 -9.103)"/><path class="cls-16" d="M847.186,255.863c.152-3.43.227-11.282.227-16.009v-3.583c0-4.192-.075-6.555-.227-9.6l-6.075-.687v-2.667l10.327-4.574,1.139.762.91,8.843v11.511c0,4.727.076,12.579.229,16.009ZM859.03,253.2v2.668H841.567V253.2l8.352-1.524h1.519Zm17.539-20.354v7.013c0,4.879.077,12.579.229,16.009h-6.53c.152-3.43.227-11.13.227-16.009v-6.4c0-7.09-1.822-9.377-6.377-9.377-3.8,0-6.91,1.525-11.238,5.26h-1.594V225.9h3.872l-3.264,1.373c3.568-4.8,9.642-8.538,15.033-8.538C873.457,218.738,876.569,222.778,876.569,232.841Zm-2.049,18.83,7.592,1.524v2.668H864.649V253.2L873,251.671Z" transform="translate(-28.544 -9.103)"/><path class="cls-16" d="M893.956,237.187c0,9.6,5.087,14.865,12.224,14.865a12.239,12.239,0,0,0,10.63-5.947l1.822.916c-2.05,6.327-6.909,9.833-14.047,9.833-10.4,0-16.932-7.318-16.932-18.982,0-11.969,8.353-19.134,17.388-19.134,6.758,0,12.376,4.193,13.363,9.834a3.142,3.142,0,0,1-3.417,2.821c-2.506,0-3.492-1.525-4.023-3.431l-1.9-6.708,3.493,2.82a15.742,15.742,0,0,0-7.289-1.906C898.663,222.168,893.956,227.429,893.956,237.187Z" transform="translate(-28.544 -9.103)"/><path class="cls-16" d="M956.138,233.3a15.409,15.409,0,0,1-.532,4.269H927.589v-3.2H945.66c3.645,0,4.48-1.753,4.48-3.887a8.444,8.444,0,0,0-8.428-8.31c-4.859,0-10.479,4.117-10.479,15.019,0,9.681,4.86,14.865,12.453,14.865,4.859,0,7.9-2.211,10.629-5.413l1.747,1.373a15.413,15.413,0,0,1-14.5,8.842c-10.174,0-16.78-7.089-16.78-18.677,0-11.663,7.9-19.439,17.311-19.439C949.912,218.738,956.138,224.074,956.138,233.3Z" transform="translate(-28.544 -9.103)"/><path class="cls-16" d="M993.644,235.891a82.557,82.557,0,0,1,11.768-3.2v2.745a68.621,68.621,0,0,0-10.175,3.049c-6.833,2.668-7.592,5.565-7.592,7.776,0,4.04,2.657,5.641,6.15,5.641,2.657,0,4.176-.991,8.96-4.421l1.517-1.144,1.064,1.6-2.2,2.211c-4.556,4.574-7.137,6.708-11.769,6.708-5.543,0-10.175-3.2-10.175-9.529C981.19,243.056,983.469,239.626,993.644,235.891Zm8.731,12.959V231.469c0-7.471-2.126-9.3-7.138-9.3a17.615,17.615,0,0,0-6.833,1.372l3.037-2.362-1.974,6.555c-.683,2.211-1.822,3.431-3.872,3.431a3.106,3.106,0,0,1-3.417-3.05c1.442-5.793,7.061-9.376,14.654-9.376,7.82,0,11.617,3.583,11.617,13.188v16.162c0,3.43,1.063,4.649,2.81,4.649a3.755,3.755,0,0,0,2.961-1.676l1.518,1.676c-1.822,2.9-3.872,3.889-6.454,3.889C1005.108,256.626,1002.375,253.576,1002.375,248.85Z" transform="translate(-28.544 -9.103)"/><path class="cls-16" d="M1024.62,255.863c.152-3.43.229-11.282.229-16.009v-3.583c0-4.192-.077-6.555-.229-9.6l-6.074-.687v-2.667l10.326-4.574,1.139.762.912,8.843v11.511c0,4.727.075,12.579.227,16.009Zm11.845-2.668v2.668H1019V253.2l8.352-1.524h1.518Zm17.54-20.354v7.013c0,4.879.075,12.579.227,16.009h-6.53c.152-3.43.229-11.13.229-16.009v-6.4c0-7.09-1.823-9.377-6.379-9.377-3.8,0-6.909,1.525-11.237,5.26h-1.594V225.9h3.872l-3.265,1.373c3.568-4.8,9.643-8.538,15.033-8.538C1050.892,218.738,1054.005,222.778,1054.005,232.841Zm-2.051,18.83,7.593,1.524v2.668h-17.463V253.2l8.352-1.524Z" transform="translate(-28.544 -9.103)"/><path class="cls-16" d="M1082.476,252.661c3.872,0,6.529-1.677,10.022-6.175l.684,2.059c-2.886,5.184-6.454,8.309-12.376,8.309-9.264,0-15.491-7.7-15.491-18.753,0-11.587,6.834-19.363,16.173-19.363,4.328,0,8.049,1.753,12,7.7l-.759,1.981c-4.4-4.269-7.441-5.488-10.327-5.488-5.694,0-10.629,4.574-10.629,15.017C1071.77,248.088,1076.325,252.661,1082.476,252.661Zm21.107.534v2.668l-11.616.763-.76-7.776V226.514l.228-.992v-19.21l-6.53-.762v-2.668l11.617-3.431,1.063.609-.3,10.826v44.977l-1.215-3.887Z" transform="translate(-28.544 -9.103)"/><path class="cls-16" d="M1165.612,248.316v4.193l-4.707,1.067,1.9-11.282h4.632l-.3,11.054a31.844,31.844,0,0,1-15.337,3.659c-15.338,0-25.664-11.13-25.664-26.682,0-15.246,10.781-26.681,25.588-26.681a29.233,29.233,0,0,1,14.654,3.659l.3,11.053h-4.631l-1.9-11.282,4.707,1.068v4.65c-4.328-4.041-8.58-5.337-12.224-5.337-10.251,0-18.526,8-18.526,22.87s7.44,22.87,17.994,22.87A20.975,20.975,0,0,0,1165.612,248.316Z" transform="translate(-28.544 -9.103)"/><path class="cls-16" d="M1173.962,237.948c0-12.654,8.579-19.21,17.31-19.21,8.581,0,17.313,6.556,17.313,19.21s-8.732,18.906-17.313,18.906C1182.541,256.854,1173.962,250.6,1173.962,237.948Zm27.789,0c0-10.215-3.872-15.78-10.479-15.78-6.756,0-10.477,5.565-10.477,15.78s3.721,15.476,10.477,15.476C1197.879,253.424,1201.751,248.164,1201.751,237.948Z" transform="translate(-28.544 -9.103)"/><path class="cls-16" d="M1220.807,255.863c.152-3.43.227-11.282.227-16.009v-3.583c0-4.192-.075-6.555-.227-9.6l-6.075-.687v-2.667l10.327-4.574,1.139.762.91,8.843v11.511c0,4.727.077,12.579.229,16.009Zm11.844-2.668v2.668h-17.463V253.2l8.352-1.524h1.519Zm17.539-20.354v7.013c0,4.879.077,12.579.229,16.009h-6.53c.152-3.43.227-11.13.227-16.009v-6.4c0-7.09-1.822-9.377-6.377-9.377-3.8,0-6.91,1.525-11.238,5.26h-1.594V225.9h3.872l-3.264,1.373c3.568-4.8,9.642-8.538,15.033-8.538C1247.078,218.738,1250.19,222.778,1250.19,232.841Zm-2.049,18.83,7.592,1.524v2.668h-17.462V253.2l8.351-1.524Z" transform="translate(-28.544 -9.103)"/><path class="cls-16" d="M1261.957,253.957l-.3-8.309h4.025l2.05,9-3.721-1.753V250.3a14.4,14.4,0,0,0,9.34,3.126c5.845,0,8.579-2.363,8.579-5.87,0-3.278-2.278-4.955-7.062-6.708l-3.492-1.3c-5.543-2.059-9.187-5.031-9.187-10.216,0-5.488,4.631-10.6,13.059-10.6a19.3,19.3,0,0,1,10.554,3.125l-.3,7.7h-3.8l-1.518-7.7,2.733,1.22v1.982a12.391,12.391,0,0,0-7.744-2.9c-4.708,0-7.138,2.059-7.138,5.261,0,3.429,1.9,4.726,7.062,6.632l2.277.838c7.593,2.821,10.479,6.4,10.479,11.13,0,5.642-4.936,10.825-14.655,10.825A23.062,23.062,0,0,1,1261.957,253.957Z" transform="translate(-28.544 -9.103)"/><path class="cls-16" d="M1304.1,242.37c0,6.785,1.973,9.148,6.149,9.148,3.872,0,7.821-1.906,11.617-5.717h1.6v3.887h-3.873l2.658-1.143c-4.328,5.87-9.491,8.309-14.427,8.309-6.074,0-9.87-3.659-9.794-13.721l.228-20.126,1.6,1.448-7.062-1.524v-2.668l10.934-.992.759.763-.379,10.672Zm18.07,14.1-1.063-8.92.228-24.547,1.595,1.448-7.062-1.524v-2.668l10.781-.992.76.763-.227,10.672V253.5l-1.823-1.829,7.061,1.524v2.668Z" transform="translate(-28.544 -9.103)"/><path class="cls-16" d="M1348.587,199.451l1.063.609-.3,10.826v28.968q0,8,.227,16.009h-6.529q.226-8,.227-16.009V206.312l-6.3-.762v-2.668Zm7.061,53.744v2.668h-18.677V253.2l8.579-1.524h1.519Z" transform="translate(-28.544 -9.103)"/><path class="cls-16" d="M1374.933,253.043c1.67,0,3.188-.687,5.163-2.135l1.746,2.059a10.837,10.837,0,0,1-8.808,3.887c-5.239,0-8.5-2.744-8.5-8.614,0-1.83.076-3.43.076-6.4V223.693h-6.377v-3.278l9.415-1.22-3.038,2.516,2.278-12.35h4.4l-.607,13.341v24.7C1370.681,251.365,1372.351,253.043,1374.933,253.043Zm6.225-33.314v3.964h-13.514v-3.964Z" transform="translate(-28.544 -9.103)"/><path class="cls-16" d="M1398.013,235.891a82.608,82.608,0,0,1,11.769-3.2v2.745a68.621,68.621,0,0,0-10.175,3.049c-6.833,2.668-7.592,5.565-7.592,7.776,0,4.04,2.658,5.641,6.15,5.641,2.657,0,4.176-.991,8.959-4.421l1.52-1.144,1.062,1.6-2.2,2.211c-4.556,4.574-7.137,6.708-11.769,6.708-5.543,0-10.173-3.2-10.173-9.529C1385.562,243.056,1387.839,239.626,1398.013,235.891Zm8.732,12.959V231.469c0-7.471-2.126-9.3-7.138-9.3a17.612,17.612,0,0,0-6.833,1.372l3.038-2.362-1.975,6.555c-.684,2.211-1.822,3.431-3.872,3.431a3.106,3.106,0,0,1-3.417-3.05c1.443-5.793,7.061-9.376,14.654-9.376,7.82,0,11.617,3.583,11.617,13.188v16.162c0,3.43,1.063,4.649,2.809,4.649a3.754,3.754,0,0,0,2.962-1.676l1.518,1.676c-1.822,2.9-3.873,3.889-6.454,3.889C1409.479,256.626,1406.745,253.576,1406.745,248.85Z" transform="translate(-28.544 -9.103)"/><path class="cls-16" d="M1428.99,255.863c.153-3.43.228-11.282.228-16.009v-3.583c0-4.192-.075-6.555-.228-9.6l-6.074-.687v-2.667l10.326-4.574,1.14.762.91,8.843v11.511c0,4.727.076,12.579.229,16.009Zm11.845-2.668v2.668h-17.463V253.2l8.352-1.524h1.518Zm17.539-20.354v7.013c0,4.879.076,12.579.229,16.009h-6.531c.153-3.43.228-11.13.228-16.009v-6.4c0-7.09-1.822-9.377-6.377-9.377-3.8,0-6.91,1.525-11.238,5.26h-1.594V225.9h3.872l-3.265,1.373c3.569-4.8,9.643-8.538,15.033-8.538C1455.262,218.738,1458.374,222.778,1458.374,232.841Zm-2.05,18.83,7.593,1.524v2.668h-17.463V253.2l8.352-1.524Z" transform="translate(-28.544 -9.103)"/><path class="cls-16" d="M1475.761,237.187c0,9.6,5.087,14.865,12.223,14.865a12.236,12.236,0,0,0,10.63-5.947l1.823.916c-2.05,6.327-6.91,9.833-14.047,9.833-10.4,0-16.932-7.318-16.932-18.982,0-11.969,8.353-19.134,17.388-19.134,6.758,0,12.376,4.193,13.363,9.834a3.143,3.143,0,0,1-3.417,2.821c-2.506,0-3.492-1.525-4.023-3.431l-1.9-6.708,3.492,2.82a15.742,15.742,0,0,0-7.289-1.906C1480.468,222.168,1475.761,227.429,1475.761,237.187Z" transform="translate(-28.544 -9.103)"/><path class="cls-16" d="M1503.093,269.89c.531-2.134,2.733-3.2,5.011-3.2,1.974,0,3.493.762,5.542,2.821l2.355,2.363-2.962,1.678-2.05-1.678c5.087-2.516,8.124-7.775,10.023-13.112l2.353-6.632,11.694-32.4h4.1l-13.514,35.677c-5.164,13.722-9.415,19.516-15.642,19.516C1506.282,274.922,1503.093,272.863,1503.093,269.89Zm7.744-46.35L1503.4,222.4v-2.668h18.072v2.745l-9.112,1.066Zm11.313,36.287-15.868-40.1h7.061l11.921,32.475Zm12.909-36.287-8.049-1.143v-2.668h14.882V222.4l-5.315,1.143Z" transform="translate(-28.544 -9.103)"/><path class="cls-16" d="M740.013,278.3h8.352V281.8h-.759l-7.593-.953Zm0,40.018,6.644-.953h1.265l6.2.953v2.541H740.013Zm5.695-40.018h2.657l.57,18.929v23.63h-3.227Zm.063,0H751.4l15.5,38.113h-2.152L779.435,278.3h3.354l-16.516,42.559h-3.1Zm28.855,40.018,7.593-.953h1.266l8.226.953v2.541H774.626Zm5.5-17.151V278.3h5.758c-.19,6.415-.19,13.021-.19,19.691v3.176c0,6.543,0,13.149.19,19.692h-5.948C780.131,314.447,780.131,307.841,780.131,301.171Zm2.721-22.867h8.859v2.54l-8.226.953h-.633Z" transform="translate(-28.544 -9.103)"/><path class="cls-16" d="M822.331,302.061a12.867,12.867,0,0,1-.442,3.557h-23.35V302.95H813.6c3.038,0,3.733-1.461,3.733-3.24a7.036,7.036,0,0,0-7.023-6.924c-4.05,0-8.733,3.431-8.733,12.515,0,8.066,4.05,12.387,10.378,12.387,4.05,0,6.58-1.843,8.858-4.511l1.456,1.143a12.845,12.845,0,0,1-12.086,7.369c-8.479,0-13.985-5.908-13.985-15.563,0-9.719,6.581-16.2,14.428-16.2C817.143,289.928,822.331,294.374,822.331,302.061Z" transform="translate(-28.544 -9.103)"/><path class="cls-16" d="M842.7,318.2c3.227,0,5.442-1.4,8.353-5.145l.569,1.715c-2.4,4.32-5.379,6.924-10.314,6.924-7.72,0-12.909-6.416-12.909-15.627,0-9.655,5.7-16.134,13.478-16.134,3.607,0,6.708,1.461,10,6.416L851.244,298c-3.67-3.557-6.2-4.573-8.605-4.573-4.746,0-8.86,3.811-8.86,12.514C833.779,314.384,837.576,318.2,842.7,318.2Zm17.591.445v2.223l-9.682.635-.632-6.478V296.407l.19-.826V279.574l-5.442-.636v-2.223l9.681-2.859.886.509-.253,9.02v37.478l-1.013-3.239Z" transform="translate(-28.544 -9.103)"/><path class="cls-16" d="M868.261,320.863c.127-2.858.19-9.4.19-13.34v-2.985c0-3.494-.063-5.463-.19-8l-5.189-.571v-2.224l9.555-3.811.949.635-.189,8.576v8.384c0,3.939.063,10.482.189,13.34Zm9.745-2.223v2.223H863.452V318.64l6.961-1.271h1.265ZM866.68,278.748a4.18,4.18,0,1,1,4.175,4A3.947,3.947,0,0,1,866.68,278.748Z" transform="translate(-28.544 -9.103)"/><path class="cls-16" d="M888,305.3c0,8,4.24,12.387,10.188,12.387a10.2,10.2,0,0,0,8.859-4.956l1.518.763c-1.708,5.272-5.757,8.194-11.706,8.194-8.669,0-14.111-6.1-14.111-15.817,0-9.973,6.961-15.944,14.491-15.944,5.632,0,10.315,3.494,11.137,8.194a2.619,2.619,0,0,1-2.848,2.351c-2.088,0-2.911-1.271-3.353-2.859l-1.582-5.59,2.911,2.35a13.13,13.13,0,0,0-6.075-1.588C891.926,292.786,888,297.17,888,305.3Z" transform="translate(-28.544 -9.103)"/><path class="cls-16" d="M924.066,304.221a68.77,68.77,0,0,1,9.809-2.668v2.286a57.219,57.219,0,0,0-8.479,2.541c-5.7,2.224-6.329,4.638-6.329,6.479,0,3.368,2.215,4.7,5.126,4.7,2.215,0,3.481-.827,7.467-3.685l1.266-.953.886,1.334-1.835,1.842c-3.8,3.811-5.949,5.59-9.809,5.59-4.619,0-8.479-2.668-8.479-7.94C913.689,310.191,915.588,307.333,924.066,304.221Zm7.278,10.8V300.536c0-6.225-1.772-7.75-5.948-7.75a14.679,14.679,0,0,0-5.7,1.144l2.531-1.969-1.644,5.463c-.57,1.842-1.52,2.858-3.228,2.858a2.588,2.588,0,0,1-2.847-2.541c1.2-4.828,5.884-7.813,12.213-7.813,6.517,0,9.681,2.985,9.681,10.989v13.467c0,2.858.886,3.875,2.341,3.875a3.125,3.125,0,0,0,2.468-1.4l1.265,1.4c-1.518,2.414-3.226,3.239-5.377,3.239C933.622,321.5,931.344,318.958,931.344,315.02Z" transform="translate(-28.544 -9.103)"/><path class="cls-16" d="M954.183,273.856l.885.509-.253,9.02v24.138q0,6.671.19,13.34h-5.442q.189-6.669.19-13.34V279.574l-5.252-.636v-2.223Zm5.884,44.784v2.223H944.5V318.64l7.15-1.271h1.266Z" transform="translate(-28.544 -9.103)"/><path class="cls-16" d="M989.74,304.221a68.734,68.734,0,0,1,9.809-2.668v2.286a57.272,57.272,0,0,0-8.48,2.541c-5.695,2.224-6.328,4.638-6.328,6.479,0,3.368,2.215,4.7,5.126,4.7,2.215,0,3.481-.827,7.467-3.685l1.266-.953.885,1.334L997.65,316.1c-3.8,3.811-5.948,5.59-9.808,5.59-4.619,0-8.479-2.668-8.479-7.94C979.363,310.191,981.262,307.333,989.74,304.221Zm7.278,10.8V300.536c0-6.225-1.772-7.75-5.949-7.75a14.678,14.678,0,0,0-5.695,1.144l2.531-1.969-1.644,5.463c-.571,1.842-1.52,2.858-3.228,2.858a2.587,2.587,0,0,1-2.847-2.541c1.2-4.828,5.884-7.813,12.212-7.813,6.518,0,9.682,2.985,9.682,10.989v13.467c0,2.858.886,3.875,2.341,3.875a3.126,3.126,0,0,0,2.468-1.4l1.265,1.4c-1.518,2.414-3.226,3.239-5.378,3.239C999.3,321.5,997.018,318.958,997.018,315.02Z" transform="translate(-28.544 -9.103)"/><path class="cls-16" d="M1015.555,320.863c.126-2.858.189-9.4.189-13.34v-2.985c0-3.494-.063-5.463-.189-8l-5.063-.571v-2.224l8.606-3.811.949.635.76,7.369v9.591c0,3.939.063,10.482.189,13.34Zm9.871-2.223v2.223h-14.554V318.64l6.96-1.271h1.266Zm14.617-16.96v5.843c0,4.066.063,10.482.189,13.34h-5.441c.126-2.858.189-9.274.189-13.34v-5.335c0-5.908-1.518-7.814-5.315-7.814-3.164,0-5.758,1.271-9.365,4.384h-1.328V295.9h3.226l-2.72,1.143c2.974-4,8.036-7.114,12.529-7.114C1037.448,289.928,1040.043,293.3,1040.043,301.68Zm-1.708,15.689,6.327,1.271v2.223h-14.554V318.64l6.961-1.271Z" transform="translate(-28.544 -9.103)"/><path class="cls-16" d="M1063.768,318.2c3.226,0,5.441-1.4,8.352-5.145l.569,1.715c-2.4,4.32-5.378,6.924-10.314,6.924-7.72,0-12.908-6.416-12.908-15.627,0-9.655,5.694-16.134,13.477-16.134,3.608,0,6.708,1.461,10,6.416L1072.31,298c-3.67-3.557-6.2-4.573-8.606-4.573-4.746,0-8.859,3.811-8.859,12.514C1054.845,314.384,1058.642,318.2,1063.768,318.2Zm17.59.445v2.223l-9.681.635-.633-6.478V296.407l.19-.826V279.574l-5.442-.636v-2.223l9.682-2.859.885.509-.253,9.02v37.478l-1.012-3.239Z" transform="translate(-28.544 -9.103)"/><path class="cls-16" d="M1099.956,280.844V278.3h8.858V281.8h-.632Zm8.858,36.525v3.494h-8.858v-2.541l8.226-.953ZM1105.968,298c0-6.543,0-13.149-.191-19.691h6.076c-.191,6.415-.191,13.021-.191,19.691v2.414c0,7.305,0,13.911.191,20.454h-6.076c.191-6.416.191-13.022.191-19.692Zm20.375-19.691,2.847,3.175h-20.376V278.3h22.591l.443,11.306h-3.543Zm-3.227,22.3h-14.3v-2.922h14.3Zm10,8.957-.442,11.306h-23.857v-3.175h21.642l-2.848,3.175,1.962-11.306Zm-12.022-11.245.949-6.733h2.848v15.055h-2.848l-.949-7.051Z" transform="translate(-28.544 -9.103)"/><path class="cls-16" d="M1142.6,320.863c.126-2.858.189-9.4.189-13.34v-2.985c0-3.494-.063-5.463-.189-8l-5.063-.571v-2.224l8.606-3.811.949.635.76,7.369v9.591c0,3.939.063,10.482.189,13.34Zm9.871-2.223v2.223h-14.554V318.64l6.96-1.271h1.266Zm14.617-16.96v5.843c0,4.066.063,10.482.189,13.34h-5.441c.126-2.858.189-9.274.189-13.34v-5.335c0-5.908-1.518-7.814-5.315-7.814-3.164,0-5.758,1.271-9.365,4.384h-1.328V295.9h3.226l-2.721,1.143c2.975-4,8.037-7.114,12.53-7.114C1164.493,289.928,1167.088,293.3,1167.088,301.68Zm-1.708,15.689,6.327,1.271v2.223h-14.554V318.64l6.961-1.271Z" transform="translate(-28.544 -9.103)"/><path class="cls-16" d="M1199.925,326.707c0-2.858-1.772-5.018-6.391-5.018h-7.467a24.749,24.749,0,0,1-3.164-.191v-.19c-3.226-.7-4.872-2.35-4.872-5.018,0-2.224,1.455-4.638,5.758-8.386l1.393.953c-1.9,2.034-2.721,3.431-2.721,5.336,0,1.715.695,2.859,3.67,2.859h8.352c6.771,0,10,2.985,10,8.131,0,5.463-5.188,10.925-15.44,10.925-9.111,0-13.1-3.175-13.1-7.749,0-3.113,1.962-5.463,8.354-8.195l.316.382c-2.531,2.477-3.544,4.383-3.544,6.86,0,4.193,3.228,5.844,8.163,5.844C1196.191,333.25,1199.925,330.328,1199.925,326.707Zm-11.137-36.779c6.455,0,11.264,3.43,11.264,10.418,0,6.733-4.936,10.418-11.327,10.418-6.518,0-11.327-3.431-11.327-10.418C1177.4,293.612,1182.334,289.928,1188.788,289.928Zm-6.454,10.481c0,4.637,2.278,7.814,6.2,7.814,4.113,0,6.581-3.368,6.581-8.068,0-4.51-2.278-7.686-6.264-7.686C1184.8,292.469,1182.334,295.771,1182.334,300.409Zm21.515-10.481.949.635V294.5h-9.3v-1.716Z" transform="translate(-28.544 -9.103)"/><path class="cls-16" d="M1213.271,320.863c.127-2.858.191-9.4.191-13.34v-2.985c0-3.494-.064-5.463-.191-8l-5.188-.571v-2.224l9.555-3.811.949.635-.19,8.576v8.384c0,3.939.064,10.482.19,13.34Zm9.746-2.223v2.223h-14.554V318.64l6.961-1.271h1.264Zm-11.327-39.892a4.18,4.18,0,1,1,4.176,4A3.947,3.947,0,0,1,1211.69,278.748Z" transform="translate(-28.544 -9.103)"/><path class="cls-16" d="M1232.317,320.863c.126-2.858.19-9.4.19-13.34v-2.985c0-3.494-.064-5.463-.19-8l-5.062-.571v-2.224l8.6-3.811.95.635.759,7.369v9.591c0,3.939.064,10.482.19,13.34Zm9.871-2.223v2.223h-14.553V318.64l6.96-1.271h1.265Zm14.618-16.96v5.843c0,4.066.063,10.482.189,13.34h-5.441c.126-2.858.189-9.274.189-13.34v-5.335c0-5.908-1.518-7.814-5.315-7.814-3.163,0-5.758,1.271-9.366,4.384h-1.328V295.9h3.227l-2.721,1.143c2.974-4,8.036-7.114,12.53-7.114C1254.211,289.928,1256.806,293.3,1256.806,301.68Zm-1.708,15.689,6.327,1.271v2.223h-14.554V318.64l6.961-1.271Z" transform="translate(-28.544 -9.103)"/><path class="cls-16" d="M1292.363,302.061a12.862,12.862,0,0,1-.443,3.557h-23.35V302.95h15.061c3.037,0,3.733-1.461,3.733-3.24a7.037,7.037,0,0,0-7.024-6.924c-4.05,0-8.733,3.431-8.733,12.515,0,8.066,4.05,12.387,10.378,12.387,4.05,0,6.581-1.843,8.86-4.511l1.455,1.143a12.846,12.846,0,0,1-12.086,7.369c-8.48,0-13.985-5.908-13.985-15.563,0-9.719,6.582-16.2,14.427-16.2C1287.174,289.928,1292.363,294.374,1292.363,302.061Z" transform="translate(-28.544 -9.103)"/><path class="cls-16" d="M1324.567,302.061a12.862,12.862,0,0,1-.443,3.557h-23.35V302.95h15.061c3.037,0,3.733-1.461,3.733-3.24a7.037,7.037,0,0,0-7.024-6.924c-4.05,0-8.732,3.431-8.732,12.515,0,8.066,4.049,12.387,10.377,12.387,4.05,0,6.582-1.843,8.86-4.511l1.455,1.143a12.845,12.845,0,0,1-12.086,7.369c-8.48,0-13.984-5.908-13.984-15.563,0-9.719,6.581-16.2,14.426-16.2C1319.378,289.928,1324.567,294.374,1324.567,302.061Z" transform="translate(-28.544 -9.103)"/><path class="cls-16" d="M1335.193,307.523v-2.985c0-3.494-.063-5.463-.189-8l-5.063-.571v-2.224l8.606-3.811.949.635.76,7.94v9.02c0,3.939.063,10.482.189,13.34H1335C1335.13,318.005,1335.193,311.462,1335.193,307.523Zm-4.746,11.117,6.961-1.271h1.266l6.961,1.271v2.223h-15.188Zm7.278-19.692h3.606l-1.582.445c2.025-5.908,5.886-9.465,9.619-9.465a5.421,5.421,0,0,1,4.492,2.16c0,2.985-1.138,4.637-3.67,4.637a5.752,5.752,0,0,1-3.8-1.525l-1.708-1.461,3.1-.635c-3.924,2.033-6.2,5.208-7.657,10.1h-2.4Z" transform="translate(-28.544 -9.103)"/><path class="cls-16" d="M1361.323,320.863c.127-2.858.191-9.4.191-13.34v-2.985c0-3.494-.064-5.463-.191-8l-5.188-.571v-2.224l9.554-3.811.95.635-.19,8.576v8.384c0,3.939.064,10.482.19,13.34Zm9.745-2.223v2.223h-14.553V318.64l6.961-1.271h1.264Zm-11.326-39.892a4.18,4.18,0,1,1,4.176,4A3.947,3.947,0,0,1,1359.742,278.748Z" transform="translate(-28.544 -9.103)"/><path class="cls-16" d="M1380.368,320.863c.126-2.858.19-9.4.19-13.34v-2.985c0-3.494-.064-5.463-.19-8l-5.062-.571v-2.224l8.605-3.811.949.635.76,7.369v9.591c0,3.939.064,10.482.19,13.34Zm9.871-2.223v2.223h-14.553V318.64l6.96-1.271h1.265Zm14.617-16.96v5.843c0,4.066.064,10.482.19,13.34H1399.6c.126-2.858.19-9.274.19-13.34v-5.335c0-5.908-1.519-7.814-5.315-7.814-3.164,0-5.758,1.271-9.366,4.384h-1.328V295.9h3.227l-2.721,1.143c2.974-4,8.036-7.114,12.529-7.114C1402.262,289.928,1404.856,293.3,1404.856,301.68Zm-1.708,15.689,6.328,1.271v2.223h-14.554V318.64l6.961-1.271Z" transform="translate(-28.544 -9.103)"/><path class="cls-16" d="M1437.692,326.707c0-2.858-1.771-5.018-6.39-5.018h-7.467a24.737,24.737,0,0,1-3.164-.191v-.19c-3.227-.7-4.872-2.35-4.872-5.018,0-2.224,1.455-4.638,5.758-8.386l1.392.953c-1.9,2.034-2.72,3.431-2.72,5.336,0,1.715.695,2.859,3.669,2.859h8.353c6.77,0,10,2.985,10,8.131,0,5.463-5.188,10.925-15.44,10.925-9.112,0-13.1-3.175-13.1-7.749,0-3.113,1.962-5.463,8.353-8.195l.317.382c-2.531,2.477-3.544,4.383-3.544,6.86,0,4.193,3.227,5.844,8.163,5.844C1433.959,333.25,1437.692,330.328,1437.692,326.707Zm-11.136-36.779c6.455,0,11.263,3.43,11.263,10.418,0,6.733-4.935,10.418-11.327,10.418-6.517,0-11.326-3.431-11.326-10.418C1415.166,293.612,1420.1,289.928,1426.556,289.928Zm-6.454,10.481c0,4.637,2.278,7.814,6.2,7.814,4.113,0,6.581-3.368,6.581-8.068,0-4.51-2.279-7.686-6.265-7.686C1422.569,292.469,1420.1,295.771,1420.1,300.409Zm21.514-10.481.949.635V294.5h-9.3v-1.716Z" transform="translate(-28.544 -9.103)"/></svg>