<svg id="Layer_1" data-name="Layer 1" xmlns="http://www.w3.org/2000/svg" xmlns:xlink="http://www.w3.org/1999/xlink" viewBox="0 0 1528.599 372.203"><defs><style>.cls-1{fill:#faa71a;}.cls-2{fill:none;stroke:#faa71a;stroke-linecap:round;stroke-miterlimit:10;stroke-width:2.164px;}.cls-3{fill:#1a1d50;}.cls-4{fill:url(#linear-gradient);}.cls-5{fill:url(#linear-gradient-2);}.cls-6{fill:url(#linear-gradient-3);}.cls-7{fill:url(#linear-gradient-4);}.cls-8{fill:url(#linear-gradient-5);}.cls-9{fill:url(#linear-gradient-6);}.cls-10{fill:url(#linear-gradient-7);}.cls-11{fill:url(#linear-gradient-8);}.cls-12{fill:url(#linear-gradient-9);}.cls-13{fill:url(#linear-gradient-10);}.cls-14{fill:url(#linear-gradient-11);}.cls-15{fill:url(#linear-gradient-12);}.cls-16{fill:#1e1d4e;}.cls-17{fill:#f7a51e;}.cls-18{fill:#010101;}</style><linearGradient id="linear-gradient" x1="95.177" y1="200.336" x2="62.564" y2="159.247" gradientUnits="userSpaceOnUse"><stop offset="0" stop-color="#079247"/><stop offset="1" stop-color="#3db54a"/></linearGradient><linearGradient id="linear-gradient-2" x1="75.431" y1="139.577" x2="62.028" y2="104.539" xlink:href="#linear-gradient"/><linearGradient id="linear-gradient-3" x1="108.507" y1="233.873" x2="62.498" y2="218.43" xlink:href="#linear-gradient"/><linearGradient id="linear-gradient-4" x1="93.709" y1="87.208" x2="103.32" y2="70.231" xlink:href="#linear-gradient"/><linearGradient id="linear-gradient-5" x1="82.574" y1="117.056" x2="93.228" y2="100.897" xlink:href="#linear-gradient"/><linearGradient id="linear-gradient-6" x1="123.964" y1="55.754" x2="143.642" y2="30.94" xlink:href="#linear-gradient"/><linearGradient id="linear-gradient-7" x1="4188.505" y1="200.336" x2="4155.892" y2="159.247" gradientTransform="matrix(-1, 0, 0, 1, 4680.232, 0)" xlink:href="#linear-gradient"/><linearGradient id="linear-gradient-8" x1="4168.759" y1="139.577" x2="4155.357" y2="104.539" gradientTransform="matrix(-1, 0, 0, 1, 4680.232, 0)" xlink:href="#linear-gradient"/><linearGradient id="linear-gradient-9" x1="4201.836" y1="233.873" x2="4155.827" y2="218.43" gradientTransform="matrix(-1, 0, 0, 1, 4680.232, 0)" xlink:href="#linear-gradient"/><linearGradient id="linear-gradient-10" x1="4187.037" y1="87.208" x2="4196.648" y2="70.231" gradientTransform="matrix(-1, 0, 0, 1, 4680.232, 0)" xlink:href="#linear-gradient"/><linearGradient id="linear-gradient-11" x1="4175.902" y1="117.056" x2="4186.556" y2="100.897" gradientTransform="matrix(-1, 0, 0, 1, 4680.232, 0)" xlink:href="#linear-gradient"/><linearGradient id="linear-gradient-12" x1="4217.292" y1="55.754" x2="4236.97" y2="30.94" gradientTransform="matrix(-1, 0, 0, 1, 4680.232, 0)" xlink:href="#linear-gradient"/></defs><path class="cls-1" d="M406.413,279.608c-21.245-37.46-62.983-62.937-110.994-62.937-47.966,0-89.667,25.425-110.94,62.842a114.755,114.755,0,0,0-8.891,19.7c89.126,22.993,118.283,72.637,119.776,75.276v.009c.009.009.009.009.009.017a.27.27,0,0,1,.037.079v.008h.018V374.6c.44-.8,28.964-51.945,119.822-75.373h.009A114.722,114.722,0,0,0,406.413,279.608ZM276.93,256.337l35.869-.078v10.593l-35.869.07Zm18.534,117.217,2.455-53.368a7.951,7.951,0,0,0,5.109-7.329,8.385,8.385,0,0,0-16.748,0,7.952,7.952,0,0,0,5.3,7.39l3.681,52.908a.031.031,0,0,0-.009-.026c-1.859-17.8-36.143-58.11-36.143-58.11,15.447-12.851,17.773-44.146,17.773-44.146l20.009-.139,15.732.139s2.335,31.3,17.783,44.146c0,0-33.643,41-34.934,58.544Z" transform="translate(-28.544 -16.103)"/><line class="cls-2" x1="160.752" y1="249.66" x2="144.417" y2="238.535"/><path class="cls-2" d="M172.961,254.638" transform="translate(-28.544 -16.103)"/><path class="cls-2" d="M189.3,265.763" transform="translate(-28.544 -16.103)"/><line class="cls-2" x1="170.795" y1="236.985" x2="146.089" y2="215.592"/><line class="cls-2" x1="182.951" y1="225.221" x2="171.453" y2="209.575"/><line class="cls-2" x1="197.773" y1="214.695" x2="182.538" y2="186.449"/><line class="cls-2" x1="213.505" y1="206.221" x2="208.518" y2="187.746"/><line class="cls-2" x1="232.738" y1="200.32" x2="225.506" y2="169.345"/><line class="cls-2" x1="248.581" y1="196.459" x2="246.22" y2="177.52"/><line class="cls-2" x1="265.844" y1="195.484" x2="266.49" y2="163.764"/><line class="cls-2" x1="382.555" y1="265.194" x2="413.708" y2="253.625"/><line class="cls-2" x1="373.919" y1="250.778" x2="390.569" y2="240.082"/><line class="cls-2" x1="363.458" y1="237.847" x2="388.773" y2="217.105"/><line class="cls-2" x1="351.646" y1="226.519" x2="363.593" y2="211.178"/><line class="cls-2" x1="337.134" y1="215.611" x2="353.18" y2="187.772"/><line class="cls-2" x1="321.652" y1="207.479" x2="327.173" y2="189.141"/><line class="cls-2" x1="302.598" y1="200.333" x2="310.723" y2="169.558"/><line class="cls-2" x1="286.873" y1="196.809" x2="289.78" y2="177.938"/><path class="cls-2" d="M172.961,252.3" transform="translate(-28.544 -16.103)"/><path class="cls-2" d="M189.3,263.425" transform="translate(-28.544 -16.103)"/><path class="cls-2" d="M172.961,252.3" transform="translate(-28.544 -16.103)"/><path class="cls-2" d="M189.3,263.425" transform="translate(-28.544 -16.103)"/><line class="cls-2" x1="382.555" y1="262.856" x2="413.708" y2="251.287"/><path class="cls-3" d="M507.7,307.039a346.958,346.958,0,0,0-53.469-.122c-81.527,6.27-131,41.542-153.1,61.844a1.667,1.667,0,0,0-.229.217c-.32.3-.632.581-.943.877-.76.72-1.777,1.684-2.6,2.474-.32.3-.623.6-.925.895v.017c-.192.183-.376.365-.558.547-.1.1-.2.2-.275.269a.511.511,0,0,1-.1.1c-.027-.044-.073-.07-.1-.1-.274-.278-.558-.565-.86-.851-1.3-1.294-2.757-2.692-4.368-4.177a.562.562,0,0,1-.083-.069c-21.94-20.25-71.517-55.818-153.419-62.13a345.96,345.96,0,0,0-53.488.1l19.276-48.645a350.578,350.578,0,0,1,45.182,7.555,287.638,287.638,0,0,1,36.619,11.253c71.829,27.553,101.6,74.721,111.224,94.181,9.679-19.538,39.486-66.6,111.214-94.1a287.933,287.933,0,0,1,36.6-11.237,347.5,347.5,0,0,1,45.127-7.537Z" transform="translate(-28.544 -16.103)"/><path class="cls-3" d="M562.365,322.612v65.695a987.177,987.177,0,0,0-114.284-20.273c-53-6.066-112.47-7.5-150.185,8.155-.3.11-1.988.834-2.348,1-.072-.028-2.464-1.066-2.535-1.093-37.716-15.669-97.213-14.221-150.228-8.169A988.348,988.348,0,0,0,28.544,388.211V322.516a411.644,411.644,0,0,1,48.981-8.975,343.261,343.261,0,0,1,58.7-2.213c82.62,4.112,132.984,39.275,153.858,57.621a.375.375,0,0,0,.087.069q2.42,2.234,4.365,4.18c.3.287.59.573.864.847.029.041.072.068.1.109a.359.359,0,0,0,.1-.109c.274-.26.548-.533.836-.806v-.014c1.34-1.325,2.824-2.746,4.466-4.248a1.7,1.7,0,0,1,.23-.219c21.062-18.388,71.34-53.236,153.556-57.335a343.3,343.3,0,0,1,58.691,2.213A417.2,417.2,0,0,1,562.365,322.612Z" transform="translate(-28.544 -16.103)"/><path class="cls-3" d="M312.009,75.458V98.171c7.752-7.291,13.216-2.954,19.1,3.3V78.44L354.866,87.1l.5-1.052c-6.516-3-12.9-6.314-19.6-8.886-3.572-1.372-4.734-3.1-4.567-6.6.283-5.953.078-11.926.078-18.719l88.362,35.352c-2.916,1.573-4.368,2.543-5.965,3.189-13.531,5.477-27.047,10.994-40.672,16.254-3.085,1.191-4.217,2.668-4.171,5.834.184,12.489.108,24.981.062,37.472-.02,5.724-1.775,7.025-7.587,6.224-33.8-4.658-67.7-6.688-101.792-3.41-9.565.92-19.112,2.012-28.661,3.074-6.424.714-7.944-.46-7.96-6.59q-.054-20.985-.012-41.969c.006-8.195,3.575-14.045,11.447-18.107,22.686-11.708,46.9-16.095,72.47-14.738A39.887,39.887,0,0,1,312.009,75.458Z" transform="translate(-28.544 -16.103)"/><path class="cls-3" d="M215.882,105.386c-14.174-5.723-27.43-10.881-40.446-16.538-2-.868-2.9-4.024-4.264-6.148-.158-.245-.036-.654-.033-.988.128-14.927-2.142-12.746,12.916-18.834C219.027,48.74,253.978,34.553,289.1,20.754a18.969,18.969,0,0,1,12.483-.276c37.447,14.6,80.67,31.814,117.979,46.731.644.257-.1,5.789-.1,5.789s-9.885-3.561-11.824-4.337Q355.81,47.918,303.977,27.178c-2.213-.885-4.491-1.626-6.7-2.421-3.822,7.727-1.935,12.6,5.719,15.7,8.976,3.628,8.974,3.628,8.968,13.215,0,5.309,0,10.618,0,16.3-5.6-.37-10.773-.73-15.948-1.051-22.609-1.4-43.805,3.253-63.965,12.957C222.06,86.684,214.986,93,215.882,105.386Z" transform="translate(-28.544 -16.103)"/><path class="cls-4" d="M127.861,222.076C117,217.542,106.122,213.058,95.3,208.45c-4.65-1.979-9.287-4.031-13.739-6.377-6.423-3.385-8.615-9.544-5.844-15.44,3.578-7.614,12.437-9.154,18.767-2.755,8.076,8.165,15.662,16.767,23.384,25.242,3.621,3.974,7.065,8.093,10.589,12.147Z" transform="translate(-28.544 -16.103)"/><path class="cls-5" d="M102.885,180.565c-7.562-6.642-16.065-13.884-24.274-21.414A138.863,138.863,0,0,1,66.79,146.68c-3.826-4.5-4.009-9.994-.967-14.276,2.8-3.934,6.758-5.406,11.607-4.534,5.247.943,7.513,4.882,9.145,9.042,4.38,11.163,8.556,22.4,12.765,33.622C100.758,174.314,102.033,178.143,102.885,180.565Z" transform="translate(-28.544 -16.103)"/><path class="cls-6" d="M149.416,237.807c-12.054,6.506-23.684,10.551-36.745,9.592-5.218-.383-9.124-2.745-10.943-7.5a11.706,11.706,0,0,1,2.926-13.42c3.758-3.617,8.464-4.095,13.255-2.105C128.2,228.655,138.412,233.1,149.416,237.807Z" transform="translate(-28.544 -16.103)"/><path class="cls-7" d="M101.791,94.584q0-6.043,0-12.086c.013-10.137-.033-20.275.068-30.411.063-6.328,3.43-11.28,7.968-12.117,7.775-1.433,14.576,5.4,11.721,12.581-5.655,14.235-12.03,28.213-18.107,42.3Z" transform="translate(-28.544 -16.103)"/><path class="cls-8" d="M93.3,137.827C87.847,124,82.352,110.18,76.956,96.329c-1.664-4.274-1.348-8.455,2.238-11.786,2.767-2.568,6.2-3.766,10.084-2.33,4.765,1.763,6.63,5.567,6.935,10.011a109.788,109.788,0,0,1,.023,13.169c-.556,10.726-1.3,21.443-1.973,32.164Z" transform="translate(-28.544 -16.103)"/><path class="cls-9" d="M124.7,60.653c4.928-12.818,9.679-25.7,14.862-38.425,2.37-5.817,8.188-7.642,13.166-4.821,5.235,2.967,6.486,9.109,2.053,14.058-6.69,7.471-13.917,14.513-20.984,21.677-2.685,2.722-5.558,5.279-8.346,7.911Z" transform="translate(-28.544 -16.103)"/><path class="cls-10" d="M459.043,222.076c10.858-4.534,21.739-9.018,32.562-13.626,4.65-1.979,9.287-4.031,13.739-6.377,6.423-3.385,8.615-9.544,5.844-15.44-3.578-7.614-12.437-9.154-18.767-2.755-8.076,8.165-15.662,16.767-23.384,25.242-3.621,3.974-7.065,8.093-10.588,12.147Z" transform="translate(-28.544 -16.103)"/><path class="cls-11" d="M484.019,180.565c7.562-6.642,16.065-13.884,24.274-21.414a138.721,138.721,0,0,0,11.821-12.471c3.826-4.5,4.009-9.994.968-14.276-2.8-3.934-6.759-5.406-11.608-4.534-5.247.943-7.512,4.882-9.145,9.042-4.38,11.163-8.556,22.4-12.765,33.622C486.146,174.314,484.872,178.143,484.019,180.565Z" transform="translate(-28.544 -16.103)"/><path class="cls-12" d="M437.488,237.807c12.054,6.506,23.684,10.551,36.745,9.592,5.218-.383,9.124-2.745,10.943-7.5a11.706,11.706,0,0,0-2.926-13.42c-3.758-3.617-8.464-4.095-13.255-2.105C458.7,228.655,448.492,233.1,437.488,237.807Z" transform="translate(-28.544 -16.103)"/><path class="cls-13" d="M485.114,94.584q0-6.043,0-12.086c-.013-10.137.033-20.275-.068-30.411-.063-6.328-3.43-11.28-7.968-12.117-7.775-1.433-14.576,5.4-11.721,12.581,5.655,14.235,12.03,28.213,18.107,42.3Z" transform="translate(-28.544 -16.103)"/><path class="cls-14" d="M493.6,137.827c5.457-13.83,10.952-27.647,16.348-41.5,1.664-4.274,1.348-8.455-2.238-11.786-2.767-2.568-6.2-3.766-10.083-2.33-4.766,1.763-6.631,5.567-6.936,10.011a109.788,109.788,0,0,0-.023,13.169c.556,10.726,1.3,21.443,1.973,32.164Z" transform="translate(-28.544 -16.103)"/><path class="cls-15" d="M462.207,60.653c-4.928-12.818-9.679-25.7-14.862-38.425-2.37-5.817-8.188-7.642-13.166-4.821-5.235,2.967-6.485,9.109-2.053,14.058,6.69,7.471,13.917,14.513,20.984,21.677,2.685,2.722,5.558,5.279,8.346,7.911Z" transform="translate(-28.544 -16.103)"/><path class="cls-16" d="M630.528,316.062l-.693,12.452h-22.5v-1.208a10.717,10.717,0,0,1,3.465-1.584V278.481a15.492,15.492,0,0,1-3.465-1.584V275.69h22.539v12.6h-1.223a28.976,28.976,0,0,1-.876-4.336q-.469-3.133-.55-4.793H616.345v21.581h7.54q.081-1.28.305-3.169t.51-3.246h.9v16.3h-.9q-.285-1.433-.51-3.282t-.305-3.132h-7.54V325.2h11.086a30.587,30.587,0,0,1,.733-4.83,33.182,33.182,0,0,1,1.141-4.3Z" transform="translate(-28.544 -16.103)"/><path class="cls-16" d="M665.252,327.383v1.131H654.167v-1.208a14.666,14.666,0,0,1,2.853-1.434l-4.932-12.224-5.829,12.224a12.334,12.334,0,0,1,3.057,1.434v1.208h-8.681v-1.057a11.145,11.145,0,0,1,2.975-1.508l7.255-15.32-6.847-16.978a8.78,8.78,0,0,1-2.853-1.661v-1.057h10.923v1.284a11.757,11.757,0,0,1-2.812,1.434l4.442,11.091,5.3-11.167A8.48,8.48,0,0,1,656,292.067v-1.134h8.681v1.134a7.8,7.8,0,0,1-3.057,1.584l-6.725,14.11,7.3,18.188A12.318,12.318,0,0,1,665.252,327.383Z" transform="translate(-28.544 -16.103)"/><path class="cls-16" d="M674.177,345.268q1.427-.757,3.221-1.511V293.878a14.593,14.593,0,0,1-2.772-1.361v-.83l8.151-1.508v4.98a9,9,0,0,1,3.037-3.849,6.039,6.039,0,0,1,3.158-1.055q4.688,0,7.214,4.64t2.527,13.923q0,20.45-10.148,20.45a5.68,5.68,0,0,1-3.343-1.131,7.107,7.107,0,0,1-2.445-3.622v19.319a15.886,15.886,0,0,1,3.22,1.508v1.207h-11.82Zm17.852-23.885a47.308,47.308,0,0,0,1.263-12.188q0-7.848-1.2-11.695t-4.1-3.849a3.9,3.9,0,0,0-2.894,1.584,13.4,13.4,0,0,0-2.323,4v16.451a17.407,17.407,0,0,0,1.366,7.281q1.363,2.985,3.729,2.982Q690.766,325.949,692.029,321.383Z" transform="translate(-28.544 -16.103)"/><path class="cls-16" d="M729.769,310.252H714.322a32.373,32.373,0,0,0,1.855,11.321q1.773,4.527,5.2,4.526a7.352,7.352,0,0,0,3.566-1.057,10.647,10.647,0,0,0,3.322-2.942l.53,2.415a10.551,10.551,0,0,1-3.607,3.4,9.672,9.672,0,0,1-4.992,1.358,8.435,8.435,0,0,1-6.012-2.415,15.5,15.5,0,0,1-3.913-6.828A34.659,34.659,0,0,1,708.9,309.8q0-9.354,2.914-14.45t8.131-5.094a7.085,7.085,0,0,1,5.5,2.452,15.382,15.382,0,0,1,3.26,6.491,35.493,35.493,0,0,1,1.06,9.016Zm-4.687-3.319a38.433,38.433,0,0,0-.489-6.077,15.823,15.823,0,0,0-1.63-5.13,3.38,3.38,0,0,0-2.975-2.075q-2.528,0-3.913,3.736a32.389,32.389,0,0,0-1.671,9.546Z" transform="translate(-28.544 -16.103)"/><path class="cls-16" d="M739.918,327.306a9.4,9.4,0,0,1,3.22-1.507V293.878a15.943,15.943,0,0,1-2.772-1.434v-.681l7.54-1.584.448,6.941h.163a12.563,12.563,0,0,1,2.2-5.017,4.084,4.084,0,0,1,3.138-1.848,4.722,4.722,0,0,1,4,1.885l-1.019,4.756a3.16,3.16,0,0,0-2.4-1.434q-1.794,0-3.341,2.149a18.527,18.527,0,0,0-2.569,5.623v22.638a13.08,13.08,0,0,1,3.18,1.511v1.131H739.918Z" transform="translate(-28.544 -16.103)"/><path class="cls-16" d="M782.06,327.91a9.238,9.238,0,0,1-5.014,1.358,5.911,5.911,0,0,1-5.053-2.6q-1.877-2.607-1.876-8.489V294.328h-3.26v-3.395h3.26v-2.489q2.284-1.361,2.732-7.621H775.5v10.11h5.95v3.395H775.5v23.849q0,4.3.937,5.921a2.919,2.919,0,0,0,2.649,1.624,5.313,5.313,0,0,0,2.649-.83Z" transform="translate(-28.544 -16.103)"/><path class="cls-16" d="M796.385,327.91a9.857,9.857,0,0,1-3.689-3.546l.326-9.282h1.183a30.473,30.473,0,0,1,.407,3.622q.162,2.415.2,4.376a6.536,6.536,0,0,0,2.078,2.075,5.1,5.1,0,0,0,2.771.794,4.411,4.411,0,0,0,3.689-1.851,8.365,8.365,0,0,0,1.406-5.167,6.541,6.541,0,0,0-.652-3.058,7.089,7.089,0,0,0-1.61-2.075,25.061,25.061,0,0,0-2.71-1.962,25.1,25.1,0,0,1-3.567-2.641,10.164,10.164,0,0,1-2.384-3.546,14.559,14.559,0,0,1-.978-5.734q0-4.682,2.365-7.171a7.8,7.8,0,0,1,5.908-2.489,8.771,8.771,0,0,1,7.867,4.3l-.367,7.925h-1.223a25.949,25.949,0,0,1-.387-3.1q-.144-1.884-.142-3.7a5.546,5.546,0,0,0-4.606-2.191,3.971,3.971,0,0,0-3.017,1.207,5.475,5.475,0,0,0-1.14,3.85,6.251,6.251,0,0,0,1.223,4.112,16.806,16.806,0,0,0,3.789,3.132,27.821,27.821,0,0,1,3.628,2.832,10.648,10.648,0,0,1,2.363,3.659,15.318,15.318,0,0,1,.979,5.887q0,5.582-2.4,8.336a7.711,7.711,0,0,1-6.073,2.755A10.4,10.4,0,0,1,796.385,327.91Z" transform="translate(-28.544 -16.103)"/><path class="cls-16" d="M839.4,327.383q.734-.454,3.219-1.584V294.028a12.722,12.722,0,0,1-2.811-1.358v-.756L848,290.406v35.466a21.908,21.908,0,0,1,3.219,1.511v1.131H839.4Zm3.525-41.43a7.592,7.592,0,0,1-.794-3.7,7.813,7.813,0,0,1,.794-3.733,2.347,2.347,0,0,1,2.059-1.474,2.386,2.386,0,0,1,2.078,1.474,7.634,7.634,0,0,1,.815,3.733,7.419,7.419,0,0,1-.815,3.7,2.389,2.389,0,0,1-2.078,1.434A2.348,2.348,0,0,1,842.928,285.953Z" transform="translate(-28.544 -16.103)"/><path class="cls-16" d="M888.067,327.383v1.131h-11.5v-1.131a14.247,14.247,0,0,1,2.936-1.584V301.423q0-7.771-3.791-7.772a4.531,4.531,0,0,0-2.873,1.321,12.182,12.182,0,0,0-2.833,4.113v26.787a13.837,13.837,0,0,1,3.22,1.511v1.131h-11.82v-1.131a9.876,9.876,0,0,1,3.22-1.584V293.878a16.344,16.344,0,0,1-2.812-1.434v-.757l8.192-1.508v5.433a13.124,13.124,0,0,1,3.383-3.886,6.857,6.857,0,0,1,4.2-1.471,6.2,6.2,0,0,1,5.279,2.829q2.016,2.832,2.017,7.885v24.9A9.434,9.434,0,0,1,888.067,327.383Z" transform="translate(-28.544 -16.103)"/><path class="cls-16" d="M943.617,327.383v1.131H932.041v-1.131a13.72,13.72,0,0,1,2.976-1.584V301.423q0-7.771-3.791-7.772a4.428,4.428,0,0,0-2.872,1.395,13.683,13.683,0,0,0-2.874,4.189v26.637a9.477,9.477,0,0,1,2.976,1.511v1.131H916.921v-1.131a10.35,10.35,0,0,1,3.22-1.584V279.011a16.215,16.215,0,0,1-2.813-1.434v-.754l8.152-1.51v20.45a12.705,12.705,0,0,1,3.362-4,6.882,6.882,0,0,1,4.259-1.508,6.149,6.149,0,0,1,5.258,2.829q1.995,2.832,2,7.885v24.9A14.652,14.652,0,0,1,943.617,327.383Z" transform="translate(-28.544 -16.103)"/><path class="cls-16" d="M953.56,318.251q0-5.961,2.283-8.6a7.578,7.578,0,0,1,6.031-2.641h5.462V301.5q0-4.077-1.285-5.963a4.079,4.079,0,0,0-3.566-1.885,7.476,7.476,0,0,0-3.4.9,14.348,14.348,0,0,0-3.239,2.265l-.327-2.869a13.655,13.655,0,0,1,4.035-2.715,11.362,11.362,0,0,1,4.606-.981,7.522,7.522,0,0,1,6.256,2.943,12.387,12.387,0,0,1,2.3,7.848v24.223a22.464,22.464,0,0,1,2.772,1.284v.83l-8.151,1.431v-5.053a11.611,11.611,0,0,1-3.159,4.149,5.949,5.949,0,0,1-3.647,1.358Q953.56,329.268,953.56,318.251Zm11.7,5.887a10.412,10.412,0,0,0,2.079-3.849v-9.96h-4.2a3.439,3.439,0,0,0-3.2,2.074,12.693,12.693,0,0,0-1.079,5.774,12.472,12.472,0,0,0,1,5.7,3.017,3.017,0,0,0,2.711,1.848A3.777,3.777,0,0,0,965.257,324.138Z" transform="translate(-28.544 -16.103)"/><path class="cls-16" d="M989.079,327.91a9.865,9.865,0,0,1-3.689-3.546l.327-9.282H986.9a30.428,30.428,0,0,1,.408,3.622q.162,2.415.2,4.376a6.526,6.526,0,0,0,2.078,2.075,5.1,5.1,0,0,0,2.771.794,4.411,4.411,0,0,0,3.689-1.851,8.371,8.371,0,0,0,1.4-5.167,6.529,6.529,0,0,0-.652-3.058,7.07,7.07,0,0,0-1.609-2.075,25.089,25.089,0,0,0-2.711-1.962,25.083,25.083,0,0,1-3.566-2.641,10.164,10.164,0,0,1-2.384-3.546,14.541,14.541,0,0,1-.978-5.734q0-4.682,2.364-7.171a7.8,7.8,0,0,1,5.908-2.489,8.77,8.77,0,0,1,7.867,4.3l-.367,7.925H1000.1a25.77,25.77,0,0,1-.386-3.1q-.144-1.884-.143-3.7a5.544,5.544,0,0,0-4.606-2.191,3.968,3.968,0,0,0-3.016,1.207,5.475,5.475,0,0,0-1.14,3.85,6.251,6.251,0,0,0,1.222,4.112,16.815,16.815,0,0,0,3.79,3.132,27.821,27.821,0,0,1,3.628,2.832,10.648,10.648,0,0,1,2.363,3.659,15.319,15.319,0,0,1,.978,5.887q0,5.582-2.4,8.336a7.712,7.712,0,0,1-6.074,2.755A10.406,10.406,0,0,1,989.079,327.91Z" transform="translate(-28.544 -16.103)"/><path class="cls-16" d="M1017.487,327.91a9.857,9.857,0,0,1-3.689-3.546l.326-9.282h1.183a30.473,30.473,0,0,1,.407,3.622q.162,2.415.2,4.376a6.536,6.536,0,0,0,2.078,2.075,5.1,5.1,0,0,0,2.771.794,4.411,4.411,0,0,0,3.689-1.851,8.365,8.365,0,0,0,1.406-5.167,6.541,6.541,0,0,0-.652-3.058,7.089,7.089,0,0,0-1.61-2.075,25.061,25.061,0,0,0-2.71-1.962,25.1,25.1,0,0,1-3.567-2.641,10.164,10.164,0,0,1-2.384-3.546,14.559,14.559,0,0,1-.978-5.734q0-4.682,2.365-7.171a7.8,7.8,0,0,1,5.908-2.489,8.771,8.771,0,0,1,7.867,4.3l-.367,7.925h-1.223a25.743,25.743,0,0,1-.387-3.1q-.144-1.884-.142-3.7a5.546,5.546,0,0,0-4.606-2.191,3.971,3.971,0,0,0-3.017,1.207,5.475,5.475,0,0,0-1.14,3.85,6.251,6.251,0,0,0,1.223,4.112,16.806,16.806,0,0,0,3.789,3.132,27.821,27.821,0,0,1,3.628,2.832,10.648,10.648,0,0,1,2.363,3.659,15.318,15.318,0,0,1,.979,5.887q0,5.582-2.4,8.336a7.711,7.711,0,0,1-6.073,2.755A10.4,10.4,0,0,1,1017.487,327.91Z" transform="translate(-28.544 -16.103)"/><path class="cls-16" d="M1041.8,327.383a31.983,31.983,0,0,1,3.22-1.584V279.011a16.2,16.2,0,0,1-2.812-1.434v-.754l8.191-1.51v50.559a11.311,11.311,0,0,1,3.221,1.511v1.131H1041.8Z" transform="translate(-28.544 -16.103)"/><path class="cls-16" d="M1084.794,310.252h-15.446a32.354,32.354,0,0,0,1.853,11.321q1.774,4.527,5.2,4.526a7.355,7.355,0,0,0,3.566-1.057,10.658,10.658,0,0,0,3.322-2.942l.529,2.415a10.533,10.533,0,0,1-3.607,3.4,9.664,9.664,0,0,1-4.992,1.358,8.439,8.439,0,0,1-6.012-2.415,15.531,15.531,0,0,1-3.913-6.828,34.725,34.725,0,0,1-1.365-10.226q0-9.354,2.915-14.45t8.13-5.094a7.085,7.085,0,0,1,5.5,2.452,15.4,15.4,0,0,1,3.26,6.491,35.538,35.538,0,0,1,1.06,9.016Zm-4.687-3.319a38.552,38.552,0,0,0-.489-6.077,15.872,15.872,0,0,0-1.63-5.13,3.38,3.38,0,0,0-2.976-2.075q-2.526,0-3.913,3.736a32.457,32.457,0,0,0-1.67,9.546Z" transform="translate(-28.544 -16.103)"/><path class="cls-16" d="M1096,304.668h13.735V310.1H1096Z" transform="translate(-28.544 -16.103)"/><path class="cls-16" d="M1130.887,279.916a16.853,16.853,0,0,0-.977,6.564v4.453h6.031v3.395h-6.031v31.544a14.865,14.865,0,0,1,3.464,1.511v1.131h-12.105v-1.208a15.12,15.12,0,0,1,3.26-1.507V294.328h-3.83v-3.395h3.83v-3.019q0-6.712,1.855-10.223t5.074-3.509a8.744,8.744,0,0,1,5.014,1.434l-.327,3.018a4.742,4.742,0,0,0-2.649-.907Q1131.866,277.727,1130.887,279.916Z" transform="translate(-28.544 -16.103)"/><path class="cls-16" d="M1146.417,327.306a9.4,9.4,0,0,1,3.22-1.507V293.878a15.943,15.943,0,0,1-2.772-1.434v-.681l7.54-1.584.448,6.941h.163a12.55,12.55,0,0,1,2.2-5.017,4.082,4.082,0,0,1,3.137-1.848,4.722,4.722,0,0,1,3.995,1.885l-1.019,4.756a3.16,3.16,0,0,0-2.4-1.434q-1.793,0-3.341,2.149a18.527,18.527,0,0,0-2.569,5.623v22.638a13.063,13.063,0,0,1,3.18,1.511v1.131h-11.779Z" transform="translate(-28.544 -16.103)"/><path class="cls-16" d="M1193.367,310.252h-15.445a32.331,32.331,0,0,0,1.853,11.321q1.773,4.527,5.2,4.526a7.355,7.355,0,0,0,3.566-1.057,10.669,10.669,0,0,0,3.322-2.942l.529,2.415a10.533,10.533,0,0,1-3.607,3.4,9.665,9.665,0,0,1-4.993,1.358,8.436,8.436,0,0,1-6.011-2.415,15.521,15.521,0,0,1-3.913-6.828A34.725,34.725,0,0,1,1172.5,309.8q0-9.354,2.915-14.45t8.13-5.094a7.085,7.085,0,0,1,5.5,2.452,15.406,15.406,0,0,1,3.261,6.491,35.54,35.54,0,0,1,1.059,9.016Zm-4.687-3.319a38.55,38.55,0,0,0-.488-6.077,15.872,15.872,0,0,0-1.63-5.13,3.382,3.382,0,0,0-2.976-2.075q-2.527,0-3.913,3.736a32.487,32.487,0,0,0-1.671,9.546Z" transform="translate(-28.544 -16.103)"/><path class="cls-16" d="M1224.626,310.252H1209.18a32.352,32.352,0,0,0,1.854,11.321q1.773,4.527,5.2,4.526a7.355,7.355,0,0,0,3.566-1.057,10.669,10.669,0,0,0,3.322-2.942l.529,2.415a10.533,10.533,0,0,1-3.607,3.4,9.665,9.665,0,0,1-4.993,1.358,8.436,8.436,0,0,1-6.011-2.415,15.521,15.521,0,0,1-3.913-6.828,34.725,34.725,0,0,1-1.365-10.226q0-9.354,2.915-14.45t8.13-5.094a7.085,7.085,0,0,1,5.5,2.452,15.406,15.406,0,0,1,3.261,6.491,35.54,35.54,0,0,1,1.059,9.016Zm-4.687-3.319a38.55,38.55,0,0,0-.488-6.077,15.847,15.847,0,0,0-1.631-5.13,3.38,3.38,0,0,0-2.975-2.075q-2.527,0-3.913,3.736a32.487,32.487,0,0,0-1.671,9.546Z" transform="translate(-28.544 -16.103)"/><path class="cls-16" d="M1253.768,318.251q0-5.961,2.282-8.6a7.581,7.581,0,0,1,6.031-2.641h5.462V301.5q0-4.077-1.284-5.963a4.081,4.081,0,0,0-3.566-1.885,7.473,7.473,0,0,0-3.4.9,14.377,14.377,0,0,0-3.24,2.265l-.327-2.869a13.659,13.659,0,0,1,4.036-2.715,11.362,11.362,0,0,1,4.606-.981,7.523,7.523,0,0,1,6.256,2.943,12.393,12.393,0,0,1,2.3,7.848v24.223a22.481,22.481,0,0,1,2.773,1.284v.83l-8.152,1.431v-5.053a11.589,11.589,0,0,1-3.159,4.149,5.947,5.947,0,0,1-3.647,1.358Q1253.768,329.268,1253.768,318.251Zm11.7,5.887a10.4,10.4,0,0,0,2.078-3.849v-9.96h-4.2a3.44,3.44,0,0,0-3.2,2.074,12.693,12.693,0,0,0-1.079,5.774,12.472,12.472,0,0,0,1,5.7,3.018,3.018,0,0,0,2.711,1.848A3.78,3.78,0,0,0,1265.465,324.138Z" transform="translate(-28.544 -16.103)"/><path class="cls-16" d="M1287.759,324.7q-2.406-4.563-2.4-14.15,0-9.2,2.628-14.753t7.357-5.544a5.927,5.927,0,0,1,3.261.941,8.471,8.471,0,0,1,2.689,3.286V279.011a12.581,12.581,0,0,1-2.772-1.434v-.754l8.152-1.51v49.956a19.2,19.2,0,0,1,2.772,1.284v.677l-7.052,1.888q-.2-3.1-.325-6.792a12,12,0,0,1-3,5.17,6.333,6.333,0,0,1-4.464,1.772Q1290.164,329.268,1287.759,324.7Zm12.063-1.585a16.35,16.35,0,0,0,1.467-7.508V298.481q-2.283-4.83-4.971-4.83-2.976,0-4.28,5.13a48.275,48.275,0,0,0-1.305,11.848q0,15.322,5.421,15.32Q1298.355,325.949,1299.822,323.117Z" transform="translate(-28.544 -16.103)"/><path class="cls-16" d="M1358.347,327.383v1.131h-11.535v-1.131c.136-.1.509-.351,1.121-.757a6.031,6.031,0,0,1,1.814-.827V301.423q0-7.771-3.791-7.772a3.455,3.455,0,0,0-2.465,1.358,13.963,13.963,0,0,0-2.343,3.922c.054.907.081,1.585.081,2.038v24.9a8.075,8.075,0,0,1,2.893,1.511v1.131h-10.881v-1.131c.136-.1.509-.351,1.12-.757a6.3,6.3,0,0,1,1.733-.827V301.423q0-4.226-.958-6a2.942,2.942,0,0,0-2.67-1.772,3.608,3.608,0,0,0-2.5,1.321,13.353,13.353,0,0,0-2.426,3.886v27.014a13.837,13.837,0,0,1,3.22,1.511v1.131h-11.82v-1.131a9.876,9.876,0,0,1,3.22-1.584V293.878a16.344,16.344,0,0,1-2.812-1.434v-.757l8.192-1.508v5.207a12.9,12.9,0,0,1,2.893-3.7,5.528,5.528,0,0,1,3.668-1.432,5.848,5.848,0,0,1,4.137,1.622,9.1,9.1,0,0,1,2.467,4.566,14,14,0,0,1,3.057-4.49,5.755,5.755,0,0,1,4.074-1.7,6.2,6.2,0,0,1,5.279,2.829q2.016,2.832,2.017,7.885v24.9A12.866,12.866,0,0,1,1358.347,327.383Z" transform="translate(-28.544 -16.103)"/><path class="cls-16" d="M1368.252,327.383a35.823,35.823,0,0,1,3.218-1.584V294.028a12.743,12.743,0,0,1-2.811-1.358v-.756l8.192-1.508v35.466a21.908,21.908,0,0,1,3.219,1.511v1.131h-11.818Zm3.524-41.43a7.592,7.592,0,0,1-.794-3.7,7.813,7.813,0,0,1,.794-3.733,2.347,2.347,0,0,1,2.059-1.474,2.386,2.386,0,0,1,2.078,1.474,7.634,7.634,0,0,1,.815,3.733,7.419,7.419,0,0,1-.815,3.7,2.389,2.389,0,0,1-2.078,1.434A2.348,2.348,0,0,1,1371.776,285.953Z" transform="translate(-28.544 -16.103)"/><path class="cls-16" d="M1394.354,327.91a9.865,9.865,0,0,1-3.689-3.546l.327-9.282h1.182a30.428,30.428,0,0,1,.408,3.622q.162,2.415.2,4.376a6.526,6.526,0,0,0,2.078,2.075,5.1,5.1,0,0,0,2.77.794,4.412,4.412,0,0,0,3.69-1.851,8.371,8.371,0,0,0,1.4-5.167,6.529,6.529,0,0,0-.652-3.058,7.07,7.07,0,0,0-1.609-2.075,25.089,25.089,0,0,0-2.711-1.962,25.083,25.083,0,0,1-3.566-2.641,10.164,10.164,0,0,1-2.384-3.546,14.541,14.541,0,0,1-.978-5.734q0-4.682,2.364-7.171a7.8,7.8,0,0,1,5.908-2.489,8.77,8.77,0,0,1,7.867,4.3l-.367,7.925h-1.223a25.77,25.77,0,0,1-.386-3.1q-.144-1.884-.143-3.7a5.544,5.544,0,0,0-4.606-2.191,3.968,3.968,0,0,0-3.016,1.207,5.475,5.475,0,0,0-1.14,3.85,6.251,6.251,0,0,0,1.222,4.112,16.815,16.815,0,0,0,3.79,3.132,27.821,27.821,0,0,1,3.628,2.832,10.648,10.648,0,0,1,2.363,3.659,15.319,15.319,0,0,1,.978,5.887q0,5.582-2.4,8.336a7.712,7.712,0,0,1-6.074,2.755A10.406,10.406,0,0,1,1394.354,327.91Z" transform="translate(-28.544 -16.103)"/><path class="cls-16" d="M1422.762,327.91a9.857,9.857,0,0,1-3.689-3.546l.326-9.282h1.183a30.473,30.473,0,0,1,.407,3.622q.162,2.415.2,4.376a6.536,6.536,0,0,0,2.078,2.075,5.1,5.1,0,0,0,2.771.794,4.411,4.411,0,0,0,3.689-1.851,8.365,8.365,0,0,0,1.406-5.167,6.541,6.541,0,0,0-.652-3.058,7.089,7.089,0,0,0-1.61-2.075,25.061,25.061,0,0,0-2.71-1.962,25.1,25.1,0,0,1-3.567-2.641,10.164,10.164,0,0,1-2.384-3.546,14.559,14.559,0,0,1-.978-5.734q0-4.682,2.364-7.171a7.805,7.805,0,0,1,5.909-2.489,8.771,8.771,0,0,1,7.867,4.3l-.368,7.925h-1.222a25.743,25.743,0,0,1-.387-3.1q-.144-1.884-.142-3.7a5.546,5.546,0,0,0-4.606-2.191,3.969,3.969,0,0,0-3.017,1.207,5.475,5.475,0,0,0-1.14,3.85,6.251,6.251,0,0,0,1.223,4.112,16.806,16.806,0,0,0,3.789,3.132,27.821,27.821,0,0,1,3.628,2.832,10.648,10.648,0,0,1,2.363,3.659,15.319,15.319,0,0,1,.978,5.887q0,5.582-2.4,8.336a7.711,7.711,0,0,1-6.073,2.755A10.4,10.4,0,0,1,1422.762,327.91Z" transform="translate(-28.544 -16.103)"/><path class="cls-16" d="M1446.951,327.383q.734-.454,3.219-1.584V294.028a12.722,12.722,0,0,1-2.811-1.358v-.756l8.192-1.508v35.466a21.846,21.846,0,0,1,3.218,1.511v1.131h-11.818Zm3.524-41.43a7.592,7.592,0,0,1-.794-3.7,7.813,7.813,0,0,1,.794-3.733,2.348,2.348,0,0,1,2.059-1.474,2.388,2.388,0,0,1,2.079,1.474,7.645,7.645,0,0,1,.815,3.733,7.429,7.429,0,0,1-.815,3.7,2.39,2.39,0,0,1-2.079,1.434A2.349,2.349,0,0,1,1450.475,285.953Z" transform="translate(-28.544 -16.103)"/><path class="cls-16" d="M1471.833,324.138q-3-5.132-3-14.339t3-14.376q2.994-5.166,8.538-5.168,5.5,0,8.5,5.168t3,14.376q0,9.209-3,14.339t-8.5,5.13A9.4,9.4,0,0,1,1471.833,324.138Zm12.96-2.492q1.649-4.3,1.651-11.847t-1.651-11.848q-1.65-4.3-4.422-4.3-2.812,0-4.463,4.3t-1.651,11.848q0,7.547,1.651,11.847t4.463,4.3Q1483.142,325.949,1484.793,321.646Z" transform="translate(-28.544 -16.103)"/><path class="cls-16" d="M1528.707,327.383v1.131h-11.494v-1.131a14.27,14.27,0,0,1,2.935-1.584V301.423q0-7.771-3.791-7.772a4.529,4.529,0,0,0-2.872,1.321,12.183,12.183,0,0,0-2.834,4.113v26.787a13.8,13.8,0,0,1,3.22,1.511v1.131h-11.819v-1.131a9.857,9.857,0,0,1,3.22-1.584V293.878a16.357,16.357,0,0,1-2.813-1.434v-.757l8.192-1.508v5.433a13.127,13.127,0,0,1,3.384-3.886,6.854,6.854,0,0,1,4.2-1.471,6.2,6.2,0,0,1,5.279,2.829q2.016,2.832,2.017,7.885v24.9A9.438,9.438,0,0,1,1528.707,327.383Z" transform="translate(-28.544 -16.103)"/><path class="cls-16" d="M1542.83,327.91a9.857,9.857,0,0,1-3.689-3.546l.327-9.282h1.182a30.261,30.261,0,0,1,.407,3.622q.162,2.415.2,4.376a6.539,6.539,0,0,0,2.079,2.075,5.1,5.1,0,0,0,2.77.794,4.41,4.41,0,0,0,3.689-1.851,8.365,8.365,0,0,0,1.406-5.167,6.529,6.529,0,0,0-.652-3.058,7.086,7.086,0,0,0-1.609-2.075,25.191,25.191,0,0,0-2.711-1.962,25.026,25.026,0,0,1-3.566-2.641,10.164,10.164,0,0,1-2.384-3.546,14.54,14.54,0,0,1-.979-5.734q0-4.682,2.365-7.171a7.8,7.8,0,0,1,5.908-2.489,8.771,8.771,0,0,1,7.867,4.3l-.367,7.925h-1.223a25.949,25.949,0,0,1-.387-3.1q-.142-1.884-.142-3.7a5.546,5.546,0,0,0-4.606-2.191,3.967,3.967,0,0,0-3.016,1.207,5.47,5.47,0,0,0-1.141,3.85,6.251,6.251,0,0,0,1.223,4.112,16.792,16.792,0,0,0,3.79,3.132,27.8,27.8,0,0,1,3.627,2.832,10.648,10.648,0,0,1,2.363,3.659,15.3,15.3,0,0,1,.979,5.887q0,5.582-2.4,8.336a7.71,7.71,0,0,1-6.073,2.755A10.4,10.4,0,0,1,1542.83,327.91Z" transform="translate(-28.544 -16.103)"/><path class="cls-17" d="M1525.151,364.015c-8.926-4.955-18.787-8.048-28.768-10.194a206.215,206.215,0,0,0-30.461-3.918,364.459,364.459,0,0,0-61.752,2.043,446.529,446.529,0,0,0-61.426,11.148,308.139,308.139,0,0,0-30.214,9.324c-9.943,3.726-19.844,7.949-29.028,14.323,8.973-6.886,18.784-11.693,28.638-15.988a316.45,316.45,0,0,1,30.037-11.061,455.79,455.79,0,0,1,61.43-14.672,370.9,370.9,0,0,1,62.508-5.562,211.145,211.145,0,0,1,31.562,2.292c10.532,1.682,21.114,4.289,31.5,9.374,2.748,1.346,4.145,5.359,3.119,8.965s-4.086,5.438-6.834,4.092c-.066-.032-.131-.065-.194-.1Z" transform="translate(-28.544 -16.103)"/><path class="cls-18" d="M615.792,124.827a73.176,73.176,0,0,0,.362,8.143,10.75,10.75,0,0,0,1.485,4.766,5.877,5.877,0,0,0,3.187,2.317,21.283,21.283,0,0,0,5.541.794v5.3H597.541v-5.3a11.428,11.428,0,0,0,3.911-.794,4.613,4.613,0,0,0,2.317-2.251,13.232,13.232,0,0,0,1.086-4.5q.289-2.911.291-7.547V64.587q0-4.632-.254-7.48a14.849,14.849,0,0,0-.978-4.5,4.126,4.126,0,0,0-2.064-2.251,12.622,12.622,0,0,0-3.513-.86V44.2h44.327l.869,27.936h-3.042a74.352,74.352,0,0,0-1.268-9.6,20,20,0,0,0-2.354-6.355,8.761,8.761,0,0,0-3.911-3.509,14.48,14.48,0,0,0-5.867-1.059h-10q-1.3,0-1.3,2.251V92.125A32.032,32.032,0,0,0,623,91.463a8.225,8.225,0,0,0,4.455-2.581,11.66,11.66,0,0,0,2.39-5.23,56.616,56.616,0,0,0,1.013-8.738h2.681v41.44h-2.681a61.114,61.114,0,0,0-1.231-8.937,11.476,11.476,0,0,0-2.426-5.163,8.419,8.419,0,0,0-4.382-2.449,30.857,30.857,0,0,0-7.026-.662Z" transform="translate(-28.544 -16.103)"/><path class="cls-18" d="M679.1,42.874a20.314,20.314,0,0,1,12.168,4.1,36.069,36.069,0,0,1,9.814,11.253,63.644,63.644,0,0,1,6.554,16.814,86.974,86.974,0,0,1,2.39,20.919,80.31,80.31,0,0,1-2.426,20.124A61.673,61.673,0,0,1,701,132.44a35.923,35.923,0,0,1-9.814,10.989,20.135,20.135,0,0,1-24.191,0,36.314,36.314,0,0,1-9.851-10.989,60.073,60.073,0,0,1-6.59-16.351,81.41,81.41,0,0,1-2.391-20.124,86.973,86.973,0,0,1,2.391-20.919,63.61,63.61,0,0,1,6.554-16.814,36.056,36.056,0,0,1,9.814-11.253A20.315,20.315,0,0,1,679.1,42.874Zm0,95.987a11.267,11.267,0,0,0,7.605-2.979,23.505,23.505,0,0,0,5.794-8.473,56.044,56.044,0,0,0,3.657-13.372,111.869,111.869,0,0,0,1.268-17.675,123.624,123.624,0,0,0-1.268-18.6,63.569,63.569,0,0,0-3.657-14.167,24.476,24.476,0,0,0-5.794-9,10.9,10.9,0,0,0-15.247,0,24.746,24.746,0,0,0-5.758,9,63.515,63.515,0,0,0-3.657,14.167,123.493,123.493,0,0,0-1.268,18.6,111.75,111.75,0,0,0,1.268,17.675,56,56,0,0,0,3.657,13.372,23.76,23.76,0,0,0,5.758,8.473A11.221,11.221,0,0,0,679.1,138.861Z" transform="translate(-28.544 -16.103)"/><path class="cls-18" d="M762.677,69.75q0,10.992-3.476,18.4a18.079,18.079,0,0,1-11.082,9.929l16.8,35.218a15.491,15.491,0,0,0,4.129,5.626,7.711,7.711,0,0,0,4.853,1.92v5.3H756.738L738.776,105.9a20.736,20.736,0,0,0-3.151-5.362,3.7,3.7,0,0,0-2.5-1.39v25.949a71.667,71.667,0,0,0,.362,8.01,11.628,11.628,0,0,0,1.449,4.833,5.324,5.324,0,0,0,3.151,2.316,20.685,20.685,0,0,0,5.54.6v5.3H714.875v-5.3a10.57,10.57,0,0,0,3.875-.6A4.445,4.445,0,0,0,721.067,138a13.436,13.436,0,0,0,1.122-4.633q.289-2.979.29-7.613V64.587q0-4.632-.217-7.48a14.208,14.208,0,0,0-.942-4.5,4.126,4.126,0,0,0-2.064-2.251,12.772,12.772,0,0,0-3.585-.86V44.2h25.06q10.5,0,16.225,6.752T762.677,69.75ZM733.126,91.2h4.708q6.809,0,10.176-4.833t3.368-15.953q0-8.472-2.824-13.637t-7.823-5.164h-6.3q-1.3,0-1.3,2.251Z" transform="translate(-28.544 -16.103)"/><path class="cls-18" d="M828.66,73.325h-3.115a70.771,70.771,0,0,0-1.051-10.79,21.907,21.907,0,0,0-2.353-6.885,8.449,8.449,0,0,0-3.694-3.574,12.092,12.092,0,0,0-5.07-.993,40.985,40.985,0,0,0-4.527.2,7.957,7.957,0,0,0-2.608.662,2.3,2.3,0,0,0-1.193,1.258,5.8,5.8,0,0,0-.291,1.986v69.375a69.752,69.752,0,0,0,.326,7.282,13.8,13.8,0,0,0,1.34,4.965,6.706,6.706,0,0,0,2.971,2.913,12.533,12.533,0,0,0,5.14,1.125v5.3H784.188v-5.3a12.735,12.735,0,0,0,5.215-1.125,6.921,6.921,0,0,0,3.006-2.913,13.314,13.314,0,0,0,1.376-4.965,69.752,69.752,0,0,0,.326-7.282V55.187a6.659,6.659,0,0,0-.253-1.986,2.221,2.221,0,0,0-1.05-1.258,6.338,6.338,0,0,0-2.282-.662,30.474,30.474,0,0,0-3.875-.2,26.3,26.3,0,0,0-5,.463,7.2,7.2,0,0,0-4.2,2.648,16.932,16.932,0,0,0-2.933,6.62,55.71,55.71,0,0,0-1.2,12.511H770.5l.724-29.127h56.712Z" transform="translate(-28.544 -16.103)"/><path class="cls-18" d="M884.356,105.1a118.82,118.82,0,0,1-1.339,19.264,42.015,42.015,0,0,1-4.164,13.173,18.081,18.081,0,0,1-7.28,7.547,22.356,22.356,0,0,1-10.683,2.383q-11.663,0-17.057-8.937T838.438,110V73.723q0-5.164-.074-8.673t-.217-5.891a39.181,39.181,0,0,0-.4-3.906,16.843,16.843,0,0,0-.615-2.582,4.318,4.318,0,0,0-1.884-2.515,8.254,8.254,0,0,0-3.766-.662V44.2h26v5.3a12.558,12.558,0,0,0-4.49.6,4.3,4.3,0,0,0-2.245,2.317,11.653,11.653,0,0,0-.833,2.581,30.155,30.155,0,0,0-.507,3.972q-.182,2.452-.254,6.024t-.072,8.739V108.41q0,15.093,3.513,22.309t10.828,7.216q14.919,0,14.92-30.319V77.032q0-5.56-.109-9.532t-.362-6.752a40.233,40.233,0,0,0-.651-4.634,13.624,13.624,0,0,0-.978-3.045,6.56,6.56,0,0,0-2.607-2.715,9.42,9.42,0,0,0-4.419-.86V44.2h23.468v5.3a9.418,9.418,0,0,0-4.129.728,4.895,4.895,0,0,0-2.246,2.582,12.559,12.559,0,0,0-.941,3.111,44.932,44.932,0,0,0-.58,4.767q-.218,2.849-.325,6.818t-.11,9.532Z" transform="translate(-28.544 -16.103)"/><path class="cls-18" d="M941.792,147.467,909.706,63.925h-.29v56.93q0,6.622.254,10.46a20.534,20.534,0,0,0,1.086,5.957,4.7,4.7,0,0,0,2.318,2.781,11.068,11.068,0,0,0,3.875.794v5.3H895.438v-5.3a12.157,12.157,0,0,0,4.309-.86,5.127,5.127,0,0,0,2.535-2.715,17.362,17.362,0,0,0,1.2-5.626q.288-3.641.289-9.864V68.559q0-5.56-.289-9.2a21.885,21.885,0,0,0-1.087-5.759,5.525,5.525,0,0,0-2.282-2.979,10.073,10.073,0,0,0-3.947-1.125V44.2h20.207l29.189,76.525h.29V69.486q0-6.486-.253-10.393a20.918,20.918,0,0,0-1.087-6.024,4.718,4.718,0,0,0-2.318-2.78,11.173,11.173,0,0,0-3.875-.8V44.2h21.511v5.3a12.268,12.268,0,0,0-4.309.86,5.134,5.134,0,0,0-2.535,2.715,17.47,17.47,0,0,0-1.195,5.693q-.289,3.708-.29,9.8v78.908Z" transform="translate(-28.544 -16.103)"/><path class="cls-18" d="M982.134,89.742a42.1,42.1,0,0,0,7.46-.529,7.775,7.775,0,0,0,4.382-2.185,9.79,9.79,0,0,0,2.209-4.832A67.274,67.274,0,0,0,997.2,73.59h2.68v38.792H997.2a63.057,63.057,0,0,0-1.159-8.473,10.08,10.08,0,0,0-2.317-4.833,7.567,7.567,0,0,0-4.31-2.118,45.36,45.36,0,0,0-7.279-.463v27.273a35.242,35.242,0,0,0,.615,7.149,10.938,10.938,0,0,0,2.064,4.7,7.681,7.681,0,0,0,3.839,2.515,23.782,23.782,0,0,0,12.857-.331,9.994,9.994,0,0,0,4.743-3.707,21.654,21.654,0,0,0,3.042-7.083,84.82,84.82,0,0,0,1.956-11.188h2.9l-1.159,30.319H963.882v-5.3a11.423,11.423,0,0,0,3.911-.794,4.605,4.605,0,0,0,2.317-2.251,13.206,13.206,0,0,0,1.087-4.5q.289-2.911.289-7.547V64.587q0-4.632-.253-7.48a14.883,14.883,0,0,0-.977-4.5,4.131,4.131,0,0,0-2.065-2.251,12.623,12.623,0,0,0-3.512-.86V44.2h45.774l.507,25.95h-3.114a54.8,54.8,0,0,0-1.376-9.2,16.27,16.27,0,0,0-2.608-5.825,8.683,8.683,0,0,0-4.309-3.045,21.145,21.145,0,0,0-6.483-.861h-8.184q-1.884,0-2.318.861a11.3,11.3,0,0,0-.434,4.038Z" transform="translate(-28.544 -16.103)"/><path class="cls-18" d="M1056.734,89.742a42.1,42.1,0,0,0,7.46-.529,7.775,7.775,0,0,0,4.382-2.185,9.781,9.781,0,0,0,2.209-4.832,67.064,67.064,0,0,0,1.015-8.606h2.679v38.792H1071.8a63.057,63.057,0,0,0-1.159-8.473,10.081,10.081,0,0,0-2.318-4.833,7.564,7.564,0,0,0-4.309-2.118,45.383,45.383,0,0,0-7.28-.463v27.273a35.162,35.162,0,0,0,.616,7.149,10.926,10.926,0,0,0,2.064,4.7,7.677,7.677,0,0,0,3.839,2.515,23.778,23.778,0,0,0,12.856-.331,9.992,9.992,0,0,0,4.744-3.707,21.675,21.675,0,0,0,3.042-7.083,84.986,84.986,0,0,0,1.956-11.188h2.9l-1.159,30.319h-49.107v-5.3a11.429,11.429,0,0,0,3.912-.794,4.609,4.609,0,0,0,2.317-2.251,13.253,13.253,0,0,0,1.087-4.5q.288-2.911.289-7.547V64.587q0-4.632-.253-7.48a14.849,14.849,0,0,0-.978-4.5,4.126,4.126,0,0,0-2.064-2.251,12.631,12.631,0,0,0-3.513-.86V44.2h45.775l.507,25.95h-3.115a54.8,54.8,0,0,0-1.376-9.2,16.288,16.288,0,0,0-2.607-5.825,8.681,8.681,0,0,0-4.31-3.045,21.138,21.138,0,0,0-6.482-.861h-8.185q-1.884,0-2.317.861a11.287,11.287,0,0,0-.435,4.038Z" transform="translate(-28.544 -16.103)"/><path class="cls-18" d="M1093.817,146.143v-5.3a12.4,12.4,0,0,0,3.875-.728,4.44,4.44,0,0,0,2.318-2.251,13.171,13.171,0,0,0,1.123-4.5q.288-2.845.289-7.613V64.587q0-4.632-.217-7.48a14.239,14.239,0,0,0-.941-4.5,4.2,4.2,0,0,0-1.993-2.251,11.374,11.374,0,0,0-3.294-.86V44.2H1122.5a22.393,22.393,0,0,1,12.819,3.972,34.917,34.917,0,0,1,10.141,10.989,59.29,59.29,0,0,1,6.663,16.682,87.558,87.558,0,0,1,2.391,21.051,82.9,82.9,0,0,1-2.245,19.925A54.065,54.065,0,0,1,1146,132.374a31.689,31.689,0,0,1-9.633,10.128,22.215,22.215,0,0,1-12.349,3.641ZM1113.3,52.274q-1.233,0-1.232,2.251v68.449q0,7.68,2.608,11.386t8.039,3.707q9.488,0,14.6-10.46t5.106-30.45a117.313,117.313,0,0,0-1.376-18.933,56.846,56.846,0,0,0-3.984-14.1,23.792,23.792,0,0,0-6.337-8.8,12.9,12.9,0,0,0-8.366-3.045Z" transform="translate(-28.544 -16.103)"/><path class="cls-18" d="M1212.021,105.1a118.82,118.82,0,0,1-1.339,19.264,42.015,42.015,0,0,1-4.164,13.173,18.081,18.081,0,0,1-7.28,7.547,22.356,22.356,0,0,1-10.683,2.383q-11.663,0-17.057-8.937T1166.1,110V73.723q0-5.164-.074-8.673t-.217-5.891a39.181,39.181,0,0,0-.4-3.906,16.843,16.843,0,0,0-.615-2.582,4.318,4.318,0,0,0-1.884-2.515,8.254,8.254,0,0,0-3.766-.662V44.2h26v5.3a12.558,12.558,0,0,0-4.49.6,4.3,4.3,0,0,0-2.245,2.317,11.653,11.653,0,0,0-.833,2.581,30.155,30.155,0,0,0-.507,3.972q-.182,2.452-.254,6.024t-.072,8.739V108.41q0,15.093,3.513,22.309t10.828,7.216q14.919,0,14.92-30.319V77.032q0-5.56-.109-9.532t-.362-6.752a40.233,40.233,0,0,0-.651-4.634,13.624,13.624,0,0,0-.978-3.045,6.56,6.56,0,0,0-2.607-2.715,9.42,9.42,0,0,0-4.419-.86V44.2h23.468v5.3a9.418,9.418,0,0,0-4.129.728,4.889,4.889,0,0,0-2.245,2.582,12.513,12.513,0,0,0-.942,3.111,44.932,44.932,0,0,0-.58,4.767q-.216,2.849-.325,6.818t-.11,9.532Z" transform="translate(-28.544 -16.103)"/><path class="cls-18" d="M1271.558,44.2h3.548l-1.448,33.5h-2.9q-1.521-12.178-5.9-19.2t-10.611-7.017a10.834,10.834,0,0,0-7.6,3.111,24.054,24.054,0,0,0-5.614,8.871,62.8,62.8,0,0,0-3.476,14.034,130.944,130.944,0,0,0-1.2,18.6q0,20.525,4.6,31.577t13.581,11.055q7.241,0,11.986-7.149t6.773-21.316h3.186v35.879h-3.4l-1.014-10.459q-7.968,11.785-19.337,11.783a21.071,21.071,0,0,1-11.952-3.575,29.572,29.572,0,0,1-9.126-10.128,56.12,56.12,0,0,1-5.83-15.953,97.691,97.691,0,0,1-2.064-20.919,102.958,102.958,0,0,1,2.173-21.978,63.154,63.154,0,0,1,6.12-17.079,32.639,32.639,0,0,1,9.416-11.055,20.4,20.4,0,0,1,12.132-3.906,16.063,16.063,0,0,1,8.257,2.251,36.675,36.675,0,0,1,8.329,7.282Z" transform="translate(-28.544 -16.103)"/><path class="cls-18" d="M1316.246,115.3h-20.5q-3.4,14.034-3.4,19.462,0,3.972,1.629,5.031a9.059,9.059,0,0,0,4.889,1.059v5.3h-19.845v-5.3a12.4,12.4,0,0,0,3-1.059,7.233,7.233,0,0,0,2.246-1.853,11.057,11.057,0,0,0,1.7-3.112,38.406,38.406,0,0,0,1.376-4.7L1306.4,42.874h5.359l17.31,77.319q1.521,6.753,2.572,10.592a25.323,25.323,0,0,0,2.245,5.892,6.992,6.992,0,0,0,2.753,2.846,13.717,13.717,0,0,0,4.019,1.192v5.428h-27.378v-5.428a10.4,10.4,0,0,0,5-1.324q1.523-1.057,1.522-4.237a29.082,29.082,0,0,0-.507-4.766q-.508-2.912-1.377-7.149Zm-18.832-7.944h17.238l-8.329-40.116h-.29Z" transform="translate(-28.544 -16.103)"/><path class="cls-18" d="M1392.15,73.325h-3.114a70.771,70.771,0,0,0-1.051-10.79,21.882,21.882,0,0,0-2.353-6.885,8.449,8.449,0,0,0-3.694-3.574,12.1,12.1,0,0,0-5.07-.993,40.985,40.985,0,0,0-4.527.2,7.957,7.957,0,0,0-2.608.662,2.309,2.309,0,0,0-1.194,1.258,5.831,5.831,0,0,0-.29,1.986v69.375a69.478,69.478,0,0,0,.326,7.282,13.776,13.776,0,0,0,1.34,4.965,6.708,6.708,0,0,0,2.97,2.913,12.542,12.542,0,0,0,5.141,1.125v5.3H1347.68v-5.3a12.738,12.738,0,0,0,5.215-1.125,6.916,6.916,0,0,0,3-2.913,13.276,13.276,0,0,0,1.377-4.965,69.752,69.752,0,0,0,.326-7.282V55.187a6.659,6.659,0,0,0-.253-1.986,2.219,2.219,0,0,0-1.051-1.258,6.319,6.319,0,0,0-2.281-.662,30.5,30.5,0,0,0-3.875-.2,26.265,26.265,0,0,0-5,.463,7.2,7.2,0,0,0-4.2,2.648,16.947,16.947,0,0,0-2.933,6.62,55.72,55.72,0,0,0-1.195,12.511h-2.825l.725-29.127h56.711Z" transform="translate(-28.544 -16.103)"/><path class="cls-18" d="M1421.484,146.143h-25.857v-5.3a10.287,10.287,0,0,0,3.947-.86,4.847,4.847,0,0,0,2.281-2.715,19.921,19.921,0,0,0,1.087-5.626q.289-3.641.29-9.864V68.559q0-5.56-.253-9.2A23.624,23.624,0,0,0,1402,53.6a5.5,5.5,0,0,0-2.064-2.979,8.488,8.488,0,0,0-3.585-1.125V44.2h24.408v5.3a8.469,8.469,0,0,0-3.585,1.125,5.487,5.487,0,0,0-2.065,2.979,23.438,23.438,0,0,0-.977,5.759q-.255,3.644-.254,9.2v53.223q0,6.225.254,9.864a18.326,18.326,0,0,0,1.086,5.626,4.982,4.982,0,0,0,2.317,2.715,10.283,10.283,0,0,0,3.948.86Z" transform="translate(-28.544 -16.103)"/><path class="cls-18" d="M1457.408,42.874a20.309,20.309,0,0,1,12.168,4.1,36.056,36.056,0,0,1,9.814,11.253,63.645,63.645,0,0,1,6.555,16.814,87.024,87.024,0,0,1,2.39,20.919,80.31,80.31,0,0,1-2.427,20.124,61.639,61.639,0,0,1-6.591,16.351,35.933,35.933,0,0,1-9.813,10.989,20.136,20.136,0,0,1-24.192,0,36.325,36.325,0,0,1-9.85-10.989,60.074,60.074,0,0,1-6.591-16.351,81.411,81.411,0,0,1-2.39-20.124,86.974,86.974,0,0,1,2.39-20.919,63.61,63.61,0,0,1,6.555-16.814,36.044,36.044,0,0,1,9.814-11.253A20.309,20.309,0,0,1,1457.408,42.874Zm0,95.987a11.265,11.265,0,0,0,7.605-2.979,23.507,23.507,0,0,0,5.8-8.473,56.138,56.138,0,0,0,3.657-13.372,111.876,111.876,0,0,0,1.267-17.675,123.632,123.632,0,0,0-1.267-18.6,63.678,63.678,0,0,0-3.657-14.167,24.477,24.477,0,0,0-5.8-9,10.895,10.895,0,0,0-15.246,0,24.733,24.733,0,0,0-5.758,9,63.457,63.457,0,0,0-3.658,14.167,123.632,123.632,0,0,0-1.267,18.6,111.876,111.876,0,0,0,1.267,17.675,55.948,55.948,0,0,0,3.658,13.372,23.747,23.747,0,0,0,5.758,8.473A11.218,11.218,0,0,0,1457.408,138.861Z" transform="translate(-28.544 -16.103)"/><path class="cls-18" d="M1539.108,147.467l-32.086-83.542h-.29v56.93q0,6.622.254,10.46a20.568,20.568,0,0,0,1.086,5.957,4.7,4.7,0,0,0,2.319,2.781,11.068,11.068,0,0,0,3.875.794v5.3h-21.512v-5.3a12.152,12.152,0,0,0,4.309-.86,5.132,5.132,0,0,0,2.536-2.715,17.365,17.365,0,0,0,1.2-5.626q.288-3.641.289-9.864V68.559q0-5.56-.289-9.2a21.844,21.844,0,0,0-1.087-5.759,5.524,5.524,0,0,0-2.281-2.979,10.078,10.078,0,0,0-3.947-1.125V44.2h20.207l29.188,76.525h.29V69.486q0-6.486-.253-10.393a20.884,20.884,0,0,0-1.087-6.024,4.716,4.716,0,0,0-2.317-2.78,11.173,11.173,0,0,0-3.875-.8V44.2h21.511v5.3a12.27,12.27,0,0,0-4.31.86,5.129,5.129,0,0,0-2.534,2.715,17.444,17.444,0,0,0-1.195,5.693q-.291,3.708-.291,9.8v78.908Z" transform="translate(-28.544 -16.103)"/><path class="cls-18" d="M685.244,234.847A33.626,33.626,0,0,1,668.81,239c-14.935,0-25.1-9.867-25.1-24.713,0-14.558,9.866-24.608,25.7-24.608a30.25,30.25,0,0,1,14.523,3.319l.294,10.649h-5.111l-2.217-10.861,4.833,1.207v3.878c-3.785-3.123-7.347-4.42-11.3-4.42-9.114,0-16.289,7.037-16.289,20.836,0,13.756,6.7,20.9,16.481,20.9,3.627,0,6.2-.868,9.886-2.694l-4.473,3.95v-4.754c0-5.559-.073-11-.221-16.585h9.658c-.147,5.488-.22,11.014-.22,16.715ZM668.72,218.42V215.1h20.809v3.324l-8.365.915H677.99Z" transform="translate(-28.544 -16.103)"/><path class="cls-18" d="M705.36,225.747c0,5.337,1.7,7.141,4.961,7.141,3.322,0,7.013-2.315,9.936-5.567h2.194v4.155h-4.293l2.467-1.555c-3.843,5.89-8.793,8.881-14.226,8.881-6.1,0-10.053-3.4-9.952-12.737L696.7,207.2l1.951,1.813-6.71-1.415v-2.737l12.84-1.491.952.733-.368,9.958Zm14.165,12.727-.814-8.3.248-22.99,1.951,1.838-6.6-1.415V205l12.584-1.621.952.733-.221,9.958v22.35l-3.36-3.074,7.817,1.6v2.892Z" transform="translate(-28.544 -16.103)"/><path class="cls-18" d="M741.187,237.8c.146-3.184.22-10.472.22-14.859v-3.351c0-3.892-.074-6.085-.22-8.915l-5.279-.637v-2.633l13.3-4.478,1.185.733-.221,9.915v9.366c0,4.387.074,11.675.221,14.859Zm13.548-2.892V237.8h-18.25v-2.892l7.447-1.415h3.551ZM740.13,191.283c0-3,2.458-5.055,5.559-5.055s5.56,2.055,5.56,5.055c0,2.956-2.458,5.055-5.56,5.055S740.13,194.239,740.13,191.283Z" transform="translate(-28.544 -16.103)"/><path class="cls-18" d="M777.842,233.768c3.645,0,6.167-2.051,9.012-5.862l.77,1.521c-3.228,6.214-7.2,9.375-13.346,9.375-8.654,0-14.851-6.732-14.851-17.64,0-11.144,7.272-18.231,15.946-18.231,5.3,0,8.638,2.509,12.249,8.419l-.737,1.605c-3.566-3.65-6.077-5.068-8.982-5.068-4.979,0-9.06,4.115-9.06,13.134C768.843,229.6,772.61,233.768,777.842,233.768ZM798,234.912V237.8l-12.853.759-.844-6.75V209.68l.329-.842V192.567l-5.735-.708v-2.736l13.448-3.184,1.111.644-.294,9.969V237.8l-3.123-4.388Z" transform="translate(-28.544 -16.103)"/><path class="cls-18" d="M814.631,218.669c3.064-.958,8-2.258,11.569-2.972v2.755a68.963,68.963,0,0,0-9.726,2.83c-4.949,1.906-6.414,4.438-6.414,7.139,0,3.646,2.252,5.21,5.177,5.21,1.982,0,3.292-.738,6.767-3.143l2.228-1.606.895,1.252-2.62,2.649c-3.984,3.934-6.378,6.019-11.3,6.019-5.534,0-9.754-3.1-9.754-8.948C801.454,225.346,804.014,221.979,814.631,218.669Zm7,12.989V214.721c0-6.6-1.656-8.372-6.432-8.372a21.572,21.572,0,0,0-6.758,1.143l4.024-2.479-1.211,5.487c-.419,3.4-2.171,4.925-4.591,4.925-2.311,0-3.785-1.14-4.148-3.2.884-5.636,6.574-9.3,15.581-9.3,8.525,0,12.232,3.585,12.232,12.786v15.441c0,2.275.813,3.173,2.183,3.173a3.173,3.173,0,0,0,2.546-1.557l1.714,1.4c-1.766,3.286-4.077,4.491-7.579,4.491C824.663,238.667,821.96,235.993,821.636,231.658Z" transform="translate(-28.544 -16.103)"/><path class="cls-18" d="M843.85,237.8c.147-3.184.22-10.472.22-14.859V219.23c0-3.891-.073-5.721-.22-8.551l-5.186-.637v-2.633l12.305-4.478,1.185.733.775,8.025v11.256c0,4.387.074,11.675.22,14.859Zm13.533-2.892V237.8H839.214v-2.892l7.447-1.415h3.578Zm17.81-19.359v7.392c0,4.529.074,11.675.221,14.859h-9.3c.148-3.184.222-10.33.222-14.859v-6.7c0-5.542-1.47-7.4-5.129-7.4-3.14,0-6.427,1.648-9.974,5.037H849.2V210h4.374l-2.974,1.637c4.323-5.834,9.345-8.7,14.6-8.7C871.555,202.931,875.193,206.811,875.193,215.553ZM872.477,233.5l7.278,1.415V237.8h-18.2v-2.892l7.365-1.415Z" transform="translate(-28.544 -16.103)"/><path class="cls-18" d="M893.513,219.976c0,8.525,4.5,13.2,11.038,13.2a11.29,11.29,0,0,0,9.276-4.714L916,229.985c-2.42,5.822-7.427,8.817-14.371,8.817-10.056,0-17.384-6.482-17.384-17.852,0-11.343,8.5-18.019,18.393-18.019,7.171,0,12.617,4.281,13.357,9.724a3.842,3.842,0,0,1-4.149,3.163c-2.672,0-4.358-1.57-4.792-4.975l-1.245-5.629,4.384,2.773a15.458,15.458,0,0,0-6.795-1.638C898.1,206.349,893.513,210.659,893.513,219.976Z" transform="translate(-28.544 -16.103)"/><path class="cls-18" d="M953.2,217.172a14.362,14.362,0,0,1-.461,3.885H924.742V217.7h15.625c3.532,0,4.4-1.446,4.4-4.024,0-4.345-2.911-7.322-6.548-7.322-3.872,0-7.968,3.508-7.968,13.678,0,8.8,4.575,13.148,10.988,13.148a12.413,12.413,0,0,0,9.6-4.4l2.124,1.794c-2.838,5.284-7.845,8.234-14.758,8.234-10.294,0-17.318-6.658-17.318-17.751,0-11.319,8.572-18.12,17.886-18.12C947.433,202.931,953.2,208.61,953.2,217.172Z" transform="translate(-28.544 -16.103)"/><path class="cls-18" d="M988.526,218.669c3.064-.958,8-2.258,11.57-2.972v2.755a68.941,68.941,0,0,0-9.727,2.83c-4.949,1.906-6.414,4.438-6.414,7.139,0,3.646,2.252,5.21,5.178,5.21,1.981,0,3.291-.738,6.765-3.143l2.229-1.606.9,1.252-2.621,2.649c-3.983,3.934-6.377,6.019-11.3,6.019-5.535,0-9.753-3.1-9.753-8.948C975.35,225.346,977.908,221.979,988.526,218.669Zm7,12.989V214.721c0-6.6-1.656-8.372-6.431-8.372a21.573,21.573,0,0,0-6.759,1.143l4.024-2.479-1.211,5.487c-.42,3.4-2.172,4.925-4.591,4.925-2.311,0-3.786-1.14-4.149-3.2.886-5.636,6.574-9.3,15.581-9.3,8.526,0,12.233,3.585,12.233,12.786v15.441c0,2.275.814,3.173,2.182,3.173a3.17,3.17,0,0,0,2.546-1.557l1.715,1.4c-1.766,3.286-4.077,4.491-7.579,4.491C998.559,238.667,995.855,235.993,995.531,231.658Z" transform="translate(-28.544 -16.103)"/><path class="cls-18" d="M1017.745,237.8c.148-3.184.221-10.472.221-14.859V219.23c0-3.891-.073-5.721-.221-8.551l-5.185-.637v-2.633l12.3-4.478,1.186.733.774,8.025v11.256c0,4.387.074,11.675.221,14.859Zm13.533-2.892V237.8h-18.169v-2.892l7.448-1.415h3.578Zm17.811-19.359v7.392c0,4.529.073,11.675.221,14.859h-9.3c.147-3.184.221-10.33.221-14.859v-6.7c0-5.542-1.469-7.4-5.128-7.4-3.14,0-6.427,1.648-9.974,5.037H1023.1V210h4.374l-2.975,1.637c4.323-5.834,9.346-8.7,14.6-8.7C1045.45,202.931,1049.089,206.811,1049.089,215.553Zm-2.717,17.944,7.278,1.415V237.8h-18.2v-2.892l7.365-1.415Z" transform="translate(-28.544 -16.103)"/><path class="cls-18" d="M1076.693,233.768c3.646,0,6.167-2.051,9.013-5.862l.77,1.521c-3.229,6.214-7.2,9.375-13.346,9.375-8.654,0-14.852-6.732-14.852-17.64,0-11.144,7.273-18.231,15.947-18.231,5.3,0,8.637,2.509,12.249,8.419l-.737,1.605c-3.566-3.65-6.078-5.068-8.982-5.068-4.98,0-9.061,4.115-9.061,13.134C1067.694,229.6,1071.462,233.768,1076.693,233.768Zm20.162,1.144V237.8l-12.853.759-.844-6.75V209.68l.328-.842V192.567l-5.734-.708v-2.736l13.448-3.184,1.112.644-.295,9.969V237.8l-3.122-4.388Z" transform="translate(-28.544 -16.103)"/><path class="cls-18" d="M1155.915,230.929v3.761l-4.752,1.017,2.164-10.783h5.056l-.294,10.571a32.445,32.445,0,0,1-15.163,3.5c-14.515,0-25.226-9.162-25.226-24.66,0-15.475,11.369-24.661,25.449-24.661a29.574,29.574,0,0,1,14.312,3.449l.294,10.622H1152.7l-2.191-10.834,4.752,1.042v4.108c-3.844-3.386-7.371-4.615-10.8-4.615-8.882,0-16.336,6.78-16.336,20.914,0,14.11,6.915,20.837,15.9,20.837A19.467,19.467,0,0,0,1155.915,230.929Z" transform="translate(-28.544 -16.103)"/><path class="cls-18" d="M1163.587,220.864c0-11.3,8.234-17.933,17.751-17.933,9.424,0,17.752,6.551,17.752,17.933s-7.869,17.938-17.752,17.938C1171.335,238.8,1163.587,232.169,1163.587,220.864Zm25.908.078c0-9.766-2.916-14.568-8.157-14.568-5.334,0-8.156,4.8-8.156,14.568,0,9.793,2.822,14.415,8.156,14.415C1186.579,235.357,1189.495,230.735,1189.495,220.942Z" transform="translate(-28.544 -16.103)"/><path class="cls-18" d="M1209.007,237.8c.146-3.184.221-10.472.221-14.859V219.23c0-3.891-.075-5.721-.221-8.551l-5.186-.637v-2.633l12.305-4.478,1.185.733.775,8.025v11.256c0,4.387.073,11.675.221,14.859Zm13.533-2.892V237.8h-18.169v-2.892l7.447-1.415h3.578Zm17.811-19.359v7.392c0,4.529.073,11.675.22,14.859h-9.3c.147-3.184.22-10.33.22-14.859v-6.7c0-5.542-1.469-7.4-5.128-7.4-3.139,0-6.426,1.648-9.973,5.037h-2.032V210h4.374l-2.975,1.637c4.323-5.834,9.347-8.7,14.6-8.7C1236.712,202.931,1240.351,206.811,1240.351,215.553Zm-2.717,17.944,7.278,1.415V237.8h-18.2v-2.892l7.366-1.415Z" transform="translate(-28.544 -16.103)"/><path class="cls-18" d="M1249.82,235.827l-.051-8.206h4.927l1.825,8.921-3.876-1.5v-2.665a15.716,15.716,0,0,0,9.132,2.875c4.938,0,7.425-1.752,7.425-4.8,0-2.627-1.775-4.132-6.519-5.629L1259,223.675c-5.534-1.754-8.9-4.955-8.9-10.027,0-5.821,4.975-10.717,14.036-10.717a22.3,22.3,0,0,1,10.959,2.875l-.4,7.458h-4.814l-1.8-7.952,3.378,1.417v2.23a12.179,12.179,0,0,0-7.506-2.48c-3.915,0-6.188,1.65-6.188,4.414,0,2.56,1.462,3.841,6.493,5.454l2.91.882c7.17,2.306,9.967,5.814,9.967,10.642,0,6.379-5.54,10.931-15.446,10.931A24.191,24.191,0,0,1,1249.82,235.827Z" transform="translate(-28.544 -16.103)"/><path class="cls-18" d="M1294.229,225.747c0,5.337,1.7,7.141,4.962,7.141,3.322,0,7.013-2.315,9.937-5.567h2.193v4.155h-4.294l2.468-1.555c-3.843,5.89-8.794,8.881-14.225,8.881-6.1,0-10.053-3.4-9.953-12.737l.247-18.861,1.952,1.813-6.709-1.415v-2.737l12.839-1.491.952.733-.369,9.958Zm14.167,12.727-.815-8.3.248-22.99,1.95,1.838-6.6-1.415V205l12.584-1.621.952.733-.221,9.958v22.35l-3.36-3.074,7.817,1.6v2.892Z" transform="translate(-28.544 -16.103)"/><path class="cls-18" d="M1338.04,185.939l1.111.644-.294,9.969v26.393q0,7.43.221,14.859h-9.3q.222-7.429.221-14.859V192.567l-5.324-.708v-2.736Zm5.953,48.973V237.8h-19.131v-2.892l7.668-1.415h3.552Z" transform="translate(-28.544 -16.103)"/><path class="cls-18" d="M1364.768,234.121a7.626,7.626,0,0,0,4.491-1.773l1.747,1.806c-1.894,2.94-5.127,4.648-9.671,4.648-5.889,0-9.432-2.7-9.432-8.931,0-2.088.075-3.781.075-6.541V208.205h-5.454v-3.64l8.91-1.106-3.592,2.595,3.45-11.9h5.917l-.373,12.564v22.379C1360.836,232.591,1362.428,234.121,1364.768,234.121Zm4.981-30.192v4.276h-13.315v-4.276Z" transform="translate(-28.544 -16.103)"/><path class="cls-18" d="M1386.87,218.669c3.064-.958,8-2.258,11.568-2.972v2.755a68.985,68.985,0,0,0-9.725,2.83c-4.949,1.906-6.414,4.438-6.414,7.139,0,3.646,2.251,5.21,5.178,5.21,1.981,0,3.291-.738,6.765-3.143l2.229-1.606.895,1.252-2.621,2.649c-3.983,3.934-6.377,6.019-11.3,6.019-5.534,0-9.753-3.1-9.753-8.948C1373.693,225.346,1376.252,221.979,1386.87,218.669Zm7,12.989V214.721c0-6.6-1.655-8.372-6.432-8.372a21.562,21.562,0,0,0-6.757,1.143l4.024-2.479L1383.5,210.5c-.419,3.4-2.171,4.925-4.59,4.925-2.311,0-3.786-1.14-4.149-3.2.885-5.636,6.574-9.3,15.581-9.3,8.525,0,12.232,3.585,12.232,12.786v15.441c0,2.275.815,3.173,2.183,3.173a3.172,3.172,0,0,0,2.546-1.557l1.715,1.4a7.665,7.665,0,0,1-7.579,4.491C1396.9,238.667,1394.2,235.993,1393.874,231.658Z" transform="translate(-28.544 -16.103)"/><path class="cls-18" d="M1416.089,237.8c.146-3.184.221-10.472.221-14.859V219.23c0-3.891-.075-5.721-.221-8.551l-5.186-.637v-2.633l12.305-4.478,1.185.733.775,8.025v11.256c0,4.387.073,11.675.221,14.859Zm13.533-2.892V237.8h-18.169v-2.892l7.447-1.415h3.579Zm17.811-19.359v7.392c0,4.529.073,11.675.22,14.859h-9.3c.147-3.184.22-10.33.22-14.859v-6.7c0-5.542-1.469-7.4-5.128-7.4-3.139,0-6.426,1.648-9.973,5.037h-2.032V210h4.374l-2.975,1.637c4.323-5.834,9.347-8.7,14.6-8.7C1443.794,202.931,1447.433,206.811,1447.433,215.553Zm-2.717,17.944,7.278,1.415V237.8h-18.2v-2.892l7.366-1.415Z" transform="translate(-28.544 -16.103)"/><path class="cls-18" d="M1465.752,219.976c0,8.525,4.5,13.2,11.038,13.2a11.29,11.29,0,0,0,9.276-4.714l2.171,1.524c-2.419,5.822-7.425,8.817-14.37,8.817-10.055,0-17.384-6.482-17.384-17.852,0-11.343,8.5-18.019,18.393-18.019,7.171,0,12.616,4.281,13.357,9.724a3.842,3.842,0,0,1-4.149,3.163c-2.672,0-4.357-1.57-4.792-4.975l-1.245-5.629,4.385,2.773a15.464,15.464,0,0,0-6.8-1.638C1470.342,206.349,1465.752,210.659,1465.752,219.976Z" transform="translate(-28.544 -16.103)"/><path class="cls-18" d="M1490.414,250.018c.568-2.553,2.919-3.777,5.479-3.777a7.2,7.2,0,0,1,5.858,2.955l2.281,2.713-2.816,1.375-2.122-1.375c4.2-2.179,7.172-6.542,8.958-11.39l3.092-8.467,10.468-28.123h4.407l-13.992,35.138c-4.3,10.867-8.017,15.958-14.457,15.958C1493.8,255.025,1490.549,252.907,1490.414,250.018Zm6.966-42.214-6.942-1.088v-2.787h19.271v2.806l-7.7,1.069Zm11.614,34.068-16.246-37.943h9.815l10.691,28.167Zm12.537-34.1-6.963-1.061v-2.787h14.154v2.787l-5.745,1.061Z" transform="translate(-28.544 -16.103)"/></svg>