<svg id="Layer_1" data-name="Layer 1" xmlns="http://www.w3.org/2000/svg" xmlns:xlink="http://www.w3.org/1999/xlink" viewBox="0 0 959.6 773.938"><defs><style>.cls-1{fill:#f9a61a;}.cls-2{fill:none;stroke:#f9a61a;stroke-linecap:round;stroke-miterlimit:10;stroke-width:2.164px;}.cls-3{fill:#1a1c4f;}.cls-4{fill:url(#linear-gradient);}.cls-5{fill:url(#linear-gradient-2);}.cls-6{fill:url(#linear-gradient-3);}.cls-7{fill:url(#linear-gradient-4);}.cls-8{fill:url(#linear-gradient-5);}.cls-9{fill:url(#linear-gradient-6);}.cls-10{fill:url(#linear-gradient-7);}.cls-11{fill:url(#linear-gradient-8);}.cls-12{fill:url(#linear-gradient-9);}.cls-13{fill:url(#linear-gradient-10);}.cls-14{fill:url(#linear-gradient-11);}.cls-15{fill:url(#linear-gradient-12);}.cls-16{fill:#1f1c4e;}.cls-17{fill:#f8a51b;}</style><linearGradient id="linear-gradient" x1="439.857" y1="201.999" x2="407.278" y2="160.951" gradientUnits="userSpaceOnUse"><stop offset="0" stop-color="#019147"/><stop offset="1" stop-color="#3bb44a"/></linearGradient><linearGradient id="linear-gradient-2" x1="420.166" y1="141.222" x2="406.767" y2="106.194" xlink:href="#linear-gradient"/><linearGradient id="linear-gradient-3" x1="453.17" y1="235.539" x2="407.261" y2="220.129" xlink:href="#linear-gradient"/><linearGradient id="linear-gradient-4" x1="438.384" y1="88.842" x2="447.993" y2="71.868" xlink:href="#linear-gradient"/><linearGradient id="linear-gradient-5" x1="427.284" y1="118.705" x2="437.941" y2="102.541" xlink:href="#linear-gradient"/><linearGradient id="linear-gradient-6" x1="468.555" y1="57.357" x2="488.219" y2="32.561" xlink:href="#linear-gradient"/><linearGradient id="linear-gradient-7" x1="3524.695" y1="201.999" x2="3492.116" y2="160.951" gradientTransform="matrix(-1, 0, 0, 1, 4360.232, 0)" xlink:href="#linear-gradient"/><linearGradient id="linear-gradient-8" x1="3505.004" y1="141.222" x2="3491.605" y2="106.194" gradientTransform="matrix(-1, 0, 0, 1, 4360.232, 0)" xlink:href="#linear-gradient"/><linearGradient id="linear-gradient-9" x1="3538.008" y1="235.539" x2="3492.099" y2="220.13" gradientTransform="matrix(-1, 0, 0, 1, 4360.232, 0)" xlink:href="#linear-gradient"/><linearGradient id="linear-gradient-10" x1="3523.222" y1="88.842" x2="3532.831" y2="71.868" gradientTransform="matrix(-1, 0, 0, 1, 4360.232, 0)" xlink:href="#linear-gradient"/><linearGradient id="linear-gradient-11" x1="3512.122" y1="118.705" x2="3522.779" y2="102.541" gradientTransform="matrix(-1, 0, 0, 1, 4360.232, 0)" xlink:href="#linear-gradient"/><linearGradient id="linear-gradient-12" x1="3553.393" y1="57.357" x2="3573.057" y2="32.561" gradientTransform="matrix(-1, 0, 0, 1, 4360.232, 0)" xlink:href="#linear-gradient"/></defs><path class="cls-1" d="M750.4,281.281c-21.2-37.468-62.841-62.95-110.743-62.95-47.856,0-89.463,25.43-110.687,62.854a114.911,114.911,0,0,0-8.872,19.707c88.925,23,118.015,72.651,119.505,75.291v.009c.009.008.009.008.009.017a.28.28,0,0,1,.037.078v.009h.017v-.009c.439-.8,28.9-51.954,119.55-75.387h.01A114.9,114.9,0,0,0,750.4,281.281ZM621.213,258.005,657,257.926v10.6l-35.787.07Zm18.492,117.24,2.449-53.379a7.95,7.95,0,0,0,5.1-7.33,8.366,8.366,0,0,0-16.711,0,7.951,7.951,0,0,0,5.29,7.391l3.673,52.918a.032.032,0,0,0-.009-.026c-1.855-17.8-36.061-58.12-36.061-58.12,15.412-12.854,17.733-44.156,17.733-44.156l19.963-.138,15.7.138s2.329,31.3,17.743,44.156c0,0-33.568,41-34.856,58.555Z" transform="translate(-155.946 -17.725)"/><line class="cls-2" x1="377.831" y1="249.708" x2="361.533" y2="238.581"/><path class="cls-2" d="M517.479,256.306" transform="translate(-155.946 -17.725)"/><path class="cls-2" d="M533.777,267.433" transform="translate(-155.946 -17.725)"/><line class="cls-2" x1="387.851" y1="237.031" x2="363.201" y2="215.634"/><line class="cls-2" x1="399.98" y1="225.265" x2="388.507" y2="209.616"/><line class="cls-2" x1="414.768" y1="214.736" x2="399.568" y2="186.485"/><line class="cls-2" x1="430.465" y1="206.261" x2="425.488" y2="187.783"/><line class="cls-2" x1="449.654" y1="200.359" x2="442.438" y2="169.378"/><line class="cls-2" x1="465.46" y1="196.497" x2="463.105" y2="177.554"/><line class="cls-2" x1="482.685" y1="195.522" x2="483.329" y2="163.796"/><line class="cls-2" x1="599.131" y1="265.246" x2="630.213" y2="253.674"/><line class="cls-2" x1="590.514" y1="250.827" x2="607.126" y2="240.129"/><line class="cls-2" x1="580.077" y1="237.893" x2="605.335" y2="217.147"/><line class="cls-2" x1="568.292" y1="226.563" x2="580.211" y2="211.219"/><line class="cls-2" x1="553.813" y1="215.653" x2="569.822" y2="187.808"/><line class="cls-2" x1="538.366" y1="207.519" x2="543.874" y2="189.178"/><line class="cls-2" x1="519.355" y1="200.372" x2="527.462" y2="169.59"/><line class="cls-2" x1="503.666" y1="196.847" x2="506.566" y2="177.973"/><path class="cls-2" d="M517.479,253.967" transform="translate(-155.946 -17.725)"/><path class="cls-2" d="M533.777,265.094" transform="translate(-155.946 -17.725)"/><path class="cls-2" d="M517.479,253.967" transform="translate(-155.946 -17.725)"/><path class="cls-2" d="M533.777,265.094" transform="translate(-155.946 -17.725)"/><line class="cls-2" x1="599.131" y1="262.907" x2="630.213" y2="251.335"/><path class="cls-3" d="M851.463,308.716a345.386,345.386,0,0,0-53.348-.121c-81.341,6.27-130.705,41.549-152.752,61.855a1.786,1.786,0,0,0-.228.217c-.32.3-.63.582-.941.877-.758.721-1.772,1.685-2.595,2.476-.319.3-.621.6-.923.894v.018c-.191.182-.374.364-.557.547-.1.1-.2.2-.274.269a.512.512,0,0,1-.1.1,1.012,1.012,0,0,0-.1-.105c-.274-.278-.557-.564-.859-.851-1.3-1.294-2.75-2.692-4.358-4.177a.637.637,0,0,1-.082-.07c-21.891-20.254-71.355-55.828-153.071-62.142a344.511,344.511,0,0,0-53.366.1l19.232-48.654a349.053,349.053,0,0,1,45.079,7.556,286.669,286.669,0,0,1,36.536,11.256c71.666,27.558,101.369,74.736,110.971,94.2,9.658-19.541,39.4-66.615,110.962-94.121A286.919,286.919,0,0,1,787.206,267.6a345.973,345.973,0,0,1,45.025-7.539Z" transform="translate(-155.946 -17.725)"/><path class="cls-3" d="M906,324.292V390a982.7,982.7,0,0,0-114.025-20.277c-52.88-6.066-112.214-7.5-149.844,8.157-.3.11-1.983.834-2.343,1-.072-.027-2.458-1.066-2.529-1.093-37.63-15.672-96.993-14.224-149.887-8.171A984.061,984.061,0,0,0,373.39,389.9V324.2a409.724,409.724,0,0,1,48.87-8.977,341.821,341.821,0,0,1,58.572-2.214c82.432,4.113,132.682,39.283,153.509,57.633a.394.394,0,0,0,.086.068q2.415,2.234,4.355,4.181c.3.287.59.574.863.847.028.041.071.069.1.11a.393.393,0,0,0,.1-.11c.273-.259.546-.533.833-.806v-.013q2.005-1.989,4.456-4.25a1.7,1.7,0,0,1,.23-.218c21.014-18.392,71.178-53.247,153.207-57.346a341.553,341.553,0,0,1,58.558,2.213A415.618,415.618,0,0,1,906,324.292Z" transform="translate(-155.946 -17.725)"/><path class="cls-3" d="M656.212,77.091V99.809c7.735-7.293,13.186-2.956,19.058,3.3V80.074l23.7,8.657q.251-.526.5-1.052c-6.5-3-12.87-6.315-19.555-8.888-3.564-1.372-4.723-3.1-4.557-6.6.283-5.953.078-11.928.078-18.721L763.6,88.824c-2.909,1.574-4.358,2.543-5.952,3.19-13.5,5.478-26.985,11-40.58,16.257-3.077,1.191-4.207,2.669-4.161,5.835.184,12.491.108,24.986.062,37.479-.02,5.725-1.771,7.027-7.57,6.226-33.72-4.66-67.548-6.689-101.561-3.411-9.543.92-19.068,2.012-28.6,3.074-6.41.715-7.927-.46-7.943-6.591q-.054-20.988-.011-41.977c0-8.2,3.566-14.047,11.42-18.11,22.635-11.71,46.8-16.1,72.306-14.741A39.694,39.694,0,0,1,656.212,77.091Z" transform="translate(-155.946 -17.725)"/><path class="cls-3" d="M560.3,107.024c-14.141-5.724-27.368-10.883-40.354-16.54-1.993-.868-2.893-4.025-4.255-6.149-.157-.245-.035-.655-.032-.988.127-14.931-2.137-12.75,12.887-18.838,34.892-14.142,69.764-28.331,104.805-42.132a18.881,18.881,0,0,1,12.455-.277C683.17,36.7,726.3,53.92,763.52,68.84c.643.258-.1,5.79-.1,5.79s-9.863-3.561-11.8-4.337Q699.912,49.545,648.2,28.8c-2.208-.886-4.48-1.627-6.683-2.421-3.814,7.728-1.931,12.6,5.706,15.7,8.955,3.628,8.953,3.628,8.948,13.216,0,5.31,0,10.62,0,16.305-5.588-.37-10.749-.731-15.912-1.051-22.558-1.4-43.7,3.253-63.82,12.959C566.467,88.319,559.409,94.634,560.3,107.024Z" transform="translate(-155.946 -17.725)"/><path class="cls-4" d="M472.482,223.738c-10.833-4.536-21.689-9.021-32.488-13.629-4.64-1.98-9.267-4.032-13.708-6.379-6.408-3.385-8.6-9.546-5.831-15.443,3.57-7.615,12.409-9.155,18.724-2.755,8.058,8.166,15.628,16.77,23.332,25.247,3.612,3.975,7.048,8.095,10.564,12.149Z" transform="translate(-155.946 -17.725)"/><path class="cls-5" d="M447.563,182.218c-7.545-6.643-16.029-13.886-24.22-21.418a139,139,0,0,1-11.794-12.473c-3.817-4.5-4-10-.965-14.279,2.789-3.935,6.743-5.407,11.581-4.535,5.235.943,7.5,4.883,9.124,9.044,4.371,11.165,8.537,22.4,12.737,33.628C445.44,175.966,446.712,179.8,447.563,182.218Z" transform="translate(-155.946 -17.725)"/><path class="cls-6" d="M493.988,239.471c-12.027,6.508-23.631,10.553-36.662,9.594-5.205-.383-9.1-2.746-10.918-7.5a11.73,11.73,0,0,1,2.92-13.423c3.749-3.618,8.444-4.1,13.225-2.1C472.821,230.318,483.009,234.767,493.988,239.471Z" transform="translate(-155.946 -17.725)"/><path class="cls-7" d="M446.471,96.22q0-6.043,0-12.088c.013-10.139-.033-20.278.068-30.416.062-6.33,3.422-11.283,7.95-12.12,7.758-1.434,14.542,5.4,11.7,12.584-5.643,14.237-12,28.218-18.067,42.3Z" transform="translate(-155.946 -17.725)"/><path class="cls-8" d="M438,139.472c-5.445-13.833-10.928-27.652-16.311-41.507-1.661-4.274-1.345-8.456,2.233-11.787,2.76-2.569,6.187-3.767,10.06-2.331,4.754,1.764,6.616,5.568,6.92,10.013a110.256,110.256,0,0,1,.023,13.172c-.555,10.728-1.3,21.447-1.968,32.17Z" transform="translate(-155.946 -17.725)"/><path class="cls-9" d="M469.325,62.283c4.916-12.82,9.657-25.706,14.829-38.432,2.364-5.819,8.169-7.644,13.135-4.823,5.224,2.968,6.471,9.111,2.049,14.061-6.675,7.473-13.886,14.516-20.936,21.681-2.68,2.723-5.546,5.28-8.327,7.913Z" transform="translate(-155.946 -17.725)"/><path class="cls-10" d="M802.912,223.738c10.833-4.536,21.69-9.021,32.488-13.629,4.64-1.98,9.267-4.032,13.708-6.379,6.409-3.385,8.6-9.546,5.831-15.443-3.57-7.615-12.409-9.155-18.724-2.755-8.058,8.166-15.627,16.77-23.331,25.247-3.613,3.975-7.049,8.095-10.565,12.149Z" transform="translate(-155.946 -17.725)"/><path class="cls-11" d="M827.832,182.218c7.544-6.643,16.028-13.886,24.219-21.418a138.715,138.715,0,0,0,11.794-12.473c3.818-4.5,4-10,.965-14.279-2.789-3.935-6.743-5.407-11.581-4.535-5.235.943-7.5,4.883-9.124,9.044-4.371,11.165-8.537,22.4-12.736,33.628C829.954,175.966,828.682,179.8,827.832,182.218Z" transform="translate(-155.946 -17.725)"/><path class="cls-12" d="M781.406,239.471c12.027,6.508,23.631,10.553,36.662,9.594,5.206-.383,9.1-2.746,10.918-7.5a11.728,11.728,0,0,0-2.92-13.423c-3.749-3.618-8.444-4.1-13.224-2.1C802.574,230.318,792.385,234.767,781.406,239.471Z" transform="translate(-155.946 -17.725)"/><path class="cls-13" d="M828.924,96.22q0-6.043,0-12.088c-.013-10.139.033-20.278-.067-30.416-.063-6.33-3.423-11.283-7.951-12.12-7.757-1.434-14.542,5.4-11.694,12.584,5.642,14.237,12,28.218,18.066,42.3Z" transform="translate(-155.946 -17.725)"/><path class="cls-14" d="M837.391,139.472c5.444-13.833,10.927-27.652,16.311-41.507,1.66-4.274,1.345-8.456-2.233-11.787-2.76-2.569-6.187-3.767-10.061-2.331-4.754,1.764-6.615,5.568-6.919,10.013a110.046,110.046,0,0,0-.023,13.172c.554,10.728,1.3,21.447,1.968,32.17Z" transform="translate(-155.946 -17.725)"/><path class="cls-15" d="M806.069,62.283c-4.916-12.82-9.657-25.706-14.828-38.432-2.365-5.819-8.17-7.644-13.136-4.823-5.223,2.968-6.471,9.111-2.049,14.061,6.676,7.473,13.886,14.516,20.937,21.681,2.679,2.723,5.546,5.28,8.327,7.913Z" transform="translate(-155.946 -17.725)"/><path d="M239.177,593.957a33.612,33.612,0,0,1-16.433,4.148c-14.935,0-25.106-9.867-25.106-24.712,0-14.559,9.866-24.609,25.7-24.609a30.246,30.246,0,0,1,14.522,3.319l.295,10.649h-5.111l-2.218-10.861,4.833,1.207v3.878c-3.785-3.123-7.346-4.42-11.3-4.42-9.114,0-16.289,7.037-16.289,20.837,0,13.755,6.7,20.9,16.48,20.9,3.628,0,6.205-.868,9.887-2.693l-4.473,3.949v-4.754c0-5.559-.074-11-.221-16.585H239.4c-.147,5.488-.221,11.015-.221,16.715ZM222.653,577.53v-3.324h20.809v3.324l-8.365.915h-3.174Z" transform="translate(-155.946 -17.725)"/><path d="M259.293,584.857c0,5.337,1.7,7.141,4.962,7.141,3.321,0,7.013-2.314,9.936-5.566h2.194v4.154h-4.294l2.468-1.555c-3.844,5.89-8.794,8.881-14.226,8.881-6.1,0-10.053-3.4-9.953-12.736l.248-18.862,1.951,1.813-6.709-1.415v-2.736l12.839-1.492.952.734-.368,9.958Zm14.166,12.727-.814-8.3.248-22.99,1.95,1.838-6.6-1.415v-2.607l12.584-1.621.952.734-.22,9.958v22.349l-3.36-3.074,7.816,1.6v2.892Z" transform="translate(-155.946 -17.725)"/><path d="M295.12,596.914c.147-3.184.221-10.472.221-14.858V578.7c0-3.892-.074-6.085-.221-8.915l-5.278-.637V566.52l13.3-4.479,1.184.733-.221,9.915v9.367c0,4.386.074,11.674.221,14.858Zm13.548-2.892v2.892h-18.25v-2.892l7.447-1.415h3.552Zm-14.605-43.629c0-3,2.459-5.055,5.56-5.055s5.56,2.055,5.56,5.055c0,2.956-2.459,5.055-5.56,5.055S294.063,553.349,294.063,550.393Z" transform="translate(-155.946 -17.725)"/><path d="M331.775,592.878c3.645,0,6.167-2.051,9.013-5.861l.77,1.52c-3.229,6.214-7.2,9.375-13.347,9.375-8.654,0-14.851-6.731-14.851-17.64,0-11.144,7.272-18.231,15.946-18.231,5.3,0,8.638,2.51,12.249,8.419l-.736,1.605c-3.566-3.65-6.078-5.068-8.982-5.068-4.98,0-9.061,4.115-9.061,13.134C322.776,588.71,326.543,592.878,331.775,592.878Zm20.162,1.144v2.892l-12.854.76-.843-6.75V568.79l.328-.842V551.677l-5.734-.708v-2.737l13.448-3.183,1.111.643-.294,9.97v41.252l-3.123-4.388Z" transform="translate(-155.946 -17.725)"/><path d="M368.565,577.779c3.064-.958,8-2.258,11.569-2.971v2.754a68.912,68.912,0,0,0-9.726,2.831c-4.949,1.9-6.414,4.437-6.414,7.138,0,3.647,2.252,5.21,5.177,5.21,1.982,0,3.292-.738,6.767-3.142l2.228-1.607.895,1.252-2.621,2.65c-3.983,3.933-6.377,6.018-11.3,6.018-5.535,0-9.754-3.1-9.754-8.948C355.388,584.456,357.947,581.09,368.565,577.779Zm7,12.99V573.831c0-6.6-1.656-8.372-6.432-8.372a21.549,21.549,0,0,0-6.758,1.144l4.024-2.48-1.211,5.487c-.42,3.4-2.172,4.925-4.591,4.925-2.311,0-3.786-1.139-4.149-3.194.885-5.637,6.574-9.3,15.581-9.3,8.526,0,12.233,3.585,12.233,12.786v15.442c0,2.274.814,3.172,2.182,3.172A3.169,3.169,0,0,0,389,591.885l1.715,1.4c-1.766,3.286-4.077,4.491-7.579,4.491C378.6,597.777,375.894,595.1,375.57,590.769Z" transform="translate(-155.946 -17.725)"/><path d="M397.783,596.914c.148-3.184.221-10.472.221-14.858v-3.715c0-3.892-.073-5.722-.221-8.552l-5.185-.637V566.52l12.305-4.479,1.185.733.775,8.026v11.256c0,4.386.074,11.674.22,14.858Zm13.534-2.892v2.892H393.148v-2.892l7.447-1.415h3.578Zm17.81-19.359v7.393c0,4.528.074,11.674.221,14.858h-9.3c.148-3.184.222-10.33.222-14.858v-6.7c0-5.542-1.47-7.4-5.129-7.4-3.14,0-6.427,1.649-9.973,5.037h-2.032v-3.885h4.374l-2.975,1.637c4.323-5.834,9.346-8.7,14.6-8.7C425.489,562.041,429.127,565.921,429.127,574.663Zm-2.716,17.944,7.278,1.415v2.892h-18.2v-2.892l7.366-1.415Z" transform="translate(-155.946 -17.725)"/><path d="M447.446,579.086c0,8.525,4.5,13.2,11.038,13.2a11.288,11.288,0,0,0,9.277-4.714l2.172,1.525c-2.42,5.821-7.427,8.816-14.371,8.816-10.056,0-17.384-6.481-17.384-17.851,0-11.343,8.5-18.02,18.392-18.02,7.171,0,12.618,4.281,13.358,9.725a3.842,3.842,0,0,1-4.149,3.163c-2.672,0-4.358-1.571-4.792-4.976l-1.246-5.629,4.385,2.774a15.445,15.445,0,0,0-6.794-1.639C452.036,565.459,447.446,569.77,447.446,579.086Z" transform="translate(-155.946 -17.725)"/><path d="M507.131,576.282a14.362,14.362,0,0,1-.461,3.885H478.676v-3.361H494.3c3.532,0,4.4-1.447,4.4-4.025,0-4.344-2.911-7.322-6.548-7.322-3.873,0-7.968,3.509-7.968,13.679,0,8.8,4.575,13.147,10.988,13.147a12.413,12.413,0,0,0,9.6-4.4l2.124,1.794c-2.838,5.283-7.845,8.233-14.758,8.233-10.294,0-17.318-6.658-17.318-17.751,0-11.318,8.572-18.12,17.887-18.12C501.366,562.041,507.131,567.721,507.131,576.282Z" transform="translate(-155.946 -17.725)"/><path d="M542.46,577.779c3.064-.958,8-2.258,11.569-2.971v2.754a68.912,68.912,0,0,0-9.726,2.831c-4.949,1.9-6.414,4.437-6.414,7.138,0,3.647,2.252,5.21,5.177,5.21,1.982,0,3.292-.738,6.767-3.142l2.228-1.607.895,1.252-2.621,2.65c-3.983,3.933-6.377,6.018-11.3,6.018-5.535,0-9.754-3.1-9.754-8.948C529.283,584.456,531.842,581.09,542.46,577.779Zm7,12.99V573.831c0-6.6-1.656-8.372-6.432-8.372a21.549,21.549,0,0,0-6.758,1.144l4.024-2.48-1.211,5.487c-.42,3.4-2.171,4.925-4.591,4.925-2.311,0-3.786-1.139-4.149-3.194.885-5.637,6.574-9.3,15.581-9.3,8.526,0,12.233,3.585,12.233,12.786v15.442c0,2.274.814,3.172,2.182,3.172a3.169,3.169,0,0,0,2.546-1.556l1.715,1.4c-1.766,3.286-4.077,4.491-7.579,4.491C552.492,597.777,549.789,595.1,549.465,590.769Z" transform="translate(-155.946 -17.725)"/><path d="M571.679,596.914c.147-3.184.22-10.472.22-14.858v-3.715c0-3.892-.073-5.722-.22-8.552l-5.185-.637V566.52l12.3-4.479,1.185.733.775,8.026v11.256c0,4.386.074,11.674.221,14.858Zm13.533-2.892v2.892H567.043v-2.892l7.447-1.415h3.579Zm17.81-19.359v7.393c0,4.528.074,11.674.222,14.858h-9.3c.147-3.184.221-10.33.221-14.858v-6.7c0-5.542-1.469-7.4-5.128-7.4-3.14,0-6.427,1.649-9.974,5.037H577.03v-3.885h4.375l-2.975,1.637c4.323-5.834,9.346-8.7,14.6-8.7C599.384,562.041,603.022,565.921,603.022,574.663Zm-2.716,17.944,7.278,1.415v2.892H589.389v-2.892l7.365-1.415Z" transform="translate(-155.946 -17.725)"/><path d="M630.627,592.878c3.645,0,6.167-2.051,9.013-5.861l.77,1.52c-3.229,6.214-7.2,9.375-13.347,9.375-8.654,0-14.851-6.731-14.851-17.64,0-11.144,7.272-18.231,15.946-18.231,5.3,0,8.638,2.51,12.249,8.419l-.736,1.605c-3.566-3.65-6.078-5.068-8.982-5.068-4.98,0-9.061,4.115-9.061,13.134C621.628,588.71,625.4,592.878,630.627,592.878Zm20.162,1.144v2.892l-12.853.76-.844-6.75V568.79l.328-.842V551.677l-5.734-.708v-2.737l13.448-3.183,1.111.643-.294,9.97v41.252l-3.123-4.388Z" transform="translate(-155.946 -17.725)"/><path d="M709.849,590.039V593.8l-4.752,1.016,2.164-10.783h5.055l-.294,10.571a32.445,32.445,0,0,1-15.163,3.5c-14.514,0-25.225-9.162-25.225-24.66,0-15.475,11.369-24.661,25.449-24.661a29.587,29.587,0,0,1,14.312,3.448l.293,10.623h-5.055l-2.192-10.834,4.752,1.041v4.109c-3.843-3.386-7.371-4.615-10.795-4.615-8.881,0-16.336,6.78-16.336,20.915,0,14.109,6.916,20.837,15.9,20.837A19.464,19.464,0,0,0,709.849,590.039Z" transform="translate(-155.946 -17.725)"/><path d="M717.521,579.975c0-11.3,8.234-17.934,17.75-17.934,9.424,0,17.752,6.552,17.752,17.934s-7.869,17.937-17.752,17.937C725.269,597.912,717.521,591.279,717.521,579.975Zm25.908.078c0-9.767-2.916-14.569-8.158-14.569-5.333,0-8.156,4.8-8.156,14.569,0,9.793,2.823,14.415,8.156,14.415C740.513,594.468,743.429,589.846,743.429,580.053Z" transform="translate(-155.946 -17.725)"/><path d="M762.94,596.914c.147-3.184.221-10.472.221-14.858v-3.715c0-3.892-.074-5.722-.221-8.552l-5.185-.637V566.52l12.3-4.479,1.184.733.776,8.026v11.256c0,4.386.073,11.674.22,14.858Zm13.534-2.892v2.892H758.305v-2.892l7.447-1.415h3.578Zm17.81-19.359v7.393c0,4.528.073,11.674.221,14.858h-9.3c.148-3.184.221-10.33.221-14.858v-6.7c0-5.542-1.469-7.4-5.128-7.4-3.14,0-6.427,1.649-9.974,5.037h-2.031v-3.885h4.374l-2.976,1.637c4.324-5.834,9.347-8.7,14.6-8.7C790.646,562.041,794.284,565.921,794.284,574.663Zm-2.717,17.944,7.279,1.415v2.892h-18.2v-2.892l7.367-1.415Z" transform="translate(-155.946 -17.725)"/><path d="M803.754,594.938l-.052-8.207h4.928l1.824,8.921-3.876-1.5v-2.665a15.721,15.721,0,0,0,9.133,2.875c4.937,0,7.425-1.752,7.425-4.8,0-2.627-1.776-4.131-6.52-5.628l-3.682-1.152c-5.535-1.754-8.906-4.955-8.906-10.026,0-5.821,4.976-10.718,14.036-10.718a22.293,22.293,0,0,1,10.959,2.875l-.4,7.458h-4.813l-1.8-7.951,3.378,1.417v2.229a12.183,12.183,0,0,0-7.506-2.48c-3.915,0-6.189,1.65-6.189,4.414,0,2.56,1.462,3.842,6.494,5.454l2.91.883c7.17,2.306,9.966,5.813,9.966,10.641,0,6.379-5.54,10.931-15.446,10.931A24.2,24.2,0,0,1,803.754,594.938Z" transform="translate(-155.946 -17.725)"/><path d="M848.163,584.857c0,5.337,1.7,7.141,4.962,7.141,3.321,0,7.013-2.314,9.937-5.566h2.193v4.154h-4.294l2.468-1.555c-3.843,5.89-8.794,8.881-14.226,8.881-6.1,0-10.053-3.4-9.952-12.736l.247-18.862,1.951,1.813-6.709-1.415v-2.736l12.839-1.492.952.734-.368,9.958Zm14.166,12.727-.814-8.3.248-22.99,1.95,1.838-6.6-1.415v-2.607l12.584-1.621.952.734-.22,9.958v22.349l-3.361-3.074,7.818,1.6v2.892Z" transform="translate(-155.946 -17.725)"/><path d="M891.974,545.049l1.111.643-.294,9.97v26.394q0,7.429.221,14.858h-9.3q.22-7.429.221-14.858V551.677l-5.325-.708v-2.737Zm5.953,48.973v2.892H878.8v-2.892l7.668-1.415h3.552Z" transform="translate(-155.946 -17.725)"/><path d="M918.7,593.231a7.624,7.624,0,0,0,4.491-1.773l1.747,1.807c-1.893,2.939-5.127,4.647-9.67,4.647-5.889,0-9.432-2.7-9.432-8.931,0-2.087.074-3.781.074-6.541V567.315h-5.453v-3.639l8.909-1.107-3.592,2.6,3.451-11.9h5.917l-.373,12.564V588.2C914.77,591.7,916.361,593.231,918.7,593.231Zm4.982-30.192v4.276H910.367v-4.276Z" transform="translate(-155.946 -17.725)"/><path d="M940.8,577.779c3.063-.958,8-2.258,11.568-2.971v2.754a68.952,68.952,0,0,0-9.726,2.831c-4.949,1.9-6.414,4.437-6.414,7.138,0,3.647,2.251,5.21,5.178,5.21,1.982,0,3.291-.738,6.766-3.142l2.228-1.607.9,1.252-2.621,2.65c-3.984,3.933-6.377,6.018-11.3,6.018-5.534,0-9.753-3.1-9.753-8.948C927.627,584.456,930.186,581.09,940.8,577.779Zm7,12.99V573.831c0-6.6-1.656-8.372-6.432-8.372a21.549,21.549,0,0,0-6.758,1.144l4.025-2.48-1.212,5.487c-.419,3.4-2.171,4.925-4.59,4.925-2.312,0-3.786-1.139-4.15-3.194.885-5.637,6.575-9.3,15.581-9.3,8.526,0,12.233,3.585,12.233,12.786v15.442c0,2.274.814,3.172,2.183,3.172a3.17,3.17,0,0,0,2.545-1.556l1.715,1.4c-1.766,3.286-4.077,4.491-7.579,4.491C950.836,597.777,948.132,595.1,947.808,590.769Z" transform="translate(-155.946 -17.725)"/><path d="M970.022,596.914c.147-3.184.221-10.472.221-14.858v-3.715c0-3.892-.074-5.722-.221-8.552l-5.185-.637V566.52l12.305-4.479,1.184.733.776,8.026v11.256c0,4.386.073,11.674.22,14.858Zm13.534-2.892v2.892H965.387v-2.892l7.447-1.415h3.578Zm17.81-19.359v7.393c0,4.528.073,11.674.221,14.858h-9.3c.148-3.184.221-10.33.221-14.858v-6.7c0-5.542-1.469-7.4-5.128-7.4-3.14,0-6.427,1.649-9.974,5.037h-2.031v-3.885h4.374l-2.976,1.637c4.324-5.834,9.347-8.7,14.6-8.7C997.728,562.041,1001.366,565.921,1001.366,574.663Zm-2.717,17.944,7.279,1.415v2.892h-18.2v-2.892l7.367-1.415Z" transform="translate(-155.946 -17.725)"/><path d="M1019.686,579.086c0,8.525,4.5,13.2,11.038,13.2a11.288,11.288,0,0,0,9.276-4.714l2.171,1.525c-2.419,5.821-7.426,8.816-14.37,8.816-10.056,0-17.384-6.481-17.384-17.851,0-11.343,8.5-18.02,18.393-18.02,7.17,0,12.616,4.281,13.357,9.725a3.842,3.842,0,0,1-4.149,3.163c-2.672,0-4.358-1.571-4.792-4.976l-1.246-5.629,4.385,2.774a15.446,15.446,0,0,0-6.8-1.639C1024.275,565.459,1019.686,569.77,1019.686,579.086Z" transform="translate(-155.946 -17.725)"/><path d="M1044.348,609.128c.568-2.553,2.919-3.776,5.478-3.776a7.2,7.2,0,0,1,5.859,2.955l2.281,2.713-2.817,1.375-2.122-1.375c4.2-2.179,7.172-6.542,8.958-11.391l3.092-8.467,10.469-28.123h4.406l-13.991,35.139c-4.3,10.866-8.018,15.958-14.457,15.958C1047.735,614.136,1044.482,612.018,1044.348,609.128Zm6.965-42.214-6.942-1.088v-2.787h19.272v2.807l-7.7,1.068Zm11.615,34.068-16.246-37.943h9.815l10.691,28.167Zm12.537-34.094-6.963-1.062v-2.787h14.153v2.787l-5.745,1.062Z" transform="translate(-155.946 -17.725)"/><path d="M292.851,654.478l6.8-.885h1.5l6.032.885v2.769H292.851Zm.27-36.344h8.433l.045,3.653h-.871l-7.607-.884Zm5.452,0h3.048l.507,19.019v20.094h-3.555Zm.219,0h7.979l13,31.977h-2.063L330,618.134h3.655l-15.061,39.113h-3.882Zm26.951,36.344,7.607-.885h2.036l8.446.885v2.769H325.743ZM330.7,639.6l.112-21.463h7.944c-.184,6-.184,12.13-.184,18.277v2.559c0,6.116,0,12.248.184,18.277h-8.24C330.7,651.249,330.673,645.117,330.7,639.6Zm3.9-21.463h9.126V620.9l-8.333.884h-.793Z" transform="translate(-155.946 -17.725)"/><path d="M373.939,640.055a11.915,11.915,0,0,1-.384,3.236H350.229v-2.8h13.019c2.944,0,3.664-1.2,3.664-3.352,0-3.621-2.427-6.1-5.457-6.1-3.227,0-6.64,2.924-6.64,11.4,0,7.337,3.812,10.957,9.157,10.957a10.347,10.347,0,0,0,8-3.667l1.77,1.494c-2.365,4.4-6.537,6.86-12.3,6.86-8.578,0-14.431-5.548-14.431-14.791a14.61,14.61,0,0,1,14.9-15.1C369.136,628.188,373.939,632.921,373.939,640.055Z" transform="translate(-155.946 -17.725)"/><path d="M393.942,653.884c3.038,0,5.139-1.709,7.51-4.885l.642,1.268c-2.691,5.177-6,7.811-11.122,7.811-7.211,0-12.375-5.608-12.375-14.7,0-9.287,6.06-15.192,13.287-15.192,4.419,0,7.2,2.091,10.208,7.015l-.613,1.338c-2.972-3.042-5.065-4.224-7.485-4.224-4.15,0-7.551,3.43-7.551,10.945C386.443,650.411,389.583,653.884,393.942,653.884Zm16.8.953v2.41l-10.711.633-.7-5.624V633.812l.274-.7V619.551l-4.779-.59v-2.28l11.206-2.653.926.536-.245,8.308v34.375l-2.6-3.656Z" transform="translate(-155.946 -17.725)"/><path d="M417.792,657.247c.122-2.653.184-8.726.184-12.382v-2.793c0-3.242-.062-5.07-.184-7.428l-4.4-.531V631.92l11.084-3.732.987.611-.184,8.263v7.8c0,3.656.061,9.729.184,12.382Zm11.289-2.41v2.41H413.874v-2.41l6.2-1.179h2.96Zm-12.17-36.356c0-2.5,2.048-4.212,4.633-4.212s4.633,1.712,4.633,4.212a4.654,4.654,0,0,1-9.266,0Z" transform="translate(-155.946 -17.725)"/><path d="M440.6,642.391c0,7.1,3.749,11,9.2,11a9.409,9.409,0,0,0,7.73-3.929l1.809,1.27c-2.016,4.851-6.188,7.346-11.975,7.346-8.379,0-14.486-5.4-14.486-14.875,0-9.452,7.083-15.015,15.327-15.015,5.975,0,10.513,3.567,11.131,8.1a3.2,3.2,0,0,1-3.458,2.636c-2.226,0-3.631-1.309-3.993-4.147l-1.038-4.69L454.5,632.4a12.874,12.874,0,0,0-5.662-1.366C444.423,631.035,440.6,634.627,440.6,642.391Z" transform="translate(-155.946 -17.725)"/><path d="M474.458,641.3c2.553-.8,6.664-1.881,9.64-2.477v2.3a57.629,57.629,0,0,0-8.105,2.358c-4.124,1.588-5.345,3.7-5.345,5.95,0,3.038,1.876,4.341,4.315,4.341,1.651,0,2.742-.615,5.638-2.619l1.857-1.339.746,1.043-2.184,2.208c-3.319,3.278-5.314,5.015-9.416,5.015-4.611,0-8.127-2.584-8.127-7.456C463.477,646.865,465.609,644.061,474.458,641.3Zm5.836,10.824V638.012c0-5.5-1.379-6.977-5.359-6.977a17.97,17.97,0,0,0-5.632.953l3.353-2.065-1.009,4.572c-.349,2.835-1.809,4.1-3.825,4.1a3.142,3.142,0,0,1-3.458-2.661c.738-4.7,5.479-7.75,12.984-7.75,7.1,0,10.193,2.987,10.193,10.654v12.867c0,1.9.679,2.645,1.819,2.645a2.639,2.639,0,0,0,2.121-1.3l1.43,1.167a6.388,6.388,0,0,1-6.316,3.743C482.817,657.967,480.564,655.738,480.294,652.126Z" transform="translate(-155.946 -17.725)"/><path d="M505.577,614.028l.926.536-.246,8.308v21.993q0,6.19.184,12.382h-7.75q.185-6.19.184-12.382V619.551l-4.437-.59v-2.28Zm4.96,40.809v2.41H494.6v-2.41l6.389-1.179h2.96Z" transform="translate(-155.946 -17.725)"/><path d="M539.094,641.3c2.553-.8,6.664-1.881,9.64-2.477v2.3a57.669,57.669,0,0,0-8.105,2.358c-4.123,1.588-5.344,3.7-5.344,5.95,0,3.038,1.876,4.341,4.315,4.341,1.65,0,2.742-.615,5.638-2.619l1.856-1.339.746,1.043-2.183,2.208c-3.32,3.278-5.315,5.015-9.416,5.015-4.612,0-8.127-2.584-8.127-7.456C528.114,646.865,530.246,644.061,539.094,641.3Zm5.837,10.824V638.012c0-5.5-1.38-6.977-5.359-6.977a17.97,17.97,0,0,0-5.632.953l3.353-2.065-1.009,4.572c-.349,2.835-1.809,4.1-3.826,4.1A3.141,3.141,0,0,1,529,635.938c.738-4.7,5.478-7.75,12.984-7.75,7.1,0,10.193,2.987,10.193,10.654v12.867c0,1.9.678,2.645,1.819,2.645a2.641,2.641,0,0,0,2.121-1.3l1.429,1.167a6.386,6.386,0,0,1-6.315,3.743C547.454,657.967,545.2,655.738,544.931,652.126Z" transform="translate(-155.946 -17.725)"/><path d="M563.443,657.247c.123-2.653.184-8.726.184-12.382v-3.1c0-3.243-.061-4.768-.184-7.126l-4.32-.531V631.92l10.253-3.732.987.611.646,6.687v9.379c0,3.656.061,9.729.184,12.382Zm11.278-2.41v2.41h-15.14v-2.41l6.2-1.179h2.982Zm14.841-16.132v6.16c0,3.774.061,9.729.184,12.382H582c.123-2.653.184-8.608.184-12.382v-5.58c0-4.617-1.224-6.17-4.274-6.17-2.615,0-5.355,1.374-8.31,4.2H567.9v-3.237h3.645l-2.48,1.364c3.6-4.862,7.789-7.252,12.165-7.252C586.53,628.188,589.562,631.42,589.562,638.705ZM587.3,653.658l6.065,1.179v2.41H578.2v-2.41l6.138-1.179Z" transform="translate(-155.946 -17.725)"/><path d="M612.567,653.884c3.037,0,5.139-1.709,7.509-4.885l.642,1.268c-2.69,5.177-6,7.811-11.121,7.811-7.212,0-12.375-5.608-12.375-14.7,0-9.287,6.059-15.192,13.287-15.192,4.418,0,7.2,2.091,10.207,7.015l-.613,1.338c-2.972-3.042-5.064-4.224-7.485-4.224-4.149,0-7.55,3.43-7.55,10.945C605.068,650.411,608.207,653.884,612.567,653.884Zm16.8.953v2.41l-10.711.633-.7-5.624V633.812l.274-.7V619.551l-4.779-.59v-2.28l11.206-2.653.926.536-.246,8.308v34.375l-2.6-3.656Z" transform="translate(-155.946 -17.725)"/><path d="M646.623,620.9v-2.769h9.238v3.653h-.793Zm9.238,32.69v3.654h-9.238v-2.769l8.445-.885Zm-3.974-17.182c0-6.073,0-12.2-.185-18.277h8.319c-.184,5.955-.184,12.087-.184,18.277V638.5c0,6.542,0,12.674.184,18.747H651.7c.185-5.955.185-12.087.185-18.277Zm19.925-18.277,3.616,3.142H655.861v-3.142h21.668l.43,10.321h-4.29Zm-2.271,20.586h-13.68v-3.1h13.68Zm9.645,8.206-.43,10.321H655.861v-3.121h20.793l-3.615,3.121,1.857-10.321Zm-11.563-10.5.92-5.947h3.165V643.8h-3.165l-.92-6.241Z" transform="translate(-155.946 -17.725)"/><path d="M686.952,657.247c.123-2.653.185-8.726.185-12.382v-3.1c0-3.243-.062-4.768-.185-7.126l-4.32-.531V631.92l10.253-3.732.988.611.646,6.687v9.379c0,3.656.061,9.729.183,12.382Zm11.277-2.41v2.41H683.09v-2.41l6.2-1.179h2.982Zm14.842-16.132v6.16c0,3.774.062,9.729.184,12.382h-7.75c.123-2.653.184-8.608.184-12.382v-5.58c0-4.617-1.224-6.17-4.273-6.17-2.616,0-5.355,1.374-8.312,4.2h-1.692v-3.237h3.646l-2.48,1.364c3.6-4.862,7.788-7.252,12.165-7.252C710.039,628.188,713.071,631.42,713.071,638.705Zm-2.263,14.953,6.065,1.179v2.41H701.71v-2.41l6.138-1.179Z" transform="translate(-155.946 -17.725)"/><path d="M743.376,662.649c0-2.176-1.446-4.007-5.338-4.007h-6.832a16.97,16.97,0,0,1-4.844-.545v-.285c-3.128-.8-4.564-2.507-4.564-4.853,0-2.583,1.838-5.062,5.828-8.237l1.484.927c-1.367,1.519-1.984,2.643-1.984,4.26,0,1.484.81,2.437,3.557,2.437h7.622c7.98,0,11.174,3.139,11.174,8.088,0,5.546-5.635,10.574-16.516,10.574-9.506,0-12.919-3.121-12.919-7.042,0-2.889,2.059-5.135,7.465-7.173l.6.44c-1.867,2.04-2.6,3.4-2.6,5.481,0,3.7,2.857,5.208,8.046,5.208C740.006,667.922,743.376,665.6,743.376,662.649Zm-10-34.461c7.516,0,11.884,3.573,11.884,9.6,0,5.773-4.446,9.539-11.923,9.539-7.555,0-11.923-3.6-11.923-9.539C721.409,631.932,725.855,628.188,733.371,628.188Zm-5.175,9.6c0,4.239,1.712,6.971,5.02,6.971,3.423,0,5.3-2.844,5.3-7.12,0-4.165-1.825-6.875-5.1-6.875C730.093,630.762,728.2,633.547,728.2,637.786Zm20.783-9.664.943.59v4.11h-8.9v-1.765Z" transform="translate(-155.946 -17.725)"/><path d="M756.858,657.247c.123-2.653.185-8.726.185-12.382v-2.793c0-3.242-.062-5.07-.185-7.428l-4.4-.531V631.92l11.083-3.732.987.611-.183,8.263v7.8c0,3.656.06,9.729.183,12.382Zm11.29-2.41v2.41H752.941v-2.41l6.2-1.179h2.96Zm-12.169-36.356c0-2.5,2.048-4.212,4.632-4.212s4.633,1.712,4.633,4.212a4.653,4.653,0,0,1-9.265,0Z" transform="translate(-155.946 -17.725)"/><path d="M775.751,657.247c.123-2.653.185-8.726.185-12.382v-3.1c0-3.243-.062-4.768-.185-7.126l-4.32-.531V631.92l10.253-3.732.988.611.645,6.687v9.379c0,3.656.062,9.729.184,12.382Zm11.277-2.41v2.41H771.889v-2.41l6.205-1.179h2.982Zm14.842-16.132v6.16c0,3.774.062,9.729.184,12.382H794.3c.123-2.653.184-8.608.184-12.382v-5.58c0-4.617-1.224-6.17-4.273-6.17-2.616,0-5.356,1.374-8.312,4.2h-1.692v-3.237h3.645l-2.479,1.364c3.6-4.862,7.788-7.252,12.165-7.252C798.838,628.188,801.87,631.42,801.87,638.705Zm-2.264,14.953,6.066,1.179v2.41H790.509v-2.41l6.137-1.179Z" transform="translate(-155.946 -17.725)"/><path d="M836.455,640.055a11.954,11.954,0,0,1-.384,3.236H812.744v-2.8h13.02c2.943,0,3.663-1.2,3.663-3.352,0-3.621-2.426-6.1-5.456-6.1-3.228,0-6.64,2.924-6.64,11.4,0,7.337,3.813,10.957,9.157,10.957a10.343,10.343,0,0,0,8-3.667l1.771,1.494c-2.365,4.4-6.538,6.86-12.3,6.86-8.578,0-14.432-5.548-14.432-14.791a14.611,14.611,0,0,1,14.906-15.1C831.651,628.188,836.455,632.921,836.455,640.055Z" transform="translate(-155.946 -17.725)"/><path d="M868.038,640.055a11.954,11.954,0,0,1-.384,3.236H844.327v-2.8h13.02c2.943,0,3.663-1.2,3.663-3.352,0-3.621-2.426-6.1-5.456-6.1-3.228,0-6.64,2.924-6.64,11.4,0,7.337,3.813,10.957,9.157,10.957a10.343,10.343,0,0,0,8-3.667l1.771,1.494c-2.365,4.4-6.538,6.86-12.3,6.86-8.578,0-14.432-5.548-14.432-14.791a14.611,14.611,0,0,1,14.906-15.1C863.234,628.188,868.038,632.921,868.038,640.055Z" transform="translate(-155.946 -17.725)"/><path d="M876.57,644.865v-3.117c0-3.243-.061-4.746-.184-7.1l-4.321-.531V631.92l10.253-3.732.989.611.645,7.305v8.761c0,3.656.062,9.729.184,12.382h-7.75C876.509,654.594,876.57,648.521,876.57,644.865Zm-4.014,9.972,6.3-1.179h3.882l6.295,1.179v2.41H872.556Zm7.885-17.845H884.5l-1.173,1.019c1.513-6.37,5.524-9.823,9.164-9.823a4.8,4.8,0,0,1,4.85,3.194c-.069,2.923-1.51,4.564-3.962,4.564a5.545,5.545,0,0,1-4.22-2.086l-1.723-1.81,2.734.145a13.972,13.972,0,0,0-6.295,8.77l-3.433-.217Z" transform="translate(-155.946 -17.725)"/><path d="M903.488,657.247c.123-2.653.185-8.726.185-12.382v-2.793c0-3.242-.062-5.07-.185-7.428l-4.4-.531V631.92l11.083-3.732.987.611-.183,8.263v7.8c0,3.656.06,9.729.183,12.382Zm11.29-2.41v2.41H899.571v-2.41l6.2-1.179h2.96Zm-12.17-36.356c0-2.5,2.049-4.212,4.633-4.212s4.633,1.712,4.633,4.212a4.654,4.654,0,0,1-9.266,0Z" transform="translate(-155.946 -17.725)"/><path d="M922.38,657.247c.123-2.653.184-8.726.184-12.382v-3.1c0-3.243-.061-4.768-.184-7.126l-4.32-.531V631.92l10.252-3.732.989.611.645,6.687v9.379c0,3.656.062,9.729.184,12.382Zm11.277-2.41v2.41H918.518v-2.41l6.2-1.179h2.982ZM948.5,638.705v6.16c0,3.774.062,9.729.184,12.382h-7.75c.123-2.653.184-8.608.184-12.382v-5.58c0-4.617-1.224-6.17-4.273-6.17-2.616,0-5.356,1.374-8.312,4.2H926.84v-3.237h3.645l-2.479,1.364c3.6-4.862,7.788-7.252,12.165-7.252C945.467,628.188,948.5,631.42,948.5,638.705Zm-2.264,14.953,6.066,1.179v2.41H937.138v-2.41l6.137-1.179Z" transform="translate(-155.946 -17.725)"/><path d="M978.8,662.649c0-2.176-1.447-4.007-5.338-4.007h-6.832a16.97,16.97,0,0,1-4.844-.545v-.285c-3.128-.8-4.564-2.507-4.564-4.853,0-2.583,1.837-5.062,5.828-8.237l1.484.927c-1.367,1.519-1.984,2.643-1.984,4.26,0,1.484.809,2.437,3.556,2.437h7.622c7.981,0,11.175,3.139,11.175,8.088,0,5.546-5.636,10.574-16.516,10.574-9.506,0-12.919-3.121-12.919-7.042,0-2.889,2.058-5.135,7.465-7.173l.6.44c-1.867,2.04-2.6,3.4-2.6,5.481,0,3.7,2.857,5.208,8.045,5.208C975.434,667.922,978.8,665.6,978.8,662.649Zm-10-34.461c7.515,0,11.884,3.573,11.884,9.6,0,5.773-4.447,9.539-11.923,9.539-7.555,0-11.923-3.6-11.923-9.539C956.837,631.932,961.283,628.188,968.8,628.188Zm-5.175,9.6c0,4.239,1.712,6.971,5.02,6.971,3.422,0,5.3-2.844,5.3-7.12,0-4.165-1.825-6.875-5.1-6.875C965.521,630.762,963.624,633.547,963.624,637.786Zm20.783-9.664.943.59v4.11h-8.9v-1.765Z" transform="translate(-155.946 -17.725)"/><path class="cls-16" d="M235.661,726.038l-.627,11.012H214.67v-1.068a9.813,9.813,0,0,1,3.136-1.4V692.8a14.178,14.178,0,0,1-3.136-1.4v-1.067h20.4v11.144h-1.106a25.045,25.045,0,0,1-.794-3.835q-.424-2.77-.5-4.239h-9.85V712.49h6.825q.073-1.132.277-2.8t.461-2.87h.812v14.416h-.812q-.258-1.267-.461-2.9t-.277-2.769h-6.825v18.554h10.035a26.488,26.488,0,0,1,.664-4.272,28.687,28.687,0,0,1,1.033-3.8Z" transform="translate(-155.946 -17.725)"/><path class="cls-16" d="M267.093,736.05v1H257.059v-1.068a13.372,13.372,0,0,1,2.582-1.268L255.177,723.9,249.9,734.714a11.243,11.243,0,0,1,2.767,1.268v1.068H244.81v-.935a10.193,10.193,0,0,1,2.693-1.333l6.567-13.549-6.2-15.015a8,8,0,0,1-2.582-1.469v-.935h9.887v1.136a10.773,10.773,0,0,1-2.545,1.268l4.021,9.809,4.8-9.876a7.732,7.732,0,0,1-2.73-1.334v-1h7.858v1a7.12,7.12,0,0,1-2.767,1.4L257.723,718.7l6.6,16.086A11.292,11.292,0,0,1,267.093,736.05Z" transform="translate(-155.946 -17.725)"/><path class="cls-16" d="M275.172,751.867q1.291-.669,2.915-1.336V706.419a13.311,13.311,0,0,1-2.508-1.2v-.735l7.378-1.333v4.4a7.987,7.987,0,0,1,2.748-3.4,5.556,5.556,0,0,1,2.859-.933,7.142,7.142,0,0,1,6.53,4.1q2.288,4.106,2.288,12.312,0,18.086-9.186,18.086a5.219,5.219,0,0,1-3.026-1,6.279,6.279,0,0,1-2.213-3.2V750.6a14.5,14.5,0,0,1,2.914,1.333V753h-10.7Zm16.159-21.124a40.912,40.912,0,0,0,1.144-10.778,36.4,36.4,0,0,0-1.089-10.343q-1.088-3.406-3.707-3.4a3.553,3.553,0,0,0-2.619,1.4,11.742,11.742,0,0,0-2.1,3.537v14.549a15.086,15.086,0,0,0,1.236,6.44q1.235,2.639,3.375,2.637Q290.189,734.782,291.331,730.743Z" transform="translate(-155.946 -17.725)"/><path class="cls-16" d="M325.493,720.9H311.511a28.011,28.011,0,0,0,1.679,10.011q1.6,4.005,4.7,4a6.762,6.762,0,0,0,3.228-.935,9.556,9.556,0,0,0,3.007-2.6l.48,2.135a9.458,9.458,0,0,1-3.265,3,8.9,8.9,0,0,1-4.519,1.2,7.729,7.729,0,0,1-5.442-2.136,13.641,13.641,0,0,1-3.542-6.038A30.018,30.018,0,0,1,306.6,720.5q0-8.273,2.638-12.779t7.36-4.5a6.476,6.476,0,0,1,4.98,2.169,13.491,13.491,0,0,1,2.952,5.74,30.744,30.744,0,0,1,.959,7.973Zm-4.242-2.936a33.232,33.232,0,0,0-.443-5.374,13.744,13.744,0,0,0-1.476-4.537,3.059,3.059,0,0,0-2.693-1.835q-2.288,0-3.541,3.3a28.041,28.041,0,0,0-1.513,8.442Z" transform="translate(-155.946 -17.725)"/><path class="cls-16" d="M334.68,735.982a8.59,8.59,0,0,1,2.914-1.333v-28.23a14.445,14.445,0,0,1-2.509-1.269v-.6l6.825-1.4.406,6.138h.148a10.976,10.976,0,0,1,1.992-4.436,3.712,3.712,0,0,1,2.84-1.635,4.924,4.924,0,0,1,1.956.366,4.818,4.818,0,0,1,1.661,1.3l-.923,4.206a2.875,2.875,0,0,0-2.177-1.268,3.866,3.866,0,0,0-3.024,1.9,16.2,16.2,0,0,0-2.325,4.973v20.021a11.948,11.948,0,0,1,2.878,1.336v1H334.68Z" transform="translate(-155.946 -17.725)"/><path class="cls-16" d="M372.826,736.516a8.506,8.506,0,0,1-4.538,1.2,5.391,5.391,0,0,1-4.574-2.3q-1.7-2.306-1.7-7.508V706.817h-2.952v-3h2.952v-2.2q2.067-1.2,2.472-6.741h2.4v8.941h5.387v3h-5.387v21.091q0,3.8.848,5.237a2.653,2.653,0,0,0,2.4,1.436,4.889,4.889,0,0,0,2.4-.734Z" transform="translate(-155.946 -17.725)"/><path class="cls-16" d="M385.793,736.516a8.839,8.839,0,0,1-3.34-3.136l.3-8.209h1.07a26.158,26.158,0,0,1,.369,3.2q.147,2.135.185,3.87a5.845,5.845,0,0,0,1.881,1.835,4.7,4.7,0,0,0,2.508.7,4.024,4.024,0,0,0,3.339-1.637,7.276,7.276,0,0,0,1.273-4.57,5.678,5.678,0,0,0-.59-2.705,6.305,6.305,0,0,0-1.457-1.834,22.729,22.729,0,0,0-2.454-1.735,22.739,22.739,0,0,1-3.228-2.336,8.993,8.993,0,0,1-2.158-3.136,12.6,12.6,0,0,1-.886-5.071,8.735,8.735,0,0,1,2.141-6.342,7.143,7.143,0,0,1,5.348-2.2,7.983,7.983,0,0,1,7.121,3.8l-.333,7.008h-1.106a22.133,22.133,0,0,1-.35-2.737q-.131-1.665-.129-3.268a5.067,5.067,0,0,0-4.17-1.938,3.633,3.633,0,0,0-2.73,1.068,4.764,4.764,0,0,0-1.032,3.4,5.44,5.44,0,0,0,1.107,3.637,15.152,15.152,0,0,0,3.43,2.77,25.143,25.143,0,0,1,3.284,2.5,9.406,9.406,0,0,1,2.139,3.236,13.271,13.271,0,0,1,.885,5.206q0,4.938-2.175,7.372a7.05,7.05,0,0,1-5.5,2.437A9.586,9.586,0,0,1,385.793,736.516Z" transform="translate(-155.946 -17.725)"/><path class="cls-16" d="M424.733,736.05q.663-.4,2.913-1.4v-28.1a11.672,11.672,0,0,1-2.544-1.2v-.669l7.415-1.334v31.366a19.942,19.942,0,0,1,2.913,1.336v1h-10.7Zm3.19-36.64a6.585,6.585,0,0,1-.719-3.271,6.771,6.771,0,0,1,.719-3.3,2.122,2.122,0,0,1,1.864-1.3,2.16,2.16,0,0,1,1.881,1.3,6.624,6.624,0,0,1,.738,3.3,6.442,6.442,0,0,1-.738,3.271,2.165,2.165,0,0,1-1.881,1.269A2.126,2.126,0,0,1,427.923,699.41Z" transform="translate(-155.946 -17.725)"/><path class="cls-16" d="M468.782,736.05v1h-10.4v-1a13.037,13.037,0,0,1,2.657-1.4V713.091q0-6.873-3.431-6.873a4.15,4.15,0,0,0-2.6,1.168,10.784,10.784,0,0,0-2.565,3.637v23.691a12.621,12.621,0,0,1,2.915,1.336v1h-10.7v-1a9.018,9.018,0,0,1,2.914-1.4v-28.23a14.832,14.832,0,0,1-2.545-1.269v-.669l7.415-1.333v4.8a11.7,11.7,0,0,1,3.062-3.437,6.3,6.3,0,0,1,3.8-1.3,5.648,5.648,0,0,1,4.778,2.5,11.648,11.648,0,0,1,1.826,6.973v22.024A8.622,8.622,0,0,1,468.782,736.05Z" transform="translate(-155.946 -17.725)"/><path class="cls-16" d="M519.065,736.05v1H508.587v-1a12.524,12.524,0,0,1,2.694-1.4V713.091q0-6.873-3.432-6.873a4.048,4.048,0,0,0-2.6,1.234,12.1,12.1,0,0,0-2.6,3.7v23.558a8.635,8.635,0,0,1,2.693,1.336v1H494.9v-1a9.481,9.481,0,0,1,2.915-1.4V693.271A14.847,14.847,0,0,1,495.269,692v-.667L502.648,690v18.086a11.291,11.291,0,0,1,3.043-3.537,6.323,6.323,0,0,1,3.855-1.334,5.6,5.6,0,0,1,4.76,2.5,11.742,11.742,0,0,1,1.808,6.973v22.024A13.369,13.369,0,0,1,519.065,736.05Z" transform="translate(-155.946 -17.725)"/><path class="cls-16" d="M528.066,727.974q0-5.273,2.066-7.608a6.932,6.932,0,0,1,5.459-2.336h4.944v-4.871a9.374,9.374,0,0,0-1.162-5.274,3.72,3.72,0,0,0-3.228-1.667,6.9,6.9,0,0,0-3.081.8,12.99,12.99,0,0,0-2.932,2l-.3-2.537a12.35,12.35,0,0,1,3.653-2.4,10.492,10.492,0,0,1,4.169-.868,6.873,6.873,0,0,1,5.663,2.6,10.783,10.783,0,0,1,2.083,6.941V734.18a20.532,20.532,0,0,1,2.51,1.136v.734l-7.379,1.266v-4.47a10.294,10.294,0,0,1-2.859,3.67,5.458,5.458,0,0,1-3.3,1.2Q528.065,737.717,528.066,727.974Zm10.588,5.206a9.141,9.141,0,0,0,1.881-3.4v-8.809h-3.8a3.119,3.119,0,0,0-2.9,1.835,11,11,0,0,0-.977,5.106,10.812,10.812,0,0,0,.9,5.039,2.736,2.736,0,0,0,2.454,1.634A3.44,3.44,0,0,0,538.654,733.18Z" transform="translate(-155.946 -17.725)"/><path class="cls-16" d="M560.217,736.516a8.836,8.836,0,0,1-3.339-3.136l.3-8.209h1.07a26.36,26.36,0,0,1,.369,3.2q.145,2.135.184,3.87a5.855,5.855,0,0,0,1.881,1.835,4.7,4.7,0,0,0,2.508.7,4.026,4.026,0,0,0,3.34-1.637,7.282,7.282,0,0,0,1.272-4.57,5.678,5.678,0,0,0-.59-2.705,6.272,6.272,0,0,0-1.457-1.834A22.8,22.8,0,0,0,563.3,722.3a22.7,22.7,0,0,1-3.229-2.336,9.006,9.006,0,0,1-2.158-3.136,12.6,12.6,0,0,1-.885-5.071,8.735,8.735,0,0,1,2.14-6.342,7.145,7.145,0,0,1,5.348-2.2,7.982,7.982,0,0,1,7.121,3.8l-.332,7.008H570.2a22.328,22.328,0,0,1-.35-2.737q-.13-1.665-.129-3.268a5.065,5.065,0,0,0-4.169-1.938,3.635,3.635,0,0,0-2.731,1.068,4.764,4.764,0,0,0-1.032,3.4,5.44,5.44,0,0,0,1.107,3.637,15.175,15.175,0,0,0,3.43,2.77,25.075,25.075,0,0,1,3.284,2.5,9.392,9.392,0,0,1,2.139,3.236,13.27,13.27,0,0,1,.886,5.206q0,4.938-2.176,7.372a7.049,7.049,0,0,1-5.5,2.437A9.587,9.587,0,0,1,560.217,736.516Z" transform="translate(-155.946 -17.725)"/><path class="cls-16" d="M585.931,736.516a8.836,8.836,0,0,1-3.339-3.136l.3-8.209h1.07a26.36,26.36,0,0,1,.369,3.2q.145,2.135.184,3.87a5.855,5.855,0,0,0,1.881,1.835,4.7,4.7,0,0,0,2.508.7,4.026,4.026,0,0,0,3.34-1.637,7.282,7.282,0,0,0,1.272-4.57,5.678,5.678,0,0,0-.59-2.705,6.272,6.272,0,0,0-1.457-1.834,22.8,22.8,0,0,0-2.453-1.735,22.7,22.7,0,0,1-3.229-2.336,8.993,8.993,0,0,1-2.158-3.136,12.6,12.6,0,0,1-.885-5.071,8.735,8.735,0,0,1,2.14-6.342,7.145,7.145,0,0,1,5.348-2.2,7.982,7.982,0,0,1,7.121,3.8l-.332,7.008H595.91a22.328,22.328,0,0,1-.35-2.737q-.13-1.665-.129-3.268a5.065,5.065,0,0,0-4.169-1.938,3.635,3.635,0,0,0-2.731,1.068,4.764,4.764,0,0,0-1.032,3.4,5.44,5.44,0,0,0,1.107,3.637,15.175,15.175,0,0,0,3.43,2.77,25.075,25.075,0,0,1,3.284,2.5,9.392,9.392,0,0,1,2.139,3.236,13.27,13.27,0,0,1,.886,5.206q0,4.938-2.176,7.372a7.049,7.049,0,0,1-5.5,2.437A9.587,9.587,0,0,1,585.931,736.516Z" transform="translate(-155.946 -17.725)"/><path class="cls-16" d="M607.936,736.05a28.861,28.861,0,0,1,2.914-1.4V693.271A14.834,14.834,0,0,1,608.3,692v-.667L615.72,690v44.714a10.336,10.336,0,0,1,2.915,1.336v1h-10.7Z" transform="translate(-155.946 -17.725)"/><path class="cls-16" d="M646.856,720.9H632.875a28.013,28.013,0,0,0,1.678,10.011q1.605,4.005,4.7,4a6.765,6.765,0,0,0,3.228-.935,9.567,9.567,0,0,0,3.007-2.6l.479,2.135a9.441,9.441,0,0,1-3.265,3,8.9,8.9,0,0,1-4.519,1.2,7.731,7.731,0,0,1-5.442-2.136,13.66,13.66,0,0,1-3.542-6.038,30.051,30.051,0,0,1-1.235-9.044q0-8.273,2.638-12.779t7.36-4.5a6.477,6.477,0,0,1,4.98,2.169,13.514,13.514,0,0,1,2.952,5.74,30.789,30.789,0,0,1,.958,7.973Zm-4.242-2.936a33.344,33.344,0,0,0-.442-5.374,13.79,13.79,0,0,0-1.476-4.537A3.061,3.061,0,0,0,638,706.218q-2.286,0-3.541,3.3a28.135,28.135,0,0,0-1.513,8.442Z" transform="translate(-155.946 -17.725)"/><path class="cls-16" d="M657,715.962h12.433v4.805H657Z" transform="translate(-155.946 -17.725)"/><path class="cls-16" d="M688.58,694.071a14.6,14.6,0,0,0-.885,5.8v3.938h5.46v3H687.7v27.9a13.6,13.6,0,0,1,3.136,1.336v1H679.873v-1.068a13.857,13.857,0,0,1,2.952-1.333V706.817h-3.467v-3h3.467v-2.669q0-5.937,1.679-9.042T689.1,689a8.055,8.055,0,0,1,4.539,1.268l-.3,2.67a4.353,4.353,0,0,0-2.4-.8Q689.467,692.136,688.58,694.071Z" transform="translate(-155.946 -17.725)"/><path class="cls-16" d="M702.637,735.982a8.6,8.6,0,0,1,2.915-1.333v-28.23a14.408,14.408,0,0,1-2.509-1.269v-.6l6.825-1.4.4,6.138h.148a10.963,10.963,0,0,1,1.993-4.436,3.71,3.71,0,0,1,2.84-1.635,4.924,4.924,0,0,1,1.956.366,4.815,4.815,0,0,1,1.66,1.3l-.922,4.206a2.877,2.877,0,0,0-2.177-1.268,3.866,3.866,0,0,0-3.025,1.9,16.226,16.226,0,0,0-2.325,4.973v20.021a11.931,11.931,0,0,1,2.878,1.336v1H702.637Z" transform="translate(-155.946 -17.725)"/><path class="cls-16" d="M745.136,720.9H731.155a27.992,27.992,0,0,0,1.677,10.011q1.606,4.005,4.7,4a6.765,6.765,0,0,0,3.228-.935,9.57,9.57,0,0,0,3.008-2.6l.478,2.135a9.428,9.428,0,0,1-3.264,3,8.9,8.9,0,0,1-4.52,1.2,7.733,7.733,0,0,1-5.442-2.136,13.668,13.668,0,0,1-3.541-6.038,30.049,30.049,0,0,1-1.236-9.044q0-8.273,2.638-12.779t7.36-4.5a6.478,6.478,0,0,1,4.981,2.169,13.513,13.513,0,0,1,2.951,5.74,30.744,30.744,0,0,1,.959,7.973Zm-4.243-2.936a33.344,33.344,0,0,0-.442-5.374,13.79,13.79,0,0,0-1.476-4.537,3.061,3.061,0,0,0-2.693-1.835q-2.288,0-3.542,3.3a28.137,28.137,0,0,0-1.512,8.442Z" transform="translate(-155.946 -17.725)"/><path class="cls-16" d="M773.431,720.9H759.45a27.991,27.991,0,0,0,1.678,10.011q1.6,4.005,4.7,4a6.772,6.772,0,0,0,3.229-.935,9.578,9.578,0,0,0,3.007-2.6l.478,2.135a9.428,9.428,0,0,1-3.264,3,8.9,8.9,0,0,1-4.52,1.2,7.731,7.731,0,0,1-5.441-2.136,13.66,13.66,0,0,1-3.542-6.038,30.049,30.049,0,0,1-1.236-9.044q0-8.273,2.639-12.779t7.359-4.5a6.478,6.478,0,0,1,4.981,2.169,13.5,13.5,0,0,1,2.951,5.74,30.744,30.744,0,0,1,.959,7.973Zm-4.243-2.936a33.23,33.23,0,0,0-.442-5.374,13.791,13.791,0,0,0-1.475-4.537,3.062,3.062,0,0,0-2.694-1.835q-2.287,0-3.542,3.3a28.137,28.137,0,0,0-1.512,8.442Z" transform="translate(-155.946 -17.725)"/><path class="cls-16" d="M799.81,727.974q0-5.273,2.065-7.608a6.934,6.934,0,0,1,5.46-2.336h4.944v-4.871a9.373,9.373,0,0,0-1.163-5.274,3.719,3.719,0,0,0-3.228-1.667,6.9,6.9,0,0,0-3.08.8,13.018,13.018,0,0,0-2.933,2l-.295-2.537a12.358,12.358,0,0,1,3.652-2.4,10.5,10.5,0,0,1,4.17-.868,6.876,6.876,0,0,1,5.663,2.6,10.783,10.783,0,0,1,2.083,6.941V734.18a20.446,20.446,0,0,1,2.509,1.136v.734l-7.378,1.266v-4.47a10.294,10.294,0,0,1-2.859,3.67,5.462,5.462,0,0,1-3.3,1.2Q799.809,737.717,799.81,727.974ZM810.4,733.18a9.141,9.141,0,0,0,1.881-3.4v-8.809h-3.8a3.121,3.121,0,0,0-2.9,1.835,11,11,0,0,0-.976,5.106,10.812,10.812,0,0,0,.9,5.039,2.733,2.733,0,0,0,2.454,1.634A3.44,3.44,0,0,0,810.4,733.18Z" transform="translate(-155.946 -17.725)"/><path class="cls-16" d="M830.578,733.679q-2.178-4.035-2.177-12.514,0-8.139,2.379-13.047t6.659-4.9a5.454,5.454,0,0,1,2.952.832,7.515,7.515,0,0,1,2.434,2.906V693.271A11.538,11.538,0,0,1,840.316,692v-.667L847.7,690v44.18a17.685,17.685,0,0,1,2.509,1.136v.6l-6.383,1.669q-.185-2.737-.294-6.006a10.559,10.559,0,0,1-2.712,4.572,5.8,5.8,0,0,1-4.04,1.567Q832.755,737.717,830.578,733.679Zm10.92-1.4a14.189,14.189,0,0,0,1.327-6.64V710.49q-2.067-4.272-4.5-4.272-2.694,0-3.874,4.537a41.782,41.782,0,0,0-1.181,10.478q0,13.551,4.907,13.549Q840.169,734.782,841.5,732.277Z" transform="translate(-155.946 -17.725)"/><path class="cls-16" d="M894.473,736.05v1H884.032v-1c.123-.09.461-.311,1.014-.669a5.513,5.513,0,0,1,1.643-.732V713.091q0-6.873-3.432-6.873a3.151,3.151,0,0,0-2.231,1.2,12.31,12.31,0,0,0-2.121,3.469c.049.8.073,1.4.073,1.8v22.024a7.355,7.355,0,0,1,2.619,1.336v1h-9.85v-1c.124-.09.461-.311,1.015-.669a5.717,5.717,0,0,1,1.568-.732V713.091a11.745,11.745,0,0,0-.867-5.306,2.668,2.668,0,0,0-2.417-1.567,3.3,3.3,0,0,0-2.268,1.168,11.781,11.781,0,0,0-2.2,3.437v23.891a12.6,12.6,0,0,1,2.915,1.336v1H858.8v-1a9.032,9.032,0,0,1,2.915-1.4v-28.23a14.845,14.845,0,0,1-2.546-1.269v-.669l7.415-1.333v4.6a11.473,11.473,0,0,1,2.619-3.271,5.075,5.075,0,0,1,3.321-1.266,5.365,5.365,0,0,1,3.745,1.434,8,8,0,0,1,2.232,4.038,12.394,12.394,0,0,1,2.767-3.97,5.273,5.273,0,0,1,3.688-1.5,5.65,5.65,0,0,1,4.779,2.5,11.655,11.655,0,0,1,1.825,6.973v22.024A11.734,11.734,0,0,1,894.473,736.05Z" transform="translate(-155.946 -17.725)"/><path class="cls-16" d="M903.439,736.05q.663-.4,2.913-1.4v-28.1a11.672,11.672,0,0,1-2.544-1.2v-.669l7.415-1.334v31.366a19.942,19.942,0,0,1,2.913,1.336v1h-10.7Zm3.19-36.64a6.585,6.585,0,0,1-.719-3.271,6.771,6.771,0,0,1,.719-3.3,2.122,2.122,0,0,1,1.864-1.3,2.16,2.16,0,0,1,1.881,1.3,6.624,6.624,0,0,1,.738,3.3,6.442,6.442,0,0,1-.738,3.271,2.165,2.165,0,0,1-1.881,1.269A2.126,2.126,0,0,1,906.629,699.41Z" transform="translate(-155.946 -17.725)"/><path class="cls-16" d="M927.067,736.516a8.839,8.839,0,0,1-3.34-3.136l.3-8.209h1.07a26.158,26.158,0,0,1,.369,3.2q.147,2.135.185,3.87a5.845,5.845,0,0,0,1.881,1.835,4.7,4.7,0,0,0,2.508.7,4.024,4.024,0,0,0,3.339-1.637,7.276,7.276,0,0,0,1.272-4.57,5.666,5.666,0,0,0-.59-2.705,6.286,6.286,0,0,0-1.456-1.834,22.831,22.831,0,0,0-2.454-1.735,22.681,22.681,0,0,1-3.228-2.336,8.993,8.993,0,0,1-2.158-3.136,12.6,12.6,0,0,1-.886-5.071,8.739,8.739,0,0,1,2.14-6.342,7.147,7.147,0,0,1,5.349-2.2,7.983,7.983,0,0,1,7.121,3.8l-.333,7.008h-1.107a22.526,22.526,0,0,1-.35-2.737q-.129-1.665-.128-3.268a5.067,5.067,0,0,0-4.17-1.938,3.633,3.633,0,0,0-2.73,1.068,4.764,4.764,0,0,0-1.032,3.4,5.44,5.44,0,0,0,1.106,3.637,15.184,15.184,0,0,0,3.431,2.77,25.058,25.058,0,0,1,3.283,2.5,9.392,9.392,0,0,1,2.139,3.236,13.252,13.252,0,0,1,.886,5.206q0,4.938-2.176,7.372a7.046,7.046,0,0,1-5.5,2.437A9.584,9.584,0,0,1,927.067,736.516Z" transform="translate(-155.946 -17.725)"/><path class="cls-16" d="M952.781,736.516a8.831,8.831,0,0,1-3.34-3.136l.3-8.209h1.07a26.158,26.158,0,0,1,.369,3.2q.147,2.135.184,3.87a5.848,5.848,0,0,0,1.882,1.835,4.7,4.7,0,0,0,2.508.7,4.024,4.024,0,0,0,3.339-1.637,7.276,7.276,0,0,0,1.272-4.57,5.666,5.666,0,0,0-.59-2.705,6.286,6.286,0,0,0-1.456-1.834,22.831,22.831,0,0,0-2.454-1.735,22.624,22.624,0,0,1-3.228-2.336,8.993,8.993,0,0,1-2.158-3.136,12.6,12.6,0,0,1-.886-5.071,8.739,8.739,0,0,1,2.14-6.342,7.147,7.147,0,0,1,5.349-2.2,7.982,7.982,0,0,1,7.12,3.8l-.332,7.008h-1.107a22.526,22.526,0,0,1-.35-2.737q-.129-1.665-.128-3.268a5.067,5.067,0,0,0-4.17-1.938,3.633,3.633,0,0,0-2.73,1.068,4.764,4.764,0,0,0-1.032,3.4,5.44,5.44,0,0,0,1.106,3.637,15.184,15.184,0,0,0,3.431,2.77,25.126,25.126,0,0,1,3.283,2.5,9.392,9.392,0,0,1,2.139,3.236,13.252,13.252,0,0,1,.886,5.206q0,4.938-2.176,7.372a7.046,7.046,0,0,1-5.5,2.437A9.584,9.584,0,0,1,952.781,736.516Z" transform="translate(-155.946 -17.725)"/><path class="cls-16" d="M974.676,736.05q.664-.4,2.914-1.4v-28.1a11.677,11.677,0,0,1-2.545-1.2v-.669l7.416-1.334v31.366a19.942,19.942,0,0,1,2.913,1.336v1h-10.7Zm3.191-36.64a6.585,6.585,0,0,1-.719-3.271,6.771,6.771,0,0,1,.719-3.3,2.122,2.122,0,0,1,1.863-1.3,2.161,2.161,0,0,1,1.882,1.3,6.624,6.624,0,0,1,.737,3.3,6.442,6.442,0,0,1-.737,3.271,2.166,2.166,0,0,1-1.882,1.269A2.126,2.126,0,0,1,977.867,699.41Z" transform="translate(-155.946 -17.725)"/><path class="cls-16" d="M997.2,733.18q-2.712-4.539-2.712-12.681t2.712-12.714a8.789,8.789,0,0,1,15.42,0q2.712,4.572,2.712,12.714t-2.712,12.681a8.82,8.82,0,0,1-15.42,0Zm11.731-2.2a37.466,37.466,0,0,0,0-20.956q-1.494-3.8-4-3.8-2.544,0-4.039,3.8a37.466,37.466,0,0,0,0,20.956q1.494,3.8,4.039,3.805Q1007.437,734.782,1008.93,730.977Z" transform="translate(-155.946 -17.725)"/><path class="cls-16" d="M1048.681,736.05v1h-10.4v-1a13.037,13.037,0,0,1,2.657-1.4V713.091q0-6.873-3.431-6.873a4.15,4.15,0,0,0-2.6,1.168,10.784,10.784,0,0,0-2.565,3.637v23.691a12.621,12.621,0,0,1,2.915,1.336v1h-10.7v-1a9.018,9.018,0,0,1,2.914-1.4v-28.23a14.832,14.832,0,0,1-2.545-1.269v-.669l7.415-1.333v4.8a11.692,11.692,0,0,1,3.063-3.437,6.3,6.3,0,0,1,3.8-1.3,5.648,5.648,0,0,1,4.778,2.5,11.648,11.648,0,0,1,1.826,6.973v22.024A8.622,8.622,0,0,1,1048.681,736.05Z" transform="translate(-155.946 -17.725)"/><path class="cls-16" d="M1061.465,736.516a8.839,8.839,0,0,1-3.34-3.136l.3-8.209h1.07a26.158,26.158,0,0,1,.369,3.2q.147,2.135.185,3.87a5.845,5.845,0,0,0,1.881,1.835,4.7,4.7,0,0,0,2.508.7,4.024,4.024,0,0,0,3.339-1.637,7.276,7.276,0,0,0,1.273-4.57,5.666,5.666,0,0,0-.591-2.705,6.286,6.286,0,0,0-1.456-1.834,22.729,22.729,0,0,0-2.454-1.735,22.739,22.739,0,0,1-3.228-2.336,8.993,8.993,0,0,1-2.158-3.136,12.6,12.6,0,0,1-.886-5.071,8.735,8.735,0,0,1,2.141-6.342,7.143,7.143,0,0,1,5.348-2.2,7.983,7.983,0,0,1,7.121,3.8l-.333,7.008h-1.106a22.133,22.133,0,0,1-.35-2.737q-.13-1.665-.129-3.268a5.067,5.067,0,0,0-4.17-1.938,3.633,3.633,0,0,0-2.73,1.068,4.764,4.764,0,0,0-1.032,3.4,5.44,5.44,0,0,0,1.107,3.637,15.152,15.152,0,0,0,3.43,2.77,25.143,25.143,0,0,1,3.284,2.5,9.406,9.406,0,0,1,2.139,3.236,13.271,13.271,0,0,1,.885,5.206q0,4.938-2.175,7.372a7.05,7.05,0,0,1-5.5,2.437A9.586,9.586,0,0,1,1061.465,736.516Z" transform="translate(-155.946 -17.725)"/><path class="cls-17" d="M1049.568,768.936c-8.926-4.955-18.787-8.048-28.768-10.194a206.215,206.215,0,0,0-30.461-3.918,364.474,364.474,0,0,0-61.753,2.043,446.515,446.515,0,0,0-61.425,11.148,308.158,308.158,0,0,0-30.215,9.324c-9.942,3.726-19.843,7.949-29.027,14.324,8.973-6.887,18.784-11.694,28.638-15.989a316.45,316.45,0,0,1,30.037-11.061,455.79,455.79,0,0,1,61.43-14.672,370.9,370.9,0,0,1,62.508-5.562,211.145,211.145,0,0,1,31.562,2.292c10.532,1.682,21.114,4.289,31.5,9.374,2.749,1.346,4.146,5.359,3.12,8.965s-4.086,5.438-6.834,4.092c-.066-.032-.131-.065-.2-.1Z" transform="translate(-155.946 -17.725)"/><path d="M174.2,498.408a63.208,63.208,0,0,0,.362,7.565,9.484,9.484,0,0,0,1.485,4.427,5.865,5.865,0,0,0,3.187,2.153,22.827,22.827,0,0,0,5.54.738v4.92H155.946v-4.92a12.2,12.2,0,0,0,3.911-.738,4.473,4.473,0,0,0,2.318-2.091,11.59,11.59,0,0,0,1.086-4.182,68.391,68.391,0,0,0,.29-7.011V442.443q0-4.305-.253-6.95a12.961,12.961,0,0,0-.978-4.181,3.964,3.964,0,0,0-2.064-2.091,13.36,13.36,0,0,0-3.513-.8V423.5h44.326l.869,25.953H198.9a64.487,64.487,0,0,0-1.267-8.918,17.776,17.776,0,0,0-2.354-5.9,8.57,8.57,0,0,0-3.911-3.26,15.461,15.461,0,0,0-5.867-.984h-10q-1.3,0-1.3,2.09v35.548a34.444,34.444,0,0,0,7.207-.615,8.375,8.375,0,0,0,4.454-2.4,10.488,10.488,0,0,0,2.39-4.859,49.034,49.034,0,0,0,1.014-8.118h2.68v38.5h-2.68a53,53,0,0,0-1.231-8.3,10.351,10.351,0,0,0-2.427-4.8,8.592,8.592,0,0,0-4.381-2.276,33.188,33.188,0,0,0-7.026-.615Z" transform="translate(-155.946 -17.725)"/><path d="M237.5,422.271a21.345,21.345,0,0,1,12.168,3.813,34.4,34.4,0,0,1,9.814,10.455,56.706,56.706,0,0,1,6.555,15.621,75.38,75.38,0,0,1,2.39,19.434A69.6,69.6,0,0,1,266,490.29a55.072,55.072,0,0,1-6.591,15.19,34.37,34.37,0,0,1-9.814,10.209,21.372,21.372,0,0,1-24.191,0,34.747,34.747,0,0,1-9.851-10.209,53.618,53.618,0,0,1-6.591-15.19,70.583,70.583,0,0,1-2.39-18.7,75.38,75.38,0,0,1,2.39-19.434,56.706,56.706,0,0,1,6.555-15.621,34.4,34.4,0,0,1,9.814-10.455A21.347,21.347,0,0,1,237.5,422.271Zm0,89.175a11.763,11.763,0,0,0,7.6-2.767,21.876,21.876,0,0,0,5.794-7.872,49.212,49.212,0,0,0,3.658-12.423,96.815,96.815,0,0,0,1.268-16.421,106.951,106.951,0,0,0-1.268-17.281,55.662,55.662,0,0,0-3.658-13.161,22.634,22.634,0,0,0-5.794-8.365,11.5,11.5,0,0,0-15.246,0,22.882,22.882,0,0,0-5.758,8.365,55.662,55.662,0,0,0-3.658,13.161,106.845,106.845,0,0,0-1.267,17.281,96.718,96.718,0,0,0,1.267,16.421,49.212,49.212,0,0,0,3.658,12.423,22.111,22.111,0,0,0,5.758,7.872A11.712,11.712,0,0,0,237.5,511.446Z" transform="translate(-155.946 -17.725)"/><path d="M321.083,447.24q0,10.211-3.477,17.1a17.687,17.687,0,0,1-11.081,9.225l16.8,32.718a14.527,14.527,0,0,0,4.129,5.228,8.054,8.054,0,0,0,4.853,1.783v4.92H315.144l-17.962-37.392a19.037,19.037,0,0,0-3.151-4.981,3.792,3.792,0,0,0-2.5-1.292v24.108a61.908,61.908,0,0,0,.362,7.442,10.256,10.256,0,0,0,1.449,4.489,5.315,5.315,0,0,0,3.151,2.152,22.178,22.178,0,0,0,5.54.554v4.92H273.28v-4.92a11.293,11.293,0,0,0,3.875-.554,4.315,4.315,0,0,0,2.318-2.091,11.792,11.792,0,0,0,1.122-4.3,70.338,70.338,0,0,0,.29-7.073V442.443q0-4.305-.217-6.95a12.418,12.418,0,0,0-.942-4.181,3.957,3.957,0,0,0-2.064-2.091,13.516,13.516,0,0,0-3.585-.8V423.5h25.06q10.5,0,16.224,6.273T321.083,447.24Zm-29.551,19.926h4.708q6.807,0,10.176-4.489t3.368-14.823q0-7.869-2.825-12.668t-7.822-4.8h-6.3q-1.3,0-1.3,2.09Z" transform="translate(-155.946 -17.725)"/><path d="M387.065,450.561h-3.114a61.383,61.383,0,0,0-1.05-10.025,19.39,19.39,0,0,0-2.354-6.395,8.218,8.218,0,0,0-3.694-3.322,12.9,12.9,0,0,0-5.07-.923,43.938,43.938,0,0,0-4.527.185,8.418,8.418,0,0,0-2.607.615,2.215,2.215,0,0,0-1.195,1.169,5.065,5.065,0,0,0-.29,1.845v64.452a60,60,0,0,0,.326,6.765,12.1,12.1,0,0,0,1.34,4.612,6.5,6.5,0,0,0,2.969,2.706,13.36,13.36,0,0,0,5.143,1.046v4.92H342.594v-4.92a13.561,13.561,0,0,0,5.215-1.046,6.713,6.713,0,0,0,3.006-2.706,11.709,11.709,0,0,0,1.376-4.612,60.242,60.242,0,0,0,.326-6.765V433.71a5.776,5.776,0,0,0-.253-1.845,2.107,2.107,0,0,0-1.051-1.169,6.678,6.678,0,0,0-2.281-.615,32.689,32.689,0,0,0-3.875-.185,28.253,28.253,0,0,0-5,.431,7.3,7.3,0,0,0-4.2,2.46,15.255,15.255,0,0,0-2.933,6.151,48.236,48.236,0,0,0-1.195,11.623h-2.825l.724-27.06h56.712Z" transform="translate(-155.946 -17.725)"/><path d="M442.763,480.081a102.69,102.69,0,0,1-1.341,17.9,37.09,37.09,0,0,1-4.164,12.238,17.436,17.436,0,0,1-7.279,7.011,23.782,23.782,0,0,1-10.684,2.214q-11.661,0-17.056-8.3t-5.4-26.507v-33.7q0-4.8-.072-8.057t-.218-5.473a34.182,34.182,0,0,0-.4-3.629,14.592,14.592,0,0,0-.616-2.4,4.056,4.056,0,0,0-1.883-2.337,8.824,8.824,0,0,0-3.766-.615V423.5h26v4.92a13.433,13.433,0,0,0-4.491.554,4.157,4.157,0,0,0-2.245,2.152,10.3,10.3,0,0,0-.833,2.4,26.134,26.134,0,0,0-.507,3.691q-.181,2.275-.254,5.6t-.072,8.118v32.226q0,14.022,3.512,20.726t10.829,6.7q14.919,0,14.92-28.167V454.005q0-5.166-.109-8.856t-.362-6.273a34.906,34.906,0,0,0-.652-4.3,11.983,11.983,0,0,0-.978-2.829,6.317,6.317,0,0,0-2.607-2.521,10.008,10.008,0,0,0-4.418-.8V423.5h23.467v4.92a10.034,10.034,0,0,0-4.129.677,4.673,4.673,0,0,0-2.245,2.4,11.055,11.055,0,0,0-.942,2.891,38.666,38.666,0,0,0-.579,4.427q-.217,2.647-.326,6.335t-.108,8.856Z" transform="translate(-155.946 -17.725)"/><path d="M500.2,519.441l-32.086-77.613h-.29v52.89q0,6.151.254,9.717a17.9,17.9,0,0,0,1.086,5.535,4.474,4.474,0,0,0,2.317,2.583,11.832,11.832,0,0,0,3.875.738v4.92H453.843v-4.92a12.958,12.958,0,0,0,4.31-.8,4.93,4.93,0,0,0,2.535-2.521,15.15,15.15,0,0,0,1.195-5.228q.288-3.381.289-9.163V446.133q0-5.167-.289-8.549a19.028,19.028,0,0,0-1.087-5.35,5.2,5.2,0,0,0-2.281-2.767,10.64,10.64,0,0,0-3.948-1.046V423.5h20.208L503.964,494.6h.289v-47.6q0-6.024-.253-9.655a18.232,18.232,0,0,0-1.086-5.6,4.5,4.5,0,0,0-2.318-2.583,11.943,11.943,0,0,0-3.875-.738V423.5h21.511v4.92a13.044,13.044,0,0,0-4.309.8,4.927,4.927,0,0,0-2.535,2.521,15.232,15.232,0,0,0-1.195,5.289q-.291,3.444-.29,9.1v73.308Z" transform="translate(-155.946 -17.725)"/><path d="M540.54,465.812a45.275,45.275,0,0,0,7.46-.491,8,8,0,0,0,4.381-2.03,8.819,8.819,0,0,0,2.209-4.489,58.119,58.119,0,0,0,1.014-8h2.681v36.039H555.6a54.563,54.563,0,0,0-1.158-7.872,9.127,9.127,0,0,0-2.318-4.49,7.792,7.792,0,0,0-4.31-1.967,48.611,48.611,0,0,0-7.278-.431v25.338a30.428,30.428,0,0,0,.615,6.642,9.835,9.835,0,0,0,2.064,4.367,7.758,7.758,0,0,0,3.839,2.337,25.531,25.531,0,0,0,12.856-.308,9.926,9.926,0,0,0,4.744-3.444,19.438,19.438,0,0,0,3.042-6.58,73.786,73.786,0,0,0,1.956-10.394h2.9l-1.159,28.167H522.288v-4.92a12.2,12.2,0,0,0,3.911-.738,4.475,4.475,0,0,0,2.317-2.091,11.609,11.609,0,0,0,1.087-4.182,68.68,68.68,0,0,0,.29-7.011V442.443q0-4.305-.254-6.95a12.961,12.961,0,0,0-.978-4.181,3.957,3.957,0,0,0-2.064-2.091,13.351,13.351,0,0,0-3.513-.8V423.5h45.775l.507,24.108h-3.115a47.457,47.457,0,0,0-1.376-8.548,14.631,14.631,0,0,0-2.607-5.413,8.706,8.706,0,0,0-4.31-2.829,22.7,22.7,0,0,0-6.482-.8h-8.184q-1.884,0-2.318.8a9.8,9.8,0,0,0-.434,3.752Z" transform="translate(-155.946 -17.725)"/><path d="M615.14,465.812a45.275,45.275,0,0,0,7.46-.491,8,8,0,0,0,4.381-2.03,8.811,8.811,0,0,0,2.209-4.489,58.251,58.251,0,0,0,1.015-8h2.68v36.039h-2.68a54.684,54.684,0,0,0-1.159-7.872,9.119,9.119,0,0,0-2.318-4.49,7.788,7.788,0,0,0-4.31-1.967,48.611,48.611,0,0,0-7.278-.431v25.338a30.428,30.428,0,0,0,.615,6.642,9.835,9.835,0,0,0,2.064,4.367,7.758,7.758,0,0,0,3.839,2.337,25.531,25.531,0,0,0,12.856-.308,9.926,9.926,0,0,0,4.744-3.444,19.438,19.438,0,0,0,3.042-6.58,73.786,73.786,0,0,0,1.956-10.394h2.9l-1.159,28.167H596.888v-4.92a12.2,12.2,0,0,0,3.911-.738,4.475,4.475,0,0,0,2.317-2.091,11.609,11.609,0,0,0,1.087-4.182,68.68,68.68,0,0,0,.29-7.011V442.443q0-4.305-.254-6.95a12.961,12.961,0,0,0-.978-4.181,3.957,3.957,0,0,0-2.064-2.091,13.351,13.351,0,0,0-3.513-.8V423.5h45.775l.507,24.108h-3.114a47.546,47.546,0,0,0-1.376-8.548,14.632,14.632,0,0,0-2.608-5.413,8.708,8.708,0,0,0-4.309-2.829,22.709,22.709,0,0,0-6.483-.8h-8.184q-1.884,0-2.318.8a9.8,9.8,0,0,0-.434,3.752Z" transform="translate(-155.946 -17.725)"/><path d="M652.222,518.211v-4.92a13.249,13.249,0,0,0,3.875-.677,4.313,4.313,0,0,0,2.317-2.091,11.512,11.512,0,0,0,1.123-4.181,68.448,68.448,0,0,0,.289-7.073V442.443q0-4.305-.217-6.95a12.42,12.42,0,0,0-.941-4.181,4.012,4.012,0,0,0-1.992-2.091,12.029,12.029,0,0,0-3.3-.8V423.5H680.9a23.6,23.6,0,0,1,12.82,3.69,33.51,33.51,0,0,1,10.14,10.209,52.914,52.914,0,0,1,6.663,15.5,75.86,75.86,0,0,1,2.391,19.558,71.816,71.816,0,0,1-2.246,18.512,48.25,48.25,0,0,1-6.265,14.452,30.5,30.5,0,0,1-9.633,9.409,23.457,23.457,0,0,1-12.349,3.383ZM671.705,431q-1.233,0-1.231,2.091v63.591q0,7.134,2.607,10.578t8.039,3.444q9.488,0,14.6-9.717t5.106-28.29a101.411,101.411,0,0,0-1.376-17.589,49.971,49.971,0,0,0-3.984-13.1,22.247,22.247,0,0,0-6.337-8.18A13.5,13.5,0,0,0,680.759,431Z" transform="translate(-155.946 -17.725)"/><path d="M770.426,480.081a102.7,102.7,0,0,1-1.34,17.9,37.09,37.09,0,0,1-4.164,12.238,17.442,17.442,0,0,1-7.279,7.011,23.785,23.785,0,0,1-10.684,2.214q-11.661,0-17.057-8.3t-5.4-26.507v-33.7q0-4.8-.073-8.057t-.217-5.473a34.147,34.147,0,0,0-.4-3.629,14.7,14.7,0,0,0-.615-2.4,4.054,4.054,0,0,0-1.884-2.337,8.816,8.816,0,0,0-3.765-.615V423.5h26v4.92a13.441,13.441,0,0,0-4.491.554,4.157,4.157,0,0,0-2.245,2.152,10.3,10.3,0,0,0-.833,2.4,26.432,26.432,0,0,0-.507,3.691q-.182,2.275-.253,5.6t-.073,8.118v32.226q0,14.022,3.513,20.726t10.828,6.7q14.919,0,14.92-28.167V454.005q0-5.166-.108-8.856t-.363-6.273a34.737,34.737,0,0,0-.651-4.3,12.028,12.028,0,0,0-.978-2.829,6.311,6.311,0,0,0-2.607-2.521,10.01,10.01,0,0,0-4.419-.8V423.5h23.467v4.92a10.029,10.029,0,0,0-4.128.677,4.665,4.665,0,0,0-2.245,2.4,10.981,10.981,0,0,0-.942,2.891,38.866,38.866,0,0,0-.58,4.427q-.216,2.647-.325,6.335t-.109,8.856Z" transform="translate(-155.946 -17.725)"/><path d="M829.962,423.5h3.549l-1.449,31.119h-2.9q-1.521-11.316-5.9-17.835t-10.612-6.519a11.278,11.278,0,0,0-7.6,2.89,22.221,22.221,0,0,0-5.613,8.241,54.977,54.977,0,0,0-3.477,13.039,113.164,113.164,0,0,0-1.2,17.281q0,19.067,4.6,29.336t13.581,10.27q7.242,0,11.987-6.642t6.772-19.8h3.187v33.333h-3.4l-1.013-9.717q-7.97,10.948-19.338,10.947a22.232,22.232,0,0,1-11.951-3.321,28.289,28.289,0,0,1-9.126-9.41,49.834,49.834,0,0,1-5.83-14.821,84.548,84.548,0,0,1-2.065-19.434,89.167,89.167,0,0,1,2.173-20.418,56.051,56.051,0,0,1,6.12-15.867,31.083,31.083,0,0,1,9.416-10.271A21.476,21.476,0,0,1,812,422.271a17.014,17.014,0,0,1,8.257,2.091,36.065,36.065,0,0,1,8.329,6.765Z" transform="translate(-155.946 -17.725)"/><path d="M874.65,489.552h-20.5q-3.4,13.038-3.4,18.081,0,3.69,1.629,4.674a9.639,9.639,0,0,0,4.89.984v4.92H837.422v-4.92a13.123,13.123,0,0,0,3.006-.984,7.157,7.157,0,0,0,2.245-1.722,10.053,10.053,0,0,0,1.7-2.891,33.782,33.782,0,0,0,1.376-4.366L864.8,422.271h5.359L887.47,494.1q1.519,6.273,2.571,9.84a22.543,22.543,0,0,0,2.245,5.473,6.758,6.758,0,0,0,2.753,2.645,14.508,14.508,0,0,0,4.02,1.107v5.043H871.681v-5.043a10.99,10.99,0,0,0,5-1.23q1.521-.984,1.521-3.936a25.165,25.165,0,0,0-.507-4.428q-.507-2.7-1.377-6.642Zm-18.832-7.38h17.239L864.728,444.9h-.29Z" transform="translate(-155.946 -17.725)"/><path d="M950.555,450.561H947.44a61.383,61.383,0,0,0-1.05-10.025,19.39,19.39,0,0,0-2.354-6.395,8.218,8.218,0,0,0-3.694-3.322,12.9,12.9,0,0,0-5.07-.923,43.951,43.951,0,0,0-4.527.185,8.418,8.418,0,0,0-2.607.615,2.222,2.222,0,0,0-1.2,1.169,5.065,5.065,0,0,0-.29,1.845v64.452a60.242,60.242,0,0,0,.326,6.765,12.121,12.121,0,0,0,1.34,4.612,6.5,6.5,0,0,0,2.97,2.706,13.359,13.359,0,0,0,5.142,1.046v4.92H906.084v-4.92a13.561,13.561,0,0,0,5.215-1.046,6.7,6.7,0,0,0,3-2.706,11.708,11.708,0,0,0,1.377-4.612,60.506,60.506,0,0,0,.325-6.765V433.71a5.776,5.776,0,0,0-.253-1.845A2.107,2.107,0,0,0,914.7,430.7a6.671,6.671,0,0,0-2.281-.615,32.665,32.665,0,0,0-3.875-.185,28.242,28.242,0,0,0-5,.431,7.293,7.293,0,0,0-4.2,2.46,15.255,15.255,0,0,0-2.934,6.151,48.245,48.245,0,0,0-1.194,11.623H892.4l.724-27.06H949.83Z" transform="translate(-155.946 -17.725)"/><path d="M979.889,518.211H954.031v-4.92a10.952,10.952,0,0,0,3.948-.8,4.608,4.608,0,0,0,2.281-2.521,17.433,17.433,0,0,0,1.087-5.228q.288-3.381.29-9.163V446.133q0-5.167-.254-8.549a20.5,20.5,0,0,0-.978-5.35,5.129,5.129,0,0,0-2.064-2.767,8.931,8.931,0,0,0-3.585-1.046V423.5h24.408v4.92a8.916,8.916,0,0,0-3.585,1.046,5.115,5.115,0,0,0-2.064,2.767,20.336,20.336,0,0,0-.978,5.35q-.255,3.386-.254,8.549v49.446q0,5.784.254,9.163a15.983,15.983,0,0,0,1.086,5.228,4.747,4.747,0,0,0,2.317,2.521,10.943,10.943,0,0,0,3.949.8Z" transform="translate(-155.946 -17.725)"/><path d="M1015.812,422.271a21.344,21.344,0,0,1,12.167,3.813,34.4,34.4,0,0,1,9.814,10.455,56.706,56.706,0,0,1,6.555,15.621,75.38,75.38,0,0,1,2.39,19.434,69.6,69.6,0,0,1-2.426,18.7,55.072,55.072,0,0,1-6.591,15.19,34.383,34.383,0,0,1-9.814,10.209,21.372,21.372,0,0,1-24.191,0,34.747,34.747,0,0,1-9.851-10.209,53.618,53.618,0,0,1-6.591-15.19,70.584,70.584,0,0,1-2.389-18.7,75.381,75.381,0,0,1,2.389-19.434,56.706,56.706,0,0,1,6.555-15.621,34.391,34.391,0,0,1,9.815-10.455A21.343,21.343,0,0,1,1015.812,422.271Zm0,89.175a11.762,11.762,0,0,0,7.6-2.767,21.889,21.889,0,0,0,5.795-7.872,49.3,49.3,0,0,0,3.657-12.423,96.712,96.712,0,0,0,1.268-16.421,106.838,106.838,0,0,0-1.268-17.281,55.759,55.759,0,0,0-3.657-13.161,22.647,22.647,0,0,0-5.795-8.365,11.5,11.5,0,0,0-15.246,0,22.894,22.894,0,0,0-5.758,8.365,55.662,55.662,0,0,0-3.658,13.161,106.845,106.845,0,0,0-1.267,17.281,96.718,96.718,0,0,0,1.267,16.421,49.212,49.212,0,0,0,3.658,12.423,22.123,22.123,0,0,0,5.758,7.872A11.714,11.714,0,0,0,1015.812,511.446Z" transform="translate(-155.946 -17.725)"/><path d="M1097.512,519.441l-32.086-77.613h-.29v52.89q0,6.151.254,9.717a17.9,17.9,0,0,0,1.086,5.535,4.475,4.475,0,0,0,2.318,2.583,11.816,11.816,0,0,0,3.875.738v4.92h-21.512v-4.92a12.958,12.958,0,0,0,4.31-.8A4.93,4.93,0,0,0,1058,509.97a15.173,15.173,0,0,0,1.195-5.228q.29-3.381.289-9.163V446.133q0-5.167-.289-8.549a18.993,18.993,0,0,0-1.087-5.35,5.2,5.2,0,0,0-2.281-2.767,10.64,10.64,0,0,0-3.947-1.046V423.5h20.207l29.188,71.094h.29v-47.6q0-6.024-.253-9.655a18.2,18.2,0,0,0-1.086-5.6,4.5,4.5,0,0,0-2.318-2.583,11.938,11.938,0,0,0-3.875-.738V423.5h21.511v4.92a13.056,13.056,0,0,0-4.31.8,4.929,4.929,0,0,0-2.534,2.521,15.254,15.254,0,0,0-1.195,5.289q-.291,3.444-.29,9.1v73.308Z" transform="translate(-155.946 -17.725)"/></svg>