<?xml version="1.0" encoding="utf-8"?>
<!-- Generator: Adobe Illustrator 24.3.0, SVG Export Plug-In . SVG Version: 6.00 Build 0)  -->
<svg version="1.1" id="Layer_1" xmlns="http://www.w3.org/2000/svg" xmlns:xlink="http://www.w3.org/1999/xlink" x="0px" y="0px"
	 viewBox="0 0 1416.96 590.4" style="enable-background:new 0 0 1416.96 590.4;" xml:space="preserve">
<style type="text/css">
	.st0{fill:#F8A51B;}
	.st1{fill:none;stroke:#F8A51B;stroke-width:1.792;stroke-linecap:round;stroke-miterlimit:10;}
	.st2{fill:#1F1C4E;}
	.st3{fill:url(#SVGID_1_);}
	.st4{fill:url(#SVGID_2_);}
	.st5{fill:url(#SVGID_3_);}
	.st6{fill:url(#SVGID_4_);}
	.st7{fill:url(#SVGID_5_);}
	.st8{fill:url(#SVGID_6_);}
	.st9{fill:url(#SVGID_7_);}
	.st10{fill:url(#SVGID_8_);}
	.st11{fill:url(#SVGID_9_);}
	.st12{fill:url(#SVGID_10_);}
	.st13{fill:url(#SVGID_11_);}
	.st14{fill:url(#SVGID_12_);}
</style>
<g>
	<g>
		<g>
			<g>
				<path class="st0" d="M380.14,363.41c-19.42-35.35-57.58-59.39-101.47-59.39c-43.85,0-81.97,23.99-101.42,59.3
					c-3.26,5.9-5.99,12.12-8.13,18.59c81.48,21.7,108.13,68.54,109.5,71.04v0.01c0.01,0.01,0.01,0.01,0.01,0.02
					c0.02,0.03,0.03,0.06,0.03,0.07v0.01h0.02v-0.01c0.4-0.75,26.48-49.02,109.54-71.13h0.01
					C386.09,375.48,383.38,369.29,380.14,363.41z M261.77,341.45l32.79-0.07v10l-32.79,0.07V341.45z M278.71,452.07l2.24-50.36
					c2.75-1.14,4.67-3.81,4.67-6.92c0-4.15-3.41-7.51-7.64-7.51c-4.24,0-7.67,3.36-7.67,7.51c0,3.16,2,5.88,4.85,6.97l3.37,49.93
					c0-0.01,0-0.02-0.01-0.02c-1.7-16.8-33.04-54.84-33.04-54.84c14.12-12.13,16.25-41.66,16.25-41.66l18.29-0.13l14.38,0.13
					c0,0,2.13,29.53,16.26,41.66C310.65,396.83,279.9,435.51,278.71,452.07L278.71,452.07z"/>
				<g>
					<line class="st1" x1="181.65" y1="350.35" x2="166.72" y2="339.85"/>
					<g>
						<g>
							<path class="st1" d="M166.72,339.85"/>
							<path class="st1" d="M181.65,350.35"/>
							<line class="st1" x1="190.83" y1="338.39" x2="168.25" y2="318.2"/>
							<line class="st1" x1="201.95" y1="327.29" x2="191.44" y2="312.52"/>
							<line class="st1" x1="215.5" y1="317.35" x2="201.57" y2="290.7"/>
							<line class="st1" x1="229.88" y1="309.36" x2="225.32" y2="291.92"/>
							<line class="st1" x1="247.46" y1="303.79" x2="240.85" y2="274.56"/>
							<line class="st1" x1="261.94" y1="300.14" x2="259.79" y2="282.27"/>
							<line class="st1" x1="277.73" y1="299.22" x2="278.32" y2="269.29"/>
						</g>
						<line class="st1" x1="384.42" y1="365.01" x2="412.9" y2="354.09"/>
						<line class="st1" x1="376.52" y1="351.4" x2="391.75" y2="341.31"/>
						<line class="st1" x1="366.96" y1="339.2" x2="390.1" y2="319.63"/>
						<line class="st1" x1="356.16" y1="328.51" x2="367.08" y2="314.03"/>
						<line class="st1" x1="342.9" y1="318.22" x2="357.57" y2="291.95"/>
						<line class="st1" x1="328.74" y1="310.54" x2="333.79" y2="293.24"/>
						<line class="st1" x1="311.32" y1="303.8" x2="318.75" y2="274.76"/>
						<line class="st1" x1="296.95" y1="300.47" x2="299.61" y2="282.67"/>
					</g>
				</g>
			</g>
			<g>
				<g>
					<g>
						<path class="st1" d="M166.72,337.64"/>
						<path class="st1" d="M181.65,348.14"/>
						<g>
							<g>
								<path class="st1" d="M166.72,337.64"/>
								<path class="st1" d="M181.65,348.14"/>
							</g>
							<line class="st1" x1="384.42" y1="362.8" x2="412.9" y2="351.88"/>
						</g>
					</g>
				</g>
				<g>
					<path class="st2" d="M472.73,389.3c-17.51-1.39-33.8-1.32-48.88-0.11c-74.53,5.92-119.76,39.2-139.96,58.36
						c-0.08,0.07-0.14,0.12-0.21,0.2c-0.29,0.28-0.58,0.55-0.86,0.83c-0.69,0.68-1.62,1.59-2.38,2.34
						c-0.29,0.29-0.57,0.57-0.85,0.84v0.02c-0.18,0.17-0.34,0.34-0.51,0.52c-0.09,0.1-0.18,0.19-0.25,0.25
						c-0.03,0.03-0.05,0.07-0.09,0.09c-0.02-0.04-0.07-0.07-0.09-0.1c-0.25-0.26-0.51-0.53-0.79-0.8c-1.19-1.22-2.52-2.54-3.99-3.94
						c-0.03-0.02-0.05-0.04-0.08-0.07c-20.06-19.11-65.38-52.67-140.25-58.63c-15.08-1.21-31.37-1.29-48.9,0.1l17.62-45.9
						c14.93,1.59,28.66,4.02,41.3,7.13c12.14,2.98,23.27,6.57,33.48,10.62c65.66,26,92.88,70.51,101.68,88.87
						c8.85-18.44,36.1-62.85,101.67-88.8c10.2-4.04,21.33-7.63,33.46-10.6c12.64-3.11,26.36-5.54,41.25-7.11L472.73,389.3z"/>
					<g>
						<path class="st2" d="M522.7,403.99v61.99c0,0-48.25-12.5-104.48-19.13c-48.45-5.72-102.82-7.08-137.29,7.7
							c-0.28,0.1-1.82,0.79-2.15,0.94c-0.07-0.03-2.25-1.01-2.32-1.03c-34.48-14.79-88.87-13.42-137.33-7.71
							C82.94,453.39,34.7,465.9,34.7,465.9V403.9c15.7-3.96,30.62-6.73,44.78-8.47c19.31-2.41,37.19-2.95,53.67-2.09
							c75.53,3.88,121.57,37.06,140.65,54.37c0.03,0.03,0.05,0.05,0.08,0.06c1.47,1.41,2.8,2.72,3.99,3.94
							c0.28,0.27,0.54,0.54,0.79,0.8c0.03,0.04,0.07,0.06,0.09,0.1c0.04-0.03,0.07-0.06,0.09-0.1c0.25-0.24,0.5-0.5,0.76-0.76v-0.01
							c1.23-1.25,2.58-2.59,4.08-4.01c0.07-0.08,0.13-0.14,0.21-0.21c19.25-17.35,65.22-50.24,140.38-54.1
							c16.48-0.86,34.35-0.32,53.65,2.09C492.08,397.28,507,400.05,522.7,403.99z"/>
					</g>
				</g>
			</g>
		</g>
		<g>
			<path class="st2" d="M293.83,170.76c0,7.01,0,13.57,0,21.43c7.09-6.88,12.08-2.79,17.46,3.11c0-7.88,0-14.25,0-21.73
				c7.74,2.91,14.73,5.54,21.72,8.17c0.15-0.33,0.31-0.66,0.46-0.99c-5.96-2.83-11.79-5.96-17.92-8.39
				c-3.27-1.29-4.33-2.92-4.18-6.23c0.26-5.62,0.07-11.25,0.07-17.66c26.84,11.09,53.13,21.94,80.78,33.36
				c-2.67,1.48-3.99,2.4-5.45,3.01c-12.37,5.17-24.73,10.37-37.18,15.34c-2.82,1.12-3.86,2.52-3.81,5.51
				c0.17,11.78,0.1,23.57,0.06,35.36c-0.02,5.4-1.62,6.63-6.94,5.87c-30.9-4.4-61.89-6.31-93.06-3.22c-8.74,0.87-17.47,1.9-26.2,2.9
				c-5.87,0.67-7.26-0.43-7.28-6.22c-0.03-13.2-0.02-26.4-0.01-39.6c0-7.73,3.27-13.25,10.46-17.09
				c20.74-11.05,42.88-15.19,66.25-13.91C290.49,169.86,291.88,170.35,293.83,170.76z"/>
			<path class="st2" d="M205.96,199.01c-12.96-5.4-25.08-10.27-36.97-15.61c-1.83-0.82-2.65-3.8-3.9-5.8
				c-0.14-0.23-0.03-0.62-0.03-0.93c0.12-14.09-1.96-12.03,11.81-17.77c31.97-13.34,63.92-26.73,96.03-39.75
				c3.32-1.35,8.15-1.57,11.41-0.26c34.23,13.78,73.75,30.02,107.85,44.1c0.59,0.24-0.09,5.46-0.09,5.46s-9.04-3.36-10.81-4.09
				c-31.59-13.05-63.17-26.11-94.76-39.15c-2.02-0.84-4.11-1.53-6.12-2.28c-3.49,7.29-1.77,11.89,5.23,14.81
				c8.21,3.42,8.2,3.42,8.2,12.47c0,5.01,0,10.02,0,15.38c-5.12-0.35-9.85-0.69-14.58-0.99c-20.67-1.32-40.04,3.07-58.48,12.23
				C211.6,181.36,205.14,187.32,205.96,199.01z"/>
		</g>
		<g>
			<linearGradient id="SVGID_1_" gradientUnits="userSpaceOnUse" x1="95.4395" y1="288.669" x2="65.1364" y2="250.4899">
				<stop  offset="0" style="stop-color:#039047"/>
				<stop  offset="1" style="stop-color:#3DB34A"/>
			</linearGradient>
			<path class="st3" d="M125.49,309.12c-9.93-4.28-19.87-8.51-29.77-12.86c-4.25-1.87-8.49-3.8-12.56-6.02
				c-5.87-3.19-7.88-9.01-5.34-14.57c3.27-7.18,11.37-8.64,17.16-2.6c7.38,7.7,14.32,15.82,21.38,23.82
				c3.31,3.75,6.46,7.64,9.68,11.46C125.85,308.61,125.67,308.87,125.49,309.12z"/>
			<linearGradient id="SVGID_2_" gradientUnits="userSpaceOnUse" x1="77.5329" y1="231.2594" x2="64.9607" y2="198.3916">
				<stop  offset="0" style="stop-color:#039047"/>
				<stop  offset="1" style="stop-color:#3DB34A"/>
			</linearGradient>
			<path class="st4" d="M102.66,269.95c-6.91-6.27-14.69-13.1-22.19-20.21c-3.87-3.66-7.43-7.67-10.81-11.77
				c-3.5-4.25-3.66-9.43-0.88-13.47c2.56-3.71,6.18-5.1,10.61-4.28c4.8,0.89,6.87,4.61,8.36,8.53c4,10.53,7.82,21.14,11.67,31.73
				C100.71,264.05,101.88,267.66,102.66,269.95z"/>
			<linearGradient id="SVGID_3_" gradientUnits="userSpaceOnUse" x1="107.7738" y1="320.2872" x2="65.6564" y2="306.1501">
				<stop  offset="0" style="stop-color:#039047"/>
				<stop  offset="1" style="stop-color:#3DB34A"/>
			</linearGradient>
			<path class="st5" d="M145.2,323.97c-11.02,6.14-21.65,9.96-33.59,9.05c-4.77-0.36-8.34-2.59-10-7.07
				c-1.74-4.68-0.91-9.1,2.68-12.66c3.44-3.41,7.74-3.86,12.12-1.99C125.8,315.33,135.14,319.53,145.2,323.97z"/>
			<linearGradient id="SVGID_4_" gradientUnits="userSpaceOnUse" x1="93.9869" y1="181.8381" x2="103.0162" y2="165.888">
				<stop  offset="0" style="stop-color:#039047"/>
				<stop  offset="1" style="stop-color:#3DB34A"/>
			</linearGradient>
			<path class="st6" d="M101.66,188.81c0-3.8,0-7.6,0-11.41c0.01-9.57-0.03-19.13,0.06-28.7c0.06-5.97,3.14-10.64,7.28-11.43
				c7.11-1.35,13.32,5.09,10.71,11.87c-5.17,13.43-11,26.62-16.55,39.91C102.66,188.98,102.16,188.9,101.66,188.81z"/>
			<linearGradient id="SVGID_5_" gradientUnits="userSpaceOnUse" x1="83.931" y1="210.1128" x2="93.9913" y2="194.8534">
				<stop  offset="0" style="stop-color:#039047"/>
				<stop  offset="1" style="stop-color:#3DB34A"/>
			</linearGradient>
			<path class="st7" d="M93.9,229.62c-4.99-13.05-10.01-26.09-14.94-39.16c-1.52-4.03-1.23-7.98,2.05-11.12
				c2.53-2.42,5.67-3.55,9.22-2.2c4.36,1.66,6.06,5.25,6.34,9.45c0.27,4.13,0.23,8.29,0.02,12.43c-0.51,10.12-1.19,20.24-1.8,30.35
				C94.48,229.45,94.19,229.53,93.9,229.62z"/>
			<linearGradient id="SVGID_6_" gradientUnits="userSpaceOnUse" x1="121.4599" y1="151.8608" x2="139.8229" y2="128.7046">
				<stop  offset="0" style="stop-color:#039047"/>
				<stop  offset="1" style="stop-color:#3DB34A"/>
			</linearGradient>
			<path class="st8" d="M122.6,156.79c4.5-12.1,8.85-24.25,13.59-36.26c2.17-5.49,7.49-7.21,12.04-4.55
				c4.79,2.8,5.93,8.6,1.88,13.27c-6.12,7.05-12.72,13.7-19.18,20.46c-2.45,2.57-5.08,4.98-7.63,7.47
				C123.06,157.04,122.83,156.92,122.6,156.79z"/>
		</g>
		<g>
			
				<linearGradient id="SVGID_7_" gradientUnits="userSpaceOnUse" x1="4131.6123" y1="288.669" x2="4101.3091" y2="250.4899" gradientTransform="matrix(-1 0 0 1 4589.9121 0)">
				<stop  offset="0" style="stop-color:#039047"/>
				<stop  offset="1" style="stop-color:#3DB34A"/>
			</linearGradient>
			<path class="st9" d="M428.25,309.12c9.93-4.28,19.87-8.51,29.77-12.86c4.25-1.87,8.49-3.8,12.56-6.02
				c5.87-3.19,7.88-9.01,5.34-14.57c-3.27-7.18-11.37-8.64-17.16-2.6c-7.38,7.7-14.32,15.82-21.38,23.82
				c-3.31,3.75-6.46,7.64-9.68,11.46C427.89,308.61,428.07,308.87,428.25,309.12z"/>
			
				<linearGradient id="SVGID_8_" gradientUnits="userSpaceOnUse" x1="4113.7056" y1="231.2594" x2="4101.1333" y2="198.3916" gradientTransform="matrix(-1 0 0 1 4589.9121 0)">
				<stop  offset="0" style="stop-color:#039047"/>
				<stop  offset="1" style="stop-color:#3DB34A"/>
			</linearGradient>
			<path class="st10" d="M451.08,269.95c6.91-6.27,14.69-13.1,22.19-20.21c3.87-3.66,7.43-7.67,10.81-11.77
				c3.5-4.25,3.66-9.43,0.88-13.47c-2.56-3.71-6.18-5.1-10.61-4.28c-4.8,0.89-6.87,4.61-8.36,8.53c-4,10.53-7.82,21.14-11.67,31.73
				C453.03,264.05,451.86,267.66,451.08,269.95z"/>
			
				<linearGradient id="SVGID_9_" gradientUnits="userSpaceOnUse" x1="4143.9468" y1="320.2872" x2="4101.8291" y2="306.1501" gradientTransform="matrix(-1 0 0 1 4589.9121 0)">
				<stop  offset="0" style="stop-color:#039047"/>
				<stop  offset="1" style="stop-color:#3DB34A"/>
			</linearGradient>
			<path class="st11" d="M408.54,323.97c11.02,6.14,21.65,9.96,33.59,9.05c4.77-0.36,8.34-2.59,10-7.07
				c1.74-4.68,0.91-9.1-2.68-12.66c-3.44-3.41-7.74-3.86-12.12-1.99C427.94,315.33,418.6,319.53,408.54,323.97z"/>
			
				<linearGradient id="SVGID_10_" gradientUnits="userSpaceOnUse" x1="4130.1597" y1="181.8381" x2="4139.189" y2="165.888" gradientTransform="matrix(-1 0 0 1 4589.9121 0)">
				<stop  offset="0" style="stop-color:#039047"/>
				<stop  offset="1" style="stop-color:#3DB34A"/>
			</linearGradient>
			<path class="st12" d="M452.08,188.81c0-3.8,0-7.6,0-11.41c-0.01-9.57,0.03-19.13-0.06-28.7c-0.06-5.97-3.14-10.64-7.28-11.43
				c-7.11-1.35-13.32,5.09-10.71,11.87c5.17,13.43,11,26.62,16.55,39.91C451.08,188.98,451.58,188.9,452.08,188.81z"/>
			
				<linearGradient id="SVGID_11_" gradientUnits="userSpaceOnUse" x1="4120.1035" y1="210.1128" x2="4130.1641" y2="194.8534" gradientTransform="matrix(-1 0 0 1 4589.9121 0)">
				<stop  offset="0" style="stop-color:#039047"/>
				<stop  offset="1" style="stop-color:#3DB34A"/>
			</linearGradient>
			<path class="st13" d="M459.84,229.62c4.99-13.05,10.01-26.09,14.94-39.16c1.52-4.03,1.23-7.98-2.05-11.12
				c-2.53-2.42-5.67-3.55-9.22-2.2c-4.36,1.66-6.06,5.25-6.34,9.45c-0.27,4.13-0.23,8.29-0.02,12.43
				c0.51,10.12,1.19,20.24,1.8,30.35C459.25,229.45,459.55,229.53,459.84,229.62z"/>
			
				<linearGradient id="SVGID_12_" gradientUnits="userSpaceOnUse" x1="4157.6328" y1="151.8608" x2="4175.9956" y2="128.7046" gradientTransform="matrix(-1 0 0 1 4589.9121 0)">
				<stop  offset="0" style="stop-color:#039047"/>
				<stop  offset="1" style="stop-color:#3DB34A"/>
			</linearGradient>
			<path class="st14" d="M431.14,156.79c-4.5-12.1-8.85-24.25-13.59-36.26c-2.17-5.49-7.49-7.21-12.04-4.55
				c-4.79,2.8-5.93,8.6-1.88,13.27c6.12,7.05,12.72,13.7,19.18,20.46c2.45,2.57,5.08,4.98,7.63,7.47
				C430.68,157.04,430.91,156.92,431.14,156.79z"/>
		</g>
	</g>
	<g>
		<g>
			<path class="st2" d="M601.79,422.11l-0.58,5.55h-18.96v-0.54c1.12-0.38,2.1-0.62,2.92-0.71v-21.05
				c-0.87-0.13-1.84-0.37-2.92-0.71v-0.54h19v5.61h-1.03c-0.23-0.36-0.48-1-0.74-1.93c-0.26-0.93-0.42-1.64-0.46-2.14h-9.17v9.62
				h6.36c0.05-0.38,0.13-0.85,0.26-1.41c0.13-0.56,0.27-1.04,0.43-1.45h0.76v7.26h-0.76c-0.16-0.43-0.3-0.91-0.43-1.46
				c-0.13-0.55-0.21-1.01-0.26-1.4h-6.36v9.35h9.34c0.05-0.54,0.25-1.26,0.62-2.15c0.37-0.9,0.69-1.54,0.96-1.92H601.79z"/>
			<path class="st2" d="M631.06,427.15v0.5h-9.34v-0.54c1.05-0.34,1.85-0.55,2.4-0.64l-4.16-5.45l-4.91,5.45
				c1.03,0.18,1.89,0.39,2.58,0.64v0.54h-7.32v-0.47c1.03-0.36,1.87-0.58,2.51-0.67l6.11-6.83l-5.77-7.56
				c-0.71-0.11-1.51-0.36-2.4-0.74v-0.47h9.21v0.57c-1.26,0.4-2.05,0.62-2.37,0.64l3.74,4.94l4.47-4.98
				c-1.1-0.18-1.95-0.4-2.54-0.67v-0.51h7.32v0.51c-0.76,0.34-1.61,0.57-2.58,0.71l-5.67,6.29l6.15,8.1
				C629.24,426.63,630.1,426.84,631.06,427.15z"/>
			<path class="st2" d="M638.58,435.12c0.8-0.22,1.71-0.45,2.71-0.67v-22.22c-0.99-0.2-1.76-0.4-2.34-0.61v-0.37l6.87-0.67v2.22
				c0.76-0.83,1.61-1.4,2.56-1.72c0.95-0.31,1.84-0.47,2.66-0.47c2.63,0,4.66,0.69,6.08,2.07c1.42,1.38,2.13,3.45,2.13,6.2
				c0,6.07-2.85,9.11-8.55,9.11c-0.99,0-1.92-0.17-2.82-0.5c-0.89-0.34-1.58-0.87-2.06-1.61v8.61c0.71,0.11,1.61,0.34,2.71,0.67
				v0.54h-9.96V435.12z M653.63,424.48c0.71-1.36,1.06-3.17,1.06-5.43c0-2.33-0.34-4.07-1.01-5.21c-0.68-1.14-1.83-1.72-3.45-1.72
				c-0.85,0-1.66,0.23-2.44,0.71c-0.78,0.47-1.43,1.06-1.96,1.78v7.33c0,1.28,0.38,2.36,1.15,3.24c0.77,0.89,1.81,1.33,3.14,1.33
				C651.75,426.51,652.92,425.84,653.63,424.48z"/>
			<path class="st2" d="M685.43,419.52h-13.02c0.05,2.02,0.57,3.7,1.56,5.04c1,1.35,2.46,2.02,4.38,2.02c0.94,0,1.94-0.16,3.01-0.47
				c1.07-0.31,2-0.75,2.8-1.31l0.45,1.08c-0.73,0.6-1.75,1.11-3.04,1.51c-1.29,0.4-2.7,0.6-4.21,0.6c-1.95,0-3.64-0.36-5.07-1.08
				c-1.43-0.72-2.53-1.73-3.3-3.04c-0.77-1.31-1.15-2.83-1.15-4.56c0-2.78,0.82-4.93,2.46-6.44c1.64-1.51,3.92-2.27,6.85-2.27
				c1.86,0,3.4,0.36,4.64,1.09c1.24,0.73,2.15,1.69,2.75,2.89c0.6,1.2,0.89,2.54,0.89,4.02V419.52z M681.48,418.04
				c0-0.9-0.14-1.8-0.41-2.71c-0.27-0.91-0.73-1.67-1.37-2.29c-0.64-0.62-1.48-0.92-2.51-0.92c-1.42,0-2.52,0.55-3.3,1.66
				c-0.78,1.11-1.25,2.53-1.41,4.25H681.48z"/>
			<path class="st2" d="M693.99,427.12c0.64-0.27,1.55-0.49,2.71-0.67v-14.22c-1.01-0.22-1.79-0.44-2.34-0.64v-0.3l6.36-0.71
				l0.38,3.09h0.14c0.41-0.94,1.03-1.69,1.86-2.24c0.82-0.55,1.7-0.82,2.64-0.82c0.69,0,1.29,0.06,1.82,0.18
				c0.53,0.12,1.04,0.34,1.55,0.66l-0.86,2.12c-0.64-0.43-1.32-0.64-2.03-0.64c-1.01,0-1.95,0.32-2.82,0.96
				c-0.87,0.64-1.59,1.48-2.16,2.51v10.09c0.94,0.16,1.83,0.38,2.68,0.67v0.5h-9.93V427.12z"/>
			<path class="st2" d="M729.51,427.39c-1.21,0.4-2.62,0.6-4.23,0.6c-1.79,0-3.21-0.39-4.26-1.16c-1.05-0.77-1.58-2.03-1.58-3.78
				v-10.63h-2.75v-1.51h2.75v-1.11c1.28-0.4,2.05-1.54,2.3-3.4h2.23v4.5h5.02v1.51h-5.02v10.63c0,1.28,0.26,2.16,0.79,2.64
				c0.53,0.48,1.27,0.72,2.23,0.72c0.69,0,1.43-0.12,2.23-0.37L729.51,427.39z"/>
			<path class="st2" d="M741.58,427.39c-1.34-0.4-2.38-0.93-3.11-1.58l0.28-4.14h1c0.14,0.36,0.25,0.9,0.34,1.61
				c0.09,0.72,0.15,1.37,0.17,1.95c0.46,0.38,1.04,0.69,1.75,0.92c0.71,0.24,1.49,0.35,2.34,0.35c1.28,0,2.32-0.27,3.11-0.82
				c0.79-0.55,1.18-1.32,1.18-2.3c0-0.54-0.18-0.99-0.55-1.36c-0.37-0.37-0.82-0.68-1.36-0.92c-0.54-0.25-1.3-0.54-2.28-0.87
				c-1.21-0.4-2.22-0.8-3.01-1.18c-0.79-0.38-1.46-0.91-2.01-1.58c-0.55-0.67-0.82-1.52-0.82-2.55c0-1.39,0.66-2.46,1.99-3.2
				c1.33-0.74,2.99-1.11,4.98-1.11c2.89,0,5.1,0.64,6.63,1.92l-0.31,3.53h-1.03c-0.14-0.36-0.25-0.82-0.33-1.38
				c-0.08-0.56-0.12-1.11-0.12-1.65c-0.96-0.65-2.26-0.98-3.88-0.98c-1.05,0-1.9,0.18-2.54,0.54c-0.64,0.36-0.96,0.93-0.96,1.72
				c0,0.79,0.34,1.4,1.03,1.83c0.69,0.44,1.75,0.9,3.19,1.4c1.26,0.45,2.28,0.87,3.06,1.26c0.78,0.39,1.44,0.94,1.99,1.63
				c0.55,0.69,0.82,1.57,0.82,2.62c0,1.66-0.68,2.9-2.03,3.71c-1.35,0.82-3.06,1.23-5.12,1.23
				C744.39,427.99,742.92,427.79,741.58,427.39z"/>
			<path class="st2" d="M777.84,427.15c0.41-0.14,1.32-0.37,2.71-0.71v-14.16c-0.69-0.11-1.48-0.31-2.37-0.6v-0.34l6.9-0.67v15.8
				c1.01,0.2,1.91,0.43,2.71,0.67v0.5h-9.96V427.15z M780.81,408.69c-0.45-0.43-0.67-0.97-0.67-1.65c0-0.67,0.22-1.23,0.67-1.66
				c0.45-0.44,1.03-0.66,1.74-0.66c0.71,0,1.29,0.22,1.75,0.66c0.46,0.44,0.69,0.99,0.69,1.66c0,0.67-0.23,1.22-0.69,1.65
				s-1.04,0.64-1.75,0.64C781.83,409.33,781.26,409.12,780.81,408.69z"/>
			<path class="st2" d="M818.85,427.15v0.5h-9.69v-0.5c1.03-0.36,1.86-0.59,2.47-0.71v-10.86c0-2.31-1.07-3.46-3.2-3.46
				c-0.76,0-1.56,0.2-2.42,0.59c-0.86,0.39-1.66,1-2.39,1.83v11.94c0.94,0.16,1.84,0.38,2.71,0.67v0.5h-9.96v-0.5
				c0.96-0.36,1.87-0.59,2.71-0.71v-14.22c-0.94-0.2-1.73-0.42-2.37-0.64v-0.34l6.9-0.67V413c0.8-0.72,1.75-1.29,2.85-1.73
				c1.1-0.44,2.28-0.66,3.54-0.66c1.83,0,3.32,0.42,4.45,1.26c1.13,0.84,1.7,2.01,1.7,3.51v11.1
				C817.32,426.66,818.21,426.88,818.85,427.15z"/>
			<path class="st2" d="M865.67,427.15v0.5h-9.76v-0.5c1.03-0.36,1.87-0.59,2.51-0.71v-10.86c0-2.31-1.07-3.46-3.2-3.46
				c-0.76,0-1.56,0.21-2.42,0.62c-0.86,0.42-1.67,1.04-2.42,1.87v11.87c0.87,0.14,1.71,0.36,2.51,0.67v0.5h-9.72v-0.5
				c1.17-0.4,2.07-0.64,2.71-0.71V405.6c-0.94-0.2-1.73-0.42-2.37-0.64v-0.34l6.87-0.67v9.11c0.78-0.74,1.72-1.33,2.83-1.78
				c1.11-0.45,2.31-0.67,3.59-0.67c1.83,0,3.31,0.42,4.43,1.26c1.12,0.84,1.68,2.01,1.68,3.51v11.1
				C863.86,426.64,864.78,426.86,865.67,427.15z"/>
			<path class="st2" d="M874.05,423.08c0-1.77,0.64-3.05,1.92-3.83c1.28-0.78,2.98-1.18,5.08-1.18h4.6v-2.45
				c0-1.21-0.36-2.1-1.08-2.66c-0.72-0.56-1.72-0.84-3.01-0.84c-0.92,0-1.87,0.13-2.87,0.4c-1,0.27-1.91,0.6-2.73,1.01l-0.28-1.28
				c1.01-0.52,2.14-0.92,3.4-1.21c1.26-0.29,2.55-0.44,3.88-0.44c2.22,0,3.98,0.44,5.27,1.31c1.29,0.87,1.94,2.04,1.94,3.5v10.79
				c0.87,0.18,1.65,0.37,2.34,0.57v0.37l-6.87,0.64v-2.25c-0.78,0.83-1.67,1.45-2.66,1.85c-1,0.4-2.02,0.6-3.07,0.6
				C876.01,427.99,874.05,426.36,874.05,423.08z M883.91,425.71c0.78-0.47,1.36-1.04,1.75-1.72v-4.44h-3.54
				c-1.19,0-2.09,0.31-2.7,0.92c-0.61,0.62-0.91,1.47-0.91,2.57c0,1.14,0.28,1.99,0.84,2.54c0.56,0.55,1.32,0.82,2.28,0.82
				C882.38,426.41,883.13,426.18,883.91,425.71z"/>
			<path class="st2" d="M903.99,427.39c-1.34-0.4-2.38-0.93-3.11-1.58l0.28-4.14h1c0.14,0.36,0.25,0.9,0.34,1.61
				c0.09,0.72,0.15,1.37,0.17,1.95c0.46,0.38,1.04,0.69,1.75,0.92c0.71,0.24,1.49,0.35,2.34,0.35c1.28,0,2.32-0.27,3.11-0.82
				c0.79-0.55,1.18-1.32,1.18-2.3c0-0.54-0.18-0.99-0.55-1.36c-0.37-0.37-0.82-0.68-1.36-0.92c-0.54-0.25-1.3-0.54-2.28-0.87
				c-1.21-0.4-2.22-0.8-3.01-1.18c-0.79-0.38-1.46-0.91-2.01-1.58c-0.55-0.67-0.82-1.52-0.82-2.55c0-1.39,0.66-2.46,1.99-3.2
				c1.33-0.74,2.99-1.11,4.98-1.11c2.89,0,5.1,0.64,6.63,1.92l-0.31,3.53h-1.03c-0.14-0.36-0.25-0.82-0.33-1.38
				c-0.08-0.56-0.12-1.11-0.12-1.65c-0.96-0.65-2.26-0.98-3.88-0.98c-1.05,0-1.9,0.18-2.54,0.54c-0.64,0.36-0.96,0.93-0.96,1.72
				c0,0.79,0.34,1.4,1.03,1.83c0.69,0.44,1.75,0.9,3.19,1.4c1.26,0.45,2.28,0.87,3.06,1.26c0.78,0.39,1.44,0.94,1.99,1.63
				c0.55,0.69,0.82,1.57,0.82,2.62c0,1.66-0.68,2.9-2.03,3.71c-1.35,0.82-3.06,1.23-5.12,1.23
				C906.8,427.99,905.33,427.79,903.99,427.39z"/>
			<path class="st2" d="M927.93,427.39c-1.34-0.4-2.38-0.93-3.11-1.58l0.28-4.14h1c0.14,0.36,0.25,0.9,0.34,1.61
				c0.09,0.72,0.15,1.37,0.17,1.95c0.46,0.38,1.04,0.69,1.75,0.92c0.71,0.24,1.49,0.35,2.34,0.35c1.28,0,2.32-0.27,3.11-0.82
				c0.79-0.55,1.18-1.32,1.18-2.3c0-0.54-0.18-0.99-0.55-1.36c-0.37-0.37-0.82-0.68-1.36-0.92c-0.54-0.25-1.3-0.54-2.28-0.87
				c-1.21-0.4-2.22-0.8-3.01-1.18c-0.79-0.38-1.46-0.91-2.01-1.58c-0.55-0.67-0.82-1.52-0.82-2.55c0-1.39,0.66-2.46,1.99-3.2
				c1.33-0.74,2.99-1.11,4.98-1.11c2.89,0,5.1,0.64,6.63,1.92l-0.31,3.53h-1.03c-0.14-0.36-0.25-0.82-0.33-1.38
				c-0.08-0.56-0.12-1.11-0.12-1.65c-0.96-0.65-2.26-0.98-3.88-0.98c-1.05,0-1.9,0.18-2.54,0.54c-0.64,0.36-0.96,0.93-0.96,1.72
				c0,0.79,0.34,1.4,1.03,1.83c0.69,0.44,1.75,0.9,3.19,1.4c1.26,0.45,2.28,0.87,3.06,1.26c0.78,0.39,1.44,0.94,1.99,1.63
				c0.55,0.69,0.82,1.57,0.82,2.62c0,1.66-0.68,2.9-2.03,3.71c-1.35,0.82-3.06,1.23-5.12,1.23
				C930.74,427.99,929.27,427.79,927.93,427.39z"/>
			<path class="st2" d="M948.42,427.15c0.48-0.16,1.39-0.39,2.71-0.71V405.6c-0.94-0.2-1.73-0.42-2.37-0.64v-0.34l6.9-0.67v22.53
				c1.01,0.16,1.91,0.38,2.71,0.67v0.5h-9.96V427.15z"/>
			<path class="st2" d="M984.66,419.52h-13.02c0.05,2.02,0.57,3.7,1.56,5.04s2.46,2.02,4.38,2.02c0.94,0,1.94-0.16,3.01-0.47
				c1.06-0.31,2-0.75,2.8-1.31l0.45,1.08c-0.73,0.6-1.75,1.11-3.04,1.51c-1.29,0.4-2.7,0.6-4.21,0.6c-1.95,0-3.63-0.36-5.07-1.08
				c-1.43-0.72-2.53-1.73-3.3-3.04c-0.77-1.31-1.15-2.83-1.15-4.56c0-2.78,0.82-4.93,2.46-6.44c1.64-1.51,3.92-2.27,6.85-2.27
				c1.86,0,3.4,0.36,4.64,1.09c1.24,0.73,2.15,1.69,2.75,2.89c0.59,1.2,0.89,2.54,0.89,4.02V419.52z M980.71,418.04
				c0-0.9-0.14-1.8-0.41-2.71c-0.28-0.91-0.73-1.67-1.37-2.29c-0.64-0.62-1.48-0.92-2.51-0.92c-1.42,0-2.52,0.55-3.3,1.66
				c-0.78,1.11-1.25,2.53-1.41,4.25H980.71z"/>
			<path class="st2" d="M994.11,417.03h11.58v2.42h-11.58V417.03z"/>
			<path class="st2" d="M1023.51,406c-0.55,0.65-0.82,1.63-0.82,2.92v1.98h5.08v1.51h-5.08v14.06c1.21,0.2,2.19,0.43,2.92,0.67v0.5
				h-10.2v-0.54c1.49-0.43,2.4-0.65,2.75-0.67v-14.02h-3.23v-1.51h3.23v-1.35c0-1.99,0.52-3.51,1.56-4.56
				c1.04-1.04,2.47-1.56,4.28-1.56c1.63,0,3.03,0.21,4.23,0.64l-0.28,1.35c-0.76-0.27-1.5-0.4-2.23-0.4
				C1024.79,405.03,1024.06,405.35,1023.51,406z"/>
			<path class="st2" d="M1036.6,427.12c0.64-0.27,1.55-0.49,2.71-0.67v-14.22c-1.01-0.22-1.79-0.44-2.34-0.64v-0.3l6.35-0.71
				l0.38,3.09h0.14c0.41-0.94,1.03-1.69,1.86-2.24c0.82-0.55,1.7-0.82,2.64-0.82c0.69,0,1.29,0.06,1.82,0.18
				c0.53,0.12,1.04,0.34,1.55,0.66l-0.86,2.12c-0.64-0.43-1.32-0.64-2.03-0.64c-1.01,0-1.95,0.32-2.82,0.96
				c-0.87,0.64-1.59,1.48-2.16,2.51v10.09c0.94,0.16,1.83,0.38,2.68,0.67v0.5h-9.93V427.12z"/>
			<path class="st2" d="M1076.17,419.52h-13.02c0.05,2.02,0.57,3.7,1.56,5.04s2.46,2.02,4.38,2.02c0.94,0,1.94-0.16,3.01-0.47
				c1.06-0.31,2-0.75,2.8-1.31l0.45,1.08c-0.73,0.6-1.75,1.11-3.04,1.51c-1.29,0.4-2.7,0.6-4.21,0.6c-1.95,0-3.63-0.36-5.07-1.08
				c-1.43-0.72-2.53-1.73-3.3-3.04c-0.77-1.31-1.15-2.83-1.15-4.56c0-2.78,0.82-4.93,2.46-6.44c1.64-1.51,3.92-2.27,6.85-2.27
				c1.86,0,3.4,0.36,4.64,1.09c1.24,0.73,2.15,1.69,2.75,2.89c0.59,1.2,0.89,2.54,0.89,4.02V419.52z M1072.22,418.04
				c0-0.9-0.14-1.8-0.41-2.71c-0.28-0.91-0.73-1.67-1.37-2.29c-0.64-0.62-1.48-0.92-2.51-0.92c-1.42,0-2.52,0.55-3.3,1.66
				c-0.78,1.11-1.25,2.53-1.41,4.25H1072.22z"/>
			<path class="st2" d="M1102.51,419.52h-13.02c0.05,2.02,0.57,3.7,1.56,5.04s2.46,2.02,4.38,2.02c0.94,0,1.94-0.16,3.01-0.47
				c1.06-0.31,2-0.75,2.8-1.31l0.45,1.08c-0.73,0.6-1.75,1.11-3.04,1.51c-1.29,0.4-2.7,0.6-4.21,0.6c-1.95,0-3.63-0.36-5.07-1.08
				c-1.43-0.72-2.53-1.73-3.3-3.04c-0.77-1.31-1.15-2.83-1.15-4.56c0-2.78,0.82-4.93,2.46-6.44c1.64-1.51,3.92-2.27,6.85-2.27
				c1.86,0,3.4,0.36,4.64,1.09c1.24,0.73,2.15,1.69,2.75,2.89c0.59,1.2,0.89,2.54,0.89,4.02V419.52z M1098.56,418.04
				c0-0.9-0.14-1.8-0.41-2.71c-0.28-0.91-0.73-1.67-1.37-2.29c-0.64-0.62-1.48-0.92-2.51-0.92c-1.42,0-2.52,0.55-3.3,1.66
				c-0.78,1.11-1.25,2.53-1.41,4.25H1098.56z"/>
			<path class="st2" d="M1127.07,423.08c0-1.77,0.64-3.05,1.92-3.83c1.28-0.78,2.98-1.18,5.08-1.18h4.6v-2.45
				c0-1.21-0.36-2.1-1.08-2.66c-0.72-0.56-1.72-0.84-3.01-0.84c-0.92,0-1.87,0.13-2.87,0.4c-1,0.27-1.91,0.6-2.73,1.01l-0.28-1.28
				c1.01-0.52,2.14-0.92,3.4-1.21c1.26-0.29,2.55-0.44,3.88-0.44c2.22,0,3.98,0.44,5.27,1.31c1.29,0.87,1.94,2.04,1.94,3.5v10.79
				c0.87,0.18,1.65,0.37,2.34,0.57v0.37l-6.87,0.64v-2.25c-0.78,0.83-1.67,1.45-2.66,1.85c-1,0.4-2.02,0.6-3.07,0.6
				C1129.03,427.99,1127.07,426.36,1127.07,423.08z M1136.93,425.71c0.78-0.47,1.36-1.04,1.75-1.72v-4.44h-3.54
				c-1.19,0-2.09,0.31-2.7,0.92c-0.61,0.62-0.91,1.47-0.91,2.57c0,1.14,0.28,1.99,0.84,2.54c0.56,0.55,1.32,0.82,2.28,0.82
				C1135.4,426.41,1136.15,426.18,1136.93,425.71z"/>
			<path class="st2" d="M1155.72,425.96c-1.35-1.36-2.03-3.46-2.03-6.3c0-2.73,0.74-4.93,2.22-6.57c1.48-1.65,3.54-2.47,6.2-2.47
				c1.01,0,1.92,0.14,2.75,0.42c0.82,0.28,1.58,0.77,2.27,1.46v-6.89c-0.89-0.18-1.67-0.39-2.34-0.64v-0.34l6.87-0.67v22.26
				c0.99,0.2,1.76,0.39,2.34,0.57v0.3l-5.94,0.84c-0.11-0.92-0.21-1.93-0.27-3.03c-0.62,1.01-1.46,1.78-2.52,2.3
				c-1.07,0.53-2.32,0.79-3.76,0.79C1159,427.99,1157.07,427.32,1155.72,425.96z M1165.89,425.25c0.82-0.84,1.24-1.95,1.24-3.35
				v-7.63c-1.28-1.43-2.68-2.15-4.19-2.15c-1.67,0-2.87,0.76-3.61,2.29c-0.73,1.52-1.1,3.28-1.1,5.28c0,4.55,1.52,6.83,4.57,6.83
				C1164.04,426.51,1165.07,426.09,1165.89,425.25z"/>
			<path class="st2" d="M1215.22,427.15v0.5h-9.72v-0.5c0.11-0.05,0.43-0.16,0.94-0.34c0.52-0.18,1.03-0.3,1.53-0.37v-10.86
				c0-2.31-1.06-3.46-3.2-3.46c-0.69,0-1.38,0.2-2.08,0.6c-0.7,0.4-1.36,0.99-1.98,1.75c0.05,0.4,0.07,0.71,0.07,0.91v11.1
				c0.89,0.14,1.71,0.36,2.44,0.67v0.5h-9.17v-0.5c0.11-0.05,0.43-0.16,0.94-0.34c0.52-0.18,1-0.3,1.46-0.37v-10.86
				c0-1.26-0.27-2.15-0.81-2.67c-0.54-0.53-1.29-0.79-2.25-0.79c-0.69,0-1.39,0.2-2.11,0.59c-0.72,0.39-1.4,0.97-2.04,1.73v12.04
				c0.94,0.16,1.84,0.38,2.71,0.67v0.5H1182v-0.5c0.96-0.36,1.87-0.59,2.71-0.71v-14.22c-0.94-0.2-1.73-0.42-2.37-0.64v-0.34
				l6.9-0.67v2.32c0.69-0.67,1.5-1.22,2.44-1.65c0.94-0.42,1.97-0.64,3.09-0.64c1.35,0,2.51,0.24,3.49,0.72
				c0.97,0.48,1.67,1.16,2.08,2.03c0.71-0.83,1.57-1.5,2.58-2c1.01-0.51,2.15-0.76,3.43-0.76c1.83,0,3.32,0.42,4.45,1.26
				c1.13,0.84,1.7,2.01,1.7,3.51v11.1C1213.46,426.64,1214.37,426.86,1215.22,427.15z"/>
			<path class="st2" d="M1223.56,427.15c0.41-0.14,1.32-0.37,2.71-0.71v-14.16c-0.69-0.11-1.48-0.31-2.37-0.6v-0.34l6.9-0.67v15.8
				c1.01,0.2,1.91,0.43,2.71,0.67v0.5h-9.96V427.15z M1226.53,408.69c-0.45-0.43-0.67-0.97-0.67-1.65c0-0.67,0.22-1.23,0.67-1.66
				c0.45-0.44,1.03-0.66,1.74-0.66c0.71,0,1.29,0.22,1.75,0.66c0.46,0.44,0.69,0.99,0.69,1.66c0,0.67-0.23,1.22-0.69,1.65
				c-0.46,0.43-1.04,0.64-1.75,0.64C1227.56,409.33,1226.98,409.12,1226.53,408.69z"/>
			<path class="st2" d="M1245.56,427.39c-1.34-0.4-2.38-0.93-3.11-1.58l0.28-4.14h1c0.14,0.36,0.25,0.9,0.34,1.61
				c0.09,0.72,0.15,1.37,0.17,1.95c0.46,0.38,1.04,0.69,1.75,0.92c0.71,0.24,1.49,0.35,2.34,0.35c1.28,0,2.32-0.27,3.11-0.82
				c0.79-0.55,1.18-1.32,1.18-2.3c0-0.54-0.18-0.99-0.55-1.36c-0.37-0.37-0.82-0.68-1.36-0.92c-0.54-0.25-1.3-0.54-2.28-0.87
				c-1.21-0.4-2.22-0.8-3.01-1.18c-0.79-0.38-1.46-0.91-2.01-1.58c-0.55-0.67-0.82-1.52-0.82-2.55c0-1.39,0.66-2.46,1.99-3.2
				c1.33-0.74,2.99-1.11,4.98-1.11c2.89,0,5.1,0.64,6.63,1.92l-0.31,3.53h-1.03c-0.14-0.36-0.25-0.82-0.33-1.38
				c-0.08-0.56-0.12-1.11-0.12-1.65c-0.96-0.65-2.26-0.98-3.88-0.98c-1.05,0-1.9,0.18-2.54,0.54c-0.64,0.36-0.96,0.93-0.96,1.72
				c0,0.79,0.34,1.4,1.03,1.83c0.69,0.44,1.75,0.9,3.19,1.4c1.26,0.45,2.28,0.87,3.06,1.26c0.78,0.39,1.44,0.94,1.99,1.63
				c0.55,0.69,0.82,1.57,0.82,2.62c0,1.66-0.68,2.9-2.03,3.71c-1.35,0.82-3.06,1.23-5.12,1.23
				C1248.37,427.99,1246.9,427.79,1245.56,427.39z"/>
			<path class="st2" d="M1269.51,427.39c-1.34-0.4-2.38-0.93-3.11-1.58l0.28-4.14h1c0.14,0.36,0.25,0.9,0.34,1.61
				c0.09,0.72,0.15,1.37,0.17,1.95c0.46,0.38,1.04,0.69,1.75,0.92c0.71,0.24,1.49,0.35,2.34,0.35c1.28,0,2.32-0.27,3.11-0.82
				c0.79-0.55,1.18-1.32,1.18-2.3c0-0.54-0.18-0.99-0.55-1.36c-0.37-0.37-0.82-0.68-1.36-0.92c-0.54-0.25-1.3-0.54-2.28-0.87
				c-1.21-0.4-2.22-0.8-3.01-1.18c-0.79-0.38-1.46-0.91-2.01-1.58c-0.55-0.67-0.82-1.52-0.82-2.55c0-1.39,0.66-2.46,1.99-3.2
				c1.33-0.74,2.99-1.11,4.98-1.11c2.89,0,5.1,0.64,6.63,1.92l-0.31,3.53h-1.03c-0.14-0.36-0.25-0.82-0.33-1.38
				c-0.08-0.56-0.12-1.11-0.12-1.65c-0.96-0.65-2.26-0.98-3.88-0.98c-1.05,0-1.9,0.18-2.54,0.54c-0.64,0.36-0.96,0.93-0.96,1.72
				c0,0.79,0.34,1.4,1.03,1.83c0.69,0.44,1.75,0.9,3.19,1.4c1.26,0.45,2.28,0.87,3.06,1.26c0.78,0.39,1.44,0.94,1.99,1.63
				c0.55,0.69,0.82,1.57,0.82,2.62c0,1.66-0.68,2.9-2.03,3.71c-1.35,0.82-3.06,1.23-5.12,1.23
				C1272.32,427.99,1270.85,427.79,1269.51,427.39z"/>
			<path class="st2" d="M1289.89,427.15c0.41-0.14,1.32-0.37,2.71-0.71v-14.16c-0.69-0.11-1.48-0.31-2.37-0.6v-0.34l6.9-0.67v15.8
				c1.01,0.2,1.91,0.43,2.71,0.67v0.5h-9.96V427.15z M1292.86,408.69c-0.45-0.43-0.67-0.97-0.67-1.65c0-0.67,0.22-1.23,0.67-1.66
				c0.45-0.44,1.03-0.66,1.74-0.66c0.71,0,1.29,0.22,1.75,0.66c0.46,0.44,0.69,0.99,0.69,1.66c0,0.67-0.23,1.22-0.69,1.65
				c-0.46,0.43-1.04,0.64-1.75,0.64C1293.89,409.33,1293.31,409.12,1292.86,408.69z"/>
			<path class="st2" d="M1310.86,425.71c-1.68-1.52-2.52-3.65-2.52-6.39c0-2.73,0.84-4.87,2.52-6.41c1.68-1.53,4.08-2.3,7.2-2.3
				c3.09,0,5.48,0.77,7.16,2.3c1.68,1.54,2.52,3.67,2.52,6.41c0,2.74-0.84,4.86-2.52,6.39s-4.07,2.29-7.16,2.29
				C1314.95,427.99,1312.55,427.23,1310.86,425.71z M1321.79,424.6c0.93-1.28,1.39-3.04,1.39-5.28c0-2.24-0.46-4-1.39-5.28
				c-0.93-1.28-2.17-1.92-3.73-1.92c-1.58,0-2.83,0.64-3.76,1.92c-0.93,1.28-1.39,3.04-1.39,5.28c0,2.24,0.46,4,1.39,5.28
				c0.93,1.28,2.18,1.92,3.76,1.92C1319.62,426.51,1320.86,425.88,1321.79,424.6z"/>
			<path class="st2" d="M1358.8,427.15v0.5h-9.69v-0.5c1.03-0.36,1.86-0.59,2.47-0.71v-10.86c0-2.31-1.07-3.46-3.2-3.46
				c-0.76,0-1.56,0.2-2.42,0.59c-0.86,0.39-1.66,1-2.39,1.83v11.94c0.94,0.16,1.84,0.38,2.71,0.67v0.5h-9.96v-0.5
				c0.96-0.36,1.87-0.59,2.71-0.71v-14.22c-0.94-0.2-1.73-0.42-2.37-0.64v-0.34l6.9-0.67V413c0.8-0.72,1.75-1.29,2.85-1.73
				c1.1-0.44,2.28-0.66,3.54-0.66c1.83,0,3.32,0.42,4.45,1.26c1.13,0.84,1.7,2.01,1.7,3.51v11.1
				C1357.26,426.66,1358.16,426.88,1358.8,427.15z"/>
			<path class="st2" d="M1370.7,427.39c-1.34-0.4-2.38-0.93-3.11-1.58l0.28-4.14h1c0.14,0.36,0.25,0.9,0.34,1.61
				c0.09,0.72,0.15,1.37,0.17,1.95c0.46,0.38,1.04,0.69,1.75,0.92c0.71,0.24,1.49,0.35,2.34,0.35c1.28,0,2.32-0.27,3.11-0.82
				c0.79-0.55,1.18-1.32,1.18-2.3c0-0.54-0.18-0.99-0.55-1.36c-0.37-0.37-0.82-0.68-1.36-0.92c-0.54-0.25-1.3-0.54-2.28-0.87
				c-1.21-0.4-2.22-0.8-3.01-1.18c-0.79-0.38-1.46-0.91-2.01-1.58c-0.55-0.67-0.82-1.52-0.82-2.55c0-1.39,0.66-2.46,1.99-3.2
				c1.33-0.74,2.99-1.11,4.98-1.11c2.89,0,5.1,0.64,6.63,1.92l-0.31,3.53h-1.03c-0.14-0.36-0.25-0.82-0.33-1.38
				c-0.08-0.56-0.12-1.11-0.12-1.65c-0.96-0.65-2.26-0.98-3.88-0.98c-1.05,0-1.9,0.18-2.54,0.54c-0.64,0.36-0.96,0.93-0.96,1.72
				c0,0.79,0.34,1.4,1.03,1.83c0.69,0.44,1.75,0.9,3.19,1.4c1.26,0.45,2.28,0.87,3.06,1.26c0.78,0.39,1.44,0.94,1.99,1.63
				c0.55,0.69,0.82,1.57,0.82,2.62c0,1.66-0.68,2.9-2.03,3.71c-1.35,0.82-3.06,1.23-5.12,1.23
				C1373.51,427.99,1372.04,427.79,1370.7,427.39z"/>
		</g>
		<g>
			<path d="M631.61,189.73c0,2.95,0.18,5.34,0.54,7.17c0.36,1.83,1.13,3.23,2.32,4.2c1.19,0.97,2.88,1.65,5.06,2.04
				c2.18,0.39,5.06,0.62,8.63,0.7v4.43H606v-4.43c2.78-0.08,5.02-0.31,6.73-0.7c1.71-0.39,3.04-1.05,3.99-1.98
				c0.95-0.93,1.59-2.25,1.91-3.96c0.32-1.71,0.48-3.92,0.48-6.65v-54.33c0-2.72-0.14-4.92-0.42-6.59
				c-0.28-1.67-0.83-2.99-1.67-3.96c-0.83-0.97-2.05-1.63-3.63-1.98c-1.59-0.35-3.65-0.6-6.19-0.76v-4.43h68.84l1.31,22.27h-4.17
				c-0.48-3.34-1.23-6.08-2.26-8.22c-1.03-2.14-2.48-3.83-4.35-5.07c-1.87-1.24-4.23-2.12-7.09-2.62c-2.86-0.5-6.43-0.76-10.72-0.76
				h-15.13c-1.35,0-2.02,0.66-2.02,1.98v35.21c3.81,0,7.09-0.21,9.83-0.64c2.74-0.43,5-1.18,6.79-2.27
				c1.79-1.09,3.16-2.56,4.11-4.43s1.55-4.27,1.79-7.23h4.17v34.16h-4.17c-0.4-2.95-1.03-5.4-1.91-7.34
				c-0.87-1.94-2.16-3.46-3.87-4.55c-1.71-1.09-3.91-1.87-6.61-2.33c-2.7-0.47-6.07-0.7-10.12-0.7V189.73z"/>
			<path d="M736.77,117.33c6.99,0,13.5,1.21,19.53,3.61c6.03,2.41,11.27,5.71,15.72,9.91c4.45,4.2,7.94,9.13,10.48,14.81
				c2.54,5.67,3.81,11.82,3.81,18.42c0,6.3-1.29,12.2-3.87,17.72c-2.58,5.52-6.09,10.32-10.54,14.4c-4.45,4.08-9.69,7.31-15.72,9.68
				c-6.03,2.37-12.51,3.56-19.41,3.56c-6.91,0-13.38-1.18-19.41-3.56c-6.04-2.37-11.28-5.6-15.72-9.68
				c-4.45-4.08-7.96-8.88-10.54-14.4c-2.58-5.52-3.87-11.43-3.87-17.72c0-6.61,1.27-12.75,3.81-18.42
				c2.54-5.67,6.03-10.61,10.48-14.81c4.45-4.2,9.69-7.5,15.72-9.91C723.27,118.54,729.79,117.33,736.77,117.33z M736.77,203.02
				c5.24,0,9.95-0.89,14.11-2.68c4.17-1.79,7.74-4.35,10.72-7.69c2.98-3.34,5.26-7.4,6.85-12.18c1.59-4.78,2.38-10.12,2.38-16.03
				c0-6.22-0.79-11.83-2.38-16.85c-1.59-5.01-3.85-9.29-6.79-12.82c-2.94-3.54-6.51-6.26-10.72-8.16c-4.21-1.9-8.93-2.86-14.17-2.86
				c-5.24,0-9.97,0.95-14.17,2.86c-4.21,1.91-7.78,4.62-10.72,8.16c-2.94,3.54-5.2,7.81-6.79,12.82
				c-1.59,5.01-2.38,10.63-2.38,16.85c0,5.91,0.79,11.25,2.38,16.03c1.59,4.78,3.85,8.84,6.79,12.18c2.94,3.34,6.51,5.91,10.72,7.69
				C726.81,202.13,731.53,203.02,736.77,203.02z"/>
			<path d="M869.93,141c0,6.22-1.91,11.39-5.72,15.51c-3.81,4.12-9.88,6.88-18.22,8.28l26.32,31.01c2.14,2.57,4.51,4.41,7.09,5.54
				c2.58,1.13,5.66,1.96,9.23,2.51v4.43h-22.99l-29.18-36.61c-1.03-1.32-2.01-2.37-2.92-3.15c-0.91-0.78-1.87-1.38-2.86-1.81
				c-0.99-0.43-2.14-0.7-3.45-0.82c-1.31-0.12-2.88-0.17-4.7-0.17v24.25c0,2.88,0.18,5.23,0.54,7.05c0.36,1.83,1.11,3.25,2.26,4.26
				c1.15,1.01,2.82,1.69,5,2.04c2.18,0.35,5.06,0.52,8.63,0.52v4.43h-42.04v-4.43c2.78-0.08,5.02-0.31,6.73-0.7
				c1.71-0.39,3.04-1.05,3.99-1.98c0.95-0.93,1.59-2.25,1.91-3.96c0.32-1.71,0.48-3.92,0.48-6.65v-54.33c0-2.72-0.14-4.92-0.42-6.59
				c-0.28-1.67-0.83-2.99-1.67-3.96c-0.83-0.97-2.04-1.63-3.63-1.98c-1.59-0.35-3.65-0.6-6.19-0.76v-4.43h37.4
				c10.96,0,19.43,1.98,25.43,5.95C866.94,128.41,869.93,133.93,869.93,141z M822.53,159.89h8.46c7.94,0,13.84-1.42,17.69-4.26
				c3.85-2.84,5.78-7.52,5.78-14.05c0-6.3-1.53-10.8-4.59-13.52c-3.06-2.72-7.84-4.08-14.35-4.08h-10.96
				c-1.35,0-2.03,0.66-2.03,1.98V159.89z"/>
			<path d="M976.18,140.77h-4.88c-0.24-3.34-0.79-6.14-1.67-8.39c-0.88-2.25-2.13-4.02-3.75-5.3c-1.63-1.28-3.67-2.19-6.13-2.74
				c-2.46-0.54-5.4-0.82-8.81-0.82c-2.94,0-5.3,0.06-7.09,0.17c-1.79,0.12-3.16,0.33-4.11,0.64c-0.95,0.31-1.57,0.68-1.85,1.11
				c-0.28,0.43-0.42,0.99-0.42,1.69v62.37c0,2.49,0.18,4.62,0.54,6.41c0.36,1.79,1.07,3.25,2.14,4.37c1.07,1.13,2.62,1.98,4.65,2.56
				c2.03,0.58,4.71,0.91,8.04,0.99v4.43h-45.02v-4.43c3.34-0.08,6.03-0.41,8.1-0.99s3.63-1.44,4.71-2.56
				c1.07-1.13,1.79-2.58,2.14-4.37c0.36-1.79,0.54-3.92,0.54-6.41v-62.37c0-0.7-0.14-1.26-0.42-1.69c-0.28-0.43-0.83-0.8-1.67-1.11
				c-0.83-0.31-2.01-0.52-3.51-0.64c-1.51-0.12-3.53-0.17-6.07-0.17c-3.1,0-5.97,0.12-8.63,0.35c-2.66,0.23-4.96,0.91-6.91,2.04
				c-1.95,1.13-3.51,2.86-4.7,5.19c-1.19,2.33-1.83,5.56-1.91,9.68h-4.41V118.5h89.93L976.18,140.77z"/>
			<path d="M1064.19,172.13c0,6.14-0.62,11.54-1.85,16.21c-1.23,4.66-3.22,8.55-5.95,11.66c-2.74,3.11-6.29,5.46-10.66,7.05
				c-4.37,1.59-9.65,2.39-15.84,2.39c-5.88,0-11-0.56-15.36-1.69c-4.37-1.13-8.02-2.99-10.96-5.6c-2.94-2.6-5.12-6-6.55-10.2
				c-1.43-4.2-2.14-9.37-2.14-15.51v-30.78c0-5.75-0.14-10.18-0.42-13.29c-0.28-3.11-1.09-5.4-2.44-6.88
				c-0.95-1.01-2.24-1.69-3.87-2.04c-1.63-0.35-3.79-0.52-6.49-0.52v-4.43h40.61v4.43c-2.7,0-4.88,0.16-6.55,0.47
				c-1.67,0.31-2.98,1.09-3.93,2.33c-1.11,1.4-1.83,3.63-2.14,6.7c-0.32,3.07-0.48,7.48-0.48,13.23v31.71
				c0,3.96,0.42,7.48,1.25,10.55c0.83,3.07,2.2,5.67,4.11,7.81c1.91,2.14,4.39,3.75,7.44,4.84c3.06,1.09,6.81,1.63,11.26,1.63
				c7.94,0,13.89-2.16,17.87-6.47c3.97-4.31,5.95-10.67,5.95-19.06v-28.1c0-6.92-0.28-12.16-0.83-15.74
				c-0.56-3.57-1.59-6.1-3.1-7.58c-1.11-1.01-2.5-1.65-4.17-1.92c-1.67-0.27-3.73-0.41-6.19-0.41v-4.43h34.54v4.43
				c-2.54,0-4.63,0.2-6.25,0.58c-1.63,0.39-2.92,1.24-3.87,2.56c-1.19,1.63-1.99,4.18-2.38,7.64c-0.4,3.46-0.6,8.41-0.6,14.86
				V172.13z"/>
			<path d="M1163.41,209.44l-56.57-72.98h-0.48v49.78c0,3.89,0.14,6.96,0.42,9.21c0.28,2.25,0.83,4,1.67,5.25
				c0.83,1.24,2.02,2.06,3.57,2.45c1.55,0.39,3.59,0.62,6.13,0.7v4.43h-32.04v-4.43c2.78-0.08,5.02-0.33,6.73-0.76
				c1.71-0.43,3.04-1.22,3.99-2.39c0.95-1.17,1.59-2.82,1.91-4.96c0.32-2.14,0.48-5.03,0.48-8.69v-47.33c0-3.26-0.14-5.96-0.42-8.1
				c-0.28-2.14-0.83-3.83-1.67-5.07c-0.83-1.24-2.04-2.12-3.63-2.62c-1.59-0.5-3.65-0.83-6.19-0.99v-4.43h23.58l52.05,67.97h0.48
				v-45.93c0-3.81-0.14-6.86-0.42-9.15c-0.28-2.29-0.83-4.06-1.67-5.3c-0.83-1.24-2.02-2.06-3.57-2.45
				c-1.55-0.39-3.59-0.62-6.13-0.7v-4.43h32.04v4.43c-2.78,0.08-5.02,0.33-6.73,0.76c-1.71,0.43-3.04,1.22-3.99,2.39
				c-0.95,1.17-1.59,2.84-1.91,5.01c-0.32,2.18-0.48,5.05-0.48,8.63v69.72H1163.41z"/>
			<path d="M1219.15,158.96c4.29,0,7.88-0.25,10.78-0.76c2.9-0.5,5.2-1.3,6.91-2.39c1.71-1.09,2.94-2.49,3.69-4.2
				c0.75-1.71,1.13-3.73,1.13-6.06h4.17v31.83h-4.17c0-2.33-0.34-4.35-1.01-6.06c-0.68-1.71-1.87-3.13-3.57-4.26
				c-1.71-1.13-4.01-1.98-6.91-2.57c-2.9-0.58-6.57-0.87-11.02-0.87v26.35c0,2.56,0.32,4.68,0.95,6.35
				c0.63,1.67,1.73,3.03,3.27,4.08c1.55,1.05,3.59,1.79,6.13,2.22c2.54,0.43,5.68,0.64,9.41,0.64c4.21,0,7.78-0.29,10.72-0.87
				c2.94-0.58,5.4-1.57,7.38-2.97c1.98-1.4,3.57-3.24,4.77-5.54c1.19-2.29,2.18-5.15,2.98-8.57h4.53l-1.79,22.97h-73.96v-4.43
				c2.78-0.08,5.02-0.31,6.73-0.7c1.71-0.39,3.04-1.05,3.99-1.98c0.95-0.93,1.59-2.25,1.91-3.96c0.32-1.71,0.48-3.92,0.48-6.65
				v-54.33c0-2.72-0.14-4.92-0.42-6.59c-0.28-1.67-0.83-2.99-1.67-3.96c-0.83-0.97-2.04-1.63-3.63-1.98
				c-1.59-0.35-3.65-0.6-6.19-0.76v-4.43h68.84l1.07,20.52h-4.17c-0.48-3.11-1.25-5.65-2.32-7.64c-1.07-1.98-2.54-3.56-4.41-4.72
				c-1.87-1.17-4.23-1.98-7.09-2.45c-2.86-0.47-6.31-0.7-10.36-0.7h-15.13c-1.35,0-2.03,0.66-2.03,1.98V158.96z"/>
		</g>
		<g>
			<path d="M712.92,261.08c2.5,0,4.6-0.15,6.29-0.44c1.69-0.29,3.03-0.76,4.03-1.39c1-0.63,1.71-1.45,2.15-2.45
				c0.44-1,0.66-2.18,0.66-3.54h2.43v18.57h-2.43c0-1.36-0.2-2.54-0.59-3.54c-0.39-1-1.09-1.82-2.08-2.48
				c-1-0.66-2.34-1.16-4.03-1.5c-1.69-0.34-3.83-0.51-6.43-0.51v15.37c0,1.5,0.18,2.73,0.56,3.71c0.37,0.98,1.01,1.77,1.91,2.38
				c0.9,0.61,2.1,1.04,3.58,1.29c1.48,0.25,3.31,0.37,5.49,0.37c2.45,0,4.54-0.17,6.25-0.51c1.71-0.34,3.15-0.92,4.31-1.73
				c1.16-0.82,2.08-1.89,2.78-3.23c0.69-1.34,1.27-3,1.74-5h2.64l-1.04,13.4h-43.15v-2.58c1.62-0.04,2.93-0.18,3.93-0.41
				c1-0.23,1.77-0.61,2.33-1.16c0.56-0.54,0.93-1.31,1.11-2.31c0.18-1,0.28-2.29,0.28-3.88v-31.69c0-1.59-0.08-2.87-0.24-3.84
				c-0.16-0.97-0.49-1.74-0.97-2.31c-0.49-0.57-1.19-0.95-2.12-1.16s-2.13-0.35-3.61-0.44v-2.58h40.16l0.63,11.97h-2.43
				c-0.28-1.81-0.73-3.3-1.36-4.45c-0.63-1.16-1.48-2.07-2.57-2.75c-1.09-0.68-2.47-1.16-4.13-1.43c-1.67-0.27-3.68-0.41-6.05-0.41
				h-8.82c-0.79,0-1.18,0.39-1.18,1.16V261.08z"/>
			<path d="M747.94,289.85v-2.58c1.76-0.04,3.18-0.17,4.27-0.37c1.09-0.2,1.93-0.59,2.54-1.16c0.6-0.57,1.01-1.34,1.22-2.31
				c0.21-0.97,0.31-2.28,0.31-3.91v-31.69c0-1.59-0.08-2.87-0.24-3.84c-0.16-0.97-0.49-1.74-0.97-2.31
				c-0.49-0.57-1.19-0.95-2.12-1.16s-2.13-0.35-3.61-0.44v-2.58h24.39c4.17,0,8.02,0.68,11.57,2.04c3.54,1.36,6.6,3.24,9.17,5.64
				c2.57,2.4,4.57,5.26,6.01,8.57c1.43,3.31,2.15,6.91,2.15,10.81c0,3.72-0.67,7.13-2.01,10.23c-1.34,3.11-3.23,5.77-5.66,7.99
				c-2.43,2.22-5.34,3.96-8.72,5.2c-3.38,1.25-7.09,1.87-11.12,1.87H747.94z M764.75,240.82c-0.79,0-1.18,0.39-1.18,1.16v36.79
				c0,5.17,3.45,7.75,10.35,7.75c6.34,0,11.21-1.85,14.59-5.54c3.38-3.69,5.07-9.12,5.07-16.29c0-3.76-0.46-7.12-1.39-10.07
				c-0.93-2.95-2.26-5.44-3.99-7.48c-1.74-2.04-3.83-3.6-6.29-4.69c-2.46-1.09-5.23-1.63-8.34-1.63H764.75z"/>
			<path d="M856.04,268.77c0,3.58-0.36,6.73-1.08,9.45c-0.72,2.72-1.88,4.99-3.47,6.8c-1.6,1.81-3.67,3.19-6.22,4.11
				c-2.55,0.93-5.63,1.39-9.24,1.39c-3.43,0-6.42-0.33-8.96-0.99c-2.55-0.66-4.68-1.74-6.39-3.26c-1.71-1.52-2.99-3.5-3.82-5.95
				c-0.83-2.45-1.25-5.46-1.25-9.05v-17.95c0-3.35-0.08-5.94-0.24-7.75c-0.16-1.81-0.64-3.15-1.42-4.01
				c-0.56-0.59-1.31-0.99-2.26-1.19c-0.95-0.2-2.21-0.31-3.79-0.31v-2.58h23.69v2.58c-1.57,0-2.85,0.09-3.82,0.27
				s-1.74,0.64-2.29,1.36c-0.65,0.82-1.07,2.12-1.25,3.91c-0.19,1.79-0.28,4.36-0.28,7.72v18.5c0,2.31,0.24,4.36,0.73,6.15
				c0.49,1.79,1.29,3.31,2.4,4.56c1.11,1.25,2.56,2.19,4.34,2.82c1.78,0.64,3.97,0.95,6.57,0.95c4.63,0,8.11-1.26,10.42-3.77
				c2.32-2.52,3.47-6.22,3.47-11.12v-16.39c0-4.04-0.16-7.1-0.49-9.18c-0.32-2.08-0.93-3.56-1.81-4.42
				c-0.65-0.59-1.46-0.96-2.43-1.12c-0.97-0.16-2.18-0.24-3.61-0.24v-2.58h20.15v2.58c-1.48,0-2.7,0.11-3.65,0.34
				c-0.95,0.23-1.7,0.73-2.26,1.5c-0.69,0.95-1.16,2.44-1.39,4.45c-0.23,2.02-0.35,4.91-0.35,8.67V268.77z"/>
			<path d="M912.88,237.48h1.95l0.63,15.64h-2.57c-1.02-3.99-2.99-7.12-5.91-9.38c-2.92-2.27-6.44-3.4-10.56-3.4
				c-2.83,0-5.35,0.54-7.57,1.63c-2.22,1.09-4.1,2.65-5.63,4.69c-1.53,2.04-2.7,4.53-3.51,7.48c-0.81,2.95-1.21,6.28-1.21,10
				c0,7.3,1.55,12.91,4.66,16.83c3.1,3.92,7.6,5.88,13.48,5.88c8.94,0,14.68-4.65,17.23-13.94h2.85v16.93h-2.43l-1.6-5.37
				c-4.86,4.04-10.75,6.05-17.65,6.05c-3.94,0-7.49-0.61-10.67-1.84c-3.17-1.22-5.88-2.96-8.13-5.2c-2.25-2.24-3.98-4.98-5.21-8.2
				c-1.23-3.22-1.84-6.8-1.84-10.74c0-4.13,0.65-7.89,1.94-11.29c1.3-3.4,3.11-6.32,5.45-8.77c2.34-2.45,5.14-4.34,8.41-5.68
				c3.27-1.34,6.87-2.01,10.8-2.01c2.78,0,5.4,0.39,7.85,1.16c2.46,0.77,5.12,2.02,7.99,3.74L912.88,237.48z"/>
			<path d="M954.63,270.88h-18.55c-0.79,1.86-1.46,3.5-2.01,4.93c-0.56,1.43-1.01,2.66-1.36,3.71c-0.35,1.04-0.59,1.93-0.73,2.65
				c-0.14,0.73-0.21,1.32-0.21,1.77c0,1.27,0.42,2.14,1.25,2.62c0.83,0.48,2.22,0.71,4.17,0.71v2.58h-16.88v-2.58
				c1.06-0.14,1.98-0.32,2.74-0.54c0.76-0.23,1.43-0.54,2.01-0.95c0.58-0.41,1.09-0.94,1.53-1.6c0.44-0.66,0.87-1.46,1.28-2.41
				l18.06-44.27h2.99l15.77,38.36c1.06,2.54,1.99,4.57,2.78,6.09c0.79,1.52,1.55,2.66,2.29,3.43c0.74,0.77,1.54,1.27,2.4,1.5
				c0.86,0.23,1.89,0.34,3.09,0.34v2.65h-22.65v-2.65c2.46,0,4.14-0.23,5.07-0.68c0.93-0.45,1.39-1.2,1.39-2.24
				c0-0.45-0.02-0.87-0.07-1.26c-0.05-0.38-0.13-0.8-0.24-1.26c-0.12-0.45-0.28-0.96-0.49-1.53c-0.21-0.57-0.48-1.23-0.8-2.01
				L954.63,270.88z M937.47,267.48h15.84l-7.71-20.06L937.47,267.48z"/>
			<path d="M1023.9,250.47h-2.85c-0.14-1.95-0.46-3.58-0.97-4.9c-0.51-1.31-1.24-2.35-2.19-3.09c-0.95-0.75-2.14-1.28-3.58-1.6
				c-1.44-0.32-3.15-0.48-5.14-0.48c-1.72,0-3.09,0.03-4.13,0.1c-1.04,0.07-1.84,0.19-2.4,0.37c-0.56,0.18-0.91,0.4-1.08,0.65
				c-0.16,0.25-0.24,0.58-0.24,0.99v36.38c0,1.45,0.1,2.7,0.31,3.74c0.21,1.04,0.63,1.89,1.25,2.55c0.63,0.66,1.53,1.16,2.71,1.5
				c1.18,0.34,2.74,0.53,4.69,0.58v2.58h-26.26v-2.58c1.94-0.04,3.52-0.24,4.72-0.58c1.2-0.34,2.12-0.84,2.74-1.5
				c0.63-0.66,1.04-1.51,1.25-2.55c0.21-1.04,0.31-2.29,0.31-3.74v-36.38c0-0.41-0.08-0.74-0.24-0.99
				c-0.16-0.25-0.49-0.46-0.97-0.65c-0.49-0.18-1.17-0.31-2.05-0.37c-0.88-0.07-2.06-0.1-3.54-0.1c-1.81,0-3.49,0.07-5.04,0.2
				c-1.55,0.14-2.9,0.53-4.03,1.19c-1.14,0.66-2.05,1.67-2.74,3.03c-0.69,1.36-1.07,3.24-1.11,5.64h-2.57v-12.99h52.46
				L1023.9,250.47z"/>
			<path d="M1043.15,277c0,2.27,0.09,4.06,0.28,5.37c0.18,1.32,0.54,2.34,1.08,3.06c0.53,0.73,1.3,1.2,2.29,1.43
				c1,0.23,2.3,0.36,3.93,0.41v2.58h-22.51v-2.58c1.62-0.04,2.93-0.19,3.93-0.44c1-0.25,1.77-0.71,2.33-1.39
				c0.56-0.68,0.93-1.64,1.11-2.89c0.18-1.25,0.28-2.94,0.28-5.07v-27.61c0-1.9-0.08-3.48-0.24-4.73c-0.16-1.25-0.49-2.23-0.97-2.96
				c-0.49-0.72-1.19-1.23-2.12-1.53c-0.93-0.29-2.13-0.49-3.61-0.58v-2.58h21.12v2.58c-1.48,0.05-2.67,0.23-3.58,0.54
				c-0.9,0.32-1.6,0.85-2.09,1.6c-0.49,0.75-0.81,1.78-0.97,3.09c-0.16,1.32-0.24,2.99-0.24,5.03V277z"/>
			<path d="M1085.8,236.8c4.08,0,7.87,0.7,11.4,2.11c3.52,1.41,6.58,3.33,9.17,5.78c2.59,2.45,4.63,5.33,6.11,8.64
				c1.48,3.31,2.22,6.89,2.22,10.75c0,3.67-0.75,7.12-2.26,10.34c-1.51,3.22-3.56,6.02-6.15,8.4c-2.59,2.38-5.65,4.26-9.17,5.64
				c-3.52,1.38-7.3,2.07-11.33,2.07c-4.03,0-7.8-0.69-11.32-2.07c-3.52-1.38-6.58-3.26-9.17-5.64c-2.59-2.38-4.64-5.18-6.15-8.4
				c-1.51-3.22-2.26-6.66-2.26-10.34c0-3.85,0.74-7.44,2.22-10.75c1.48-3.31,3.52-6.19,6.11-8.64c2.59-2.45,5.65-4.37,9.17-5.78
				C1077.93,237.51,1081.73,236.8,1085.8,236.8z M1085.8,286.79c3.06,0,5.8-0.52,8.23-1.56c2.43-1.04,4.52-2.54,6.25-4.49
				c1.74-1.95,3.07-4.32,3.99-7.11c0.93-2.79,1.39-5.91,1.39-9.35c0-3.63-0.46-6.9-1.39-9.83c-0.93-2.92-2.25-5.42-3.96-7.48
				c-1.71-2.06-3.8-3.65-6.25-4.76c-2.46-1.11-5.21-1.67-8.27-1.67c-3.06,0-5.81,0.56-8.27,1.67c-2.46,1.11-4.54,2.7-6.25,4.76
				c-1.72,2.06-3.03,4.56-3.96,7.48c-0.93,2.92-1.39,6.2-1.39,9.83c0,3.45,0.46,6.56,1.39,9.35c0.93,2.79,2.25,5.16,3.96,7.11
				c1.71,1.95,3.8,3.45,6.25,4.49C1079.99,286.27,1082.75,286.79,1085.8,286.79z"/>
			<path d="M1165.98,290.53l-33-42.57h-0.28V277c0,2.27,0.08,4.06,0.24,5.37c0.16,1.32,0.49,2.34,0.97,3.06
				c0.49,0.73,1.18,1.2,2.08,1.43c0.9,0.23,2.1,0.36,3.58,0.41v2.58h-18.69v-2.58c1.62-0.04,2.93-0.19,3.93-0.44
				c1-0.25,1.77-0.71,2.33-1.39c0.56-0.68,0.93-1.64,1.11-2.89c0.18-1.25,0.28-2.94,0.28-5.07v-27.61c0-1.9-0.08-3.48-0.24-4.73
				c-0.16-1.25-0.49-2.23-0.97-2.96c-0.49-0.72-1.19-1.23-2.12-1.53c-0.93-0.29-2.13-0.49-3.61-0.58v-2.58h13.76l30.36,39.65h0.28
				v-26.8c0-2.22-0.08-4-0.24-5.34c-0.16-1.34-0.49-2.37-0.97-3.09c-0.49-0.72-1.18-1.2-2.09-1.43c-0.9-0.23-2.1-0.36-3.58-0.41
				v-2.58h18.69v2.58c-1.62,0.05-2.93,0.19-3.93,0.44c-1,0.25-1.77,0.71-2.33,1.39c-0.56,0.68-0.93,1.66-1.11,2.92
				c-0.19,1.27-0.28,2.95-0.28,5.03v40.67H1165.98z"/>
		</g>
		<g>
			<path d="M661.82,350.76c-1.87-2.09-2.8-5.01-2.8-8.75c0-2.45,0.44-4.56,1.32-6.34c0.88-1.78,2.15-3.15,3.83-4.11
				c1.68-0.96,3.66-1.44,5.96-1.44c1.62,0,3.16,0.21,4.62,0.63c1.46,0.42,2.58,0.97,3.34,1.65l-0.3,4.03h-0.81
				c-0.29-0.86-0.51-2.09-0.64-3.7c-0.5-0.4-1.28-0.73-2.36-0.99c-1.08-0.26-2.09-0.4-3.04-0.4c-2.83,0-5,0.97-6.5,2.92
				c-1.5,1.95-2.24,4.53-2.24,7.75c0,3.28,0.68,5.88,2.02,7.79c1.35,1.92,3.43,2.87,6.24,2.87c0.61,0,1.32-0.08,2.14-0.23
				c0.82-0.15,1.51-0.39,2.08-0.69v-8.39c-1.06-0.2-1.95-0.4-2.67-0.59v-0.4h8.03v0.33c-0.72,0.37-1.51,0.62-2.36,0.73v8.52
				c-0.83,0.62-1.96,1.1-3.39,1.44c-1.43,0.34-2.89,0.51-4.37,0.51C666.39,353.89,663.69,352.85,661.82,350.76z"/>
			<path d="M707.75,353.07v0.26l-5.4,0.53v-2.15c-0.83,0.62-1.79,1.14-2.88,1.55c-1.09,0.42-2.23,0.63-3.43,0.63
				c-1.78,0-3.18-0.41-4.22-1.24c-1.03-0.83-1.55-1.94-1.55-3.35v-11.07c-0.99-0.18-1.78-0.38-2.36-0.59v-0.23l5.4-0.56v12.12
				c0,1.32,0.32,2.28,0.96,2.87c0.64,0.59,1.51,0.89,2.62,0.89c0.83,0,1.76-0.21,2.78-0.63c1.02-0.42,1.92-0.96,2.68-1.62v-12.26
				c-0.94-0.18-1.72-0.38-2.33-0.59v-0.23l5.36-0.56v15.69C706.04,352.63,706.83,352.8,707.75,353.07z"/>
			<path d="M716.15,353.2c0.43-0.15,0.94-0.29,1.55-0.41c0.61-0.12,0.99-0.19,1.15-0.21v-14.3c-0.9-0.15-1.69-0.34-2.36-0.56v-0.26
				l5.4-0.53v15.66c1.03,0.18,1.93,0.39,2.7,0.63v0.36h-8.44V353.2z M718.77,334.87c-0.35-0.33-0.52-0.76-0.52-1.29
				c0-0.53,0.17-0.96,0.52-1.3c0.35-0.34,0.8-0.51,1.37-0.51c0.56,0,1.02,0.17,1.37,0.51c0.35,0.34,0.52,0.78,0.52,1.3
				c0,0.53-0.17,0.96-0.52,1.29c-0.35,0.33-0.8,0.5-1.37,0.5C719.57,335.36,719.12,335.2,718.77,334.87z"/>
			<path d="M735.24,351.83c-1.32-1.38-1.97-3.51-1.97-6.39c0-2.69,0.71-4.8,2.13-6.33c1.42-1.53,3.34-2.3,5.77-2.3
				c1.03,0,2.01,0.15,2.92,0.46c0.91,0.31,1.77,0.9,2.58,1.78v-7.47c-0.94-0.18-1.72-0.37-2.33-0.59v-0.23l5.37-0.56v22.1
				c0.9,0.18,1.68,0.35,2.33,0.53v0.23l-4.69,0.66c-0.11-0.7-0.21-1.67-0.3-2.91c-0.59,1.01-1.43,1.78-2.53,2.3
				c-1.1,0.52-2.35,0.78-3.75,0.78C738.39,353.89,736.55,353.21,735.24,351.83z M745.26,351.37c0.93-0.91,1.4-2.06,1.4-3.45v-7.37
				c-1.46-1.7-3.06-2.54-4.79-2.54c-1.89,0-3.29,0.71-4.2,2.13c-0.91,1.42-1.37,3.2-1.37,5.33c0,2.29,0.43,4.07,1.28,5.35
				c0.85,1.28,2.19,1.92,4.02,1.92C743.1,352.74,744.32,352.28,745.26,351.37z"/>
			<path d="M761.37,352.67c-0.94-0.81-1.42-1.99-1.42-3.53c0-1.69,0.62-2.92,1.86-3.68c1.24-0.76,2.81-1.14,4.72-1.14h4.99v-2.64
				c0-1.26-0.38-2.18-1.15-2.77c-0.76-0.59-1.85-0.89-3.24-0.89c-0.88,0-1.78,0.13-2.72,0.38c-0.93,0.25-1.79,0.58-2.58,0.97
				l-0.24-1.02c0.9-0.46,1.92-0.83,3.05-1.11c1.14-0.28,2.3-0.41,3.49-0.41c2,0,3.58,0.42,4.72,1.27c1.15,0.85,1.72,1.98,1.72,3.39
				v10.83c0.79,0.15,1.56,0.33,2.33,0.53v0.26l-5.4,0.53v-2.41c-0.92,0.97-1.91,1.66-2.95,2.06c-1.05,0.41-2.08,0.61-3.09,0.61
				C763.69,353.89,762.32,353.49,761.37,352.67z M769.39,351.83c0.96-0.56,1.67-1.22,2.14-1.97v-4.36h-4.25
				c-1.44,0-2.52,0.31-3.24,0.94c-0.72,0.63-1.08,1.52-1.08,2.66c0,1.19,0.33,2.08,1,2.68c0.66,0.59,1.54,0.89,2.62,0.89
				C767.49,352.67,768.43,352.39,769.39,351.83z"/>
			<path d="M805.44,353.2v0.36h-8.3v-0.36c0.97-0.31,1.82-0.52,2.57-0.63v-10.83c0-1.32-0.33-2.27-0.98-2.86
				c-0.65-0.58-1.52-0.88-2.6-0.88c-0.9,0-1.84,0.23-2.83,0.68c-0.99,0.45-1.88,1.09-2.67,1.93v11.96c0.9,0.13,1.8,0.34,2.7,0.63
				v0.36h-8.44v-0.36c0.9-0.29,1.8-0.5,2.7-0.63v-14.34c-0.94-0.18-1.73-0.38-2.36-0.59v-0.23l5.4-0.56v2.51
				c0.79-0.75,1.75-1.36,2.89-1.83c1.14-0.47,2.36-0.71,3.66-0.71c1.66,0,3.01,0.42,4.03,1.26c1.02,0.84,1.54,1.97,1.54,3.4v11.1
				C803.8,352.73,804.7,352.94,805.44,353.2z"/>
			<path d="M817.98,352.84c-1.32-0.7-2.33-1.7-3.04-2.99c-0.71-1.29-1.06-2.78-1.06-4.48c0-2.69,0.8-4.78,2.41-6.29
				c1.61-1.51,3.76-2.26,6.46-2.26c2.43,0,4.44,0.66,6.04,1.98l-0.24,3.6h-0.67c-0.14-0.33-0.25-0.82-0.34-1.47
				c-0.09-0.65-0.15-1.24-0.17-1.77c-1.19-0.77-2.45-1.16-3.78-1.16c-2.14,0-3.78,0.65-4.93,1.95c-1.15,1.3-1.72,3.17-1.72,5.61
				c0,1.26,0.23,2.43,0.69,3.52c0.46,1.09,1.18,1.98,2.14,2.66c0.97,0.68,2.18,1.02,3.64,1.02c0.9,0,1.82-0.15,2.75-0.45
				c0.93-0.3,1.74-0.69,2.41-1.17l0.3,0.86c-0.67,0.55-1.55,1-2.63,1.35c-1.08,0.35-2.29,0.53-3.64,0.53
				C820.84,353.89,819.3,353.54,817.98,352.84z"/>
			<path d="M853.33,345.37h-12.99c0.02,2.16,0.59,3.93,1.7,5.32c1.11,1.39,2.73,2.08,4.84,2.08c0.9,0,1.84-0.15,2.82-0.45
				c0.98-0.3,1.83-0.69,2.55-1.17l0.3,0.86c-0.65,0.53-1.55,0.97-2.68,1.34c-1.14,0.36-2.38,0.55-3.73,0.55
				c-1.78,0-3.34-0.36-4.67-1.07c-1.34-0.71-2.37-1.72-3.1-3.01c-0.73-1.29-1.1-2.77-1.1-4.44c0-2.71,0.76-4.81,2.28-6.31
				c1.52-1.5,3.61-2.25,6.26-2.25c1.69,0,3.09,0.35,4.22,1.06c1.12,0.7,1.96,1.65,2.5,2.82c0.54,1.18,0.81,2.48,0.81,3.92V345.37z
				 M850.63,344.21c0-0.99-0.16-1.96-0.47-2.91c-0.32-0.95-0.83-1.73-1.54-2.36c-0.71-0.63-1.63-0.94-2.75-0.94
				c-1.69,0-2.99,0.58-3.9,1.75c-0.91,1.17-1.45,2.65-1.6,4.46H850.63z"/>
			<path d="M879.11,352.67c-0.94-0.81-1.42-1.99-1.42-3.53c0-1.69,0.62-2.92,1.86-3.68c1.24-0.76,2.81-1.14,4.72-1.14h4.99v-2.64
				c0-1.26-0.38-2.18-1.15-2.77c-0.76-0.59-1.85-0.89-3.24-0.89c-0.88,0-1.78,0.13-2.72,0.38c-0.93,0.25-1.79,0.58-2.58,0.97
				l-0.24-1.02c0.9-0.46,1.92-0.83,3.05-1.11c1.14-0.28,2.3-0.41,3.49-0.41c2,0,3.58,0.42,4.72,1.27c1.15,0.85,1.72,1.98,1.72,3.39
				v10.83c0.79,0.15,1.56,0.33,2.33,0.53v0.26l-5.4,0.53v-2.41c-0.92,0.97-1.91,1.66-2.95,2.06c-1.05,0.41-2.08,0.61-3.09,0.61
				C881.43,353.89,880.06,353.49,879.11,352.67z M887.13,351.83c0.96-0.56,1.67-1.22,2.14-1.97v-4.36h-4.25
				c-1.44,0-2.52,0.31-3.24,0.94c-0.72,0.63-1.08,1.52-1.08,2.66c0,1.19,0.33,2.08,1,2.68c0.66,0.59,1.54,0.89,2.62,0.89
				C885.23,352.67,886.17,352.39,887.13,351.83z"/>
			<path d="M923.18,353.2v0.36h-8.3v-0.36c0.97-0.31,1.82-0.52,2.57-0.63v-10.83c0-1.32-0.33-2.27-0.98-2.86
				c-0.65-0.58-1.52-0.88-2.6-0.88c-0.9,0-1.84,0.23-2.83,0.68s-1.88,1.09-2.67,1.93v11.96c0.9,0.13,1.8,0.34,2.7,0.63v0.36h-8.44
				v-0.36c0.9-0.29,1.8-0.5,2.7-0.63v-14.34c-0.94-0.18-1.73-0.38-2.36-0.59v-0.23l5.4-0.56v2.51c0.79-0.75,1.75-1.36,2.89-1.83
				c1.14-0.47,2.36-0.71,3.66-0.71c1.66,0,3.01,0.42,4.03,1.26c1.02,0.84,1.54,1.97,1.54,3.4v11.1
				C921.54,352.73,922.44,352.94,923.18,353.2z"/>
			<path d="M933.59,351.83c-1.32-1.38-1.97-3.51-1.97-6.39c0-2.69,0.71-4.8,2.13-6.33c1.42-1.53,3.34-2.3,5.77-2.3
				c1.03,0,2.01,0.15,2.92,0.46c0.91,0.31,1.77,0.9,2.58,1.78v-7.47c-0.94-0.18-1.72-0.37-2.33-0.59v-0.23l5.37-0.56v22.1
				c0.9,0.18,1.68,0.35,2.33,0.53v0.23l-4.69,0.66c-0.11-0.7-0.21-1.67-0.3-2.91c-0.59,1.01-1.43,1.78-2.53,2.3
				c-1.1,0.52-2.35,0.78-3.75,0.78C936.75,353.89,934.91,353.21,933.59,351.83z M943.62,351.37c0.93-0.91,1.4-2.06,1.4-3.45v-7.37
				c-1.46-1.7-3.06-2.54-4.79-2.54c-1.89,0-3.29,0.71-4.2,2.13c-0.91,1.42-1.37,3.2-1.37,5.33c0,2.29,0.43,4.07,1.28,5.35
				c0.86,1.28,2.19,1.92,4.02,1.92C941.46,352.74,942.68,352.28,943.62,351.37z"/>
			<path d="M977.19,350.76c-1.83-2.09-2.75-5.01-2.75-8.75c0-3.72,0.93-6.63,2.8-8.74c1.87-2.1,4.53-3.15,8-3.15
				c2.95,0,5.28,0.76,6.99,2.28l-0.3,4.03h-0.81c-0.27-0.77-0.48-2-0.64-3.7c-0.54-0.42-1.19-0.75-1.96-1.01
				c-0.76-0.25-1.58-0.38-2.46-0.38c-2.81,0-4.92,0.97-6.33,2.91c-1.41,1.94-2.11,4.53-2.11,7.76c0,3.28,0.66,5.88,1.97,7.79
				c1.32,1.92,3.39,2.87,6.23,2.87c0.85,0,1.83-0.15,2.92-0.46c1.09-0.31,2.09-0.75,2.99-1.32l0.44,0.89
				c-0.79,0.68-1.78,1.2-2.99,1.57c-1.2,0.36-2.5,0.55-3.9,0.55C981.72,353.89,979.03,352.85,977.19,350.76z"/>
			<path d="M1003.72,351.65c-1.56-1.5-2.35-3.59-2.35-6.28c0-2.69,0.78-4.78,2.35-6.29c1.56-1.51,3.75-2.26,6.56-2.26
				c2.79,0,4.97,0.76,6.53,2.26c1.56,1.51,2.35,3.61,2.35,6.29c0,2.69-0.78,4.78-2.35,6.28c-1.56,1.5-3.74,2.25-6.53,2.25
				C1007.47,353.89,1005.28,353.14,1003.72,351.65z M1014.53,350.77c1.06-1.31,1.59-3.11,1.59-5.4c0-2.29-0.53-4.09-1.59-5.4
				c-1.06-1.31-2.48-1.97-4.25-1.97c-1.82,0-3.26,0.66-4.3,1.97c-1.05,1.31-1.57,3.11-1.57,5.4c0,2.29,0.52,4.09,1.57,5.4
				c1.05,1.31,2.48,1.97,4.3,1.97C1012.06,352.74,1013.48,352.08,1014.53,350.77z"/>
			<path d="M1030.9,353.36c-1.13-0.35-2.04-0.84-2.73-1.45l0.24-4.13h0.71c0.11,0.31,0.22,0.86,0.32,1.65
				c0.1,0.79,0.16,1.48,0.19,2.05c1.01,0.84,2.38,1.26,4.12,1.26c1.39,0,2.49-0.3,3.29-0.91c0.8-0.61,1.2-1.41,1.2-2.43
				c0-0.84-0.36-1.49-1.08-1.97c-0.72-0.47-1.82-0.96-3.31-1.47c-1.24-0.46-2.23-0.88-2.97-1.24c-0.74-0.36-1.38-0.86-1.91-1.5
				c-0.53-0.64-0.79-1.44-0.79-2.41c0-1.32,0.6-2.32,1.79-2.99c1.19-0.67,2.69-1.01,4.49-1.01c2.54,0,4.51,0.57,5.91,1.72l-0.3,3.4
				h-0.74c-0.14-0.33-0.24-0.78-0.32-1.35c-0.08-0.57-0.12-1.11-0.12-1.62c-1.01-0.66-2.27-0.99-3.78-0.99
				c-1.19,0-2.15,0.2-2.87,0.61c-0.72,0.41-1.08,1.03-1.08,1.87c0,0.59,0.2,1.1,0.59,1.52c0.39,0.42,0.88,0.77,1.47,1.06
				c0.58,0.29,1.38,0.62,2.4,0.99c1.24,0.46,2.23,0.89,2.97,1.27c0.74,0.39,1.38,0.9,1.91,1.54c0.53,0.64,0.79,1.43,0.79,2.38
				c0,1.52-0.61,2.68-1.82,3.49c-1.21,0.8-2.76,1.21-4.62,1.21C1033.33,353.89,1032.02,353.72,1030.9,353.36z"/>
			<path d="M1069.81,353.07v0.26l-5.4,0.53v-2.15c-0.83,0.62-1.79,1.14-2.88,1.55c-1.09,0.42-2.23,0.63-3.43,0.63
				c-1.78,0-3.18-0.41-4.22-1.24c-1.03-0.83-1.55-1.94-1.55-3.35v-11.07c-0.99-0.18-1.78-0.38-2.36-0.59v-0.23l5.4-0.56v12.12
				c0,1.32,0.32,2.28,0.96,2.87c0.64,0.59,1.51,0.89,2.62,0.89c0.83,0,1.76-0.21,2.78-0.63c1.02-0.42,1.92-0.96,2.68-1.62v-12.26
				c-0.94-0.18-1.72-0.38-2.33-0.59v-0.23l5.36-0.56v15.69C1068.1,352.63,1068.89,352.8,1069.81,353.07z"/>
			<path d="M1078.38,353.2c0.5-0.15,1.4-0.36,2.7-0.63V331.6c-0.94-0.18-1.73-0.37-2.36-0.59v-0.23l5.4-0.56v22.36
				c0.97,0.16,1.87,0.36,2.7,0.63v0.36h-8.44V353.2z"/>
			<path d="M1106.66,353.4c-1.01,0.33-2.16,0.5-3.44,0.5c-1.6,0-2.85-0.4-3.75-1.19c-0.9-0.79-1.35-2.02-1.35-3.67V338.3h-2.93
				v-1.19h2.93v-1.82c0.86-0.35,1.38-1.23,1.59-2.64h1.45v4.46h5.06v1.19h-5.06v10.74c0,1.32,0.26,2.26,0.79,2.81
				c0.53,0.55,1.29,0.83,2.28,0.83c0.65,0,1.38-0.13,2.19-0.4L1106.66,353.4z"/>
			<path d="M1116.75,352.67c-0.94-0.81-1.42-1.99-1.42-3.53c0-1.69,0.62-2.92,1.86-3.68c1.24-0.76,2.81-1.14,4.72-1.14h4.99v-2.64
				c0-1.26-0.38-2.18-1.15-2.77c-0.76-0.59-1.85-0.89-3.24-0.89c-0.88,0-1.78,0.13-2.72,0.38c-0.93,0.25-1.79,0.58-2.58,0.97
				l-0.24-1.02c0.9-0.46,1.92-0.83,3.05-1.11c1.14-0.28,2.3-0.41,3.49-0.41c2,0,3.58,0.42,4.72,1.27c1.15,0.85,1.72,1.98,1.72,3.39
				v10.83c0.79,0.15,1.56,0.33,2.33,0.53v0.26l-5.4,0.53v-2.41c-0.92,0.97-1.91,1.66-2.95,2.06c-1.05,0.41-2.08,0.61-3.09,0.61
				C1119.07,353.89,1117.69,353.49,1116.75,352.67z M1124.76,351.83c0.96-0.56,1.67-1.22,2.14-1.97v-4.36h-4.25
				c-1.44,0-2.52,0.31-3.24,0.94c-0.72,0.63-1.08,1.52-1.08,2.66c0,1.19,0.33,2.08,1,2.68c0.66,0.59,1.54,0.89,2.62,0.89
				C1122.87,352.67,1123.81,352.39,1124.76,351.83z"/>
			<path d="M1160.82,353.2v0.36h-8.3v-0.36c0.97-0.31,1.82-0.52,2.57-0.63v-10.83c0-1.32-0.33-2.27-0.98-2.86
				c-0.65-0.58-1.52-0.88-2.6-0.88c-0.9,0-1.84,0.23-2.83,0.68s-1.88,1.09-2.67,1.93v11.96c0.9,0.13,1.8,0.34,2.7,0.63v0.36h-8.44
				v-0.36c0.9-0.29,1.8-0.5,2.7-0.63v-14.34c-0.94-0.18-1.73-0.38-2.36-0.59v-0.23l5.4-0.56v2.51c0.79-0.75,1.75-1.36,2.89-1.83
				c1.14-0.47,2.36-0.71,3.66-0.71c1.66,0,3.01,0.42,4.03,1.26c1.02,0.84,1.54,1.97,1.54,3.4v11.1
				C1159.18,352.73,1160.08,352.94,1160.82,353.2z"/>
			<path d="M1173.36,352.84c-1.32-0.7-2.33-1.7-3.04-2.99c-0.71-1.29-1.06-2.78-1.06-4.48c0-2.69,0.8-4.78,2.41-6.29
				c1.61-1.51,3.76-2.26,6.46-2.26c2.43,0,4.44,0.66,6.04,1.98l-0.24,3.6h-0.67c-0.14-0.33-0.25-0.82-0.34-1.47
				c-0.09-0.65-0.15-1.24-0.17-1.77c-1.19-0.77-2.45-1.16-3.78-1.16c-2.14,0-3.78,0.65-4.93,1.95c-1.15,1.3-1.72,3.17-1.72,5.61
				c0,1.26,0.23,2.43,0.69,3.52c0.46,1.09,1.18,1.98,2.14,2.66c0.97,0.68,2.18,1.02,3.64,1.02c0.9,0,1.82-0.15,2.75-0.45
				c0.93-0.3,1.74-0.69,2.41-1.17l0.3,0.86c-0.67,0.55-1.55,1-2.63,1.35c-1.08,0.35-2.29,0.53-3.64,0.53
				C1176.22,353.89,1174.67,353.54,1173.36,352.84z"/>
			<path d="M1210.6,337.11v0.36c-0.56,0.2-1.34,0.39-2.33,0.56l-6.51,17.04c-0.45,1.19-0.87,2.11-1.27,2.77
				c-0.39,0.66-0.91,1.17-1.54,1.52c-0.63,0.35-1.46,0.53-2.5,0.53c-1.08,0-2.12-0.2-3.1-0.59l0.47-1.45
				c0.99,0.31,1.86,0.46,2.6,0.46c0.68,0,1.21-0.11,1.62-0.33c0.4-0.22,0.78-0.6,1.11-1.14c0.34-0.54,0.71-1.34,1.11-2.39l0.37-0.99
				l-6.48-15.46c-0.99-0.11-1.74-0.29-2.26-0.53v-0.36h7.83v0.4c-0.54,0.2-1.43,0.39-2.67,0.56l4.76,12.29l4.66-12.35
				c-0.9-0.07-1.72-0.23-2.46-0.5v-0.4H1210.6z"/>
		</g>
		<path class="st0" d="M1358.69,457.69c-9.25-3.92-19.47-6.36-29.82-8.05c-10.37-1.68-20.95-2.61-31.57-3.1
			c-21.25-0.96-42.67-0.19-64,1.61c-21.33,1.8-42.61,4.71-63.66,8.81c-10.52,2.07-20.99,4.45-31.31,7.37
			c-10.3,2.94-20.57,6.28-30.08,11.32c9.3-5.44,19.47-9.24,29.68-12.63c10.24-3.37,20.65-6.21,31.13-8.74
			c20.97-5.02,42.24-8.86,63.67-11.59c21.43-2.74,43.03-4.45,64.78-4.39c10.87,0.04,21.79,0.52,32.71,1.81
			c10.92,1.33,21.88,3.39,32.65,7.41c2.85,1.06,4.3,4.23,3.23,7.08s-4.23,4.3-7.08,3.23c-0.07-0.03-0.13-0.05-0.2-0.08
			L1358.69,457.69z"/>
	</g>
</g>
</svg>
