<svg id="Layer_1" data-name="Layer 1" xmlns="http://www.w3.org/2000/svg" xmlns:xlink="http://www.w3.org/1999/xlink" viewBox="0 0 1542.761 372.203"><defs><style>.cls-1{fill:#faa71a;}.cls-2{fill:none;stroke:#faa71a;stroke-linecap:round;stroke-miterlimit:10;stroke-width:2.164px;}.cls-3{fill:#1a1d50;}.cls-4{fill:url(#linear-gradient);}.cls-5{fill:url(#linear-gradient-2);}.cls-6{fill:url(#linear-gradient-3);}.cls-7{fill:url(#linear-gradient-4);}.cls-8{fill:url(#linear-gradient-5);}.cls-9{fill:url(#linear-gradient-6);}.cls-10{fill:url(#linear-gradient-7);}.cls-11{fill:url(#linear-gradient-8);}.cls-12{fill:url(#linear-gradient-9);}.cls-13{fill:url(#linear-gradient-10);}.cls-14{fill:url(#linear-gradient-11);}.cls-15{fill:url(#linear-gradient-12);}.cls-16{fill:#010101;}.cls-17{fill:#1e1d4e;}.cls-18{fill:#f7a51e;}</style><linearGradient id="linear-gradient" x1="95.177" y1="200.336" x2="62.564" y2="159.247" gradientUnits="userSpaceOnUse"><stop offset="0" stop-color="#079247"/><stop offset="1" stop-color="#3db54a"/></linearGradient><linearGradient id="linear-gradient-2" x1="75.431" y1="139.577" x2="62.028" y2="104.539" xlink:href="#linear-gradient"/><linearGradient id="linear-gradient-3" x1="108.507" y1="233.873" x2="62.498" y2="218.43" xlink:href="#linear-gradient"/><linearGradient id="linear-gradient-4" x1="93.709" y1="87.208" x2="103.32" y2="70.231" xlink:href="#linear-gradient"/><linearGradient id="linear-gradient-5" x1="82.574" y1="117.056" x2="93.228" y2="100.897" xlink:href="#linear-gradient"/><linearGradient id="linear-gradient-6" x1="123.964" y1="55.754" x2="143.642" y2="30.94" xlink:href="#linear-gradient"/><linearGradient id="linear-gradient-7" x1="4188.505" y1="200.336" x2="4155.892" y2="159.247" gradientTransform="matrix(-1, 0, 0, 1, 4680.232, 0)" xlink:href="#linear-gradient"/><linearGradient id="linear-gradient-8" x1="4168.759" y1="139.577" x2="4155.357" y2="104.539" gradientTransform="matrix(-1, 0, 0, 1, 4680.232, 0)" xlink:href="#linear-gradient"/><linearGradient id="linear-gradient-9" x1="4201.836" y1="233.873" x2="4155.827" y2="218.43" gradientTransform="matrix(-1, 0, 0, 1, 4680.232, 0)" xlink:href="#linear-gradient"/><linearGradient id="linear-gradient-10" x1="4187.037" y1="87.208" x2="4196.648" y2="70.231" gradientTransform="matrix(-1, 0, 0, 1, 4680.232, 0)" xlink:href="#linear-gradient"/><linearGradient id="linear-gradient-11" x1="4175.902" y1="117.056" x2="4186.556" y2="100.897" gradientTransform="matrix(-1, 0, 0, 1, 4680.232, 0)" xlink:href="#linear-gradient"/><linearGradient id="linear-gradient-12" x1="4217.292" y1="55.754" x2="4236.97" y2="30.94" gradientTransform="matrix(-1, 0, 0, 1, 4680.232, 0)" xlink:href="#linear-gradient"/></defs><path class="cls-1" d="M406.413,279.608c-21.245-37.46-62.983-62.937-110.994-62.937-47.966,0-89.667,25.425-110.94,62.842a114.755,114.755,0,0,0-8.891,19.7c89.126,22.993,118.283,72.637,119.776,75.276v.009c.009.009.009.009.009.017a.27.27,0,0,1,.037.079v.008h.018V374.6c.44-.8,28.964-51.945,119.822-75.373h.009A114.722,114.722,0,0,0,406.413,279.608ZM276.93,256.337l35.869-.078v10.593l-35.869.07Zm18.534,117.217,2.455-53.368a7.951,7.951,0,0,0,5.109-7.329,8.385,8.385,0,0,0-16.748,0,7.952,7.952,0,0,0,5.3,7.39l3.681,52.908a.031.031,0,0,0-.009-.026c-1.859-17.8-36.143-58.11-36.143-58.11,15.447-12.851,17.773-44.146,17.773-44.146l20.009-.139,15.732.139s2.335,31.3,17.783,44.146c0,0-33.643,41-34.934,58.544Z" transform="translate(-28.544 -16.103)"/><line class="cls-2" x1="160.752" y1="249.66" x2="144.417" y2="238.535"/><path class="cls-2" d="M172.961,254.638" transform="translate(-28.544 -16.103)"/><path class="cls-2" d="M189.3,265.763" transform="translate(-28.544 -16.103)"/><line class="cls-2" x1="170.795" y1="236.985" x2="146.089" y2="215.592"/><line class="cls-2" x1="182.951" y1="225.221" x2="171.453" y2="209.575"/><line class="cls-2" x1="197.773" y1="214.695" x2="182.538" y2="186.449"/><line class="cls-2" x1="213.505" y1="206.221" x2="208.518" y2="187.746"/><line class="cls-2" x1="232.738" y1="200.32" x2="225.506" y2="169.345"/><line class="cls-2" x1="248.581" y1="196.459" x2="246.22" y2="177.52"/><line class="cls-2" x1="265.844" y1="195.484" x2="266.49" y2="163.764"/><line class="cls-2" x1="382.555" y1="265.194" x2="413.708" y2="253.625"/><line class="cls-2" x1="373.919" y1="250.778" x2="390.569" y2="240.082"/><line class="cls-2" x1="363.458" y1="237.847" x2="388.773" y2="217.105"/><line class="cls-2" x1="351.646" y1="226.519" x2="363.593" y2="211.178"/><line class="cls-2" x1="337.134" y1="215.611" x2="353.18" y2="187.772"/><line class="cls-2" x1="321.652" y1="207.479" x2="327.173" y2="189.141"/><line class="cls-2" x1="302.598" y1="200.333" x2="310.723" y2="169.558"/><line class="cls-2" x1="286.873" y1="196.809" x2="289.78" y2="177.938"/><path class="cls-2" d="M172.961,252.3" transform="translate(-28.544 -16.103)"/><path class="cls-2" d="M189.3,263.425" transform="translate(-28.544 -16.103)"/><path class="cls-2" d="M172.961,252.3" transform="translate(-28.544 -16.103)"/><path class="cls-2" d="M189.3,263.425" transform="translate(-28.544 -16.103)"/><line class="cls-2" x1="382.555" y1="262.856" x2="413.708" y2="251.287"/><path class="cls-3" d="M507.7,307.039a346.958,346.958,0,0,0-53.469-.122c-81.527,6.27-131,41.542-153.1,61.844a1.667,1.667,0,0,0-.229.217c-.32.3-.632.581-.943.877-.76.72-1.777,1.684-2.6,2.474-.32.3-.623.6-.925.895v.017c-.192.183-.376.365-.558.547-.1.1-.2.2-.275.269a.511.511,0,0,1-.1.1c-.027-.044-.073-.07-.1-.1-.274-.278-.558-.565-.86-.851-1.3-1.294-2.757-2.692-4.368-4.177a.562.562,0,0,1-.083-.069c-21.94-20.25-71.517-55.818-153.419-62.13a345.96,345.96,0,0,0-53.488.1l19.276-48.645a350.578,350.578,0,0,1,45.182,7.555,287.638,287.638,0,0,1,36.619,11.253c71.829,27.553,101.6,74.721,111.224,94.181,9.679-19.538,39.486-66.6,111.214-94.1a287.933,287.933,0,0,1,36.6-11.237,347.5,347.5,0,0,1,45.127-7.537Z" transform="translate(-28.544 -16.103)"/><path class="cls-3" d="M562.365,322.612v65.695a987.177,987.177,0,0,0-114.284-20.273c-53-6.066-112.47-7.5-150.185,8.155-.3.11-1.988.834-2.348,1-.072-.028-2.464-1.066-2.535-1.093-37.716-15.669-97.213-14.221-150.228-8.169A988.348,988.348,0,0,0,28.544,388.211V322.516a411.644,411.644,0,0,1,48.981-8.975,343.261,343.261,0,0,1,58.7-2.213c82.62,4.112,132.984,39.275,153.858,57.621a.375.375,0,0,0,.087.069q2.42,2.234,4.365,4.18c.3.287.59.573.864.847.029.041.072.068.1.109a.359.359,0,0,0,.1-.109c.274-.26.548-.533.836-.806v-.014c1.34-1.325,2.824-2.746,4.466-4.248a1.7,1.7,0,0,1,.23-.219c21.062-18.388,71.34-53.236,153.556-57.335a343.3,343.3,0,0,1,58.691,2.213A417.2,417.2,0,0,1,562.365,322.612Z" transform="translate(-28.544 -16.103)"/><path class="cls-3" d="M312.009,75.458V98.171c7.752-7.291,13.216-2.954,19.1,3.3V78.44L354.866,87.1l.5-1.052c-6.516-3-12.9-6.314-19.6-8.886-3.572-1.372-4.734-3.1-4.567-6.6.283-5.953.078-11.926.078-18.719l88.362,35.352c-2.916,1.573-4.368,2.543-5.965,3.189-13.531,5.477-27.047,10.994-40.672,16.254-3.085,1.191-4.217,2.668-4.171,5.834.184,12.489.108,24.981.062,37.472-.02,5.724-1.775,7.025-7.587,6.224-33.8-4.658-67.7-6.688-101.792-3.41-9.565.92-19.112,2.012-28.661,3.074-6.424.714-7.944-.46-7.96-6.59q-.054-20.985-.012-41.969c.006-8.195,3.575-14.045,11.447-18.107,22.686-11.708,46.9-16.095,72.47-14.738A39.887,39.887,0,0,1,312.009,75.458Z" transform="translate(-28.544 -16.103)"/><path class="cls-3" d="M215.882,105.386c-14.174-5.723-27.43-10.881-40.446-16.538-2-.868-2.9-4.024-4.264-6.148-.158-.245-.036-.654-.033-.988.128-14.927-2.142-12.746,12.916-18.834C219.027,48.74,253.978,34.553,289.1,20.754a18.969,18.969,0,0,1,12.483-.276c37.447,14.6,80.67,31.814,117.979,46.731.644.257-.1,5.789-.1,5.789s-9.885-3.561-11.824-4.337Q355.81,47.918,303.977,27.178c-2.213-.885-4.491-1.626-6.7-2.421-3.822,7.727-1.935,12.6,5.719,15.7,8.976,3.628,8.974,3.628,8.968,13.215,0,5.309,0,10.618,0,16.3-5.6-.37-10.773-.73-15.948-1.051-22.609-1.4-43.805,3.253-63.965,12.957C222.06,86.684,214.986,93,215.882,105.386Z" transform="translate(-28.544 -16.103)"/><path class="cls-4" d="M127.861,222.076C117,217.542,106.122,213.058,95.3,208.45c-4.65-1.979-9.287-4.031-13.739-6.377-6.423-3.385-8.615-9.544-5.844-15.44,3.578-7.614,12.437-9.154,18.767-2.755,8.076,8.165,15.662,16.767,23.384,25.242,3.621,3.974,7.065,8.093,10.589,12.147Z" transform="translate(-28.544 -16.103)"/><path class="cls-5" d="M102.885,180.565c-7.562-6.642-16.065-13.884-24.274-21.414A138.863,138.863,0,0,1,66.79,146.68c-3.826-4.5-4.009-9.994-.967-14.276,2.8-3.934,6.758-5.406,11.607-4.534,5.247.943,7.513,4.882,9.145,9.042,4.38,11.163,8.556,22.4,12.765,33.622C100.758,174.314,102.033,178.143,102.885,180.565Z" transform="translate(-28.544 -16.103)"/><path class="cls-6" d="M149.416,237.807c-12.054,6.506-23.684,10.551-36.745,9.592-5.218-.383-9.124-2.745-10.943-7.5a11.706,11.706,0,0,1,2.926-13.42c3.758-3.617,8.464-4.095,13.255-2.105C128.2,228.655,138.412,233.1,149.416,237.807Z" transform="translate(-28.544 -16.103)"/><path class="cls-7" d="M101.791,94.584q0-6.043,0-12.086c.013-10.137-.033-20.275.068-30.411.063-6.328,3.43-11.28,7.968-12.117,7.775-1.433,14.576,5.4,11.721,12.581-5.655,14.235-12.03,28.213-18.107,42.3Z" transform="translate(-28.544 -16.103)"/><path class="cls-8" d="M93.3,137.827C87.847,124,82.352,110.18,76.956,96.329c-1.664-4.274-1.348-8.455,2.238-11.786,2.767-2.568,6.2-3.766,10.084-2.33,4.765,1.763,6.63,5.567,6.935,10.011a109.788,109.788,0,0,1,.023,13.169c-.556,10.726-1.3,21.443-1.973,32.164Z" transform="translate(-28.544 -16.103)"/><path class="cls-9" d="M124.7,60.653c4.928-12.818,9.679-25.7,14.862-38.425,2.37-5.817,8.188-7.642,13.166-4.821,5.235,2.967,6.486,9.109,2.053,14.058-6.69,7.471-13.917,14.513-20.984,21.677-2.685,2.722-5.558,5.279-8.346,7.911Z" transform="translate(-28.544 -16.103)"/><path class="cls-10" d="M459.043,222.076c10.858-4.534,21.739-9.018,32.562-13.626,4.65-1.979,9.287-4.031,13.739-6.377,6.423-3.385,8.615-9.544,5.844-15.44-3.578-7.614-12.437-9.154-18.767-2.755-8.076,8.165-15.662,16.767-23.384,25.242-3.621,3.974-7.065,8.093-10.588,12.147Z" transform="translate(-28.544 -16.103)"/><path class="cls-11" d="M484.019,180.565c7.562-6.642,16.065-13.884,24.274-21.414a138.721,138.721,0,0,0,11.821-12.471c3.826-4.5,4.009-9.994.968-14.276-2.8-3.934-6.759-5.406-11.608-4.534-5.247.943-7.512,4.882-9.145,9.042-4.38,11.163-8.556,22.4-12.765,33.622C486.146,174.314,484.872,178.143,484.019,180.565Z" transform="translate(-28.544 -16.103)"/><path class="cls-12" d="M437.488,237.807c12.054,6.506,23.684,10.551,36.745,9.592,5.218-.383,9.124-2.745,10.943-7.5a11.706,11.706,0,0,0-2.926-13.42c-3.758-3.617-8.464-4.095-13.255-2.105C458.7,228.655,448.492,233.1,437.488,237.807Z" transform="translate(-28.544 -16.103)"/><path class="cls-13" d="M485.114,94.584q0-6.043,0-12.086c-.013-10.137.033-20.275-.068-30.411-.063-6.328-3.43-11.28-7.968-12.117-7.775-1.433-14.576,5.4-11.721,12.581,5.655,14.235,12.03,28.213,18.107,42.3Z" transform="translate(-28.544 -16.103)"/><path class="cls-14" d="M493.6,137.827c5.457-13.83,10.952-27.647,16.348-41.5,1.664-4.274,1.348-8.455-2.238-11.786-2.767-2.568-6.2-3.766-10.083-2.33-4.766,1.763-6.631,5.567-6.936,10.011a109.788,109.788,0,0,0-.023,13.169c.556,10.726,1.3,21.443,1.973,32.164Z" transform="translate(-28.544 -16.103)"/><path class="cls-15" d="M462.207,60.653c-4.928-12.818-9.679-25.7-14.862-38.425-2.37-5.817-8.188-7.642-13.166-4.821-5.235,2.967-6.485,9.109-2.053,14.058,6.69,7.471,13.917,14.513,20.984,21.677,2.685,2.722,5.558,5.279,8.346,7.911Z" transform="translate(-28.544 -16.103)"/><path class="cls-16" d="M682.773,236.225a34.634,34.634,0,0,1-16.7,4.5c-15.185,0-25.511-11.359-25.511-26.682s10.4-26.682,25.815-26.682c6.3,0,11.01,1.144,15.262,3.66l.3,11.053h-4.631l-1.9-11.282,4.708,1.524v4.346c-4.1-3.811-8.276-5.489-13.136-5.489-10.629,0-18.45,8.309-18.45,22.87,0,14.484,7.137,22.794,18.982,22.794,4.328,0,7.517-.991,11.844-3.126l-3.416,3.583v-4.421c0-5.794-.076-11.74-.228-17.534H683c-.151,5.718-.228,11.588-.228,17.534Zm-14.958-17.838v-3.05h19.742v3.05l-8.352.761h-1.518Z" transform="translate(-28.544 -16.103)"/><path class="cls-16" d="M701.9,226.086c0,6.785,1.974,9.147,6.151,9.147,3.872,0,7.82-1.905,11.616-5.716h1.595V233.4h-3.872l2.657-1.143c-4.328,5.87-9.491,8.309-14.426,8.309-6.074,0-9.871-3.659-9.795-13.721l.228-20.126,1.594,1.448-7.061-1.525v-2.667l10.933-.992.76.763-.38,10.672Zm18.071,14.1-1.063-8.919.228-24.547,1.594,1.448-7.061-1.525v-2.667l10.782-.992.759.763-.228,10.672v22.794l-1.822-1.829,7.062,1.524v2.668Z" transform="translate(-28.544 -16.103)"/><path class="cls-16" d="M741.308,239.579c.152-3.431.228-11.282.228-16.009v-3.583c0-4.192-.076-6.555-.228-9.6l-6.226-.687v-2.668l11.465-4.573,1.139.762-.228,10.292V223.57c0,4.727.076,12.578.228,16.009ZM753,236.911v2.668H735.537v-2.668l8.353-1.524h1.518ZM739.41,189.037a5.016,5.016,0,1,1,5.011,4.8A4.736,4.736,0,0,1,739.41,189.037Z" transform="translate(-28.544 -16.103)"/><path class="cls-16" d="M776.082,236.377c3.872,0,6.53-1.677,10.022-6.175l.684,2.059c-2.886,5.183-6.454,8.309-12.376,8.309-9.264,0-15.49-7.7-15.49-18.754,0-11.587,6.834-19.362,16.173-19.362,4.328,0,8.049,1.753,12,7.7l-.76,1.982c-4.4-4.269-7.44-5.489-10.326-5.489-5.694,0-10.63,4.575-10.63,15.018C765.376,231.8,769.932,236.377,776.082,236.377Zm21.108.534v2.668l-11.617.763-.76-7.777V210.229l.229-.991V190.027l-6.53-.761V186.6l11.617-3.431,1.062.609-.3,10.826v44.977l-1.215-3.888Z" transform="translate(-28.544 -16.103)"/><path class="cls-16" d="M813.512,219.606a82.728,82.728,0,0,1,11.768-3.2v2.744a68.718,68.718,0,0,0-10.174,3.05c-6.834,2.668-7.592,5.565-7.592,7.776,0,4.04,2.657,5.641,6.149,5.641,2.658,0,4.177-.991,8.96-4.422l1.519-1.143,1.062,1.6-2.2,2.211c-4.556,4.575-7.138,6.709-11.77,6.709-5.542,0-10.173-3.2-10.173-9.529C801.06,226.771,803.337,223.342,813.512,219.606Zm8.731,12.959v-17.38c0-7.471-2.126-9.3-7.137-9.3a17.62,17.62,0,0,0-6.834,1.372l3.038-2.362-1.974,6.555c-.684,2.211-1.822,3.431-3.872,3.431a3.105,3.105,0,0,1-3.417-3.05c1.442-5.793,7.061-9.376,14.653-9.376,7.821,0,11.617,3.583,11.617,13.188V231.8c0,3.429,1.064,4.649,2.81,4.649a3.751,3.751,0,0,0,2.961-1.677l1.518,1.677c-1.822,2.9-3.872,3.889-6.453,3.889C824.977,240.342,822.243,237.292,822.243,232.565Z" transform="translate(-28.544 -16.103)"/><path class="cls-16" d="M844.489,239.579c.153-3.431.229-11.282.229-16.009v-3.583c0-4.192-.076-6.555-.229-9.6l-6.074-.687v-2.668l10.326-4.573,1.139.762.912,8.843V223.57c0,4.727.075,12.578.228,16.009Zm11.845-2.668v2.668H838.871v-2.668l8.352-1.524h1.518Zm17.54-20.354v7.013c0,4.879.075,12.578.228,16.009h-6.531c.153-3.431.229-11.13.229-16.009v-6.4c0-7.09-1.822-9.377-6.379-9.377-3.8,0-6.909,1.524-11.236,5.26H848.59v-3.431h3.872l-3.265,1.373c3.569-4.8,9.643-8.538,15.033-8.538C870.761,202.454,873.874,206.494,873.874,216.557Zm-2.051,18.83,7.593,1.524v2.668H861.953v-2.668l8.352-1.524Z" transform="translate(-28.544 -16.103)"/><path class="cls-16" d="M891.259,220.9c0,9.606,5.087,14.866,12.223,14.866a12.236,12.236,0,0,0,10.63-5.947l1.823.915c-2.05,6.327-6.91,9.834-14.047,9.834-10.4,0-16.932-7.318-16.932-18.982,0-11.969,8.353-19.134,17.388-19.134,6.758,0,12.376,4.192,13.363,9.834a3.143,3.143,0,0,1-3.417,2.82c-2.506,0-3.492-1.524-4.023-3.43l-1.9-6.708,3.492,2.82a15.742,15.742,0,0,0-7.289-1.906C895.966,205.884,891.259,211.145,891.259,220.9Z" transform="translate(-28.544 -16.103)"/><path class="cls-16" d="M953.441,217.014a15.415,15.415,0,0,1-.531,4.269H924.893v-3.2h18.071c3.644,0,4.479-1.753,4.479-3.888a8.443,8.443,0,0,0-8.427-8.309c-4.86,0-10.479,4.117-10.479,15.018,0,9.682,4.859,14.866,12.452,14.866,4.86,0,7.9-2.211,10.63-5.414l1.747,1.374a15.416,15.416,0,0,1-14.5,8.842c-10.174,0-16.78-7.09-16.78-18.677,0-11.664,7.9-19.439,17.313-19.439C947.216,202.454,953.441,207.79,953.441,217.014Z" transform="translate(-28.544 -16.103)"/><path class="cls-16" d="M990.946,219.606a82.742,82.742,0,0,1,11.769-3.2v2.744a68.7,68.7,0,0,0-10.175,3.05c-6.833,2.668-7.593,5.565-7.593,7.776,0,4.04,2.657,5.641,6.151,5.641,2.657,0,4.175-.991,8.96-4.422l1.517-1.143,1.064,1.6-2.2,2.211c-4.556,4.575-7.137,6.709-11.769,6.709-5.543,0-10.175-3.2-10.175-9.529C978.493,226.771,980.771,223.342,990.946,219.606Zm8.732,12.959v-17.38c0-7.471-2.126-9.3-7.138-9.3a17.615,17.615,0,0,0-6.833,1.372l3.037-2.362-1.974,6.555c-.683,2.211-1.823,3.431-3.873,3.431a3.107,3.107,0,0,1-3.417-3.05c1.443-5.793,7.062-9.376,14.655-9.376,7.82,0,11.617,3.583,11.617,13.188V231.8c0,3.429,1.062,4.649,2.81,4.649a3.75,3.75,0,0,0,2.96-1.677l1.519,1.677c-1.822,2.9-3.872,3.889-6.454,3.889C1002.411,240.342,999.678,237.292,999.678,232.565Z" transform="translate(-28.544 -16.103)"/><path class="cls-16" d="M1021.923,239.579c.152-3.431.228-11.282.228-16.009v-3.583c0-4.192-.076-6.555-.228-9.6l-6.074-.687v-2.668l10.326-4.573,1.138.762.913,8.843V223.57c0,4.727.075,12.578.227,16.009Zm11.845-2.668v2.668h-17.463v-2.668l8.351-1.524h1.519Zm17.54-20.354v7.013c0,4.879.075,12.578.227,16.009h-6.53c.152-3.431.228-11.13.228-16.009v-6.4c0-7.09-1.822-9.377-6.379-9.377-3.8,0-6.909,1.524-11.236,5.26h-1.6v-3.431h3.873l-3.265,1.373c3.568-4.8,9.642-8.538,15.033-8.538C1048.194,202.454,1051.308,206.494,1051.308,216.557Zm-2.051,18.83,7.593,1.524v2.668h-17.463v-2.668l8.351-1.524Z" transform="translate(-28.544 -16.103)"/><path class="cls-16" d="M1079.778,236.377c3.872,0,6.53-1.677,10.023-6.175l.683,2.059c-2.885,5.183-6.454,8.309-12.376,8.309-9.263,0-15.49-7.7-15.49-18.754,0-11.587,6.834-19.362,16.173-19.362,4.328,0,8.049,1.753,12,7.7l-.76,1.982c-4.4-4.269-7.44-5.489-10.326-5.489-5.694,0-10.63,4.575-10.63,15.018C1069.072,231.8,1073.628,236.377,1079.778,236.377Zm21.108.534v2.668l-11.616.763-.76-7.777V210.229l.227-.991V190.027l-6.529-.761V186.6l11.617-3.431,1.063.609-.3,10.826v44.977l-1.215-3.888Z" transform="translate(-28.544 -16.103)"/><path class="cls-16" d="M1162.915,232.032v4.193l-4.707,1.067,1.9-11.282h4.632l-.3,11.053a31.836,31.836,0,0,1-15.337,3.66c-15.338,0-25.664-11.13-25.664-26.682,0-15.246,10.781-26.682,25.588-26.682a29.235,29.235,0,0,1,14.654,3.66l.3,11.053h-4.631l-1.9-11.282,4.707,1.067v4.651c-4.327-4.041-8.579-5.337-12.223-5.337-10.251,0-18.527,8-18.527,22.87s7.441,22.87,17.994,22.87A20.976,20.976,0,0,0,1162.915,232.032Z" transform="translate(-28.544 -16.103)"/><path class="cls-16" d="M1171.265,221.664c0-12.654,8.579-19.21,17.31-19.21,8.58,0,17.313,6.556,17.313,19.21s-8.733,18.906-17.313,18.906C1179.844,240.57,1171.265,234.319,1171.265,221.664Zm27.789,0c0-10.215-3.872-15.78-10.479-15.78-6.757,0-10.477,5.565-10.477,15.78s3.72,15.476,10.477,15.476C1195.182,237.14,1199.054,231.88,1199.054,221.664Z" transform="translate(-28.544 -16.103)"/><path class="cls-16" d="M1218.108,239.579c.153-3.431.229-11.282.229-16.009v-3.583c0-4.192-.076-6.555-.229-9.6l-6.074-.687v-2.668l10.326-4.573,1.139.762.912,8.843V223.57c0,4.727.075,12.578.228,16.009Zm11.845-2.668v2.668H1212.49v-2.668l8.352-1.524h1.518Zm17.54-20.354v7.013c0,4.879.075,12.578.228,16.009h-6.531c.153-3.431.229-11.13.229-16.009v-6.4c0-7.09-1.822-9.377-6.379-9.377-3.8,0-6.909,1.524-11.236,5.26h-1.6v-3.431h3.872l-3.265,1.373c3.569-4.8,9.643-8.538,15.034-8.538C1244.38,202.454,1247.493,206.494,1247.493,216.557Zm-2.051,18.83,7.593,1.524v2.668h-17.463v-2.668l8.352-1.524Z" transform="translate(-28.544 -16.103)"/><path class="cls-16" d="M1259.26,237.673l-.3-8.309h4.024l2.05,9-3.72-1.753v-2.592a14.4,14.4,0,0,0,9.339,3.126c5.846,0,8.58-2.364,8.58-5.87,0-3.278-2.278-4.956-7.062-6.708l-3.492-1.3c-5.543-2.059-9.188-5.032-9.188-10.216,0-5.488,4.632-10.6,13.06-10.6a19.3,19.3,0,0,1,10.554,3.125l-.3,7.7H1279l-1.519-7.7,2.734,1.22v1.982a12.391,12.391,0,0,0-7.744-2.9c-4.708,0-7.138,2.058-7.138,5.261,0,3.429,1.9,4.726,7.062,6.631l2.277.839c7.593,2.821,10.478,6.4,10.478,11.13,0,5.642-4.935,10.825-14.654,10.825A23.059,23.059,0,0,1,1259.26,237.673Z" transform="translate(-28.544 -16.103)"/><path class="cls-16" d="M1301.4,226.086c0,6.785,1.975,9.147,6.151,9.147,3.873,0,7.82-1.905,11.617-5.716h1.6V233.4h-3.872l2.657-1.143c-4.328,5.87-9.491,8.309-14.427,8.309-6.074,0-9.87-3.659-9.795-13.721l.229-20.126,1.594,1.448-7.061-1.525v-2.667l10.934-.992.758.763-.38,10.672Zm18.072,14.1-1.064-8.919.229-24.547,1.594,1.448-7.061-1.525v-2.667l10.781-.992.76.763-.229,10.672v22.794l-1.822-1.829,7.062,1.524v2.668Z" transform="translate(-28.544 -16.103)"/><path class="cls-16" d="M1345.89,183.167l1.062.609-.3,10.826V223.57q0,8,.228,16.009h-6.529q.226-8,.227-16.009V190.027l-6.3-.761V186.6Zm7.06,53.744v2.668h-18.678v-2.668l8.581-1.524h1.517Z" transform="translate(-28.544 -16.103)"/><path class="cls-16" d="M1372.234,236.759c1.67,0,3.189-.687,5.163-2.135l1.747,2.059a10.839,10.839,0,0,1-8.808,3.887c-5.239,0-8.5-2.744-8.5-8.614,0-1.83.076-3.431.076-6.4V207.409h-6.378v-3.278l9.415-1.22-3.037,2.516,2.278-12.35h4.4l-.608,13.341v24.7C1367.982,235.081,1369.652,236.759,1372.234,236.759Zm6.226-33.315v3.965h-13.515v-3.965Z" transform="translate(-28.544 -16.103)"/><path class="cls-16" d="M1395.315,219.606a82.742,82.742,0,0,1,11.769-3.2v2.744a68.734,68.734,0,0,0-10.175,3.05c-6.833,2.668-7.593,5.565-7.593,7.776,0,4.04,2.658,5.641,6.151,5.641,2.657,0,4.176-.991,8.96-4.422l1.517-1.143,1.064,1.6-2.2,2.211c-4.556,4.575-7.137,6.709-11.769,6.709-5.543,0-10.175-3.2-10.175-9.529C1382.862,226.771,1385.141,223.342,1395.315,219.606Zm8.732,12.959v-17.38c0-7.471-2.126-9.3-7.138-9.3a17.615,17.615,0,0,0-6.833,1.372l3.037-2.362-1.974,6.555c-.683,2.211-1.823,3.431-3.872,3.431a3.106,3.106,0,0,1-3.417-3.05c1.442-5.793,7.061-9.376,14.654-9.376,7.82,0,11.617,3.583,11.617,13.188V231.8c0,3.429,1.063,4.649,2.81,4.649a3.754,3.754,0,0,0,2.961-1.677l1.518,1.677c-1.822,2.9-3.872,3.889-6.454,3.889C1406.78,240.342,1404.047,237.292,1404.047,232.565Z" transform="translate(-28.544 -16.103)"/><path class="cls-16" d="M1426.292,239.579c.152-3.431.229-11.282.229-16.009v-3.583c0-4.192-.077-6.555-.229-9.6l-6.074-.687v-2.668l10.326-4.573,1.139.762.912,8.843V223.57c0,4.727.075,12.578.227,16.009Zm11.845-2.668v2.668h-17.463v-2.668l8.351-1.524h1.519Zm17.54-20.354v7.013c0,4.879.075,12.578.227,16.009h-6.53c.152-3.431.229-11.13.229-16.009v-6.4c0-7.09-1.823-9.377-6.379-9.377-3.8,0-6.91,1.524-11.237,5.26h-1.594v-3.431h3.872L1431,210.992c3.568-4.8,9.643-8.538,15.033-8.538C1452.563,202.454,1455.677,206.494,1455.677,216.557Zm-2.051,18.83,7.593,1.524v2.668h-17.463v-2.668l8.351-1.524Z" transform="translate(-28.544 -16.103)"/><path class="cls-16" d="M1473.062,220.9c0,9.606,5.087,14.866,12.224,14.866a12.239,12.239,0,0,0,10.63-5.947l1.822.915c-2.05,6.327-6.909,9.834-14.046,9.834-10.4,0-16.932-7.318-16.932-18.982,0-11.969,8.352-19.134,17.387-19.134,6.758,0,12.376,4.192,13.364,9.834a3.143,3.143,0,0,1-3.417,2.82c-2.505,0-3.492-1.524-4.025-3.43l-1.9-6.708,3.492,2.82a15.742,15.742,0,0,0-7.289-1.906C1477.77,205.884,1473.062,211.145,1473.062,220.9Z" transform="translate(-28.544 -16.103)"/><path class="cls-16" d="M1500.394,253.605c.531-2.133,2.733-3.2,5.011-3.2,1.974,0,3.492.762,5.542,2.821l2.355,2.363-2.962,1.678-2.05-1.678c5.087-2.516,8.124-7.776,10.022-13.112l2.354-6.632,11.693-32.4h4.1l-13.515,35.678c-5.163,13.722-9.415,19.516-15.641,19.516C1503.583,258.638,1500.394,256.579,1500.394,253.605Zm7.744-46.349-7.441-1.143v-2.669h18.072v2.745l-9.112,1.067Zm11.313,36.287-15.868-40.1h7.061l11.92,32.476Zm12.908-36.287-8.048-1.143v-2.669h14.881v2.669l-5.314,1.143Z" transform="translate(-28.544 -16.103)"/><path class="cls-17" d="M630.528,316.062l-.693,12.452h-22.5v-1.208a10.717,10.717,0,0,1,3.465-1.584V278.481a15.492,15.492,0,0,1-3.465-1.584V275.69h22.539v12.6h-1.223a28.976,28.976,0,0,1-.876-4.336q-.469-3.133-.55-4.793H616.345v21.581h7.54q.081-1.28.305-3.169t.51-3.246h.9v16.3h-.9q-.285-1.433-.51-3.282t-.305-3.132h-7.54V325.2h11.086a30.587,30.587,0,0,1,.733-4.83,33.182,33.182,0,0,1,1.141-4.3Z" transform="translate(-28.544 -16.103)"/><path class="cls-17" d="M665.252,327.383v1.131H654.167v-1.208a14.666,14.666,0,0,1,2.853-1.434l-4.932-12.224-5.829,12.224a12.334,12.334,0,0,1,3.057,1.434v1.208h-8.681v-1.057a11.145,11.145,0,0,1,2.975-1.508l7.255-15.32-6.847-16.978a8.78,8.78,0,0,1-2.853-1.661v-1.057h10.923v1.284a11.757,11.757,0,0,1-2.812,1.434l4.442,11.091,5.3-11.167A8.48,8.48,0,0,1,656,292.067v-1.134h8.681v1.134a7.8,7.8,0,0,1-3.057,1.584l-6.725,14.11,7.3,18.188A12.318,12.318,0,0,1,665.252,327.383Z" transform="translate(-28.544 -16.103)"/><path class="cls-17" d="M674.177,345.268q1.427-.757,3.221-1.511V293.878a14.593,14.593,0,0,1-2.772-1.361v-.83l8.151-1.508v4.98a9,9,0,0,1,3.037-3.849,6.039,6.039,0,0,1,3.158-1.055q4.688,0,7.214,4.64t2.527,13.923q0,20.45-10.148,20.45a5.68,5.68,0,0,1-3.343-1.131,7.107,7.107,0,0,1-2.445-3.622v19.319a15.886,15.886,0,0,1,3.22,1.508v1.207h-11.82Zm17.852-23.885a47.308,47.308,0,0,0,1.263-12.188q0-7.848-1.2-11.695t-4.1-3.849a3.9,3.9,0,0,0-2.894,1.584,13.4,13.4,0,0,0-2.323,4v16.451a17.407,17.407,0,0,0,1.366,7.281q1.363,2.985,3.729,2.982Q690.766,325.949,692.029,321.383Z" transform="translate(-28.544 -16.103)"/><path class="cls-17" d="M729.769,310.252H714.322a32.373,32.373,0,0,0,1.855,11.321q1.773,4.527,5.2,4.526a7.352,7.352,0,0,0,3.566-1.057,10.647,10.647,0,0,0,3.322-2.942l.53,2.415a10.551,10.551,0,0,1-3.607,3.4,9.672,9.672,0,0,1-4.992,1.358,8.435,8.435,0,0,1-6.012-2.415,15.5,15.5,0,0,1-3.913-6.828A34.659,34.659,0,0,1,708.9,309.8q0-9.354,2.914-14.45t8.131-5.094a7.085,7.085,0,0,1,5.5,2.452,15.382,15.382,0,0,1,3.26,6.491,35.493,35.493,0,0,1,1.06,9.016Zm-4.687-3.319a38.433,38.433,0,0,0-.489-6.077,15.823,15.823,0,0,0-1.63-5.13,3.38,3.38,0,0,0-2.975-2.075q-2.528,0-3.913,3.736a32.389,32.389,0,0,0-1.671,9.546Z" transform="translate(-28.544 -16.103)"/><path class="cls-17" d="M739.918,327.306a9.4,9.4,0,0,1,3.22-1.507V293.878a15.943,15.943,0,0,1-2.772-1.434v-.681l7.54-1.584.448,6.941h.163a12.563,12.563,0,0,1,2.2-5.017,4.084,4.084,0,0,1,3.138-1.848,4.722,4.722,0,0,1,4,1.885l-1.019,4.756a3.16,3.16,0,0,0-2.4-1.434q-1.794,0-3.341,2.149a18.527,18.527,0,0,0-2.569,5.623v22.638a13.08,13.08,0,0,1,3.18,1.511v1.131H739.918Z" transform="translate(-28.544 -16.103)"/><path class="cls-17" d="M782.06,327.91a9.238,9.238,0,0,1-5.014,1.358,5.911,5.911,0,0,1-5.053-2.6q-1.877-2.607-1.876-8.489V294.328h-3.26v-3.395h3.26v-2.489q2.284-1.361,2.732-7.621H775.5v10.11h5.95v3.395H775.5v23.849q0,4.3.937,5.921a2.919,2.919,0,0,0,2.649,1.624,5.313,5.313,0,0,0,2.649-.83Z" transform="translate(-28.544 -16.103)"/><path class="cls-17" d="M796.385,327.91a9.857,9.857,0,0,1-3.689-3.546l.326-9.282h1.183a30.473,30.473,0,0,1,.407,3.622q.162,2.415.2,4.376a6.536,6.536,0,0,0,2.078,2.075,5.1,5.1,0,0,0,2.771.794,4.411,4.411,0,0,0,3.689-1.851,8.365,8.365,0,0,0,1.406-5.167,6.541,6.541,0,0,0-.652-3.058,7.089,7.089,0,0,0-1.61-2.075,25.061,25.061,0,0,0-2.71-1.962,25.1,25.1,0,0,1-3.567-2.641,10.164,10.164,0,0,1-2.384-3.546,14.559,14.559,0,0,1-.978-5.734q0-4.682,2.365-7.171a7.8,7.8,0,0,1,5.908-2.489,8.771,8.771,0,0,1,7.867,4.3l-.367,7.925h-1.223a25.949,25.949,0,0,1-.387-3.1q-.144-1.884-.142-3.7a5.546,5.546,0,0,0-4.606-2.191,3.971,3.971,0,0,0-3.017,1.207,5.475,5.475,0,0,0-1.14,3.85,6.251,6.251,0,0,0,1.223,4.112,16.806,16.806,0,0,0,3.789,3.132,27.821,27.821,0,0,1,3.628,2.832,10.648,10.648,0,0,1,2.363,3.659,15.318,15.318,0,0,1,.979,5.887q0,5.582-2.4,8.336a7.711,7.711,0,0,1-6.073,2.755A10.4,10.4,0,0,1,796.385,327.91Z" transform="translate(-28.544 -16.103)"/><path class="cls-17" d="M839.4,327.383q.734-.454,3.219-1.584V294.028a12.722,12.722,0,0,1-2.811-1.358v-.756L848,290.406v35.466a21.908,21.908,0,0,1,3.219,1.511v1.131H839.4Zm3.525-41.43a7.592,7.592,0,0,1-.794-3.7,7.813,7.813,0,0,1,.794-3.733,2.347,2.347,0,0,1,2.059-1.474,2.386,2.386,0,0,1,2.078,1.474,7.634,7.634,0,0,1,.815,3.733,7.419,7.419,0,0,1-.815,3.7,2.389,2.389,0,0,1-2.078,1.434A2.348,2.348,0,0,1,842.928,285.953Z" transform="translate(-28.544 -16.103)"/><path class="cls-17" d="M888.067,327.383v1.131h-11.5v-1.131a14.247,14.247,0,0,1,2.936-1.584V301.423q0-7.771-3.791-7.772a4.531,4.531,0,0,0-2.873,1.321,12.182,12.182,0,0,0-2.833,4.113v26.787a13.837,13.837,0,0,1,3.22,1.511v1.131h-11.82v-1.131a9.876,9.876,0,0,1,3.22-1.584V293.878a16.344,16.344,0,0,1-2.812-1.434v-.757l8.192-1.508v5.433a13.124,13.124,0,0,1,3.383-3.886,6.857,6.857,0,0,1,4.2-1.471,6.2,6.2,0,0,1,5.279,2.829q2.016,2.832,2.017,7.885v24.9A9.434,9.434,0,0,1,888.067,327.383Z" transform="translate(-28.544 -16.103)"/><path class="cls-17" d="M943.617,327.383v1.131H932.041v-1.131a13.72,13.72,0,0,1,2.976-1.584V301.423q0-7.771-3.791-7.772a4.428,4.428,0,0,0-2.872,1.395,13.683,13.683,0,0,0-2.874,4.189v26.637a9.477,9.477,0,0,1,2.976,1.511v1.131H916.921v-1.131a10.35,10.35,0,0,1,3.22-1.584V279.011a16.215,16.215,0,0,1-2.813-1.434v-.754l8.152-1.51v20.45a12.705,12.705,0,0,1,3.362-4,6.882,6.882,0,0,1,4.259-1.508,6.149,6.149,0,0,1,5.258,2.829q1.995,2.832,2,7.885v24.9A14.652,14.652,0,0,1,943.617,327.383Z" transform="translate(-28.544 -16.103)"/><path class="cls-17" d="M953.56,318.251q0-5.961,2.283-8.6a7.578,7.578,0,0,1,6.031-2.641h5.462V301.5q0-4.077-1.285-5.963a4.079,4.079,0,0,0-3.566-1.885,7.476,7.476,0,0,0-3.4.9,14.348,14.348,0,0,0-3.239,2.265l-.327-2.869a13.655,13.655,0,0,1,4.035-2.715,11.362,11.362,0,0,1,4.606-.981,7.522,7.522,0,0,1,6.256,2.943,12.387,12.387,0,0,1,2.3,7.848v24.223a22.464,22.464,0,0,1,2.772,1.284v.83l-8.151,1.431v-5.053a11.611,11.611,0,0,1-3.159,4.149,5.949,5.949,0,0,1-3.647,1.358Q953.56,329.268,953.56,318.251Zm11.7,5.887a10.412,10.412,0,0,0,2.079-3.849v-9.96h-4.2a3.439,3.439,0,0,0-3.2,2.074,12.693,12.693,0,0,0-1.079,5.774,12.472,12.472,0,0,0,1,5.7,3.017,3.017,0,0,0,2.711,1.848A3.777,3.777,0,0,0,965.257,324.138Z" transform="translate(-28.544 -16.103)"/><path class="cls-17" d="M989.079,327.91a9.865,9.865,0,0,1-3.689-3.546l.327-9.282H986.9a30.428,30.428,0,0,1,.408,3.622q.162,2.415.2,4.376a6.526,6.526,0,0,0,2.078,2.075,5.1,5.1,0,0,0,2.771.794,4.411,4.411,0,0,0,3.689-1.851,8.371,8.371,0,0,0,1.4-5.167,6.529,6.529,0,0,0-.652-3.058,7.07,7.07,0,0,0-1.609-2.075,25.089,25.089,0,0,0-2.711-1.962,25.083,25.083,0,0,1-3.566-2.641,10.164,10.164,0,0,1-2.384-3.546,14.541,14.541,0,0,1-.978-5.734q0-4.682,2.364-7.171a7.8,7.8,0,0,1,5.908-2.489,8.77,8.77,0,0,1,7.867,4.3l-.367,7.925H1000.1a25.77,25.77,0,0,1-.386-3.1q-.144-1.884-.143-3.7a5.544,5.544,0,0,0-4.606-2.191,3.968,3.968,0,0,0-3.016,1.207,5.475,5.475,0,0,0-1.14,3.85,6.251,6.251,0,0,0,1.222,4.112,16.815,16.815,0,0,0,3.79,3.132,27.821,27.821,0,0,1,3.628,2.832,10.648,10.648,0,0,1,2.363,3.659,15.319,15.319,0,0,1,.978,5.887q0,5.582-2.4,8.336a7.712,7.712,0,0,1-6.074,2.755A10.406,10.406,0,0,1,989.079,327.91Z" transform="translate(-28.544 -16.103)"/><path class="cls-17" d="M1017.487,327.91a9.857,9.857,0,0,1-3.689-3.546l.326-9.282h1.183a30.473,30.473,0,0,1,.407,3.622q.162,2.415.2,4.376a6.536,6.536,0,0,0,2.078,2.075,5.1,5.1,0,0,0,2.771.794,4.411,4.411,0,0,0,3.689-1.851,8.365,8.365,0,0,0,1.406-5.167,6.541,6.541,0,0,0-.652-3.058,7.089,7.089,0,0,0-1.61-2.075,25.061,25.061,0,0,0-2.71-1.962,25.1,25.1,0,0,1-3.567-2.641,10.164,10.164,0,0,1-2.384-3.546,14.559,14.559,0,0,1-.978-5.734q0-4.682,2.365-7.171a7.8,7.8,0,0,1,5.908-2.489,8.771,8.771,0,0,1,7.867,4.3l-.367,7.925h-1.223a25.743,25.743,0,0,1-.387-3.1q-.144-1.884-.142-3.7a5.546,5.546,0,0,0-4.606-2.191,3.971,3.971,0,0,0-3.017,1.207,5.475,5.475,0,0,0-1.14,3.85,6.251,6.251,0,0,0,1.223,4.112,16.806,16.806,0,0,0,3.789,3.132,27.821,27.821,0,0,1,3.628,2.832,10.648,10.648,0,0,1,2.363,3.659,15.318,15.318,0,0,1,.979,5.887q0,5.582-2.4,8.336a7.711,7.711,0,0,1-6.073,2.755A10.4,10.4,0,0,1,1017.487,327.91Z" transform="translate(-28.544 -16.103)"/><path class="cls-17" d="M1041.8,327.383a31.983,31.983,0,0,1,3.22-1.584V279.011a16.2,16.2,0,0,1-2.812-1.434v-.754l8.191-1.51v50.559a11.311,11.311,0,0,1,3.221,1.511v1.131H1041.8Z" transform="translate(-28.544 -16.103)"/><path class="cls-17" d="M1084.794,310.252h-15.446a32.354,32.354,0,0,0,1.853,11.321q1.774,4.527,5.2,4.526a7.355,7.355,0,0,0,3.566-1.057,10.658,10.658,0,0,0,3.322-2.942l.529,2.415a10.533,10.533,0,0,1-3.607,3.4,9.664,9.664,0,0,1-4.992,1.358,8.439,8.439,0,0,1-6.012-2.415,15.531,15.531,0,0,1-3.913-6.828,34.725,34.725,0,0,1-1.365-10.226q0-9.354,2.915-14.45t8.13-5.094a7.085,7.085,0,0,1,5.5,2.452,15.4,15.4,0,0,1,3.26,6.491,35.538,35.538,0,0,1,1.06,9.016Zm-4.687-3.319a38.552,38.552,0,0,0-.489-6.077,15.872,15.872,0,0,0-1.63-5.13,3.38,3.38,0,0,0-2.976-2.075q-2.526,0-3.913,3.736a32.457,32.457,0,0,0-1.67,9.546Z" transform="translate(-28.544 -16.103)"/><path class="cls-17" d="M1096,304.668h13.735V310.1H1096Z" transform="translate(-28.544 -16.103)"/><path class="cls-17" d="M1130.887,279.916a16.853,16.853,0,0,0-.977,6.564v4.453h6.031v3.395h-6.031v31.544a14.865,14.865,0,0,1,3.464,1.511v1.131h-12.105v-1.208a15.12,15.12,0,0,1,3.26-1.507V294.328h-3.83v-3.395h3.83v-3.019q0-6.712,1.855-10.223t5.074-3.509a8.744,8.744,0,0,1,5.014,1.434l-.327,3.018a4.742,4.742,0,0,0-2.649-.907Q1131.866,277.727,1130.887,279.916Z" transform="translate(-28.544 -16.103)"/><path class="cls-17" d="M1146.417,327.306a9.4,9.4,0,0,1,3.22-1.507V293.878a15.943,15.943,0,0,1-2.772-1.434v-.681l7.54-1.584.448,6.941h.163a12.55,12.55,0,0,1,2.2-5.017,4.082,4.082,0,0,1,3.137-1.848,4.722,4.722,0,0,1,3.995,1.885l-1.019,4.756a3.16,3.16,0,0,0-2.4-1.434q-1.793,0-3.341,2.149a18.527,18.527,0,0,0-2.569,5.623v22.638a13.063,13.063,0,0,1,3.18,1.511v1.131h-11.779Z" transform="translate(-28.544 -16.103)"/><path class="cls-17" d="M1193.367,310.252h-15.445a32.331,32.331,0,0,0,1.853,11.321q1.773,4.527,5.2,4.526a7.355,7.355,0,0,0,3.566-1.057,10.669,10.669,0,0,0,3.322-2.942l.529,2.415a10.533,10.533,0,0,1-3.607,3.4,9.665,9.665,0,0,1-4.993,1.358,8.436,8.436,0,0,1-6.011-2.415,15.521,15.521,0,0,1-3.913-6.828A34.725,34.725,0,0,1,1172.5,309.8q0-9.354,2.915-14.45t8.13-5.094a7.085,7.085,0,0,1,5.5,2.452,15.406,15.406,0,0,1,3.261,6.491,35.54,35.54,0,0,1,1.059,9.016Zm-4.687-3.319a38.55,38.55,0,0,0-.488-6.077,15.872,15.872,0,0,0-1.63-5.13,3.382,3.382,0,0,0-2.976-2.075q-2.527,0-3.913,3.736a32.487,32.487,0,0,0-1.671,9.546Z" transform="translate(-28.544 -16.103)"/><path class="cls-17" d="M1224.626,310.252H1209.18a32.352,32.352,0,0,0,1.854,11.321q1.773,4.527,5.2,4.526a7.355,7.355,0,0,0,3.566-1.057,10.669,10.669,0,0,0,3.322-2.942l.529,2.415a10.533,10.533,0,0,1-3.607,3.4,9.665,9.665,0,0,1-4.993,1.358,8.436,8.436,0,0,1-6.011-2.415,15.521,15.521,0,0,1-3.913-6.828,34.725,34.725,0,0,1-1.365-10.226q0-9.354,2.915-14.45t8.13-5.094a7.085,7.085,0,0,1,5.5,2.452,15.406,15.406,0,0,1,3.261,6.491,35.54,35.54,0,0,1,1.059,9.016Zm-4.687-3.319a38.55,38.55,0,0,0-.488-6.077,15.847,15.847,0,0,0-1.631-5.13,3.38,3.38,0,0,0-2.975-2.075q-2.527,0-3.913,3.736a32.487,32.487,0,0,0-1.671,9.546Z" transform="translate(-28.544 -16.103)"/><path class="cls-17" d="M1253.768,318.251q0-5.961,2.282-8.6a7.581,7.581,0,0,1,6.031-2.641h5.462V301.5q0-4.077-1.284-5.963a4.081,4.081,0,0,0-3.566-1.885,7.473,7.473,0,0,0-3.4.9,14.377,14.377,0,0,0-3.24,2.265l-.327-2.869a13.659,13.659,0,0,1,4.036-2.715,11.362,11.362,0,0,1,4.606-.981,7.523,7.523,0,0,1,6.256,2.943,12.393,12.393,0,0,1,2.3,7.848v24.223a22.481,22.481,0,0,1,2.773,1.284v.83l-8.152,1.431v-5.053a11.589,11.589,0,0,1-3.159,4.149,5.947,5.947,0,0,1-3.647,1.358Q1253.768,329.268,1253.768,318.251Zm11.7,5.887a10.4,10.4,0,0,0,2.078-3.849v-9.96h-4.2a3.44,3.44,0,0,0-3.2,2.074,12.693,12.693,0,0,0-1.079,5.774,12.472,12.472,0,0,0,1,5.7,3.018,3.018,0,0,0,2.711,1.848A3.78,3.78,0,0,0,1265.465,324.138Z" transform="translate(-28.544 -16.103)"/><path class="cls-17" d="M1287.759,324.7q-2.406-4.563-2.4-14.15,0-9.2,2.628-14.753t7.357-5.544a5.927,5.927,0,0,1,3.261.941,8.471,8.471,0,0,1,2.689,3.286V279.011a12.581,12.581,0,0,1-2.772-1.434v-.754l8.152-1.51v49.956a19.2,19.2,0,0,1,2.772,1.284v.677l-7.052,1.888q-.2-3.1-.325-6.792a12,12,0,0,1-3,5.17,6.333,6.333,0,0,1-4.464,1.772Q1290.164,329.268,1287.759,324.7Zm12.063-1.585a16.35,16.35,0,0,0,1.467-7.508V298.481q-2.283-4.83-4.971-4.83-2.976,0-4.28,5.13a48.275,48.275,0,0,0-1.305,11.848q0,15.322,5.421,15.32Q1298.355,325.949,1299.822,323.117Z" transform="translate(-28.544 -16.103)"/><path class="cls-17" d="M1358.347,327.383v1.131h-11.535v-1.131c.136-.1.509-.351,1.121-.757a6.031,6.031,0,0,1,1.814-.827V301.423q0-7.771-3.791-7.772a3.455,3.455,0,0,0-2.465,1.358,13.963,13.963,0,0,0-2.343,3.922c.054.907.081,1.585.081,2.038v24.9a8.075,8.075,0,0,1,2.893,1.511v1.131h-10.881v-1.131c.136-.1.509-.351,1.12-.757a6.3,6.3,0,0,1,1.733-.827V301.423q0-4.226-.958-6a2.942,2.942,0,0,0-2.67-1.772,3.608,3.608,0,0,0-2.5,1.321,13.353,13.353,0,0,0-2.426,3.886v27.014a13.837,13.837,0,0,1,3.22,1.511v1.131h-11.82v-1.131a9.876,9.876,0,0,1,3.22-1.584V293.878a16.344,16.344,0,0,1-2.812-1.434v-.757l8.192-1.508v5.207a12.9,12.9,0,0,1,2.893-3.7,5.528,5.528,0,0,1,3.668-1.432,5.848,5.848,0,0,1,4.137,1.622,9.1,9.1,0,0,1,2.467,4.566,14,14,0,0,1,3.057-4.49,5.755,5.755,0,0,1,4.074-1.7,6.2,6.2,0,0,1,5.279,2.829q2.016,2.832,2.017,7.885v24.9A12.866,12.866,0,0,1,1358.347,327.383Z" transform="translate(-28.544 -16.103)"/><path class="cls-17" d="M1368.252,327.383a35.823,35.823,0,0,1,3.218-1.584V294.028a12.743,12.743,0,0,1-2.811-1.358v-.756l8.192-1.508v35.466a21.908,21.908,0,0,1,3.219,1.511v1.131h-11.818Zm3.524-41.43a7.592,7.592,0,0,1-.794-3.7,7.813,7.813,0,0,1,.794-3.733,2.347,2.347,0,0,1,2.059-1.474,2.386,2.386,0,0,1,2.078,1.474,7.634,7.634,0,0,1,.815,3.733,7.419,7.419,0,0,1-.815,3.7,2.389,2.389,0,0,1-2.078,1.434A2.348,2.348,0,0,1,1371.776,285.953Z" transform="translate(-28.544 -16.103)"/><path class="cls-17" d="M1394.354,327.91a9.865,9.865,0,0,1-3.689-3.546l.327-9.282h1.182a30.428,30.428,0,0,1,.408,3.622q.162,2.415.2,4.376a6.526,6.526,0,0,0,2.078,2.075,5.1,5.1,0,0,0,2.77.794,4.412,4.412,0,0,0,3.69-1.851,8.371,8.371,0,0,0,1.4-5.167,6.529,6.529,0,0,0-.652-3.058,7.07,7.07,0,0,0-1.609-2.075,25.089,25.089,0,0,0-2.711-1.962,25.083,25.083,0,0,1-3.566-2.641,10.164,10.164,0,0,1-2.384-3.546,14.541,14.541,0,0,1-.978-5.734q0-4.682,2.364-7.171a7.8,7.8,0,0,1,5.908-2.489,8.77,8.77,0,0,1,7.867,4.3l-.367,7.925h-1.223a25.77,25.77,0,0,1-.386-3.1q-.144-1.884-.143-3.7a5.544,5.544,0,0,0-4.606-2.191,3.968,3.968,0,0,0-3.016,1.207,5.475,5.475,0,0,0-1.14,3.85,6.251,6.251,0,0,0,1.222,4.112,16.815,16.815,0,0,0,3.79,3.132,27.821,27.821,0,0,1,3.628,2.832,10.648,10.648,0,0,1,2.363,3.659,15.319,15.319,0,0,1,.978,5.887q0,5.582-2.4,8.336a7.712,7.712,0,0,1-6.074,2.755A10.406,10.406,0,0,1,1394.354,327.91Z" transform="translate(-28.544 -16.103)"/><path class="cls-17" d="M1422.762,327.91a9.857,9.857,0,0,1-3.689-3.546l.326-9.282h1.183a30.473,30.473,0,0,1,.407,3.622q.162,2.415.2,4.376a6.536,6.536,0,0,0,2.078,2.075,5.1,5.1,0,0,0,2.771.794,4.411,4.411,0,0,0,3.689-1.851,8.365,8.365,0,0,0,1.406-5.167,6.541,6.541,0,0,0-.652-3.058,7.089,7.089,0,0,0-1.61-2.075,25.061,25.061,0,0,0-2.71-1.962,25.1,25.1,0,0,1-3.567-2.641,10.164,10.164,0,0,1-2.384-3.546,14.559,14.559,0,0,1-.978-5.734q0-4.682,2.364-7.171a7.805,7.805,0,0,1,5.909-2.489,8.771,8.771,0,0,1,7.867,4.3l-.368,7.925h-1.222a25.743,25.743,0,0,1-.387-3.1q-.144-1.884-.142-3.7a5.546,5.546,0,0,0-4.606-2.191,3.969,3.969,0,0,0-3.017,1.207,5.475,5.475,0,0,0-1.14,3.85,6.251,6.251,0,0,0,1.223,4.112,16.806,16.806,0,0,0,3.789,3.132,27.821,27.821,0,0,1,3.628,2.832,10.648,10.648,0,0,1,2.363,3.659,15.319,15.319,0,0,1,.978,5.887q0,5.582-2.4,8.336a7.711,7.711,0,0,1-6.073,2.755A10.4,10.4,0,0,1,1422.762,327.91Z" transform="translate(-28.544 -16.103)"/><path class="cls-17" d="M1446.951,327.383q.734-.454,3.219-1.584V294.028a12.722,12.722,0,0,1-2.811-1.358v-.756l8.192-1.508v35.466a21.846,21.846,0,0,1,3.218,1.511v1.131h-11.818Zm3.524-41.43a7.592,7.592,0,0,1-.794-3.7,7.813,7.813,0,0,1,.794-3.733,2.348,2.348,0,0,1,2.059-1.474,2.388,2.388,0,0,1,2.079,1.474,7.645,7.645,0,0,1,.815,3.733,7.429,7.429,0,0,1-.815,3.7,2.39,2.39,0,0,1-2.079,1.434A2.349,2.349,0,0,1,1450.475,285.953Z" transform="translate(-28.544 -16.103)"/><path class="cls-17" d="M1471.833,324.138q-3-5.132-3-14.339t3-14.376q2.994-5.166,8.538-5.168,5.5,0,8.5,5.168t3,14.376q0,9.209-3,14.339t-8.5,5.13A9.4,9.4,0,0,1,1471.833,324.138Zm12.96-2.492q1.649-4.3,1.651-11.847t-1.651-11.848q-1.65-4.3-4.422-4.3-2.812,0-4.463,4.3t-1.651,11.848q0,7.547,1.651,11.847t4.463,4.3Q1483.142,325.949,1484.793,321.646Z" transform="translate(-28.544 -16.103)"/><path class="cls-17" d="M1528.707,327.383v1.131h-11.494v-1.131a14.27,14.27,0,0,1,2.935-1.584V301.423q0-7.771-3.791-7.772a4.529,4.529,0,0,0-2.872,1.321,12.183,12.183,0,0,0-2.834,4.113v26.787a13.8,13.8,0,0,1,3.22,1.511v1.131h-11.819v-1.131a9.857,9.857,0,0,1,3.22-1.584V293.878a16.357,16.357,0,0,1-2.813-1.434v-.757l8.192-1.508v5.433a13.127,13.127,0,0,1,3.384-3.886,6.854,6.854,0,0,1,4.2-1.471,6.2,6.2,0,0,1,5.279,2.829q2.016,2.832,2.017,7.885v24.9A9.438,9.438,0,0,1,1528.707,327.383Z" transform="translate(-28.544 -16.103)"/><path class="cls-17" d="M1542.83,327.91a9.857,9.857,0,0,1-3.689-3.546l.327-9.282h1.182a30.261,30.261,0,0,1,.407,3.622q.162,2.415.2,4.376a6.539,6.539,0,0,0,2.079,2.075,5.1,5.1,0,0,0,2.77.794,4.41,4.41,0,0,0,3.689-1.851,8.365,8.365,0,0,0,1.406-5.167,6.529,6.529,0,0,0-.652-3.058,7.086,7.086,0,0,0-1.609-2.075,25.191,25.191,0,0,0-2.711-1.962,25.026,25.026,0,0,1-3.566-2.641,10.164,10.164,0,0,1-2.384-3.546,14.54,14.54,0,0,1-.979-5.734q0-4.682,2.365-7.171a7.8,7.8,0,0,1,5.908-2.489,8.771,8.771,0,0,1,7.867,4.3l-.367,7.925h-1.223a25.949,25.949,0,0,1-.387-3.1q-.142-1.884-.142-3.7a5.546,5.546,0,0,0-4.606-2.191,3.967,3.967,0,0,0-3.016,1.207,5.47,5.47,0,0,0-1.141,3.85,6.251,6.251,0,0,0,1.223,4.112,16.792,16.792,0,0,0,3.79,3.132,27.8,27.8,0,0,1,3.627,2.832,10.648,10.648,0,0,1,2.363,3.659,15.3,15.3,0,0,1,.979,5.887q0,5.582-2.4,8.336a7.71,7.71,0,0,1-6.073,2.755A10.4,10.4,0,0,1,1542.83,327.91Z" transform="translate(-28.544 -16.103)"/><path class="cls-18" d="M1525.151,364.015c-8.926-4.955-18.787-8.048-28.768-10.194a206.215,206.215,0,0,0-30.461-3.918,364.459,364.459,0,0,0-61.752,2.043,446.529,446.529,0,0,0-61.426,11.148,308.139,308.139,0,0,0-30.214,9.324c-9.943,3.726-19.844,7.949-29.028,14.323,8.973-6.886,18.784-11.693,28.638-15.988a316.45,316.45,0,0,1,30.037-11.061,455.79,455.79,0,0,1,61.43-14.672,370.9,370.9,0,0,1,62.508-5.562,211.145,211.145,0,0,1,31.562,2.292c10.532,1.682,21.114,4.289,31.5,9.374,2.748,1.346,4.145,5.359,3.119,8.965s-4.086,5.438-6.834,4.092c-.066-.032-.131-.065-.194-.1Z" transform="translate(-28.544 -16.103)"/><path class="cls-16" d="M593.367,126.057a78.361,78.361,0,0,0,.34,8.164A10.508,10.508,0,0,0,595.183,139a5.929,5.929,0,0,0,3.215,2.323,21.131,21.131,0,0,0,5.487.8v5.045H577.1V142.12a13.176,13.176,0,0,0,4.275-.8,5.049,5.049,0,0,0,2.535-2.256,11.7,11.7,0,0,0,1.211-4.514q.3-2.919.3-7.567V65.124q0-4.645-.264-7.5a13.588,13.588,0,0,0-1.06-4.514,4.281,4.281,0,0,0-2.307-2.257,15.617,15.617,0,0,0-3.936-.863V44.945h43.737l.832,25.356h-2.648a53.306,53.306,0,0,0-1.438-9.359,15.01,15.01,0,0,0-2.761-5.775,9.494,9.494,0,0,0-4.5-2.986,22.883,22.883,0,0,0-6.81-.864h-9.61q-1.287,0-1.286,2.257V93.666a23.371,23.371,0,0,0,6.242-.73,8.973,8.973,0,0,0,4.313-2.589,12.35,12.35,0,0,0,2.611-5.045,36.867,36.867,0,0,0,1.135-8.231h2.648v38.9h-2.648a51.087,51.087,0,0,0-1.21-8.364,12.324,12.324,0,0,0-2.46-5.177,8.98,8.98,0,0,0-4.2-2.655,22.076,22.076,0,0,0-6.431-.8Z" transform="translate(-28.544 -16.103)"/><path class="cls-16" d="M660.182,43.618a20.918,20.918,0,0,1,12.409,4.115,36.329,36.329,0,0,1,9.989,11.284,63.072,63.072,0,0,1,6.659,16.86,86.389,86.389,0,0,1,2.421,20.975A79.75,79.75,0,0,1,689.2,117.03a61.11,61.11,0,0,1-6.7,16.4,36.216,36.216,0,0,1-9.988,11.018,20.81,20.81,0,0,1-24.668,0,36.178,36.178,0,0,1-9.988-11.018,61.045,61.045,0,0,1-6.7-16.4A79.66,79.66,0,0,1,628.7,96.852a86.339,86.339,0,0,1,2.421-20.975,62.973,62.973,0,0,1,6.659-16.86,36.3,36.3,0,0,1,9.988-11.284A20.915,20.915,0,0,1,660.182,43.618Zm0,97.573a14.327,14.327,0,0,0,8.966-3.054,24.579,24.579,0,0,0,6.811-8.761A52.912,52.912,0,0,0,680.31,115.5a100.642,100.642,0,0,0,1.513-18.253,110.849,110.849,0,0,0-1.513-19.183A59.626,59.626,0,0,0,676,63.464a25.53,25.53,0,0,0-6.81-9.292,14.09,14.09,0,0,0-18.01,0,25.507,25.507,0,0,0-6.81,9.292,59.452,59.452,0,0,0-4.313,14.6,110.651,110.651,0,0,0-1.513,19.183,100.463,100.463,0,0,0,1.513,18.253,53.836,53.836,0,0,0,4.313,13.873,24.025,24.025,0,0,0,6.81,8.761A14.488,14.488,0,0,0,660.182,141.191Z" transform="translate(-28.544 -16.103)"/><path class="cls-16" d="M744.781,70.567q0,10.622-3.633,17.656a18.4,18.4,0,0,1-11.577,9.425l16.723,35.312a16.987,16.987,0,0,0,4.5,6.306,16.356,16.356,0,0,0,5.865,2.854v5.045h-14.6L723.518,105.48a24.977,24.977,0,0,0-1.854-3.584,8.437,8.437,0,0,0-1.816-2.058,4.779,4.779,0,0,0-2.195-.929,19.263,19.263,0,0,0-2.988-.2v27.612a76.756,76.756,0,0,0,.34,8.032,11.366,11.366,0,0,0,1.438,4.845,5.362,5.362,0,0,0,3.178,2.323,20.448,20.448,0,0,0,5.486.6v5.045H698.4V142.12a13.176,13.176,0,0,0,4.275-.8,5.053,5.053,0,0,0,2.535-2.256,11.714,11.714,0,0,0,1.211-4.514q.3-2.919.3-7.567V65.124q0-4.645-.264-7.5a13.588,13.588,0,0,0-1.06-4.514,4.28,4.28,0,0,0-2.308-2.257,15.6,15.6,0,0,0-3.935-.863V44.945h23.761q10.442,0,16.155,6.771T744.781,70.567ZM714.665,92.072h5.372q7.566,0,11.237-4.845t3.67-16q0-10.752-2.913-15.4t-9.118-4.646h-6.962q-1.287,0-1.286,2.257Z" transform="translate(-28.544 -16.103)"/><path class="cls-16" d="M812.278,70.3h-3.1a57.04,57.04,0,0,0-1.06-9.558,16.507,16.507,0,0,0-2.384-6.04,8.607,8.607,0,0,0-3.9-3.12,15.233,15.233,0,0,0-5.6-.929,40.412,40.412,0,0,0-4.5.2,6.876,6.876,0,0,0-2.611.73,2.514,2.514,0,0,0-1.173,1.261,5.767,5.767,0,0,0-.264,1.925v71.023a67.092,67.092,0,0,0,.34,7.3,13.947,13.947,0,0,0,1.362,4.978,6.8,6.8,0,0,0,2.951,2.921,12.314,12.314,0,0,0,5.108,1.128v5.045h-28.6V142.12a12.6,12.6,0,0,0,5.145-1.128,6.756,6.756,0,0,0,2.99-2.921,13.969,13.969,0,0,0,1.361-4.978,67.066,67.066,0,0,0,.341-7.3V54.769a5.79,5.79,0,0,0-.265-1.925,2.618,2.618,0,0,0-1.059-1.261,5.381,5.381,0,0,0-2.232-.73,29.454,29.454,0,0,0-3.859-.2,35.48,35.48,0,0,0-5.487.4,7.6,7.6,0,0,0-4.388,2.323,13.962,13.962,0,0,0-2.989,5.908A43.683,43.683,0,0,0,757.191,70.3h-2.8V44.945h57.13Z" transform="translate(-28.544 -16.103)"/><path class="cls-16" d="M868.2,106.011a128.06,128.06,0,0,1-1.173,18.453,45.162,45.162,0,0,1-3.783,13.275,19.643,19.643,0,0,1-6.772,8.032,18.008,18.008,0,0,1-10.065,2.721,23.062,23.062,0,0,1-9.76-1.925,16.319,16.319,0,0,1-6.962-6.372,33.53,33.53,0,0,1-4.161-11.616,96.493,96.493,0,0,1-1.363-17.656V75.877q0-9.823-.264-15.134t-1.552-7.832a4.7,4.7,0,0,0-2.459-2.324,11.726,11.726,0,0,0-4.124-.6V44.945h25.8V49.99a13.471,13.471,0,0,0-4.162.531,4.359,4.359,0,0,0-2.5,2.655,23.529,23.529,0,0,0-1.362,7.634q-.3,5.245-.3,15.067v36.108a80.894,80.894,0,0,0,.8,12.015,30.1,30.1,0,0,0,2.611,8.894,13.386,13.386,0,0,0,4.729,5.509,13.007,13.007,0,0,0,7.15,1.858q7.566,0,11.351-7.367t3.783-21.705V79.195q0-11.812-.53-17.921t-1.967-8.629a4.673,4.673,0,0,0-2.648-2.19,14.263,14.263,0,0,0-3.935-.465V44.945H876.52V49.99a10.178,10.178,0,0,0-3.973.664,4.949,4.949,0,0,0-2.459,2.92,29.738,29.738,0,0,0-1.514,8.7q-.379,5.907-.378,16.925Z" transform="translate(-28.544 -16.103)"/><path class="cls-16" d="M931.228,148.492l-35.943-83.1h-.3v56.685q0,6.641.265,10.488a22.064,22.064,0,0,0,1.06,5.974,4.592,4.592,0,0,0,2.27,2.787,11.022,11.022,0,0,0,3.9.8v5.045H882.119V142.12a12.006,12.006,0,0,0,4.276-.863,5.146,5.146,0,0,0,2.534-2.721,17.545,17.545,0,0,0,1.211-5.642q.3-3.651.3-9.89v-53.9q0-5.575-.264-9.226a21.489,21.489,0,0,0-1.06-5.775,5.464,5.464,0,0,0-2.307-2.986,10.224,10.224,0,0,0-3.935-1.129V44.945h14.982l33.067,77.4h.3v-52.3q0-6.5-.265-10.421a22.288,22.288,0,0,0-1.06-6.041,4.6,4.6,0,0,0-2.269-2.787,11.145,11.145,0,0,0-3.9-.8V44.945h20.356V49.99a12.1,12.1,0,0,0-4.276.863,5.148,5.148,0,0,0-2.535,2.721,17.72,17.72,0,0,0-1.211,5.709q-.3,3.717-.3,9.823v79.386Z" transform="translate(-28.544 -16.103)"/><path class="cls-16" d="M966.64,91.01a23.2,23.2,0,0,0,6.847-.863,9.374,9.374,0,0,0,4.389-2.721,11.181,11.181,0,0,0,2.347-4.779,29.208,29.208,0,0,0,.718-6.9h2.649v36.241h-2.649a32.507,32.507,0,0,0-.643-6.9,11.056,11.056,0,0,0-2.271-4.845,10.088,10.088,0,0,0-4.388-2.921,20.906,20.906,0,0,0-7-1v30a35.781,35.781,0,0,0,.605,7.236,10.656,10.656,0,0,0,2.081,4.646,7.824,7.824,0,0,0,3.9,2.522,20.965,20.965,0,0,0,5.977.73,20.413,20.413,0,0,0,6.811-1,10.278,10.278,0,0,0,4.691-3.385,18.269,18.269,0,0,0,3.027-6.3,66.576,66.576,0,0,0,1.892-9.758H998.5l-1.135,26.153h-46.99V142.12a13.176,13.176,0,0,0,4.275-.8,5.053,5.053,0,0,0,2.535-2.256,11.732,11.732,0,0,0,1.211-4.514q.3-2.919.3-7.567V65.124q0-4.645-.264-7.5a13.588,13.588,0,0,0-1.06-4.514,4.28,4.28,0,0,0-2.308-2.257,15.609,15.609,0,0,0-3.934-.863V44.945h43.736l.681,23.365H992.9a43.667,43.667,0,0,0-1.475-8.695,14.074,14.074,0,0,0-2.8-5.377,9.446,9.446,0,0,0-4.5-2.788,23.694,23.694,0,0,0-6.583-.8h-9.61q-1.288,0-1.286,2.257Z" transform="translate(-28.544 -16.103)"/><path class="cls-16" d="M1065.007,91.01a23.2,23.2,0,0,0,6.847-.863,9.374,9.374,0,0,0,4.389-2.721,11.181,11.181,0,0,0,2.347-4.779,29.2,29.2,0,0,0,.719-6.9h2.648v36.241h-2.648a32.5,32.5,0,0,0-.644-6.9,11.066,11.066,0,0,0-2.27-4.845,10.086,10.086,0,0,0-4.389-2.921,20.906,20.906,0,0,0-7-1v30a35.781,35.781,0,0,0,.605,7.236,10.667,10.667,0,0,0,2.081,4.646,7.829,7.829,0,0,0,3.9,2.522,20.965,20.965,0,0,0,5.977.73,20.413,20.413,0,0,0,6.811-1,10.273,10.273,0,0,0,4.691-3.385,18.287,18.287,0,0,0,3.028-6.3,66.59,66.59,0,0,0,1.891-9.758h2.875l-1.134,26.153h-46.991V142.12a13.188,13.188,0,0,0,4.276-.8,5.05,5.05,0,0,0,2.534-2.256,11.714,11.714,0,0,0,1.211-4.514q.3-2.919.3-7.567V65.124q0-4.645-.265-7.5a13.564,13.564,0,0,0-1.06-4.514,4.281,4.281,0,0,0-2.307-2.257,15.628,15.628,0,0,0-3.935-.863V44.945h43.736l.681,23.365h-2.648a43.731,43.731,0,0,0-1.476-8.695,14.074,14.074,0,0,0-2.8-5.377,9.446,9.446,0,0,0-4.5-2.788,23.689,23.689,0,0,0-6.583-.8h-9.61q-1.287,0-1.286,2.257Z" transform="translate(-28.544 -16.103)"/><path class="cls-16" d="M1103.144,147.165V142.12a17.477,17.477,0,0,0,4.654-.73,4.967,4.967,0,0,0,2.762-2.257,11.627,11.627,0,0,0,1.324-4.513,67.757,67.757,0,0,0,.341-7.634V65.124q0-4.645-.266-7.5a13.566,13.566,0,0,0-1.059-4.514,4.283,4.283,0,0,0-2.308-2.257,15.618,15.618,0,0,0-3.935-.863V44.945h26.56a21.772,21.772,0,0,1,12.6,3.983,34.617,34.617,0,0,1,9.989,11.018,60.149,60.149,0,0,1,6.546,16.727,89.74,89.74,0,0,1,2.345,21.108,85.188,85.188,0,0,1-2.194,19.979,54.185,54.185,0,0,1-6.167,15.6,31.672,31.672,0,0,1-9.5,10.156,21.5,21.5,0,0,1-12.107,3.651Zm18.312-95.715q-1.287,0-1.287,2.257v71.819q0,15.134,11.275,15.134,10.365,0,15.89-10.82t5.524-31.794a114.56,114.56,0,0,0-1.513-19.647,57.277,57.277,0,0,0-4.351-14.6,25.291,25.291,0,0,0-6.848-9.16,14.216,14.216,0,0,0-9.081-3.186Z" transform="translate(-28.544 -16.103)"/><path class="cls-16" d="M1220.884,106.011a128.2,128.2,0,0,1-1.173,18.453,45.162,45.162,0,0,1-3.783,13.275,19.638,19.638,0,0,1-6.773,8.032,18,18,0,0,1-10.064,2.721,23.066,23.066,0,0,1-9.761-1.925,16.324,16.324,0,0,1-6.962-6.372,33.55,33.55,0,0,1-4.161-11.616,96.592,96.592,0,0,1-1.362-17.656V75.877q0-9.823-.265-15.134t-1.552-7.832a4.693,4.693,0,0,0-2.459-2.324,11.726,11.726,0,0,0-4.124-.6V44.945h25.8V49.99a13.464,13.464,0,0,0-4.161.531,4.353,4.353,0,0,0-2.5,2.655,23.529,23.529,0,0,0-1.362,7.634q-.3,5.245-.3,15.067v36.108a80.76,80.76,0,0,0,.8,12.015,30.074,30.074,0,0,0,2.61,8.894,13.381,13.381,0,0,0,4.73,5.509,13.007,13.007,0,0,0,7.15,1.858q7.566,0,11.351-7.367t3.783-21.705V79.195q0-11.812-.531-17.921t-1.966-8.629a4.672,4.672,0,0,0-2.649-2.19,14.255,14.255,0,0,0-3.934-.465V44.945h21.943V49.99a10.185,10.185,0,0,0-3.973.664,4.952,4.952,0,0,0-2.459,2.92,29.778,29.778,0,0,0-1.513,8.7q-.379,5.907-.378,16.925Z" transform="translate(-28.544 -16.103)"/><path class="cls-16" d="M1282.781,44.945h2.119l.681,30.534h-2.8q-1.665-11.681-6.431-18.32t-11.5-6.638a12.165,12.165,0,0,0-8.248,3.186,24.533,24.533,0,0,0-6.129,9.16,62.882,62.882,0,0,0-3.822,14.6,129.7,129.7,0,0,0-1.324,19.514q0,21.375,5.071,32.856t14.679,11.483q14.6,0,18.766-27.214h3.1v33.056H1284.3l-1.741-10.488q-7.944,11.817-19.22,11.815a19.953,19.953,0,0,1-11.615-3.584,29.572,29.572,0,0,1-8.853-10.156,57.146,57.146,0,0,1-5.676-16,101.108,101.108,0,0,1-2-20.975,106.045,106.045,0,0,1,2.119-22.037,65.161,65.161,0,0,1,5.939-17.125,32.245,32.245,0,0,1,9.156-11.085,19.449,19.449,0,0,1,11.767-3.916,17.171,17.171,0,0,1,8.55,2.257,37.883,37.883,0,0,1,8.7,7.3Z" transform="translate(-28.544 -16.103)"/><path class="cls-16" d="M1328.257,110.127h-20.2q-1.289,5.445-2.2,9.624t-1.475,7.235q-.567,3.055-.794,5.178a34.039,34.039,0,0,0-.228,3.451q0,3.718,1.363,5.111t4.54,1.394v5.045h-18.388V142.12a12.11,12.11,0,0,0,2.989-1.062,6.965,6.965,0,0,0,2.195-1.859,11.535,11.535,0,0,0,1.664-3.119,42.537,42.537,0,0,0,1.4-4.713L1318.8,44.945h3.254l17.177,74.873q1.738,7.436,3.026,11.881a36.05,36.05,0,0,0,2.5,6.7,6.4,6.4,0,0,0,2.61,2.92,7.771,7.771,0,0,0,3.367.664v5.178h-24.667v-5.178q4.01,0,5.524-1.327t1.514-4.381q0-1.326-.077-2.456t-.264-2.456q-.19-1.326-.53-2.987t-.871-3.916Zm-18.691-6.638h17.252l-8.4-39.162Z" transform="translate(-28.544 -16.103)"/><path class="cls-16" d="M1403.7,70.3h-3.1a57.04,57.04,0,0,0-1.06-9.558,16.525,16.525,0,0,0-2.383-6.04,8.61,8.61,0,0,0-3.9-3.12,15.229,15.229,0,0,0-5.6-.929,40.424,40.424,0,0,0-4.5.2,6.87,6.87,0,0,0-2.61.73,2.514,2.514,0,0,0-1.173,1.261,5.736,5.736,0,0,0-.266,1.925v71.023a67.32,67.32,0,0,0,.341,7.3,13.946,13.946,0,0,0,1.363,4.978,6.791,6.791,0,0,0,2.951,2.921,12.309,12.309,0,0,0,5.107,1.128v5.045h-28.6V142.12a12.606,12.606,0,0,0,5.145-1.128,6.746,6.746,0,0,0,2.988-2.921,13.925,13.925,0,0,0,1.363-4.978,67.066,67.066,0,0,0,.341-7.3V54.769a5.79,5.79,0,0,0-.265-1.925,2.62,2.62,0,0,0-1.06-1.261,5.376,5.376,0,0,0-2.232-.73,29.443,29.443,0,0,0-3.859-.2,35.476,35.476,0,0,0-5.486.4,7.6,7.6,0,0,0-4.388,2.323,13.963,13.963,0,0,0-2.99,5.908A43.683,43.683,0,0,0,1348.61,70.3h-2.8V44.945h57.129Z" transform="translate(-28.544 -16.103)"/><path class="cls-16" d="M1424.657,122.074q0,6.641.3,10.488a20.559,20.559,0,0,0,1.173,5.974,4.71,4.71,0,0,0,2.5,2.787,13.165,13.165,0,0,0,4.275.8v5.045h-24.516V142.12a12,12,0,0,0,4.275-.863,5.143,5.143,0,0,0,2.534-2.721,17.518,17.518,0,0,0,1.211-5.642q.3-3.651.3-9.89v-53.9q0-5.575-.265-9.226a21.454,21.454,0,0,0-1.059-5.775,5.466,5.466,0,0,0-2.308-2.986,10.219,10.219,0,0,0-3.934-1.129V44.945h23V49.99a8.1,8.1,0,0,0-3.9,1.062,5.885,5.885,0,0,0-2.271,3.12,23.046,23.046,0,0,0-1.059,6.04q-.266,3.852-.265,9.824Z" transform="translate(-28.544 -16.103)"/><path class="cls-16" d="M1471.117,43.618a20.921,20.921,0,0,1,12.41,4.115,36.354,36.354,0,0,1,9.989,11.284,63.038,63.038,0,0,1,6.658,16.86,86.388,86.388,0,0,1,2.422,20.975,79.75,79.75,0,0,1-2.459,20.178,61.11,61.11,0,0,1-6.7,16.4,36.2,36.2,0,0,1-9.988,11.018,20.81,20.81,0,0,1-24.668,0,36.191,36.191,0,0,1-9.988-11.018,61.044,61.044,0,0,1-6.7-16.4,79.66,79.66,0,0,1-2.459-20.178,86.29,86.29,0,0,1,2.421-20.975,62.973,62.973,0,0,1,6.659-16.86,36.289,36.289,0,0,1,9.988-11.284A20.914,20.914,0,0,1,1471.117,43.618Zm0,97.573a14.327,14.327,0,0,0,8.967-3.054,24.59,24.59,0,0,0,6.811-8.761,52.951,52.951,0,0,0,4.35-13.873,100.548,100.548,0,0,0,1.514-18.253,110.744,110.744,0,0,0-1.514-19.183,59.628,59.628,0,0,0-4.312-14.6,25.543,25.543,0,0,0-6.811-9.292,14.089,14.089,0,0,0-18.009,0,25.484,25.484,0,0,0-6.81,9.292,59.494,59.494,0,0,0-4.314,14.6,110.657,110.657,0,0,0-1.512,19.183,100.468,100.468,0,0,0,1.512,18.253,53.873,53.873,0,0,0,4.314,13.873,24,24,0,0,0,6.81,8.761A14.483,14.483,0,0,0,1471.117,141.191Z" transform="translate(-28.544 -16.103)"/><path class="cls-16" d="M1558.44,148.492l-35.942-83.1h-.3v56.685q0,6.641.265,10.488a22.064,22.064,0,0,0,1.06,5.974,4.592,4.592,0,0,0,2.27,2.787,11.017,11.017,0,0,0,3.9.8v5.045h-20.355V142.12a12,12,0,0,0,4.275-.863,5.148,5.148,0,0,0,2.535-2.721,17.572,17.572,0,0,0,1.211-5.642q.3-3.651.3-9.89v-53.9q0-5.575-.264-9.226a21.489,21.489,0,0,0-1.06-5.775,5.461,5.461,0,0,0-2.308-2.986,10.214,10.214,0,0,0-3.934-1.129V44.945h14.982l33.067,77.4h.3v-52.3q0-6.5-.264-10.421a22.327,22.327,0,0,0-1.06-6.041,4.6,4.6,0,0,0-2.269-2.787,11.15,11.15,0,0,0-3.9-.8V44.945h20.356V49.99a12.1,12.1,0,0,0-4.276.863,5.148,5.148,0,0,0-2.535,2.721,17.72,17.72,0,0,0-1.211,5.709q-.3,3.717-.3,9.823v79.386Z" transform="translate(-28.544 -16.103)"/></svg>