<svg id="Layer_1" data-name="Layer 1" xmlns="http://www.w3.org/2000/svg" xmlns:xlink="http://www.w3.org/1999/xlink" viewBox="0 0 994.207 773.938"><defs><style>.cls-1{fill:#f9a61a;}.cls-2{fill:none;stroke:#f9a61a;stroke-linecap:round;stroke-miterlimit:10;stroke-width:2.164px;}.cls-3{fill:#1a1c4f;}.cls-4{fill:url(#linear-gradient);}.cls-5{fill:url(#linear-gradient-2);}.cls-6{fill:url(#linear-gradient-3);}.cls-7{fill:url(#linear-gradient-4);}.cls-8{fill:url(#linear-gradient-5);}.cls-9{fill:url(#linear-gradient-6);}.cls-10{fill:url(#linear-gradient-7);}.cls-11{fill:url(#linear-gradient-8);}.cls-12{fill:url(#linear-gradient-9);}.cls-13{fill:url(#linear-gradient-10);}.cls-14{fill:url(#linear-gradient-11);}.cls-15{fill:url(#linear-gradient-12);}.cls-16{fill:#1f1c4e;}.cls-17{fill:#f8a51b;}</style><linearGradient id="linear-gradient" x1="439.857" y1="201.999" x2="407.278" y2="160.951" gradientUnits="userSpaceOnUse"><stop offset="0" stop-color="#019147"/><stop offset="1" stop-color="#3bb44a"/></linearGradient><linearGradient id="linear-gradient-2" x1="420.166" y1="141.222" x2="406.767" y2="106.194" xlink:href="#linear-gradient"/><linearGradient id="linear-gradient-3" x1="453.17" y1="235.539" x2="407.261" y2="220.129" xlink:href="#linear-gradient"/><linearGradient id="linear-gradient-4" x1="438.384" y1="88.842" x2="447.993" y2="71.868" xlink:href="#linear-gradient"/><linearGradient id="linear-gradient-5" x1="427.284" y1="118.705" x2="437.941" y2="102.541" xlink:href="#linear-gradient"/><linearGradient id="linear-gradient-6" x1="468.555" y1="57.357" x2="488.219" y2="32.561" xlink:href="#linear-gradient"/><linearGradient id="linear-gradient-7" x1="3524.695" y1="201.999" x2="3492.116" y2="160.951" gradientTransform="matrix(-1, 0, 0, 1, 4360.232, 0)" xlink:href="#linear-gradient"/><linearGradient id="linear-gradient-8" x1="3505.004" y1="141.222" x2="3491.605" y2="106.194" gradientTransform="matrix(-1, 0, 0, 1, 4360.232, 0)" xlink:href="#linear-gradient"/><linearGradient id="linear-gradient-9" x1="3538.008" y1="235.539" x2="3492.099" y2="220.13" gradientTransform="matrix(-1, 0, 0, 1, 4360.232, 0)" xlink:href="#linear-gradient"/><linearGradient id="linear-gradient-10" x1="3523.222" y1="88.842" x2="3532.831" y2="71.868" gradientTransform="matrix(-1, 0, 0, 1, 4360.232, 0)" xlink:href="#linear-gradient"/><linearGradient id="linear-gradient-11" x1="3512.122" y1="118.705" x2="3522.779" y2="102.541" gradientTransform="matrix(-1, 0, 0, 1, 4360.232, 0)" xlink:href="#linear-gradient"/><linearGradient id="linear-gradient-12" x1="3553.393" y1="57.357" x2="3573.057" y2="32.561" gradientTransform="matrix(-1, 0, 0, 1, 4360.232, 0)" xlink:href="#linear-gradient"/></defs><path class="cls-1" d="M750.4,281.281c-21.2-37.468-62.841-62.95-110.743-62.95-47.856,0-89.463,25.43-110.687,62.854a114.911,114.911,0,0,0-8.872,19.707c88.925,23,118.015,72.651,119.505,75.291v.009c.009.008.009.008.009.017a.28.28,0,0,1,.037.078v.009h.017v-.009c.439-.8,28.9-51.954,119.55-75.387h.01A114.9,114.9,0,0,0,750.4,281.281ZM621.213,258.005,657,257.926v10.6l-35.787.07Zm18.492,117.24,2.449-53.379a7.95,7.95,0,0,0,5.1-7.33,8.366,8.366,0,0,0-16.711,0,7.951,7.951,0,0,0,5.29,7.391l3.673,52.918a.032.032,0,0,0-.009-.026c-1.855-17.8-36.061-58.12-36.061-58.12,15.412-12.854,17.733-44.156,17.733-44.156l19.963-.138,15.7.138s2.329,31.3,17.743,44.156c0,0-33.568,41-34.856,58.555Z" transform="translate(-141.815 -17.725)"/><line class="cls-2" x1="391.962" y1="249.708" x2="375.665" y2="238.581"/><path class="cls-2" d="M517.479,256.306" transform="translate(-141.815 -17.725)"/><path class="cls-2" d="M533.777,267.433" transform="translate(-141.815 -17.725)"/><line class="cls-2" x1="401.983" y1="237.031" x2="377.333" y2="215.634"/><line class="cls-2" x1="414.112" y1="225.265" x2="402.639" y2="209.616"/><line class="cls-2" x1="428.9" y1="214.736" x2="413.7" y2="186.485"/><line class="cls-2" x1="444.597" y1="206.261" x2="439.62" y2="187.783"/><line class="cls-2" x1="463.786" y1="200.359" x2="456.569" y2="169.378"/><line class="cls-2" x1="479.592" y1="196.497" x2="477.237" y2="177.554"/><line class="cls-2" x1="496.817" y1="195.522" x2="497.461" y2="163.796"/><line class="cls-2" x1="613.263" y1="265.246" x2="644.344" y2="253.674"/><line class="cls-2" x1="604.646" y1="250.827" x2="621.258" y2="240.129"/><line class="cls-2" x1="594.209" y1="237.893" x2="619.466" y2="217.147"/><line class="cls-2" x1="582.424" y1="226.563" x2="594.343" y2="211.219"/><line class="cls-2" x1="567.945" y1="215.653" x2="583.954" y2="187.808"/><line class="cls-2" x1="552.498" y1="207.519" x2="558.006" y2="189.178"/><line class="cls-2" x1="533.486" y1="200.372" x2="541.594" y2="169.59"/><line class="cls-2" x1="517.797" y1="196.847" x2="520.698" y2="177.973"/><path class="cls-2" d="M517.479,253.967" transform="translate(-141.815 -17.725)"/><path class="cls-2" d="M533.777,265.094" transform="translate(-141.815 -17.725)"/><path class="cls-2" d="M517.479,253.967" transform="translate(-141.815 -17.725)"/><path class="cls-2" d="M533.777,265.094" transform="translate(-141.815 -17.725)"/><line class="cls-2" x1="613.263" y1="262.907" x2="644.344" y2="251.335"/><path class="cls-3" d="M851.463,308.716a345.386,345.386,0,0,0-53.348-.121c-81.341,6.27-130.705,41.549-152.752,61.855a1.786,1.786,0,0,0-.228.217c-.32.3-.63.582-.941.877-.758.721-1.772,1.685-2.595,2.476-.319.3-.621.6-.923.894v.018c-.191.182-.374.364-.557.547-.1.1-.2.2-.274.269a.512.512,0,0,1-.1.1,1.012,1.012,0,0,0-.1-.105c-.274-.278-.557-.564-.859-.851-1.3-1.294-2.75-2.692-4.358-4.177a.637.637,0,0,1-.082-.07c-21.891-20.254-71.355-55.828-153.071-62.142a344.511,344.511,0,0,0-53.366.1l19.232-48.654a349.053,349.053,0,0,1,45.079,7.556,286.669,286.669,0,0,1,36.536,11.256c71.666,27.558,101.369,74.736,110.971,94.2,9.658-19.541,39.4-66.615,110.962-94.121A286.919,286.919,0,0,1,787.206,267.6a345.973,345.973,0,0,1,45.025-7.539Z" transform="translate(-141.815 -17.725)"/><path class="cls-3" d="M906,324.292V390a982.7,982.7,0,0,0-114.025-20.277c-52.88-6.066-112.214-7.5-149.844,8.157-.3.11-1.983.834-2.343,1-.072-.027-2.458-1.066-2.529-1.093-37.63-15.672-96.993-14.224-149.887-8.171A984.061,984.061,0,0,0,373.39,389.9V324.2a409.724,409.724,0,0,1,48.87-8.977,341.821,341.821,0,0,1,58.572-2.214c82.432,4.113,132.682,39.283,153.509,57.633a.394.394,0,0,0,.086.068q2.415,2.234,4.355,4.181c.3.287.59.574.863.847.028.041.071.069.1.11a.393.393,0,0,0,.1-.11c.273-.259.546-.533.833-.806v-.013q2.005-1.989,4.456-4.25a1.7,1.7,0,0,1,.23-.218c21.014-18.392,71.178-53.247,153.207-57.346a341.553,341.553,0,0,1,58.558,2.213A415.618,415.618,0,0,1,906,324.292Z" transform="translate(-141.815 -17.725)"/><path class="cls-3" d="M656.212,77.091V99.809c7.735-7.293,13.186-2.956,19.058,3.3V80.074l23.7,8.657q.251-.526.5-1.052c-6.5-3-12.87-6.315-19.555-8.888-3.564-1.372-4.723-3.1-4.557-6.6.283-5.953.078-11.928.078-18.721L763.6,88.824c-2.909,1.574-4.358,2.543-5.952,3.19-13.5,5.478-26.985,11-40.58,16.257-3.077,1.191-4.207,2.669-4.161,5.835.184,12.491.108,24.986.062,37.479-.02,5.725-1.771,7.027-7.57,6.226-33.72-4.66-67.548-6.689-101.561-3.411-9.543.92-19.068,2.012-28.6,3.074-6.41.715-7.927-.46-7.943-6.591q-.054-20.988-.011-41.977c0-8.2,3.566-14.047,11.42-18.11,22.635-11.71,46.8-16.1,72.306-14.741A39.694,39.694,0,0,1,656.212,77.091Z" transform="translate(-141.815 -17.725)"/><path class="cls-3" d="M560.3,107.024c-14.141-5.724-27.368-10.883-40.354-16.54-1.993-.868-2.893-4.025-4.255-6.149-.157-.245-.035-.655-.032-.988.127-14.931-2.137-12.75,12.887-18.838,34.892-14.142,69.764-28.331,104.805-42.132a18.881,18.881,0,0,1,12.455-.277C683.17,36.7,726.3,53.92,763.52,68.84c.643.258-.1,5.79-.1,5.79s-9.863-3.561-11.8-4.337Q699.912,49.545,648.2,28.8c-2.208-.886-4.48-1.627-6.683-2.421-3.814,7.728-1.931,12.6,5.706,15.7,8.955,3.628,8.953,3.628,8.948,13.216,0,5.31,0,10.62,0,16.305-5.588-.37-10.749-.731-15.912-1.051-22.558-1.4-43.7,3.253-63.82,12.959C566.467,88.319,559.409,94.634,560.3,107.024Z" transform="translate(-141.815 -17.725)"/><path class="cls-4" d="M472.482,223.738c-10.833-4.536-21.689-9.021-32.488-13.629-4.64-1.98-9.267-4.032-13.708-6.379-6.408-3.385-8.6-9.546-5.831-15.443,3.57-7.615,12.409-9.155,18.724-2.755,8.058,8.166,15.628,16.77,23.332,25.247,3.612,3.975,7.048,8.095,10.564,12.149Z" transform="translate(-141.815 -17.725)"/><path class="cls-5" d="M447.563,182.218c-7.545-6.643-16.029-13.886-24.22-21.418a139,139,0,0,1-11.794-12.473c-3.817-4.5-4-10-.965-14.279,2.789-3.935,6.743-5.407,11.581-4.535,5.235.943,7.5,4.883,9.124,9.044,4.371,11.165,8.537,22.4,12.737,33.628C445.44,175.966,446.712,179.8,447.563,182.218Z" transform="translate(-141.815 -17.725)"/><path class="cls-6" d="M493.988,239.471c-12.027,6.508-23.631,10.553-36.662,9.594-5.205-.383-9.1-2.746-10.918-7.5a11.73,11.73,0,0,1,2.92-13.423c3.749-3.618,8.444-4.1,13.225-2.1C472.821,230.318,483.009,234.767,493.988,239.471Z" transform="translate(-141.815 -17.725)"/><path class="cls-7" d="M446.471,96.22q0-6.043,0-12.088c.013-10.139-.033-20.278.068-30.416.062-6.33,3.422-11.283,7.95-12.12,7.758-1.434,14.542,5.4,11.7,12.584-5.643,14.237-12,28.218-18.067,42.3Z" transform="translate(-141.815 -17.725)"/><path class="cls-8" d="M438,139.472c-5.445-13.833-10.928-27.652-16.311-41.507-1.661-4.274-1.345-8.456,2.233-11.787,2.76-2.569,6.187-3.767,10.06-2.331,4.754,1.764,6.616,5.568,6.92,10.013a110.256,110.256,0,0,1,.023,13.172c-.555,10.728-1.3,21.447-1.968,32.17Z" transform="translate(-141.815 -17.725)"/><path class="cls-9" d="M469.325,62.283c4.916-12.82,9.657-25.706,14.829-38.432,2.364-5.819,8.169-7.644,13.135-4.823,5.224,2.968,6.471,9.111,2.049,14.061-6.675,7.473-13.886,14.516-20.936,21.681-2.68,2.723-5.546,5.28-8.327,7.913Z" transform="translate(-141.815 -17.725)"/><path class="cls-10" d="M802.912,223.738c10.833-4.536,21.69-9.021,32.488-13.629,4.64-1.98,9.267-4.032,13.708-6.379,6.409-3.385,8.6-9.546,5.831-15.443-3.57-7.615-12.409-9.155-18.724-2.755-8.058,8.166-15.627,16.77-23.331,25.247-3.613,3.975-7.049,8.095-10.565,12.149Z" transform="translate(-141.815 -17.725)"/><path class="cls-11" d="M827.832,182.218c7.544-6.643,16.028-13.886,24.219-21.418a138.715,138.715,0,0,0,11.794-12.473c3.818-4.5,4-10,.965-14.279-2.789-3.935-6.743-5.407-11.581-4.535-5.235.943-7.5,4.883-9.124,9.044-4.371,11.165-8.537,22.4-12.736,33.628C829.954,175.966,828.682,179.8,827.832,182.218Z" transform="translate(-141.815 -17.725)"/><path class="cls-12" d="M781.406,239.471c12.027,6.508,23.631,10.553,36.662,9.594,5.206-.383,9.1-2.746,10.918-7.5a11.728,11.728,0,0,0-2.92-13.423c-3.749-3.618-8.444-4.1-13.224-2.1C802.574,230.318,792.385,234.767,781.406,239.471Z" transform="translate(-141.815 -17.725)"/><path class="cls-13" d="M828.924,96.22q0-6.043,0-12.088c-.013-10.139.033-20.278-.067-30.416-.063-6.33-3.423-11.283-7.951-12.12-7.757-1.434-14.542,5.4-11.694,12.584,5.642,14.237,12,28.218,18.066,42.3Z" transform="translate(-141.815 -17.725)"/><path class="cls-14" d="M837.391,139.472c5.444-13.833,10.927-27.652,16.311-41.507,1.66-4.274,1.345-8.456-2.233-11.787-2.76-2.569-6.187-3.767-10.061-2.331-4.754,1.764-6.615,5.568-6.919,10.013a110.046,110.046,0,0,0-.023,13.172c.554,10.728,1.3,21.447,1.968,32.17Z" transform="translate(-141.815 -17.725)"/><path class="cls-15" d="M806.069,62.283c-4.916-12.82-9.657-25.706-14.828-38.432-2.365-5.819-8.17-7.644-13.136-4.823-5.223,2.968-6.471,9.111-2.049,14.061,6.676,7.473,13.886,14.516,20.937,21.681,2.679,2.723,5.546,5.28,8.327,7.913Z" transform="translate(-141.815 -17.725)"/><path d="M245.9,593.8a34.717,34.717,0,0,1-16.191,4.175c-14.718,0-24.727-10.543-24.727-24.765s10.082-24.764,25.022-24.764c6.108,0,10.671,1.061,14.792,3.4l.294,10.26h-4.489l-1.84-10.472,4.563,1.415v4.033a18.263,18.263,0,0,0-12.731-5.095c-10.3,0-17.884,7.713-17.884,21.227,0,13.443,6.918,21.156,18.4,21.156,4.195,0,7.285-.92,11.48-2.9l-3.312,3.325v-4.1c0-5.377-.073-10.9-.22-16.274h7.065c-.147,5.307-.221,10.755-.221,16.274Zm-14.5-16.557v-2.83H250.54v2.83l-8.095.708h-1.472Z" transform="translate(-141.815 -17.725)"/><path d="M264.447,584.391c0,6.3,1.914,8.49,5.961,8.49,3.754,0,7.58-1.769,11.26-5.307h1.545v3.609H279.46l2.576-1.062c-4.195,5.448-9.2,7.713-13.983,7.713-5.887,0-9.567-3.4-9.493-12.736l.221-18.679,1.545,1.344-6.844-1.415v-2.477l10.6-.92.736.708-.368,9.9Zm17.515,13.089-1.03-8.278.221-22.783,1.545,1.344-6.844-1.415v-2.477l10.451-.92.736.708-.221,9.9v21.157l-1.767-1.7,6.844,1.416v2.476Z" transform="translate(-141.815 -17.725)"/><path d="M302.64,596.914c.147-3.184.221-10.472.221-14.858V578.73c0-3.891-.074-6.084-.221-8.916l-6.035-.636V566.7l11.113-4.246,1.1.708-.221,9.552v9.34c0,4.386.074,11.674.221,14.858Zm11.333-2.476v2.476H297.047v-2.476l8.095-1.416h1.472ZM300.8,550c0-2.69,2.135-4.458,4.857-4.458s4.858,1.768,4.858,4.458a4.875,4.875,0,0,1-9.715,0Z" transform="translate(-141.815 -17.725)"/><path d="M336.345,593.942c3.753,0,6.329-1.556,9.714-5.731l.663,1.91c-2.8,4.812-6.256,7.713-12,7.713-8.978,0-15.013-7.146-15.013-17.406,0-10.754,6.623-17.972,15.675-17.972,4.2,0,7.8,1.628,11.628,7.147l-.736,1.839c-4.268-3.962-7.212-5.094-10.009-5.094-5.519,0-10.3,4.245-10.3,13.939C325.968,589.7,330.384,593.942,336.345,593.942Zm20.459.5v2.476l-11.26.708-.736-7.218v-20.73l.221-.92V550.923l-6.329-.707v-2.477l11.259-3.183,1.031.565-.294,10.048v41.745l-1.178-3.608Z" transform="translate(-141.815 -17.725)"/><path d="M372.625,578.376a82.762,82.762,0,0,1,11.406-2.972v2.548a68.781,68.781,0,0,0-9.861,2.83c-6.624,2.477-7.359,5.165-7.359,7.217,0,3.75,2.575,5.235,5.96,5.235,2.577,0,4.048-.919,8.685-4.1l1.472-1.062,1.03,1.487-2.134,2.051c-4.416,4.246-6.918,6.227-11.407,6.227-5.373,0-9.862-2.972-9.862-8.845C360.555,585.027,362.763,581.843,372.625,578.376Zm8.463,12.028V574.272c0-6.933-2.061-8.631-6.918-8.631a17.741,17.741,0,0,0-6.624,1.273l2.944-2.193-1.913,6.085c-.662,2.051-1.766,3.183-3.753,3.183a2.963,2.963,0,0,1-3.312-2.83c1.4-5.377,6.844-8.7,14.2-8.7,7.58,0,11.26,3.326,11.26,12.241v15c0,3.184,1.03,4.316,2.723,4.316a3.677,3.677,0,0,0,2.87-1.557l1.472,1.557c-1.766,2.689-3.753,3.609-6.255,3.609C383.737,597.622,381.088,594.791,381.088,590.4Z" transform="translate(-141.815 -17.725)"/><path d="M402.65,596.914c.147-3.184.221-10.472.221-14.858V578.73c0-3.891-.074-6.084-.221-8.916l-5.887-.636V566.7l10.008-4.246,1.1.708.883,8.207v10.685c0,4.386.074,11.674.221,14.858Zm11.481-2.476v2.476H397.2v-2.476l8.1-1.416h1.471Zm17-18.892v6.51c0,4.528.074,11.674.221,14.858h-6.33c.148-3.184.221-10.33.221-14.858v-5.944c0-6.58-1.766-8.7-6.181-8.7-3.68,0-6.7,1.415-10.892,4.882h-1.546v-3.184h3.753l-3.164,1.274c3.459-4.457,9.347-7.925,14.572-7.925C428.113,562.456,431.131,566.206,431.131,575.546Zm-1.987,17.476,7.359,1.416v2.476H419.577v-2.476l8.1-1.416Z" transform="translate(-141.815 -17.725)"/><path d="M447.982,579.579c0,8.915,4.931,13.8,11.849,13.8a11.983,11.983,0,0,0,10.3-5.519l1.766.849c-1.987,5.873-6.7,9.128-13.615,9.128-10.082,0-16.411-6.793-16.411-17.618,0-11.109,8.095-17.76,16.853-17.76,6.549,0,12,3.892,12.952,9.128a3.013,3.013,0,0,1-3.311,2.618c-2.429,0-3.386-1.416-3.9-3.184l-1.84-6.227,3.386,2.618a15.805,15.805,0,0,0-7.065-1.768C452.545,565.641,447.982,570.522,447.982,579.579Z" transform="translate(-141.815 -17.725)"/><path d="M508.253,575.971a13.728,13.728,0,0,1-.515,3.962H480.583v-2.972H498.1c3.532,0,4.341-1.627,4.341-3.608a8.017,8.017,0,0,0-8.168-7.712c-4.71,0-10.156,3.82-10.156,13.938,0,8.986,4.71,13.8,12.069,13.8,4.71,0,7.654-2.052,10.3-5.023l1.693,1.273c-2.65,5.024-7.36,8.208-14.056,8.208-9.862,0-16.265-6.58-16.265-17.335,0-10.825,7.654-18.043,16.78-18.043C502.219,562.456,508.253,567.409,508.253,575.971Z" transform="translate(-141.815 -17.725)"/><path d="M544.605,578.376a82.814,82.814,0,0,1,11.407-2.972v2.548a68.781,68.781,0,0,0-9.861,2.83c-6.624,2.477-7.359,5.165-7.359,7.217,0,3.75,2.575,5.235,5.96,5.235,2.577,0,4.048-.919,8.685-4.1l1.472-1.062,1.03,1.487-2.134,2.051c-4.416,4.246-6.918,6.227-11.408,6.227-5.372,0-9.861-2.972-9.861-8.845C532.536,585.027,534.744,581.843,544.605,578.376Zm8.464,12.028V574.272c0-6.933-2.061-8.631-6.918-8.631a17.734,17.734,0,0,0-6.624,1.273l2.944-2.193-1.913,6.085c-.662,2.051-1.766,3.183-3.753,3.183a2.963,2.963,0,0,1-3.312-2.83c1.4-5.377,6.844-8.7,14.2-8.7,7.58,0,11.26,3.326,11.26,12.241v15c0,3.184,1.03,4.316,2.723,4.316a3.677,3.677,0,0,0,2.87-1.557l1.472,1.557c-1.766,2.689-3.753,3.609-6.255,3.609C555.718,597.622,553.069,594.791,553.069,590.4Z" transform="translate(-141.815 -17.725)"/><path d="M574.631,596.914c.147-3.184.221-10.472.221-14.858V578.73c0-3.891-.074-6.084-.221-8.916l-5.887-.636V566.7l10.008-4.246,1.1.708.883,8.207v10.685c0,4.386.074,11.674.221,14.858Zm11.481-2.476v2.476H569.185v-2.476l8.1-1.416h1.471Zm17-18.892v6.51c0,4.528.074,11.674.221,14.858H597c.148-3.184.221-10.33.221-14.858v-5.944c0-6.58-1.766-8.7-6.182-8.7-3.679,0-6.7,1.415-10.891,4.882h-1.546v-3.184h3.753l-3.164,1.274c3.459-4.457,9.346-7.925,14.572-7.925C600.094,562.456,603.112,566.206,603.112,575.546Zm-1.987,17.476,7.359,1.416v2.476H591.558v-2.476l8.1-1.416Z" transform="translate(-141.815 -17.725)"/><path d="M630.707,593.942c3.753,0,6.329-1.556,9.714-5.731l.663,1.91c-2.8,4.812-6.255,7.713-12,7.713-8.978,0-15.013-7.146-15.013-17.406,0-10.754,6.624-17.972,15.675-17.972,4.2,0,7.8,1.628,11.629,7.147l-.736,1.839c-4.269-3.962-7.213-5.094-10.009-5.094-5.52,0-10.3,4.245-10.3,13.939C620.331,589.7,624.746,593.942,630.707,593.942Zm20.459.5v2.476l-11.26.708-.736-7.218v-20.73l.221-.92V550.923l-6.329-.707v-2.477l11.26-3.183,1.031.565-.294,10.048v41.745l-1.178-3.608Z" transform="translate(-141.815 -17.725)"/><path d="M711.289,589.909V593.8l-4.562.99,1.839-10.472h4.49l-.3,10.26a31.975,31.975,0,0,1-14.865,3.4c-14.867,0-24.875-10.33-24.875-24.765,0-14.15,10.45-24.764,24.8-24.764a29.346,29.346,0,0,1,14.2,3.4l.294,10.26H707.83l-1.84-10.472,4.564.99v4.317c-4.2-3.75-8.317-4.954-11.849-4.954-9.935,0-17.957,7.43-17.957,21.227s7.212,21.227,17.441,21.227A20.9,20.9,0,0,0,711.289,589.909Z" transform="translate(-141.815 -17.725)"/><path d="M719.383,580.287c0-11.746,8.315-17.831,16.778-17.831,8.317,0,16.779,6.085,16.779,17.831s-8.462,17.547-16.779,17.547C727.7,597.834,719.383,592.032,719.383,580.287Zm26.934,0c0-9.481-3.753-14.646-10.156-14.646-6.55,0-10.155,5.165-10.155,14.646s3.605,14.363,10.155,14.363C742.564,594.65,746.317,589.768,746.317,580.287Z" transform="translate(-141.815 -17.725)"/><path d="M764.787,596.914c.148-3.184.221-10.472.221-14.858V578.73c0-3.891-.073-6.084-.221-8.916l-5.887-.636V566.7l10.008-4.246,1.105.708.883,8.207v10.685c0,4.386.074,11.674.22,14.858Zm11.481-2.476v2.476H759.342v-2.476l8.1-1.416h1.471Zm17-18.892v6.51c0,4.528.074,11.674.22,14.858H787.16c.147-3.184.221-10.33.221-14.858v-5.944c0-6.58-1.767-8.7-6.183-8.7-3.678,0-6.7,1.415-10.891,4.882h-1.545v-3.184h3.753l-3.164,1.274c3.458-4.457,9.345-7.925,14.571-7.925C790.251,562.456,793.268,566.206,793.268,575.546Zm-1.987,17.476,7.36,1.416v2.476H781.714v-2.476l8.1-1.416Z" transform="translate(-141.815 -17.725)"/><path d="M804.674,595.146l-.295-7.713h3.9l1.988,8.349-3.607-1.628v-2.4a14.36,14.36,0,0,0,9.053,2.9c5.666,0,8.315-2.194,8.315-5.448,0-3.043-2.208-4.6-6.843-6.226l-3.386-1.2c-5.372-1.91-8.9-4.669-8.9-9.481,0-5.094,4.489-9.835,12.658-9.835a19.305,19.305,0,0,1,10.229,2.9l-.3,7.147h-3.679l-1.472-7.147,2.649,1.132v1.84a12.335,12.335,0,0,0-7.506-2.688c-4.563,0-6.918,1.91-6.918,4.881,0,3.184,1.839,4.387,6.844,6.156l2.208.778c7.36,2.618,10.156,5.943,10.156,10.331,0,5.235-4.784,10.047-14.2,10.047A23.14,23.14,0,0,1,804.674,595.146Z" transform="translate(-141.815 -17.725)"/><path d="M845.517,584.391c0,6.3,1.913,8.49,5.961,8.49,3.752,0,7.58-1.769,11.259-5.307h1.545v3.609h-3.753l2.575-1.062c-4.194,5.448-9.2,7.713-13.982,7.713-5.888,0-9.567-3.4-9.493-12.736l.221-18.679,1.545,1.344-6.844-1.415v-2.477l10.6-.92.736.708-.367,9.9Zm17.514,13.089L862,589.2l.221-22.783,1.546,1.344-6.845-1.415v-2.477l10.45-.92.736.708-.22,9.9v21.157l-1.767-1.7,6.845,1.416v2.476Z" transform="translate(-141.815 -17.725)"/><path d="M888.64,544.556l1.03.565-.294,10.048v26.887q0,7.429.221,14.858h-6.329q.219-7.429.22-14.858V550.923l-6.108-.707v-2.477Zm6.843,49.882v2.476h-18.1v-2.476l8.316-1.416h1.472Z" transform="translate(-141.815 -17.725)"/><path d="M914.175,594.3c1.619,0,3.091-.637,5-1.981l1.692,1.911a10.708,10.708,0,0,1-8.537,3.608c-5.077,0-8.242-2.547-8.242-7.995,0-1.7.073-3.185.073-5.943v-16.84h-6.182v-3.043l9.126-1.132-2.944,2.335,2.208-11.462h4.269l-.589,12.382v22.925C910.054,592.739,911.673,594.3,914.175,594.3Zm6.035-30.92v3.68h-13.1v-3.68Z" transform="translate(-141.815 -17.725)"/><path d="M936.546,578.376a82.814,82.814,0,0,1,11.407-2.972v2.548a68.781,68.781,0,0,0-9.861,2.83c-6.623,2.477-7.36,5.165-7.36,7.217,0,3.75,2.577,5.235,5.961,5.235,2.577,0,4.048-.919,8.685-4.1l1.472-1.062,1.03,1.487-2.135,2.051c-4.415,4.246-6.917,6.227-11.406,6.227-5.373,0-9.861-2.972-9.861-8.845C924.478,585.027,926.685,581.843,936.546,578.376ZM945.01,590.4V574.272c0-6.933-2.061-8.631-6.918-8.631a17.726,17.726,0,0,0-6.623,1.273l2.943-2.193-1.913,6.085c-.663,2.051-1.767,3.183-3.754,3.183a2.963,2.963,0,0,1-3.311-2.83c1.4-5.377,6.844-8.7,14.2-8.7,7.58,0,11.259,3.326,11.259,12.241v15c0,3.184,1.031,4.316,2.723,4.316a3.677,3.677,0,0,0,2.87-1.557l1.472,1.557c-1.767,2.689-3.753,3.609-6.255,3.609C947.659,597.622,945.01,594.791,945.01,590.4Z" transform="translate(-141.815 -17.725)"/><path d="M966.572,596.914c.148-3.184.221-10.472.221-14.858V578.73c0-3.891-.073-6.084-.221-8.916l-5.886-.636V566.7l10.007-4.246,1.105.708.883,8.207v10.685c0,4.386.074,11.674.22,14.858Zm11.481-2.476v2.476H961.127v-2.476l8.1-1.416h1.471Zm17-18.892v6.51c0,4.528.074,11.674.22,14.858h-6.328c.147-3.184.221-10.33.221-14.858v-5.944c0-6.58-1.767-8.7-6.183-8.7-3.678,0-6.7,1.415-10.891,4.882h-1.545v-3.184H974.3l-3.164,1.274c3.458-4.457,9.345-7.925,14.571-7.925C992.036,562.456,995.053,566.206,995.053,575.546Zm-1.987,17.476,7.36,1.416v2.476H983.5v-2.476l8.1-1.416Z" transform="translate(-141.815 -17.725)"/><path d="M1011.9,579.579c0,8.915,4.931,13.8,11.849,13.8a11.983,11.983,0,0,0,10.3-5.519l1.766.849c-1.987,5.873-6.7,9.128-13.614,9.128-10.083,0-16.412-6.793-16.412-17.618,0-11.109,8.1-17.76,16.853-17.76,6.55,0,12,3.892,12.953,9.128a3.014,3.014,0,0,1-3.312,2.618c-2.429,0-3.386-1.416-3.9-3.184l-1.84-6.227,3.385,2.618a15.8,15.8,0,0,0-7.065-1.768C1016.467,565.641,1011.9,570.522,1011.9,579.579Z" transform="translate(-141.815 -17.725)"/><path d="M1038.4,609.933c.516-1.981,2.65-2.972,4.858-2.972,1.913,0,3.385.708,5.372,2.618l2.281,2.193-2.87,1.557-1.987-1.557c4.93-2.334,7.875-7.216,9.715-12.169l2.281-6.156,11.333-30.071h3.975l-13.1,33.113c-5,12.737-9.126,18.114-15.16,18.114C1041.487,614.6,1038.4,612.692,1038.4,609.933Zm7.507-43.019-7.213-1.061v-2.477h17.516v2.548l-8.831.99Zm10.965,33.68-15.381-37.218h6.845l11.554,30.142Zm12.511-33.68-7.8-1.061v-2.477H1076v2.477l-5.152,1.061Z" transform="translate(-141.815 -17.725)"/><path d="M298.771,617.744h8.095v3.242h-.736l-7.359-.883Zm0,37.145L305.21,654h1.227l6.009.885v2.358H298.771Zm5.519-37.145h2.576l.551,17.57v21.933H304.29Zm.062,0h5.458l15.024,35.376h-2.085l14.228-35.376h3.25l-16.006,39.5h-3Zm27.964,37.145,7.359-.885H340.9l7.973.885v2.358H332.316Zm5.335-15.919V617.744h5.58c-.184,5.955-.184,12.087-.184,18.277v2.949c0,6.072,0,12.2.184,18.277h-5.764C337.651,651.292,337.651,645.16,337.651,638.97Zm2.637-21.226h8.586V620.1l-7.973.883h-.613Z" transform="translate(-141.815 -17.725)"/><path d="M378.556,639.795a11.433,11.433,0,0,1-.43,3.3H355.5V640.62h14.6c2.944,0,3.618-1.355,3.618-3.007a6.681,6.681,0,0,0-6.807-6.426c-3.925,0-8.463,3.184-8.463,11.615,0,7.488,3.925,11.5,10.058,11.5,3.924,0,6.377-1.71,8.585-4.186l1.411,1.061a12.516,12.516,0,0,1-11.713,6.84c-8.218,0-13.553-5.484-13.553-14.446,0-9.02,6.377-15.035,13.982-15.035C373.527,628.533,378.556,632.661,378.556,639.795Z" transform="translate(-141.815 -17.725)"/><path d="M398.3,654.771c3.128,0,5.274-1.3,8.095-4.776l.552,1.592c-2.33,4.009-5.213,6.427-10,6.427-7.482,0-12.511-5.955-12.511-14.5,0-8.962,5.52-14.977,13.063-14.977,3.5,0,6.5,1.357,9.689,5.955l-.613,1.533c-3.557-3.3-6.01-4.245-8.34-4.245-4.6,0-8.586,3.538-8.586,11.616C389.655,651.233,393.334,654.771,398.3,654.771Zm17.049.413v2.063l-9.383.59-.614-6.015V634.548l.185-.767V618.923l-5.274-.589V616.27l9.382-2.653.859.471-.246,8.373v34.786l-.981-3.007Z" transform="translate(-141.815 -17.725)"/><path d="M423.077,657.247c.123-2.653.184-8.726.184-12.382V642.1c0-3.243-.061-5.072-.184-7.43l-5.029-.53v-2.064l9.261-3.538.92.59-.185,7.96v7.782c0,3.656.062,9.729.185,12.382Zm9.444-2.063v2.063h-14.1v-2.063l6.745-1.18h1.227Zm-10.977-37.028a4.062,4.062,0,1,1,4.047,3.715A3.754,3.754,0,0,1,421.544,618.156Z" transform="translate(-141.815 -17.725)"/><path d="M442.211,642.8c0,7.428,4.109,11.5,9.873,11.5a9.988,9.988,0,0,0,8.586-4.6l1.472.708c-1.656,4.894-5.581,7.606-11.346,7.606-8.4,0-13.675-5.66-13.675-14.682,0-9.256,6.746-14.8,14.043-14.8,5.458,0,10,3.243,10.794,7.607a2.512,2.512,0,0,1-2.76,2.181c-2.024,0-2.821-1.179-3.25-2.653l-1.533-5.189,2.82,2.182a13.165,13.165,0,0,0-5.887-1.474C446.013,631.187,442.211,635.255,442.211,642.8Z" transform="translate(-141.815 -17.725)"/><path d="M477.166,641.8a69.023,69.023,0,0,1,9.5-2.477v2.122a57.349,57.349,0,0,0-8.217,2.36c-5.519,2.063-6.133,4.3-6.133,6.013,0,3.125,2.147,4.364,4.968,4.364,2.146,0,3.373-.767,7.236-3.42l1.226-.885.859,1.238-1.778,1.71c-3.68,3.537-5.765,5.189-9.506,5.189-4.476,0-8.218-2.477-8.218-7.37C467.108,647.342,468.948,644.688,477.166,641.8Zm7.052,10.022V638.38c0-5.778-1.717-7.193-5.764-7.193a14.757,14.757,0,0,0-5.519,1.061l2.452-1.828-1.594,5.071c-.552,1.71-1.472,2.654-3.127,2.654a2.47,2.47,0,0,1-2.76-2.36c1.165-4.48,5.7-7.252,11.836-7.252,6.316,0,9.382,2.772,9.382,10.2v12.5c0,2.654.859,3.6,2.269,3.6a3.065,3.065,0,0,0,2.392-1.3l1.226,1.3a5.768,5.768,0,0,1-5.212,3.007C486.426,657.837,484.218,655.479,484.218,651.822Z" transform="translate(-141.815 -17.725)"/><path d="M506.357,613.617l.858.471-.245,8.373v22.4q0,6.19.184,12.382H501.88q.184-6.19.184-12.382V618.923l-5.09-.589V616.27Zm5.7,41.567v2.063H496.974v-2.063L503.9,654h1.226Z" transform="translate(-141.815 -17.725)"/><path d="M540.821,641.8a69,69,0,0,1,9.506-2.477v2.122a57.366,57.366,0,0,0-8.218,2.36c-5.519,2.063-6.132,4.3-6.132,6.013,0,3.125,2.146,4.364,4.967,4.364,2.146,0,3.373-.767,7.236-3.42l1.227-.885.858,1.238-1.778,1.71c-3.68,3.537-5.765,5.189-9.506,5.189-4.476,0-8.217-2.477-8.217-7.37C530.764,647.342,532.6,644.688,540.821,641.8Zm7.053,10.022V638.38c0-5.778-1.718-7.193-5.765-7.193a14.757,14.757,0,0,0-5.519,1.061l2.452-1.828-1.594,5.071c-.552,1.71-1.471,2.654-3.127,2.654a2.471,2.471,0,0,1-2.76-2.36c1.165-4.48,5.7-7.252,11.836-7.252,6.316,0,9.382,2.772,9.382,10.2v12.5c0,2.654.859,3.6,2.269,3.6a3.063,3.063,0,0,0,2.392-1.3l1.227,1.3a5.77,5.77,0,0,1-5.213,3.007C550.081,657.837,547.874,655.479,547.874,651.822Z" transform="translate(-141.815 -17.725)"/><path d="M565.842,657.247c.123-2.653.184-8.726.184-12.382V642.1c0-3.243-.061-5.072-.184-7.43l-4.9-.53v-2.064l8.34-3.538.919.59.737,6.84v8.9c0,3.656.061,9.729.183,12.382Zm9.567-2.063v2.063H561.3v-2.063L568.05,654h1.227Zm14.166-15.743v5.424c0,3.774.062,9.729.184,12.382h-5.274c.123-2.653.184-8.608.184-12.382v-4.952c0-5.483-1.472-7.252-5.151-7.252-3.066,0-5.58,1.179-9.076,4.068h-1.288v-2.653h3.128l-2.637,1.061c2.882-3.714,7.788-6.6,12.142-6.6C587.061,628.533,589.575,631.658,589.575,639.441ZM587.919,654l6.133,1.18v2.063H579.947v-2.063l6.746-1.18Z" transform="translate(-141.815 -17.725)"/><path d="M612.572,654.771c3.128,0,5.275-1.3,8.1-4.776l.552,1.592c-2.33,4.009-5.212,6.427-10,6.427-7.481,0-12.51-5.955-12.51-14.5,0-8.962,5.519-14.977,13.062-14.977,3.5,0,6.5,1.357,9.69,5.955l-.613,1.533c-3.558-3.3-6.011-4.245-8.341-4.245-4.6,0-8.585,3.538-8.585,11.616C603.926,651.233,607.605,654.771,612.572,654.771Zm17.049.413v2.063l-9.383.59-.613-6.015V634.548l.184-.767V618.923l-5.274-.589V616.27l9.382-2.653.859.471-.245,8.373v34.786l-.981-3.007Z" transform="translate(-141.815 -17.725)"/><path d="M647.65,620.1v-2.359h8.585v3.242h-.613Zm8.585,33.9v3.243H647.65v-2.358l7.972-.885Zm-2.758-17.983c0-6.073,0-12.2-.185-18.277h5.888C659,623.7,659,629.831,659,636.021v2.241c0,6.78,0,12.912.185,18.985h-5.888c.185-5.955.185-12.087.185-18.277Zm19.746-18.277,2.759,2.947H656.235v-2.947h21.894l.429,10.494h-3.434ZM670.1,638.438H656.235v-2.711H670.1Zm9.688,8.314-.429,10.5h-23.12V654.3h20.974l-2.76,2.948,1.9-10.5Zm-11.651-10.436.92-6.25h2.759V644.04h-2.759l-.92-6.545Z" transform="translate(-141.815 -17.725)"/><path d="M688.983,657.247c.122-2.653.184-8.726.184-12.382V642.1c0-3.243-.062-5.072-.184-7.43l-4.906-.53v-2.064l8.34-3.538.92.59.736,6.84v8.9c0,3.656.062,9.729.184,12.382Zm9.567-2.063v2.063h-14.1v-2.063L691.19,654h1.227Zm14.166-15.743v5.424c0,3.774.061,9.729.183,12.382h-5.273c.122-2.653.184-8.608.184-12.382v-4.952c0-5.483-1.472-7.252-5.152-7.252-3.066,0-5.58,1.179-9.076,4.068H692.3v-2.653h3.127l-2.637,1.061c2.883-3.714,7.788-6.6,12.143-6.6C710.2,628.533,712.716,631.658,712.716,639.441ZM711.061,654l6.131,1.18v2.063h-14.1v-2.063l6.746-1.18Z" transform="translate(-141.815 -17.725)"/><path d="M744.543,662.672c0-2.653-1.717-4.658-6.193-4.658h-7.237a25.176,25.176,0,0,1-3.066-.177v-.177c-3.127-.648-4.722-2.181-4.722-4.658,0-2.064,1.41-4.3,5.58-7.783l1.35.885c-1.84,1.886-2.637,3.183-2.637,4.953,0,1.591.674,2.652,3.557,2.652h8.1c6.561,0,9.689,2.771,9.689,7.547,0,5.071-5.028,10.141-14.964,10.141-8.83,0-12.694-2.948-12.694-7.193,0-2.889,1.9-5.07,8.095-7.6l.307.353c-2.453,2.3-3.434,4.069-3.434,6.368,0,3.891,3.127,5.424,7.911,5.424C740.925,668.744,744.543,666.032,744.543,662.672ZM733.75,628.533c6.256,0,10.916,3.185,10.916,9.67,0,6.25-4.783,9.669-10.978,9.669-6.316,0-10.976-3.184-10.976-9.669C722.712,631.953,727.5,628.533,733.75,628.533Zm-6.255,9.729c0,4.3,2.208,7.252,6.01,7.252,3.986,0,6.378-3.125,6.378-7.488,0-4.186-2.208-7.134-6.071-7.134C729.887,630.892,727.5,633.958,727.5,638.262Zm20.851-9.729.92.59v3.655h-9.015v-1.591Z" transform="translate(-141.815 -17.725)"/><path d="M757.482,657.247c.123-2.653.185-8.726.185-12.382V642.1c0-3.243-.062-5.072-.185-7.43l-5.028-.53v-2.064l9.26-3.538.92.59-.184,7.96v7.782c0,3.656.062,9.729.184,12.382Zm9.445-2.063v2.063H752.822v-2.063l6.746-1.18h1.226ZM755.95,618.156A4.062,4.062,0,1,1,760,621.871,3.755,3.755,0,0,1,755.95,618.156Z" transform="translate(-141.815 -17.725)"/><path d="M775.942,657.247c.122-2.653.184-8.726.184-12.382V642.1c0-3.243-.062-5.072-.184-7.43l-4.906-.53v-2.064l8.34-3.538.92.59.736,6.84v8.9c0,3.656.062,9.729.184,12.382Zm9.567-2.063v2.063H771.4v-2.063l6.745-1.18h1.227Zm14.166-15.743v5.424c0,3.774.061,9.729.183,12.382h-5.273c.122-2.653.184-8.608.184-12.382v-4.952c0-5.483-1.472-7.252-5.152-7.252-3.066,0-5.58,1.179-9.076,4.068h-1.287v-2.653h3.127l-2.637,1.061c2.883-3.714,7.788-6.6,12.143-6.6C797.16,628.533,799.675,631.658,799.675,639.441ZM798.02,654l6.131,1.18v2.063h-14.1v-2.063l6.746-1.18Z" transform="translate(-141.815 -17.725)"/><path d="M834.141,639.795a11.468,11.468,0,0,1-.43,3.3H811.082V640.62h14.6c2.943,0,3.618-1.355,3.618-3.007a6.681,6.681,0,0,0-6.808-6.426c-3.925,0-8.463,3.184-8.463,11.615,0,7.488,3.925,11.5,10.058,11.5,3.925,0,6.378-1.71,8.586-4.186l1.41,1.061a12.516,12.516,0,0,1-11.713,6.84c-8.218,0-13.553-5.484-13.553-14.446,0-9.02,6.378-15.035,13.982-15.035C829.111,628.533,834.141,632.661,834.141,639.795Z" transform="translate(-141.815 -17.725)"/><path d="M865.354,639.795a11.473,11.473,0,0,1-.429,3.3H842.3V640.62h14.6c2.943,0,3.618-1.355,3.618-3.007a6.682,6.682,0,0,0-6.808-6.426c-3.925,0-8.463,3.184-8.463,11.615,0,7.488,3.925,11.5,10.058,11.5,3.925,0,6.378-1.71,8.586-4.186l1.41,1.061a12.516,12.516,0,0,1-11.713,6.84c-8.218,0-13.553-5.484-13.553-14.446,0-9.02,6.378-15.035,13.982-15.035C860.325,628.533,865.354,632.661,865.354,639.795Z" transform="translate(-141.815 -17.725)"/><path d="M875.656,644.865V642.1c0-3.243-.061-5.072-.183-7.43l-4.907-.53v-2.064l8.34-3.538.92.59.736,7.37v8.372c0,3.656.062,9.729.184,12.382h-5.273C875.6,654.594,875.656,648.521,875.656,644.865Zm-4.6,10.319L877.8,654h1.226l6.746,1.18v2.063H871.057Zm7.052-18.278h3.5l-1.533.412c1.963-5.483,5.7-8.785,9.323-8.785a5.339,5.339,0,0,1,4.353,2c0,2.772-1.1,4.3-3.557,4.3a5.712,5.712,0,0,1-3.679-1.414l-1.656-1.357,3-.59c-3.8,1.887-6.009,4.835-7.421,9.375h-2.33Z" transform="translate(-141.815 -17.725)"/><path d="M900.983,657.247c.123-2.653.185-8.726.185-12.382V642.1c0-3.243-.062-5.072-.185-7.43l-5.028-.53v-2.064l9.26-3.538.92.59-.184,7.96v7.782c0,3.656.062,9.729.184,12.382Zm9.445-2.063v2.063H896.323v-2.063l6.746-1.18H904.3Zm-10.977-37.028a4.062,4.062,0,1,1,4.047,3.715A3.754,3.754,0,0,1,899.451,618.156Z" transform="translate(-141.815 -17.725)"/><path d="M919.443,657.247c.122-2.653.184-8.726.184-12.382V642.1c0-3.243-.062-5.072-.184-7.43l-4.906-.53v-2.064l8.34-3.538.92.59.736,6.84v8.9c0,3.656.062,9.729.184,12.382Zm9.567-2.063v2.063H914.905v-2.063L921.65,654h1.227Zm14.166-15.743v5.424c0,3.774.061,9.729.183,12.382h-5.273c.122-2.653.184-8.608.184-12.382v-4.952c0-5.483-1.472-7.252-5.152-7.252-3.065,0-5.58,1.179-9.076,4.068h-1.287v-2.653h3.127l-2.637,1.061c2.882-3.714,7.788-6.6,12.143-6.6C940.661,628.533,943.176,631.658,943.176,639.441ZM941.521,654l6.131,1.18v2.063h-14.1v-2.063l6.746-1.18Z" transform="translate(-141.815 -17.725)"/><path d="M975,662.672c0-2.653-1.718-4.658-6.194-4.658h-7.237a25.176,25.176,0,0,1-3.066-.177v-.177c-3.128-.648-4.722-2.181-4.722-4.658,0-2.064,1.41-4.3,5.58-7.783l1.35.885c-1.84,1.886-2.637,3.183-2.637,4.953,0,1.591.674,2.652,3.557,2.652h8.094c6.562,0,9.69,2.771,9.69,7.547,0,5.071-5.028,10.141-14.964,10.141-8.83,0-12.694-2.948-12.694-7.193,0-2.889,1.9-5.07,8.1-7.6l.307.353c-2.453,2.3-3.434,4.069-3.434,6.368,0,3.891,3.127,5.424,7.911,5.424C971.385,668.744,975,666.032,975,662.672ZM964.21,628.533c6.256,0,10.916,3.185,10.916,9.67,0,6.25-4.783,9.669-10.978,9.669-6.316,0-10.976-3.184-10.976-9.669C953.172,631.953,957.955,628.533,964.21,628.533Zm-6.255,9.729c0,4.3,2.208,7.252,6.01,7.252,3.986,0,6.378-3.125,6.378-7.488,0-4.186-2.208-7.134-6.072-7.134C960.347,630.892,957.955,633.958,957.955,638.262Zm20.851-9.729.92.59v3.655h-9.015v-1.591Z" transform="translate(-141.815 -17.725)"/><path class="cls-16" d="M235.661,726.038l-.627,11.012H214.67v-1.068a9.813,9.813,0,0,1,3.136-1.4V692.8a14.178,14.178,0,0,1-3.136-1.4v-1.067h20.4v11.144h-1.106a25.045,25.045,0,0,1-.794-3.835q-.424-2.77-.5-4.239h-9.85V712.49h6.825q.073-1.132.277-2.8t.461-2.87h.812v14.416h-.812q-.258-1.267-.461-2.9t-.277-2.769h-6.825v18.554h10.035a26.488,26.488,0,0,1,.664-4.272,28.687,28.687,0,0,1,1.033-3.8Z" transform="translate(-141.815 -17.725)"/><path class="cls-16" d="M267.093,736.05v1H257.059v-1.068a13.372,13.372,0,0,1,2.582-1.268L255.177,723.9,249.9,734.714a11.243,11.243,0,0,1,2.767,1.268v1.068H244.81v-.935a10.193,10.193,0,0,1,2.693-1.333l6.567-13.549-6.2-15.015a8,8,0,0,1-2.582-1.469v-.935h9.887v1.136a10.773,10.773,0,0,1-2.545,1.268l4.021,9.809,4.8-9.876a7.732,7.732,0,0,1-2.73-1.334v-1h7.858v1a7.12,7.12,0,0,1-2.767,1.4L257.723,718.7l6.6,16.086A11.292,11.292,0,0,1,267.093,736.05Z" transform="translate(-141.815 -17.725)"/><path class="cls-16" d="M275.172,751.867q1.291-.669,2.915-1.336V706.419a13.311,13.311,0,0,1-2.508-1.2v-.735l7.378-1.333v4.4a7.987,7.987,0,0,1,2.748-3.4,5.556,5.556,0,0,1,2.859-.933,7.142,7.142,0,0,1,6.53,4.1q2.288,4.106,2.288,12.312,0,18.086-9.186,18.086a5.219,5.219,0,0,1-3.026-1,6.279,6.279,0,0,1-2.213-3.2V750.6a14.5,14.5,0,0,1,2.914,1.333V753h-10.7Zm16.159-21.124a40.912,40.912,0,0,0,1.144-10.778,36.4,36.4,0,0,0-1.089-10.343q-1.088-3.406-3.707-3.4a3.553,3.553,0,0,0-2.619,1.4,11.742,11.742,0,0,0-2.1,3.537v14.549a15.086,15.086,0,0,0,1.236,6.44q1.235,2.639,3.375,2.637Q290.189,734.782,291.331,730.743Z" transform="translate(-141.815 -17.725)"/><path class="cls-16" d="M325.493,720.9H311.511a28.011,28.011,0,0,0,1.679,10.011q1.6,4.005,4.7,4a6.762,6.762,0,0,0,3.228-.935,9.556,9.556,0,0,0,3.007-2.6l.48,2.135a9.458,9.458,0,0,1-3.265,3,8.9,8.9,0,0,1-4.519,1.2,7.729,7.729,0,0,1-5.442-2.136,13.641,13.641,0,0,1-3.542-6.038A30.018,30.018,0,0,1,306.6,720.5q0-8.273,2.638-12.779t7.36-4.5a6.476,6.476,0,0,1,4.98,2.169,13.491,13.491,0,0,1,2.952,5.74,30.744,30.744,0,0,1,.959,7.973Zm-4.242-2.936a33.232,33.232,0,0,0-.443-5.374,13.744,13.744,0,0,0-1.476-4.537,3.059,3.059,0,0,0-2.693-1.835q-2.288,0-3.541,3.3a28.041,28.041,0,0,0-1.513,8.442Z" transform="translate(-141.815 -17.725)"/><path class="cls-16" d="M334.68,735.982a8.59,8.59,0,0,1,2.914-1.333v-28.23a14.445,14.445,0,0,1-2.509-1.269v-.6l6.825-1.4.406,6.138h.148a10.976,10.976,0,0,1,1.992-4.436,3.712,3.712,0,0,1,2.84-1.635,4.924,4.924,0,0,1,1.956.366,4.818,4.818,0,0,1,1.661,1.3l-.923,4.206a2.875,2.875,0,0,0-2.177-1.268,3.866,3.866,0,0,0-3.024,1.9,16.2,16.2,0,0,0-2.325,4.973v20.021a11.948,11.948,0,0,1,2.878,1.336v1H334.68Z" transform="translate(-141.815 -17.725)"/><path class="cls-16" d="M372.826,736.516a8.506,8.506,0,0,1-4.538,1.2,5.391,5.391,0,0,1-4.574-2.3q-1.7-2.306-1.7-7.508V706.817h-2.952v-3h2.952v-2.2q2.067-1.2,2.472-6.741h2.4v8.941h5.387v3h-5.387v21.091q0,3.8.848,5.237a2.653,2.653,0,0,0,2.4,1.436,4.889,4.889,0,0,0,2.4-.734Z" transform="translate(-141.815 -17.725)"/><path class="cls-16" d="M385.793,736.516a8.839,8.839,0,0,1-3.34-3.136l.3-8.209h1.07a26.158,26.158,0,0,1,.369,3.2q.147,2.135.185,3.87a5.845,5.845,0,0,0,1.881,1.835,4.7,4.7,0,0,0,2.508.7,4.024,4.024,0,0,0,3.339-1.637,7.276,7.276,0,0,0,1.273-4.57,5.678,5.678,0,0,0-.59-2.705,6.305,6.305,0,0,0-1.457-1.834,22.729,22.729,0,0,0-2.454-1.735,22.739,22.739,0,0,1-3.228-2.336,8.993,8.993,0,0,1-2.158-3.136,12.6,12.6,0,0,1-.886-5.071,8.735,8.735,0,0,1,2.141-6.342,7.143,7.143,0,0,1,5.348-2.2,7.983,7.983,0,0,1,7.121,3.8l-.333,7.008h-1.106a22.133,22.133,0,0,1-.35-2.737q-.131-1.665-.129-3.268a5.067,5.067,0,0,0-4.17-1.938,3.633,3.633,0,0,0-2.73,1.068,4.764,4.764,0,0,0-1.032,3.4,5.44,5.44,0,0,0,1.107,3.637,15.152,15.152,0,0,0,3.43,2.77,25.143,25.143,0,0,1,3.284,2.5,9.406,9.406,0,0,1,2.139,3.236,13.271,13.271,0,0,1,.885,5.206q0,4.938-2.175,7.372a7.05,7.05,0,0,1-5.5,2.437A9.586,9.586,0,0,1,385.793,736.516Z" transform="translate(-141.815 -17.725)"/><path class="cls-16" d="M424.733,736.05q.663-.4,2.913-1.4v-28.1a11.672,11.672,0,0,1-2.544-1.2v-.669l7.415-1.334v31.366a19.942,19.942,0,0,1,2.913,1.336v1h-10.7Zm3.19-36.64a6.585,6.585,0,0,1-.719-3.271,6.771,6.771,0,0,1,.719-3.3,2.122,2.122,0,0,1,1.864-1.3,2.16,2.16,0,0,1,1.881,1.3,6.624,6.624,0,0,1,.738,3.3,6.442,6.442,0,0,1-.738,3.271,2.165,2.165,0,0,1-1.881,1.269A2.126,2.126,0,0,1,427.923,699.41Z" transform="translate(-141.815 -17.725)"/><path class="cls-16" d="M468.782,736.05v1h-10.4v-1a13.037,13.037,0,0,1,2.657-1.4V713.091q0-6.873-3.431-6.873a4.15,4.15,0,0,0-2.6,1.168,10.784,10.784,0,0,0-2.565,3.637v23.691a12.621,12.621,0,0,1,2.915,1.336v1h-10.7v-1a9.018,9.018,0,0,1,2.914-1.4v-28.23a14.832,14.832,0,0,1-2.545-1.269v-.669l7.415-1.333v4.8a11.7,11.7,0,0,1,3.062-3.437,6.3,6.3,0,0,1,3.8-1.3,5.648,5.648,0,0,1,4.778,2.5,11.648,11.648,0,0,1,1.826,6.973v22.024A8.622,8.622,0,0,1,468.782,736.05Z" transform="translate(-141.815 -17.725)"/><path class="cls-16" d="M519.065,736.05v1H508.587v-1a12.524,12.524,0,0,1,2.694-1.4V713.091q0-6.873-3.432-6.873a4.048,4.048,0,0,0-2.6,1.234,12.1,12.1,0,0,0-2.6,3.7v23.558a8.635,8.635,0,0,1,2.693,1.336v1H494.9v-1a9.481,9.481,0,0,1,2.915-1.4V693.271A14.847,14.847,0,0,1,495.269,692v-.667L502.648,690v18.086a11.291,11.291,0,0,1,3.043-3.537,6.323,6.323,0,0,1,3.855-1.334,5.6,5.6,0,0,1,4.76,2.5,11.742,11.742,0,0,1,1.808,6.973v22.024A13.369,13.369,0,0,1,519.065,736.05Z" transform="translate(-141.815 -17.725)"/><path class="cls-16" d="M528.066,727.974q0-5.273,2.066-7.608a6.932,6.932,0,0,1,5.459-2.336h4.944v-4.871a9.374,9.374,0,0,0-1.162-5.274,3.72,3.72,0,0,0-3.228-1.667,6.9,6.9,0,0,0-3.081.8,12.99,12.99,0,0,0-2.932,2l-.3-2.537a12.35,12.35,0,0,1,3.653-2.4,10.492,10.492,0,0,1,4.169-.868,6.873,6.873,0,0,1,5.663,2.6,10.783,10.783,0,0,1,2.083,6.941V734.18a20.532,20.532,0,0,1,2.51,1.136v.734l-7.379,1.266v-4.47a10.294,10.294,0,0,1-2.859,3.67,5.458,5.458,0,0,1-3.3,1.2Q528.065,737.717,528.066,727.974Zm10.588,5.206a9.141,9.141,0,0,0,1.881-3.4v-8.809h-3.8a3.119,3.119,0,0,0-2.9,1.835,11,11,0,0,0-.977,5.106,10.812,10.812,0,0,0,.9,5.039,2.736,2.736,0,0,0,2.454,1.634A3.44,3.44,0,0,0,538.654,733.18Z" transform="translate(-141.815 -17.725)"/><path class="cls-16" d="M560.217,736.516a8.836,8.836,0,0,1-3.339-3.136l.3-8.209h1.07a26.36,26.36,0,0,1,.369,3.2q.145,2.135.184,3.87a5.855,5.855,0,0,0,1.881,1.835,4.7,4.7,0,0,0,2.508.7,4.026,4.026,0,0,0,3.34-1.637,7.282,7.282,0,0,0,1.272-4.57,5.678,5.678,0,0,0-.59-2.705,6.272,6.272,0,0,0-1.457-1.834A22.8,22.8,0,0,0,563.3,722.3a22.7,22.7,0,0,1-3.229-2.336,9.006,9.006,0,0,1-2.158-3.136,12.6,12.6,0,0,1-.885-5.071,8.735,8.735,0,0,1,2.14-6.342,7.145,7.145,0,0,1,5.348-2.2,7.982,7.982,0,0,1,7.121,3.8l-.332,7.008H570.2a22.328,22.328,0,0,1-.35-2.737q-.13-1.665-.129-3.268a5.065,5.065,0,0,0-4.169-1.938,3.635,3.635,0,0,0-2.731,1.068,4.764,4.764,0,0,0-1.032,3.4,5.44,5.44,0,0,0,1.107,3.637,15.175,15.175,0,0,0,3.43,2.77,25.075,25.075,0,0,1,3.284,2.5,9.392,9.392,0,0,1,2.139,3.236,13.27,13.27,0,0,1,.886,5.206q0,4.938-2.176,7.372a7.049,7.049,0,0,1-5.5,2.437A9.587,9.587,0,0,1,560.217,736.516Z" transform="translate(-141.815 -17.725)"/><path class="cls-16" d="M585.931,736.516a8.836,8.836,0,0,1-3.339-3.136l.3-8.209h1.07a26.36,26.36,0,0,1,.369,3.2q.145,2.135.184,3.87a5.855,5.855,0,0,0,1.881,1.835,4.7,4.7,0,0,0,2.508.7,4.026,4.026,0,0,0,3.34-1.637,7.282,7.282,0,0,0,1.272-4.57,5.678,5.678,0,0,0-.59-2.705,6.272,6.272,0,0,0-1.457-1.834,22.8,22.8,0,0,0-2.453-1.735,22.7,22.7,0,0,1-3.229-2.336,8.993,8.993,0,0,1-2.158-3.136,12.6,12.6,0,0,1-.885-5.071,8.735,8.735,0,0,1,2.14-6.342,7.145,7.145,0,0,1,5.348-2.2,7.982,7.982,0,0,1,7.121,3.8l-.332,7.008H595.91a22.328,22.328,0,0,1-.35-2.737q-.13-1.665-.129-3.268a5.065,5.065,0,0,0-4.169-1.938,3.635,3.635,0,0,0-2.731,1.068,4.764,4.764,0,0,0-1.032,3.4,5.44,5.44,0,0,0,1.107,3.637,15.175,15.175,0,0,0,3.43,2.77,25.075,25.075,0,0,1,3.284,2.5,9.392,9.392,0,0,1,2.139,3.236,13.27,13.27,0,0,1,.886,5.206q0,4.938-2.176,7.372a7.049,7.049,0,0,1-5.5,2.437A9.587,9.587,0,0,1,585.931,736.516Z" transform="translate(-141.815 -17.725)"/><path class="cls-16" d="M607.936,736.05a28.861,28.861,0,0,1,2.914-1.4V693.271A14.834,14.834,0,0,1,608.3,692v-.667L615.72,690v44.714a10.336,10.336,0,0,1,2.915,1.336v1h-10.7Z" transform="translate(-141.815 -17.725)"/><path class="cls-16" d="M646.856,720.9H632.875a28.013,28.013,0,0,0,1.678,10.011q1.605,4.005,4.7,4a6.765,6.765,0,0,0,3.228-.935,9.567,9.567,0,0,0,3.007-2.6l.479,2.135a9.441,9.441,0,0,1-3.265,3,8.9,8.9,0,0,1-4.519,1.2,7.731,7.731,0,0,1-5.442-2.136,13.66,13.66,0,0,1-3.542-6.038,30.051,30.051,0,0,1-1.235-9.044q0-8.273,2.638-12.779t7.36-4.5a6.477,6.477,0,0,1,4.98,2.169,13.514,13.514,0,0,1,2.952,5.74,30.789,30.789,0,0,1,.958,7.973Zm-4.242-2.936a33.344,33.344,0,0,0-.442-5.374,13.79,13.79,0,0,0-1.476-4.537A3.061,3.061,0,0,0,638,706.218q-2.286,0-3.541,3.3a28.135,28.135,0,0,0-1.513,8.442Z" transform="translate(-141.815 -17.725)"/><path class="cls-16" d="M657,715.962h12.433v4.805H657Z" transform="translate(-141.815 -17.725)"/><path class="cls-16" d="M688.58,694.071a14.6,14.6,0,0,0-.885,5.8v3.938h5.46v3H687.7v27.9a13.6,13.6,0,0,1,3.136,1.336v1H679.873v-1.068a13.857,13.857,0,0,1,2.952-1.333V706.817h-3.467v-3h3.467v-2.669q0-5.937,1.679-9.042T689.1,689a8.055,8.055,0,0,1,4.539,1.268l-.3,2.67a4.353,4.353,0,0,0-2.4-.8Q689.467,692.136,688.58,694.071Z" transform="translate(-141.815 -17.725)"/><path class="cls-16" d="M702.637,735.982a8.6,8.6,0,0,1,2.915-1.333v-28.23a14.408,14.408,0,0,1-2.509-1.269v-.6l6.825-1.4.4,6.138h.148a10.963,10.963,0,0,1,1.993-4.436,3.71,3.71,0,0,1,2.84-1.635,4.924,4.924,0,0,1,1.956.366,4.815,4.815,0,0,1,1.66,1.3l-.922,4.206a2.877,2.877,0,0,0-2.177-1.268,3.866,3.866,0,0,0-3.025,1.9,16.226,16.226,0,0,0-2.325,4.973v20.021a11.931,11.931,0,0,1,2.878,1.336v1H702.637Z" transform="translate(-141.815 -17.725)"/><path class="cls-16" d="M745.136,720.9H731.155a27.992,27.992,0,0,0,1.677,10.011q1.606,4.005,4.7,4a6.765,6.765,0,0,0,3.228-.935,9.57,9.57,0,0,0,3.008-2.6l.478,2.135a9.428,9.428,0,0,1-3.264,3,8.9,8.9,0,0,1-4.52,1.2,7.733,7.733,0,0,1-5.442-2.136,13.668,13.668,0,0,1-3.541-6.038,30.049,30.049,0,0,1-1.236-9.044q0-8.273,2.638-12.779t7.36-4.5a6.478,6.478,0,0,1,4.981,2.169,13.513,13.513,0,0,1,2.951,5.74,30.744,30.744,0,0,1,.959,7.973Zm-4.243-2.936a33.344,33.344,0,0,0-.442-5.374,13.79,13.79,0,0,0-1.476-4.537,3.061,3.061,0,0,0-2.693-1.835q-2.288,0-3.542,3.3a28.137,28.137,0,0,0-1.512,8.442Z" transform="translate(-141.815 -17.725)"/><path class="cls-16" d="M773.431,720.9H759.45a27.991,27.991,0,0,0,1.678,10.011q1.6,4.005,4.7,4a6.772,6.772,0,0,0,3.229-.935,9.578,9.578,0,0,0,3.007-2.6l.478,2.135a9.428,9.428,0,0,1-3.264,3,8.9,8.9,0,0,1-4.52,1.2,7.731,7.731,0,0,1-5.441-2.136,13.66,13.66,0,0,1-3.542-6.038,30.049,30.049,0,0,1-1.236-9.044q0-8.273,2.639-12.779t7.359-4.5a6.478,6.478,0,0,1,4.981,2.169,13.5,13.5,0,0,1,2.951,5.74,30.744,30.744,0,0,1,.959,7.973Zm-4.243-2.936a33.23,33.23,0,0,0-.442-5.374,13.791,13.791,0,0,0-1.475-4.537,3.062,3.062,0,0,0-2.694-1.835q-2.287,0-3.542,3.3a28.137,28.137,0,0,0-1.512,8.442Z" transform="translate(-141.815 -17.725)"/><path class="cls-16" d="M799.81,727.974q0-5.273,2.065-7.608a6.934,6.934,0,0,1,5.46-2.336h4.944v-4.871a9.373,9.373,0,0,0-1.163-5.274,3.719,3.719,0,0,0-3.228-1.667,6.9,6.9,0,0,0-3.08.8,13.018,13.018,0,0,0-2.933,2l-.295-2.537a12.358,12.358,0,0,1,3.652-2.4,10.5,10.5,0,0,1,4.17-.868,6.876,6.876,0,0,1,5.663,2.6,10.783,10.783,0,0,1,2.083,6.941V734.18a20.446,20.446,0,0,1,2.509,1.136v.734l-7.378,1.266v-4.47a10.294,10.294,0,0,1-2.859,3.67,5.462,5.462,0,0,1-3.3,1.2Q799.809,737.717,799.81,727.974ZM810.4,733.18a9.141,9.141,0,0,0,1.881-3.4v-8.809h-3.8a3.121,3.121,0,0,0-2.9,1.835,11,11,0,0,0-.976,5.106,10.812,10.812,0,0,0,.9,5.039,2.733,2.733,0,0,0,2.454,1.634A3.44,3.44,0,0,0,810.4,733.18Z" transform="translate(-141.815 -17.725)"/><path class="cls-16" d="M830.578,733.679q-2.178-4.035-2.177-12.514,0-8.139,2.379-13.047t6.659-4.9a5.454,5.454,0,0,1,2.952.832,7.515,7.515,0,0,1,2.434,2.906V693.271A11.538,11.538,0,0,1,840.316,692v-.667L847.7,690v44.18a17.685,17.685,0,0,1,2.509,1.136v.6l-6.383,1.669q-.185-2.737-.294-6.006a10.559,10.559,0,0,1-2.712,4.572,5.8,5.8,0,0,1-4.04,1.567Q832.755,737.717,830.578,733.679Zm10.92-1.4a14.189,14.189,0,0,0,1.327-6.64V710.49q-2.067-4.272-4.5-4.272-2.694,0-3.874,4.537a41.782,41.782,0,0,0-1.181,10.478q0,13.551,4.907,13.549Q840.169,734.782,841.5,732.277Z" transform="translate(-141.815 -17.725)"/><path class="cls-16" d="M894.473,736.05v1H884.032v-1c.123-.09.461-.311,1.014-.669a5.513,5.513,0,0,1,1.643-.732V713.091q0-6.873-3.432-6.873a3.151,3.151,0,0,0-2.231,1.2,12.31,12.31,0,0,0-2.121,3.469c.049.8.073,1.4.073,1.8v22.024a7.355,7.355,0,0,1,2.619,1.336v1h-9.85v-1c.124-.09.461-.311,1.015-.669a5.717,5.717,0,0,1,1.568-.732V713.091a11.745,11.745,0,0,0-.867-5.306,2.668,2.668,0,0,0-2.417-1.567,3.3,3.3,0,0,0-2.268,1.168,11.781,11.781,0,0,0-2.2,3.437v23.891a12.6,12.6,0,0,1,2.915,1.336v1H858.8v-1a9.032,9.032,0,0,1,2.915-1.4v-28.23a14.845,14.845,0,0,1-2.546-1.269v-.669l7.415-1.333v4.6a11.473,11.473,0,0,1,2.619-3.271,5.075,5.075,0,0,1,3.321-1.266,5.365,5.365,0,0,1,3.745,1.434,8,8,0,0,1,2.232,4.038,12.394,12.394,0,0,1,2.767-3.97,5.273,5.273,0,0,1,3.688-1.5,5.65,5.65,0,0,1,4.779,2.5,11.655,11.655,0,0,1,1.825,6.973v22.024A11.734,11.734,0,0,1,894.473,736.05Z" transform="translate(-141.815 -17.725)"/><path class="cls-16" d="M903.439,736.05q.663-.4,2.913-1.4v-28.1a11.672,11.672,0,0,1-2.544-1.2v-.669l7.415-1.334v31.366a19.942,19.942,0,0,1,2.913,1.336v1h-10.7Zm3.19-36.64a6.585,6.585,0,0,1-.719-3.271,6.771,6.771,0,0,1,.719-3.3,2.122,2.122,0,0,1,1.864-1.3,2.16,2.16,0,0,1,1.881,1.3,6.624,6.624,0,0,1,.738,3.3,6.442,6.442,0,0,1-.738,3.271,2.165,2.165,0,0,1-1.881,1.269A2.126,2.126,0,0,1,906.629,699.41Z" transform="translate(-141.815 -17.725)"/><path class="cls-16" d="M927.067,736.516a8.839,8.839,0,0,1-3.34-3.136l.3-8.209h1.07a26.158,26.158,0,0,1,.369,3.2q.147,2.135.185,3.87a5.845,5.845,0,0,0,1.881,1.835,4.7,4.7,0,0,0,2.508.7,4.024,4.024,0,0,0,3.339-1.637,7.276,7.276,0,0,0,1.272-4.57,5.666,5.666,0,0,0-.59-2.705,6.286,6.286,0,0,0-1.456-1.834,22.831,22.831,0,0,0-2.454-1.735,22.681,22.681,0,0,1-3.228-2.336,8.993,8.993,0,0,1-2.158-3.136,12.6,12.6,0,0,1-.886-5.071,8.739,8.739,0,0,1,2.14-6.342,7.147,7.147,0,0,1,5.349-2.2,7.983,7.983,0,0,1,7.121,3.8l-.333,7.008h-1.107a22.526,22.526,0,0,1-.35-2.737q-.129-1.665-.128-3.268a5.067,5.067,0,0,0-4.17-1.938,3.633,3.633,0,0,0-2.73,1.068,4.764,4.764,0,0,0-1.032,3.4,5.44,5.44,0,0,0,1.106,3.637,15.184,15.184,0,0,0,3.431,2.77,25.058,25.058,0,0,1,3.283,2.5,9.392,9.392,0,0,1,2.139,3.236,13.252,13.252,0,0,1,.886,5.206q0,4.938-2.176,7.372a7.046,7.046,0,0,1-5.5,2.437A9.584,9.584,0,0,1,927.067,736.516Z" transform="translate(-141.815 -17.725)"/><path class="cls-16" d="M952.781,736.516a8.831,8.831,0,0,1-3.34-3.136l.3-8.209h1.07a26.158,26.158,0,0,1,.369,3.2q.147,2.135.184,3.87a5.848,5.848,0,0,0,1.882,1.835,4.7,4.7,0,0,0,2.508.7,4.024,4.024,0,0,0,3.339-1.637,7.276,7.276,0,0,0,1.272-4.57,5.666,5.666,0,0,0-.59-2.705,6.286,6.286,0,0,0-1.456-1.834,22.831,22.831,0,0,0-2.454-1.735,22.624,22.624,0,0,1-3.228-2.336,8.993,8.993,0,0,1-2.158-3.136,12.6,12.6,0,0,1-.886-5.071,8.739,8.739,0,0,1,2.14-6.342,7.147,7.147,0,0,1,5.349-2.2,7.982,7.982,0,0,1,7.12,3.8l-.332,7.008h-1.107a22.526,22.526,0,0,1-.35-2.737q-.129-1.665-.128-3.268a5.067,5.067,0,0,0-4.17-1.938,3.633,3.633,0,0,0-2.73,1.068,4.764,4.764,0,0,0-1.032,3.4,5.44,5.44,0,0,0,1.106,3.637,15.184,15.184,0,0,0,3.431,2.77,25.126,25.126,0,0,1,3.283,2.5,9.392,9.392,0,0,1,2.139,3.236,13.252,13.252,0,0,1,.886,5.206q0,4.938-2.176,7.372a7.046,7.046,0,0,1-5.5,2.437A9.584,9.584,0,0,1,952.781,736.516Z" transform="translate(-141.815 -17.725)"/><path class="cls-16" d="M974.676,736.05q.664-.4,2.914-1.4v-28.1a11.677,11.677,0,0,1-2.545-1.2v-.669l7.416-1.334v31.366a19.942,19.942,0,0,1,2.913,1.336v1h-10.7Zm3.191-36.64a6.585,6.585,0,0,1-.719-3.271,6.771,6.771,0,0,1,.719-3.3,2.122,2.122,0,0,1,1.863-1.3,2.161,2.161,0,0,1,1.882,1.3,6.624,6.624,0,0,1,.737,3.3,6.442,6.442,0,0,1-.737,3.271,2.166,2.166,0,0,1-1.882,1.269A2.126,2.126,0,0,1,977.867,699.41Z" transform="translate(-141.815 -17.725)"/><path class="cls-16" d="M997.2,733.18q-2.712-4.539-2.712-12.681t2.712-12.714a8.789,8.789,0,0,1,15.42,0q2.712,4.572,2.712,12.714t-2.712,12.681a8.82,8.82,0,0,1-15.42,0Zm11.731-2.2a37.466,37.466,0,0,0,0-20.956q-1.494-3.8-4-3.8-2.544,0-4.039,3.8a37.466,37.466,0,0,0,0,20.956q1.494,3.8,4.039,3.805Q1007.437,734.782,1008.93,730.977Z" transform="translate(-141.815 -17.725)"/><path class="cls-16" d="M1048.681,736.05v1h-10.4v-1a13.037,13.037,0,0,1,2.657-1.4V713.091q0-6.873-3.431-6.873a4.15,4.15,0,0,0-2.6,1.168,10.784,10.784,0,0,0-2.565,3.637v23.691a12.621,12.621,0,0,1,2.915,1.336v1h-10.7v-1a9.018,9.018,0,0,1,2.914-1.4v-28.23a14.832,14.832,0,0,1-2.545-1.269v-.669l7.415-1.333v4.8a11.692,11.692,0,0,1,3.063-3.437,6.3,6.3,0,0,1,3.8-1.3,5.648,5.648,0,0,1,4.778,2.5,11.648,11.648,0,0,1,1.826,6.973v22.024A8.622,8.622,0,0,1,1048.681,736.05Z" transform="translate(-141.815 -17.725)"/><path class="cls-16" d="M1061.465,736.516a8.839,8.839,0,0,1-3.34-3.136l.3-8.209h1.07a26.158,26.158,0,0,1,.369,3.2q.147,2.135.185,3.87a5.845,5.845,0,0,0,1.881,1.835,4.7,4.7,0,0,0,2.508.7,4.024,4.024,0,0,0,3.339-1.637,7.276,7.276,0,0,0,1.273-4.57,5.666,5.666,0,0,0-.591-2.705,6.286,6.286,0,0,0-1.456-1.834,22.729,22.729,0,0,0-2.454-1.735,22.739,22.739,0,0,1-3.228-2.336,8.993,8.993,0,0,1-2.158-3.136,12.6,12.6,0,0,1-.886-5.071,8.735,8.735,0,0,1,2.141-6.342,7.143,7.143,0,0,1,5.348-2.2,7.983,7.983,0,0,1,7.121,3.8l-.333,7.008h-1.106a22.133,22.133,0,0,1-.35-2.737q-.13-1.665-.129-3.268a5.067,5.067,0,0,0-4.17-1.938,3.633,3.633,0,0,0-2.73,1.068,4.764,4.764,0,0,0-1.032,3.4,5.44,5.44,0,0,0,1.107,3.637,15.152,15.152,0,0,0,3.43,2.77,25.143,25.143,0,0,1,3.284,2.5,9.406,9.406,0,0,1,2.139,3.236,13.271,13.271,0,0,1,.885,5.206q0,4.938-2.175,7.372a7.05,7.05,0,0,1-5.5,2.437A9.586,9.586,0,0,1,1061.465,736.516Z" transform="translate(-141.815 -17.725)"/><path class="cls-17" d="M1049.568,768.936c-8.926-4.955-18.787-8.048-28.768-10.194a206.215,206.215,0,0,0-30.461-3.918,364.474,364.474,0,0,0-61.753,2.043,446.515,446.515,0,0,0-61.425,11.148,308.158,308.158,0,0,0-30.215,9.324c-9.942,3.726-19.843,7.949-29.027,14.324,8.973-6.887,18.784-11.694,28.638-15.989a316.45,316.45,0,0,1,30.037-11.061,455.79,455.79,0,0,1,61.43-14.672,370.9,370.9,0,0,1,62.508-5.562,211.145,211.145,0,0,1,31.562,2.292c10.532,1.682,21.114,4.289,31.5,9.374,2.749,1.346,4.146,5.359,3.12,8.965s-4.086,5.438-6.834,4.092c-.066-.032-.131-.065-.2-.1Z" transform="translate(-141.815 -17.725)"/><path d="M158.083,495.892a78.347,78.347,0,0,0,.34,8.164,10.529,10.529,0,0,0,1.476,4.78,5.935,5.935,0,0,0,3.216,2.322,21.116,21.116,0,0,0,5.486.8V517H141.815v-5.045a13.169,13.169,0,0,0,4.274-.8,5.055,5.055,0,0,0,2.536-2.256,11.716,11.716,0,0,0,1.21-4.514q.3-2.917.3-7.566V434.959q0-4.645-.265-7.5a13.6,13.6,0,0,0-1.059-4.514,4.293,4.293,0,0,0-2.308-2.257,15.662,15.662,0,0,0-3.935-.863v-5.044h43.737l.832,25.356h-2.649a53.236,53.236,0,0,0-1.437-9.36A14.991,14.991,0,0,0,180.292,425a9.493,9.493,0,0,0-4.5-2.987,22.886,22.886,0,0,0-6.81-.863h-9.61q-1.288,0-1.287,2.256V463.5a23.379,23.379,0,0,0,6.243-.73,8.983,8.983,0,0,0,4.313-2.589,12.361,12.361,0,0,0,2.611-5.045,36.873,36.873,0,0,0,1.134-8.23h2.649v38.9h-2.649a51.073,51.073,0,0,0-1.21-8.363,12.328,12.328,0,0,0-2.46-5.178,8.981,8.981,0,0,0-4.2-2.655,22.083,22.083,0,0,0-6.432-.8Z" transform="translate(-141.815 -17.725)"/><path d="M224.9,413.453a20.913,20.913,0,0,1,12.409,4.116,36.335,36.335,0,0,1,9.988,11.283,63.066,63.066,0,0,1,6.659,16.86,86.388,86.388,0,0,1,2.422,20.975,79.7,79.7,0,0,1-2.46,20.178,61.1,61.1,0,0,1-6.7,16.395,36.217,36.217,0,0,1-9.987,11.019,20.816,20.816,0,0,1-24.669,0,36.194,36.194,0,0,1-9.988-11.019,61.031,61.031,0,0,1-6.7-16.395,79.66,79.66,0,0,1-2.459-20.178,86.389,86.389,0,0,1,2.421-20.975,62.967,62.967,0,0,1,6.66-16.86,36.285,36.285,0,0,1,9.988-11.283A20.909,20.909,0,0,1,224.9,413.453Zm0,97.573a14.323,14.323,0,0,0,8.966-3.054,24.588,24.588,0,0,0,6.81-8.761,52.916,52.916,0,0,0,4.351-13.872,100.567,100.567,0,0,0,1.514-18.254,110.761,110.761,0,0,0-1.514-19.183,59.561,59.561,0,0,0-4.313-14.6,25.542,25.542,0,0,0-6.81-9.293,14.092,14.092,0,0,0-18.009,0,25.5,25.5,0,0,0-6.81,9.293,59.43,59.43,0,0,0-4.313,14.6,110.662,110.662,0,0,0-1.514,19.183,100.477,100.477,0,0,0,1.514,18.254,53.84,53.84,0,0,0,4.313,13.872,24,24,0,0,0,6.81,8.761A14.478,14.478,0,0,0,224.9,511.026Z" transform="translate(-141.815 -17.725)"/><path d="M309.5,440.4q0,10.622-3.632,17.656a18.4,18.4,0,0,1-11.577,9.425L311.01,502.8a17,17,0,0,0,4.5,6.306,16.343,16.343,0,0,0,5.864,2.854V517h-14.6l-18.539-41.684a24.84,24.84,0,0,0-1.854-3.585,8.391,8.391,0,0,0-1.816-2.057,4.766,4.766,0,0,0-2.194-.93,19.392,19.392,0,0,0-2.989-.2v27.613a76.735,76.735,0,0,0,.34,8.031,11.361,11.361,0,0,0,1.438,4.845,5.371,5.371,0,0,0,3.178,2.324,20.494,20.494,0,0,0,5.486.6V517H263.112v-5.045a13.17,13.17,0,0,0,4.275-.8,5.049,5.049,0,0,0,2.535-2.256,11.7,11.7,0,0,0,1.211-4.514q.3-2.917.3-7.566V434.959q0-4.645-.265-7.5a13.57,13.57,0,0,0-1.06-4.514,4.288,4.288,0,0,0-2.307-2.257,15.662,15.662,0,0,0-3.935-.863v-5.044h23.76q10.441,0,16.155,6.77T309.5,440.4Zm-30.116,21.506h5.373q7.565,0,11.236-4.846t3.67-16q0-10.753-2.913-15.4t-9.118-4.646h-6.961q-1.288,0-1.287,2.257Z" transform="translate(-141.815 -17.725)"/><path d="M377,440.137h-3.1a57.053,57.053,0,0,0-1.059-9.559,16.542,16.542,0,0,0-2.384-6.04,8.6,8.6,0,0,0-3.9-3.12,15.225,15.225,0,0,0-5.6-.929,40.424,40.424,0,0,0-4.5.2,6.894,6.894,0,0,0-2.611.73,2.512,2.512,0,0,0-1.172,1.261,5.739,5.739,0,0,0-.265,1.925v71.023a67.092,67.092,0,0,0,.34,7.3,13.925,13.925,0,0,0,1.363,4.978,6.789,6.789,0,0,0,2.95,2.921,12.305,12.305,0,0,0,5.108,1.128V517h-28.6v-5.045a12.589,12.589,0,0,0,5.145-1.128,6.754,6.754,0,0,0,2.989-2.921,13.947,13.947,0,0,0,1.362-4.978,67.066,67.066,0,0,0,.341-7.3V424.6a5.761,5.761,0,0,0-.266-1.925,2.612,2.612,0,0,0-1.059-1.261,5.39,5.39,0,0,0-2.232-.73,29.443,29.443,0,0,0-3.859-.2,35.458,35.458,0,0,0-5.486.4,7.6,7.6,0,0,0-4.389,2.324,13.963,13.963,0,0,0-2.989,5.907,43.691,43.691,0,0,0-1.211,11.019h-2.8V414.781h57.13Z" transform="translate(-141.815 -17.725)"/><path d="M432.913,475.846A128.2,128.2,0,0,1,431.74,494.3a45.162,45.162,0,0,1-3.783,13.275,19.645,19.645,0,0,1-6.773,8.032,18,18,0,0,1-10.064,2.721,23.079,23.079,0,0,1-9.761-1.924,16.337,16.337,0,0,1-6.962-6.372,33.556,33.556,0,0,1-4.161-11.617,96.58,96.58,0,0,1-1.362-17.655V445.712q0-9.823-.265-15.134t-1.552-7.832a4.691,4.691,0,0,0-2.459-2.323,11.724,11.724,0,0,0-4.124-.6v-5.044h25.8v5.044a13.49,13.49,0,0,0-4.161.531,4.353,4.353,0,0,0-2.5,2.656,23.544,23.544,0,0,0-1.363,7.633q-.3,5.245-.3,15.067v36.109a80.745,80.745,0,0,0,.8,12.014,30.065,30.065,0,0,0,2.61,8.894,13.386,13.386,0,0,0,4.729,5.509,13.013,13.013,0,0,0,7.151,1.858q7.566,0,11.35-7.367t3.784-21.7V449.031q0-11.814-.531-17.922t-1.966-8.629a4.672,4.672,0,0,0-2.649-2.19,14.255,14.255,0,0,0-3.934-.465v-5.044h21.943v5.044a10.181,10.181,0,0,0-3.973.664,4.952,4.952,0,0,0-2.459,2.92,29.744,29.744,0,0,0-1.513,8.7q-.379,5.908-.378,16.926Z" transform="translate(-141.815 -17.725)"/><path d="M495.944,518.327,460,435.224h-.3v56.685q0,6.641.264,10.488a22.1,22.1,0,0,0,1.06,5.974,4.59,4.59,0,0,0,2.271,2.787,11.015,11.015,0,0,0,3.9.8V517H446.836v-5.045a12.028,12.028,0,0,0,4.275-.862,5.141,5.141,0,0,0,2.534-2.722,17.518,17.518,0,0,0,1.211-5.642q.3-3.649.3-9.89v-53.9q0-5.577-.265-9.227a21.477,21.477,0,0,0-1.059-5.774,5.468,5.468,0,0,0-2.308-2.987,10.237,10.237,0,0,0-3.935-1.129v-5.044h14.983l33.066,77.394h.3v-52.3q0-6.5-.265-10.421a22.3,22.3,0,0,0-1.059-6.041,4.607,4.607,0,0,0-2.27-2.787,11.139,11.139,0,0,0-3.9-.8v-5.044h20.355v5.044a12.1,12.1,0,0,0-4.275.863A5.148,5.148,0,0,0,502,423.409a17.694,17.694,0,0,0-1.211,5.709q-.3,3.717-.3,9.824v79.385Z" transform="translate(-141.815 -17.725)"/><path d="M531.356,460.845a23.248,23.248,0,0,0,6.848-.862,9.387,9.387,0,0,0,4.388-2.721,11.179,11.179,0,0,0,2.347-4.78,29.151,29.151,0,0,0,.719-6.9h2.648v36.242h-2.648a32.505,32.505,0,0,0-.644-6.9,11.044,11.044,0,0,0-2.27-4.845,10.076,10.076,0,0,0-4.389-2.92,20.906,20.906,0,0,0-7-1v30a35.689,35.689,0,0,0,.606,7.235,10.639,10.639,0,0,0,2.081,4.646,7.815,7.815,0,0,0,3.9,2.522,20.932,20.932,0,0,0,5.978.73,20.438,20.438,0,0,0,6.81-1,10.283,10.283,0,0,0,4.692-3.386,18.287,18.287,0,0,0,3.027-6.305,66.458,66.458,0,0,0,1.891-9.758h2.875L562.078,517H515.087v-5.045a13.188,13.188,0,0,0,4.276-.8A5.046,5.046,0,0,0,521.9,508.9a11.7,11.7,0,0,0,1.211-4.514q.3-2.917.3-7.566V434.959q0-4.645-.265-7.5a13.6,13.6,0,0,0-1.059-4.514,4.29,4.29,0,0,0-2.308-2.257,15.662,15.662,0,0,0-3.935-.863v-5.044h43.737l.68,23.364h-2.648a43.731,43.731,0,0,0-1.476-8.695,14.048,14.048,0,0,0-2.8-5.376,9.449,9.449,0,0,0-4.5-2.789,23.736,23.736,0,0,0-6.583-.8h-9.611q-1.287,0-1.286,2.257Z" transform="translate(-141.815 -17.725)"/><path d="M629.723,460.845a23.248,23.248,0,0,0,6.848-.862,9.39,9.39,0,0,0,4.389-2.721,11.178,11.178,0,0,0,2.346-4.78,29.151,29.151,0,0,0,.719-6.9h2.648v36.242h-2.648a32.505,32.505,0,0,0-.644-6.9,11.044,11.044,0,0,0-2.27-4.845,10.076,10.076,0,0,0-4.389-2.92,20.906,20.906,0,0,0-7-1v30a35.689,35.689,0,0,0,.606,7.235,10.639,10.639,0,0,0,2.081,4.646,7.815,7.815,0,0,0,3.9,2.522,20.937,20.937,0,0,0,5.978.73,20.434,20.434,0,0,0,6.81-1,10.278,10.278,0,0,0,4.692-3.386,18.287,18.287,0,0,0,3.027-6.305,66.576,66.576,0,0,0,1.892-9.758h2.875L660.445,517h-46.99v-5.045a13.186,13.186,0,0,0,4.275-.8,5.046,5.046,0,0,0,2.534-2.256,11.7,11.7,0,0,0,1.211-4.514q.3-2.917.3-7.566V434.959q0-4.645-.265-7.5a13.572,13.572,0,0,0-1.059-4.514,4.29,4.29,0,0,0-2.308-2.257,15.664,15.664,0,0,0-3.934-.863v-5.044h43.736l.681,23.364H655.98a43.731,43.731,0,0,0-1.476-8.695,14.061,14.061,0,0,0-2.8-5.376,9.457,9.457,0,0,0-4.5-2.789,23.736,23.736,0,0,0-6.583-.8h-9.611q-1.287,0-1.286,2.257Z" transform="translate(-141.815 -17.725)"/><path d="M667.86,517v-5.045a17.47,17.47,0,0,0,4.654-.73,4.96,4.96,0,0,0,2.762-2.257,11.6,11.6,0,0,0,1.324-4.513,67.487,67.487,0,0,0,.341-7.633V434.959q0-4.645-.266-7.5a13.575,13.575,0,0,0-1.058-4.514,4.291,4.291,0,0,0-2.309-2.257,15.653,15.653,0,0,0-3.934-.863v-5.044h26.559a21.776,21.776,0,0,1,12.6,3.982,34.619,34.619,0,0,1,9.988,11.019,60.093,60.093,0,0,1,6.546,16.727,89.678,89.678,0,0,1,2.346,21.107,85.186,85.186,0,0,1-2.2,19.979,54.146,54.146,0,0,1-6.167,15.6,31.679,31.679,0,0,1-9.5,10.155A21.5,21.5,0,0,1,697.447,517Zm18.312-95.715q-1.287,0-1.287,2.257v71.819q0,15.134,11.276,15.134,10.365,0,15.889-10.819t5.525-31.794a114.557,114.557,0,0,0-1.514-19.648,57.3,57.3,0,0,0-4.35-14.6,25.288,25.288,0,0,0-6.849-9.161,14.213,14.213,0,0,0-9.08-3.186Z" transform="translate(-141.815 -17.725)"/><path d="M785.6,475.846a128.06,128.06,0,0,1-1.173,18.453,45.162,45.162,0,0,1-3.783,13.275,19.643,19.643,0,0,1-6.772,8.032,18,18,0,0,1-10.065,2.721,23.085,23.085,0,0,1-9.761-1.924,16.335,16.335,0,0,1-6.961-6.372,33.556,33.556,0,0,1-4.162-11.617,96.58,96.58,0,0,1-1.362-17.655V445.712q0-9.823-.265-15.134t-1.551-7.832a4.694,4.694,0,0,0-2.459-2.323,11.724,11.724,0,0,0-4.124-.6v-5.044h25.8v5.044a13.5,13.5,0,0,0-4.161.531,4.358,4.358,0,0,0-2.5,2.656,23.522,23.522,0,0,0-1.362,7.633q-.3,5.245-.3,15.067v36.109a80.88,80.88,0,0,0,.8,12.014,30.094,30.094,0,0,0,2.61,8.894,13.388,13.388,0,0,0,4.73,5.509,13.007,13.007,0,0,0,7.15,1.858q7.566,0,11.351-7.367t3.783-21.7V449.031q0-11.814-.53-17.922t-1.967-8.629a4.673,4.673,0,0,0-2.648-2.19,14.263,14.263,0,0,0-3.935-.465v-5.044h21.943v5.044a10.176,10.176,0,0,0-3.972.664,4.949,4.949,0,0,0-2.459,2.92,29.738,29.738,0,0,0-1.514,8.7q-.379,5.908-.378,16.926Z" transform="translate(-141.815 -17.725)"/><path d="M847.5,414.781h2.119l.68,30.533h-2.8q-1.667-11.681-6.432-18.32t-11.5-6.638a12.167,12.167,0,0,0-8.248,3.186,24.541,24.541,0,0,0-6.129,9.16,62.885,62.885,0,0,0-3.821,14.6,129.572,129.572,0,0,0-1.324,19.515q0,21.375,5.07,32.856t14.68,11.482q14.6,0,18.765-27.213h3.1V517h-2.649l-1.741-10.488q-7.944,11.817-19.22,11.815a19.945,19.945,0,0,1-11.615-3.584,29.575,29.575,0,0,1-8.852-10.155,57.133,57.133,0,0,1-5.676-16,101.029,101.029,0,0,1-2-20.975,106.052,106.052,0,0,1,2.119-22.037,65.173,65.173,0,0,1,5.94-17.125,32.223,32.223,0,0,1,9.156-11.085,19.444,19.444,0,0,1,11.766-3.916,17.168,17.168,0,0,1,8.55,2.257,37.865,37.865,0,0,1,8.7,7.3Z" transform="translate(-141.815 -17.725)"/><path d="M892.973,479.962h-20.2q-1.287,5.445-2.194,9.625t-1.476,7.235q-.567,3.054-.794,5.177a34.009,34.009,0,0,0-.227,3.451q0,3.719,1.362,5.111t4.54,1.394V517H855.592v-5.045a12.063,12.063,0,0,0,2.99-1.062,6.961,6.961,0,0,0,2.194-1.859,11.48,11.48,0,0,0,1.664-3.119,42.322,42.322,0,0,0,1.4-4.713l19.674-86.421h3.254l17.177,74.872q1.739,7.435,3.026,11.881a36.2,36.2,0,0,0,2.5,6.7,6.4,6.4,0,0,0,2.611,2.92,7.765,7.765,0,0,0,3.367.665V517H890.778v-5.177q4.011,0,5.524-1.328t1.514-4.381q0-1.326-.076-2.456t-.265-2.456q-.191-1.324-.53-2.986t-.87-3.917Zm-18.69-6.638h17.252l-8.4-39.162Z" transform="translate(-141.815 -17.725)"/><path d="M968.414,440.137h-3.1a57.053,57.053,0,0,0-1.059-9.559,16.542,16.542,0,0,0-2.383-6.04,8.607,8.607,0,0,0-3.9-3.12,15.22,15.22,0,0,0-5.6-.929,40.4,40.4,0,0,0-4.5.2,6.894,6.894,0,0,0-2.611.73,2.507,2.507,0,0,0-1.172,1.261,5.736,5.736,0,0,0-.266,1.925v71.023a67.066,67.066,0,0,0,.341,7.3,13.926,13.926,0,0,0,1.362,4.978,6.8,6.8,0,0,0,2.951,2.921,12.294,12.294,0,0,0,5.108,1.128V517h-28.6v-5.045a12.6,12.6,0,0,0,5.146-1.128,6.756,6.756,0,0,0,2.988-2.921,13.926,13.926,0,0,0,1.362-4.978,66.813,66.813,0,0,0,.341-7.3V424.6a5.79,5.79,0,0,0-.265-1.925,2.618,2.618,0,0,0-1.059-1.261,5.4,5.4,0,0,0-2.233-.73,29.443,29.443,0,0,0-3.859-.2,35.454,35.454,0,0,0-5.485.4,7.6,7.6,0,0,0-4.389,2.324,13.963,13.963,0,0,0-2.989,5.907,43.691,43.691,0,0,0-1.211,11.019h-2.8V414.781h57.13Z" transform="translate(-141.815 -17.725)"/><path d="M989.374,491.909q0,6.641.3,10.488a20.593,20.593,0,0,0,1.173,5.974,4.71,4.71,0,0,0,2.5,2.787,13.166,13.166,0,0,0,4.276.8V517H973.105v-5.045a12.018,12.018,0,0,0,4.275-.862,5.147,5.147,0,0,0,2.535-2.722,17.572,17.572,0,0,0,1.211-5.642q.3-3.649.3-9.89v-53.9q0-5.577-.264-9.227a21.473,21.473,0,0,0-1.06-5.774,5.464,5.464,0,0,0-2.308-2.987,10.231,10.231,0,0,0-3.934-1.129v-5.044h23v5.044a8.109,8.109,0,0,0-3.9,1.062,5.887,5.887,0,0,0-2.27,3.12,23.04,23.04,0,0,0-1.06,6.04q-.264,3.852-.264,9.824Z" transform="translate(-141.815 -17.725)"/><path d="M1035.834,413.453a20.918,20.918,0,0,1,12.41,4.116,36.335,36.335,0,0,1,9.988,11.283,63.065,63.065,0,0,1,6.658,16.86,86.388,86.388,0,0,1,2.422,20.975,79.705,79.705,0,0,1-2.459,20.178,61.129,61.129,0,0,1-6.7,16.395,36.219,36.219,0,0,1-9.988,11.019,20.814,20.814,0,0,1-24.668,0,36.222,36.222,0,0,1-9.989-11.019,61.063,61.063,0,0,1-6.7-16.395,79.66,79.66,0,0,1-2.459-20.178,86.339,86.339,0,0,1,2.421-20.975,63,63,0,0,1,6.659-16.86,36.285,36.285,0,0,1,9.988-11.283A20.909,20.909,0,0,1,1035.834,413.453Zm0,97.573a14.319,14.319,0,0,0,8.966-3.054,24.579,24.579,0,0,0,6.811-8.761,52.916,52.916,0,0,0,4.351-13.872,100.662,100.662,0,0,0,1.513-18.254,110.865,110.865,0,0,0-1.513-19.183,59.6,59.6,0,0,0-4.313-14.6,25.544,25.544,0,0,0-6.811-9.293,14.091,14.091,0,0,0-18.008,0,25.5,25.5,0,0,0-6.811,9.293,59.43,59.43,0,0,0-4.313,14.6,110.668,110.668,0,0,0-1.513,19.183,100.482,100.482,0,0,0,1.513,18.254,53.84,53.84,0,0,0,4.313,13.872,24.005,24.005,0,0,0,6.811,8.761A14.475,14.475,0,0,0,1035.834,511.026Z" transform="translate(-141.815 -17.725)"/><path d="M1123.157,518.327l-35.943-83.1h-.3v56.685q0,6.641.264,10.488a22.1,22.1,0,0,0,1.06,5.974,4.592,4.592,0,0,0,2.27,2.787,11.027,11.027,0,0,0,3.9.8V517h-20.355v-5.045a12.029,12.029,0,0,0,4.276-.862,5.141,5.141,0,0,0,2.534-2.722,17.545,17.545,0,0,0,1.211-5.642q.3-3.649.3-9.89v-53.9q0-5.577-.265-9.227a21.433,21.433,0,0,0-1.06-5.774,5.463,5.463,0,0,0-2.307-2.987,10.237,10.237,0,0,0-3.935-1.129v-5.044h14.983l33.066,77.394h.3v-52.3q0-6.5-.265-10.421a22.34,22.34,0,0,0-1.059-6.041,4.61,4.61,0,0,0-2.27-2.787,11.139,11.139,0,0,0-3.9-.8v-5.044h20.355v5.044a12.09,12.09,0,0,0-4.275.863,5.148,5.148,0,0,0-2.535,2.721,17.694,17.694,0,0,0-1.211,5.709q-.3,3.717-.3,9.824v79.385Z" transform="translate(-141.815 -17.725)"/></svg>