<?xml version="1.0" encoding="utf-8"?>
<!-- Generator: Adobe Illustrator 24.3.0, SVG Export Plug-In . SVG Version: 6.00 Build 0)  -->
<svg version="1.1" id="Layer_1" xmlns="http://www.w3.org/2000/svg" xmlns:xlink="http://www.w3.org/1999/xlink" x="0px" y="0px"
	 viewBox="0 0 1080 1080" style="enable-background:new 0 0 1080 1080;" xml:space="preserve">
<style type="text/css">
	.st0{fill:#FCA712;}
	.st1{fill:none;stroke:#FCA712;stroke-width:2.0524;stroke-linecap:round;stroke-miterlimit:10;}
	.st2{fill:#001253;}
	.st3{fill:url(#SVGID_1_);}
	.st4{fill:url(#SVGID_2_);}
	.st5{fill:url(#SVGID_3_);}
	.st6{fill:url(#SVGID_4_);}
	.st7{fill:url(#SVGID_5_);}
	.st8{fill:url(#SVGID_6_);}
	.st9{fill:url(#SVGID_7_);}
	.st10{fill:url(#SVGID_8_);}
	.st11{fill:url(#SVGID_9_);}
	.st12{fill:url(#SVGID_10_);}
	.st13{fill:url(#SVGID_11_);}
	.st14{fill:url(#SVGID_12_);}
	.st15{fill:#FAA71A;}
</style>
<g>
	<g>
		<g>
			<g>
				<path class="st0" d="M650.9865,425.3778c-22.0071-40.9216-65.2433-68.7528-114.9769-68.7528
					c-49.6863,0-92.8845,27.7743-114.9199,68.6485c-3.6901,6.8298-6.7822,14.0294-9.2106,21.5232
					c92.3245,25.1183,122.5275,79.3484,124.0736,82.2321v0.0095c0.0097,0.0095,0.0097,0.0095,0.0097,0.0189
					c0.0186,0.038,0.038,0.0664,0.038,0.0854v0.0095h0.0185v-0.0095c0.4557-0.8727,30.0038-56.7438,124.1213-82.3364h0.0097
					C657.7308,439.3503,654.6576,432.1791,650.9865,425.3778z M516.8579,399.9559l37.1556-0.0854v11.5726l-37.1556,0.0759V399.9559z
					 M536.0569,528.0042l2.5423-58.2994c3.1208-1.3185,5.2932-4.4109,5.2932-8.006c0-4.7998-3.8605-8.689-8.6608-8.689
					c-4.7994,0-8.6887,3.8892-8.6887,8.689c0,3.6615,2.2672,6.8108,5.4923,8.0723l3.8133,57.7968c0-0.0095,0-0.019-0.0098-0.0285
					c-1.9254-19.4458-37.44-63.4787-37.44-63.4787c16.0021-14.0389,18.4115-48.2256,18.4115-48.2256l20.7265-0.1517l16.2967,0.1517
					c0,0,2.4187,34.1867,18.4213,48.2256c0,0-34.851,44.7823-36.1881,63.953L536.0569,528.0042z"/>
				<g>
					<line class="st1" x1="426.0785" y1="410.2531" x2="409.1578" y2="398.1003"/>
					<g>
						<g>
							<path class="st1" d="M409.1578,398.1003"/>
							<path class="st1" d="M426.0785,410.2531"/>
							<line class="st1" x1="436.4819" y1="396.4073" x2="410.8895" y2="373.0378"/>
							<line class="st1" x1="449.0745" y1="383.5565" x2="437.1634" y2="366.4648"/>
							<line class="st1" x1="464.428" y1="372.0573" x2="448.647" y2="341.2018"/>
							<line class="st1" x1="480.7253" y1="362.8011" x2="475.5584" y2="342.6194"/>
							<line class="st1" x1="500.6482" y1="356.3549" x2="493.1559" y2="322.5175"/>
							<line class="st1" x1="517.059" y1="352.1367" x2="514.6135" y2="331.448"/>
							<line class="st1" x1="534.9419" y1="351.0716" x2="535.611" y2="316.4211"/>
						</g>
						<line class="st1" x1="655.8405" y1="427.2233" x2="688.1107" y2="414.5844"/>
						<line class="st1" x1="646.8942" y1="411.4751" x2="664.1418" y2="399.7909"/>
						<line class="st1" x1="636.058" y1="397.3494" x2="662.2815" y2="374.6904"/>
						<line class="st1" x1="623.8224" y1="384.9745" x2="636.1977" y2="368.2158"/>
						<line class="st1" x1="608.79" y1="373.0587" x2="625.411" y2="342.6474"/>
						<line class="st1" x1="592.7526" y1="364.1755" x2="598.4709" y2="344.1429"/>
						<line class="st1" x1="573.014" y1="356.3691" x2="581.4312" y2="322.7498"/>
						<line class="st1" x1="556.725" y1="352.5189" x2="559.7368" y2="331.905"/>
					</g>
				</g>
			</g>
			<g>
				<g>
					<g>
						<path class="st1" d="M409.1578,395.5463"/>
						<path class="st1" d="M426.0785,407.6991"/>
						<g>
							<g>
								<path class="st1" d="M409.1578,395.5463"/>
								<path class="st1" d="M426.0785,407.6991"/>
							</g>
							<line class="st1" x1="655.8405" y1="424.6693" x2="688.1107" y2="412.0304"/>
						</g>
					</g>
				</g>
				<g>
					<path class="st2" d="M755.9114,455.3425c-19.8441-1.6126-38.3034-1.5272-55.387-0.1328
						c-84.452,6.8488-135.7034,45.3799-158.5929,67.5576c-0.0852,0.0759-0.1612,0.1423-0.2371,0.2371
						c-0.3317,0.3225-0.6545,0.6356-0.9768,0.958c-0.7874,0.7874-1.8402,1.8403-2.6938,2.7035
						c-0.3321,0.332-0.6452,0.6545-0.9583,0.977v0.019c-0.1992,0.1992-0.389,0.3984-0.5785,0.5976
						c-0.1042,0.1138-0.2089,0.2181-0.2849,0.2941c-0.0375,0.0379-0.0565,0.0759-0.1042,0.1043
						c-0.0283-0.0474-0.0755-0.0759-0.1042-0.1138c-0.2844-0.3035-0.5785-0.6165-0.8916-0.9296
						c-1.3469-1.4134-2.8555-2.9406-4.5247-4.5627c-0.0287-0.019-0.0569-0.0474-0.0852-0.0759
						c-22.7279-22.1208-74.0839-60.9745-158.9245-67.8706c-17.0934-1.4039-35.5433-1.4988-55.4065,0.1138l19.9673-53.1393
						c16.9132,1.8402,32.4702,4.6576,46.8031,8.2526c13.7543,3.4529,26.3702,7.6076,37.9333,12.2936
						c74.4062,30.0983,105.2447,81.625,115.2141,102.8825c10.0267-21.343,40.9027-72.7557,115.2048-102.7972
						c11.563-4.6765,24.1697-8.8312,37.9143-12.2746c14.3236-3.5951,29.8709-6.4123,46.7461-8.2336L755.9114,455.3425z"/>
					<g>
						<path class="st2" d="M812.5341,472.3544v71.7651c0,0-54.6783-14.4754-118.3849-22.1459
							c-54.9024-6.6259-116.5049-8.1927-155.5734,8.9091c-0.3134,0.1194-2.0592,0.9103-2.4323,1.0894
							c-0.0747-0.0298-2.5521-1.1639-2.6265-1.1938c-39.0689-17.1168-100.7009-15.5349-155.6179-8.924
							c-63.677,7.6854-118.3401,22.1608-118.3401,22.1608v-71.7651c17.7882-4.5813,34.6961-7.7898,50.7385-9.8044
							c21.8774-2.7906,42.1427-3.4174,60.8115-2.4175c85.584,4.4918,137.755,42.9038,159.3785,62.9455
							c0.0298,0.0298,0.0598,0.0596,0.0896,0.0746c1.6712,1.6266,3.1785,3.1487,4.5217,4.5665
							c0.3134,0.3134,0.6118,0.6267,0.8952,0.9252c0.0298,0.0447,0.0746,0.0746,0.1046,0.1194
							c0.0448-0.0298,0.0747-0.0746,0.1042-0.1194c0.2838-0.2836,0.5673-0.582,0.8657-0.8805v-0.0149
							c1.3881-1.4476,2.9249-2.9995,4.6263-4.6411c0.0747-0.0895,0.1494-0.1641,0.2386-0.2387
							c21.8177-20.0865,73.8991-58.1553,159.0652-62.6322c18.6685-0.9998,38.9196-0.3731,60.797,2.4175
							C777.838,464.5795,794.7452,467.7879,812.5341,472.3544z"/>
					</g>
				</g>
			</g>
		</g>
		<g>
			<path class="st2" d="M553.1953,202.3644c0,8.1145,0,15.706,0,24.8123c8.0304-7.9655,13.6901-3.2279,19.7869,3.6031
				c0-9.1278,0-16.493,0-25.1572c8.7649,3.3677,16.6862,6.4112,24.6075,9.4548c0.174-0.3829,0.3478-0.7658,0.5218-1.1487
				c-6.7491-3.281-13.3625-6.8975-20.3024-9.7073c-3.7003-1.4982-4.9039-3.3823-4.7313-7.2121
				c0.2933-6.5024,0.0807-13.0277,0.0807-20.4476c30.4188,12.8338,60.1994,25.3985,91.533,38.6183
				c-3.0205,1.7183-4.5246,2.7772-6.1792,3.4834c-14.017,5.9827-28.0173,12.0101-42.1317,17.7558
				c-3.1956,1.3009-4.3685,2.9146-4.3202,6.3734c0.1902,13.6423,0.1116,27.2889,0.0643,40.9338
				c-0.0216,6.2525-1.8395,7.6747-7.8594,6.7997c-35.0101-5.0891-70.1307-7.3058-105.4445-3.725
				c-9.908,1.0047-19.7974,2.1974-29.689,3.3574c-6.6549,0.7805-8.2295-0.5027-8.2461-7.199
				c-0.0378-15.2822-0.0212-30.5646-0.012-45.8469c0.0053-8.9516,3.7032-15.3421,11.8572-19.7798
				c23.5-12.7895,48.5852-17.5822,75.07-16.0998C549.4039,201.3225,550.9805,201.8861,553.1953,202.3644z"/>
			<path class="st2" d="M453.6191,235.0574c-14.6822-6.2519-28.4145-11.8865-41.8973-18.0655
				c-2.069-0.9482-3.0038-4.3962-4.4173-6.7159c-0.163-0.2675-0.0369-0.7152-0.034-1.0792
				c0.1326-16.3071-2.2183-13.9245,13.3799-20.5746c36.2263-15.4447,72.4317-30.9422,108.8124-46.0157
				c3.7654-1.5601,9.2333-1.8221,12.931-0.302c38.7904,15.9472,83.565,34.7534,122.2125,51.0485
				c0.6674,0.2814-0.102,6.3239-0.102,6.3239s-10.2395-3.8897-12.2482-4.7375c-35.793-15.1069-71.5827-30.2218-107.3813-45.3158
				c-2.2928-0.9668-4.6517-1.7768-6.9391-2.6443c-3.9597,8.441-2.0048,13.7669,5.9241,17.1462
				c9.2975,3.9626,9.296,3.9626,9.2901,14.4353c-0.0032,5.7995-0.0005,11.599-0.0005,17.8073
				c-5.8021-0.4043-11.1599-0.7977-16.5205-1.1476c-23.4199-1.5286-45.3763,3.5535-66.2602,14.1537
				C460.0182,214.628,452.6904,221.5249,453.6191,235.0574z"/>
		</g>
		<g>
			<linearGradient id="SVGID_1_" gradientUnits="userSpaceOnUse" x1="328.2505" y1="338.9011" x2="293.5288" y2="295.1548">
				<stop  offset="0" style="stop-color:#009245"/>
				<stop  offset="1" style="stop-color:#39B54A"/>
			</linearGradient>
			<path class="st3" d="M362.4398,362.5299c-11.2472-4.9532-22.5187-9.8518-33.73-14.8849
				c-4.8175-2.1627-9.6211-4.4041-14.2325-6.9669c-6.6531-3.6974-8.9242-10.4259-6.0538-16.8667
				c3.7065-8.317,12.8835-9.9992,19.4404-3.0089c8.3656,8.9186,16.2246,18.3154,24.2234,27.5738
				c3.7508,4.3414,7.3178,8.8414,10.9682,13.2695C362.8504,361.9406,362.6451,362.2353,362.4398,362.5299z"/>
			<linearGradient id="SVGID_2_" gradientUnits="userSpaceOnUse" x1="308.0886" y1="272.3808" x2="293.5916" y2="234.4807">
				<stop  offset="0" style="stop-color:#009245"/>
				<stop  offset="1" style="stop-color:#39B54A"/>
			</linearGradient>
			<path class="st4" d="M336.5678,317.1826c-7.8331-7.255-16.6415-15.166-25.1454-23.3919
				c-4.38-4.2369-8.4167-8.8741-12.2453-13.6232c-3.9633-4.9162-4.1526-10.918-1.0018-15.5953
				c2.8953-4.298,7.0007-5.9059,12.0241-4.9532c5.435,1.0307,7.782,5.3336,9.4729,9.8779
				c4.5376,12.1944,8.8629,24.4683,13.2232,36.7281C334.3641,310.3546,335.6845,314.537,336.5678,317.1826z"/>
			<linearGradient id="SVGID_3_" gradientUnits="userSpaceOnUse" x1="342.3435" y1="375.4809" x2="294.5732" y2="359.4464">
				<stop  offset="0" style="stop-color:#009245"/>
				<stop  offset="1" style="stop-color:#39B54A"/>
			</linearGradient>
			<path class="st5" d="M384.7683,379.7136c-12.4865,7.1081-24.5342,11.5259-38.0638,10.4785
				c-5.4046-0.4184-9.4514-2.9987-11.3354-8.1868c-1.9666-5.4157-1.0285-10.5388,3.0313-14.6601
				c3.8927-3.9516,8.7671-4.4741,13.7304-2.2994C362.7916,369.7166,373.3695,374.5765,384.7683,379.7136z"/>
			<linearGradient id="SVGID_4_" gradientUnits="userSpaceOnUse" x1="326.5182" y1="215.1731" x2="336.9407" y2="196.762">
				<stop  offset="0" style="stop-color:#009245"/>
				<stop  offset="1" style="stop-color:#39B54A"/>
			</linearGradient>
			<path class="st6" d="M335.4338,223.2574c0-4.4009-0.0043-8.8019,0.0009-13.2028c0.013-11.0735-0.0346-22.1476,0.0698-33.2202
				c0.0652-6.9131,3.5532-12.3225,8.2547-13.2366c8.0539-1.5659,15.0981,5.8958,12.1415,13.7439
				c-5.8581,15.5499-12.4617,30.8189-18.7571,46.204C336.5736,223.4495,336.0037,223.3535,335.4338,223.2574z"/>
			<linearGradient id="SVGID_5_" gradientUnits="userSpaceOnUse" x1="315.2205" y1="247.9865" x2="326.8719" y2="230.3136">
				<stop  offset="0" style="stop-color:#009245"/>
				<stop  offset="1" style="stop-color:#39B54A"/>
			</linearGradient>
			<path class="st7" d="M326.6432,270.4964c-5.6528-15.108-11.3455-30.2013-16.9347-45.3329
				c-1.7242-4.668-1.3965-9.2361,2.3183-12.874c2.8657-2.8063,6.4237-4.1147,10.4451-2.5455
				c4.9361,1.9261,6.8687,6.0808,7.1843,10.9359c0.3105,4.777,0.2592,9.5997,0.024,14.3854
				c-0.5759,11.7171-1.3495,23.4245-2.0435,35.1358C327.3055,270.2995,326.9743,270.3979,326.6432,270.4964z"/>
			<linearGradient id="SVGID_6_" gradientUnits="userSpaceOnUse" x1="357.5044" y1="180.2468" x2="378.6062" y2="153.637">
				<stop  offset="0" style="stop-color:#009245"/>
				<stop  offset="1" style="stop-color:#39B54A"/>
			</linearGradient>
			<path class="st8" d="M359.162,186.1916c5.1046-14.0023,10.0267-28.0752,15.3958-41.9754
				c2.4547-6.3548,8.4819-8.3479,13.6378-5.2667c5.4233,3.241,6.7185,9.9506,2.1271,15.3572
				c-6.9306,8.1613-14.4168,15.8537-21.737,23.6797c-2.7818,2.974-5.7578,5.7665-8.6452,8.6417
				C359.681,186.4827,359.4215,186.3371,359.162,186.1916z"/>
		</g>
		<g>
			
				<linearGradient id="SVGID_7_" gradientUnits="userSpaceOnUse" x1="3420.5383" y1="338.9011" x2="3385.8164" y2="295.1548" gradientTransform="matrix(-1 0 0 1 4160.2324 0)">
				<stop  offset="0" style="stop-color:#009245"/>
				<stop  offset="1" style="stop-color:#39B54A"/>
			</linearGradient>
			<path class="st9" d="M705.5048,362.5299c11.2471-4.9532,22.5187-9.8518,33.73-14.8849
				c4.8175-2.1627,9.6211-4.4041,14.2325-6.9669c6.6531-3.6974,8.9242-10.4259,6.0538-16.8667
				c-3.7065-8.317-12.8834-9.9992-19.4404-3.0089c-8.3656,8.9186-16.2245,18.3154-24.2234,27.5738
				c-3.7507,4.3414-7.3178,8.8414-10.9682,13.2695C705.0942,361.9406,705.2994,362.2353,705.5048,362.5299z"/>
			
				<linearGradient id="SVGID_8_" gradientUnits="userSpaceOnUse" x1="3400.3762" y1="272.3808" x2="3385.8794" y2="234.4807" gradientTransform="matrix(-1 0 0 1 4160.2324 0)">
				<stop  offset="0" style="stop-color:#009245"/>
				<stop  offset="1" style="stop-color:#39B54A"/>
			</linearGradient>
			<path class="st10" d="M731.3768,317.1826c7.8331-7.255,16.6415-15.166,25.1453-23.3919
				c4.3801-4.2369,8.4167-8.8741,12.2454-13.6232c3.9633-4.9162,4.1526-10.918,1.0018-15.5953
				c-2.8953-4.298-7.0007-5.9059-12.024-4.9532c-5.435,1.0307-7.782,5.3336-9.4729,9.8779
				c-4.5376,12.1944-8.8629,24.4683-13.2231,36.7281C733.5804,310.3546,732.2601,314.537,731.3768,317.1826z"/>
			
				<linearGradient id="SVGID_9_" gradientUnits="userSpaceOnUse" x1="3434.6313" y1="375.4809" x2="3386.8611" y2="359.4464" gradientTransform="matrix(-1 0 0 1 4160.2324 0)">
				<stop  offset="0" style="stop-color:#009245"/>
				<stop  offset="1" style="stop-color:#39B54A"/>
			</linearGradient>
			<path class="st11" d="M683.1763,379.7136c12.4865,7.1081,24.5342,11.5259,38.0638,10.4785
				c5.4046-0.4184,9.4514-2.9987,11.3354-8.1868c1.9666-5.4157,1.0286-10.5388-3.0313-14.6601
				c-3.8926-3.9516-8.767-4.4741-13.7304-2.2994C705.153,369.7166,694.5751,374.5765,683.1763,379.7136z"/>
			
				<linearGradient id="SVGID_10_" gradientUnits="userSpaceOnUse" x1="3418.8059" y1="215.1731" x2="3429.2283" y2="196.762" gradientTransform="matrix(-1 0 0 1 4160.2324 0)">
				<stop  offset="0" style="stop-color:#009245"/>
				<stop  offset="1" style="stop-color:#39B54A"/>
			</linearGradient>
			<path class="st12" d="M732.5107,223.2574c0-4.4009,0.0043-8.8019-0.0009-13.2028c-0.0131-11.0735,0.0346-22.1476-0.0698-33.2202
				c-0.0652-6.9131-3.5532-12.3225-8.2547-13.2366c-8.0538-1.5659-15.0981,5.8958-12.1415,13.7439
				c5.8582,15.5499,12.4617,30.8189,18.7571,46.204C731.371,223.4495,731.9409,223.3535,732.5107,223.2574z"/>
			
				<linearGradient id="SVGID_11_" gradientUnits="userSpaceOnUse" x1="3407.5083" y1="247.9865" x2="3419.1597" y2="230.3136" gradientTransform="matrix(-1 0 0 1 4160.2324 0)">
				<stop  offset="0" style="stop-color:#009245"/>
				<stop  offset="1" style="stop-color:#39B54A"/>
			</linearGradient>
			<path class="st13" d="M741.3015,270.4964c5.6528-15.108,11.3455-30.2013,16.9346-45.3329
				c1.7242-4.668,1.3965-9.2361-2.3183-12.874c-2.8657-2.8063-6.4237-4.1147-10.4451-2.5455
				c-4.9361,1.9261-6.8687,6.0808-7.1843,10.9359c-0.3105,4.777-0.2592,9.5997-0.024,14.3854
				c0.5759,11.7171,1.3495,23.4245,2.0436,35.1358C740.6391,270.2995,740.9703,270.3979,741.3015,270.4964z"/>
			
				<linearGradient id="SVGID_12_" gradientUnits="userSpaceOnUse" x1="3449.7922" y1="180.2468" x2="3470.8938" y2="153.637" gradientTransform="matrix(-1 0 0 1 4160.2324 0)">
				<stop  offset="0" style="stop-color:#009245"/>
				<stop  offset="1" style="stop-color:#39B54A"/>
			</linearGradient>
			<path class="st14" d="M708.7826,186.1916c-5.1046-14.0023-10.0267-28.0752-15.3959-41.9754
				c-2.4547-6.3548-8.4819-8.3479-13.6378-5.2667c-5.4233,3.241-6.7185,9.9506-2.1271,15.3572
				c6.9306,8.1613,14.4167,15.8537,21.737,23.6797c2.7818,2.974,5.7578,5.7665,8.6452,8.6417
				C708.2635,186.4827,708.5231,186.3371,708.7826,186.1916z"/>
		</g>
	</g>
	<g>
		<path d="M238.9565,668.7832c0,2.8848,0.1704,5.2178,0.5122,7c0.3413,1.7842,1.0811,3.1504,2.2197,4.0977
			c1.1382,0.9502,2.7495,1.6133,4.8374,1.9922c2.0864,0.3809,4.8379,0.6084,8.2529,0.6836v4.3252h-40.2959v-4.3252
			c2.6558-0.0752,4.7988-0.3027,6.4316-0.6836c1.6309-0.3789,2.9028-1.0244,3.813-1.9346c0.9106-0.9111,1.5176-2.2002,1.8213-3.8701
			c0.3027-1.6689,0.4556-3.8311,0.4556-6.4883v-53.0449c0-2.6553-0.1333-4.7988-0.3984-6.4307
			c-0.2666-1.6318-0.7969-2.9209-1.5938-3.8711c-0.7969-0.9473-1.9546-1.5928-3.4717-1.9346
			c-1.519-0.3418-3.4912-0.5869-5.9189-0.7402v-4.3252h65.793l1.2524,21.7412h-3.9844c-0.4551-3.2617-1.1772-5.9365-2.1626-8.0244
			c-0.9873-2.0869-2.3726-3.7373-4.1548-4.9521c-1.7837-1.2129-4.041-2.0664-6.7729-2.5605
			c-2.7319-0.4932-6.1465-0.7402-10.2446-0.7402h-14.4561c-1.2915,0-1.9351,0.6455-1.9351,1.9346v34.377
			c3.6426,0,6.7729-0.208,9.3906-0.626c2.6182-0.416,4.7808-1.1562,6.4883-2.2197c1.7075-1.0615,3.0166-2.5039,3.9272-4.3252
			s1.48-4.1729,1.7075-7.0576h3.9839v33.3516h-3.9839c-0.3809-2.8828-0.9873-5.2734-1.8213-7.1709
			c-0.8359-1.8965-2.0684-3.376-3.6997-4.4395c-1.6323-1.0615-3.7383-1.8213-6.3174-2.2764
			c-2.5806-0.4561-5.8052-0.6836-9.6753-0.6836V668.7832z"/>
		<path d="M339.4673,598.0947c6.6768,0,12.8999,1.1777,18.668,3.5293c5.7661,2.3525,10.7744,5.5771,15.0254,9.6748
			c4.249,4.0986,7.5874,8.918,10.0171,14.457c2.4277,5.54,3.6426,11.5352,3.6426,17.9844c0,6.1475-1.2344,11.915-3.6997,17.3027
			c-2.4668,5.3887-5.8247,10.0732-10.0737,14.0576c-4.251,3.9844-9.2593,7.1338-15.0254,9.4473
			c-5.7681,2.3164-11.9521,3.4727-18.5542,3.4727s-12.7881-1.1562-18.5542-3.4727c-5.7681-2.3135-10.7764-5.4629-15.0254-9.4473
			c-4.251-3.9844-7.6089-8.6689-10.0742-14.0576c-2.4668-5.3877-3.6992-11.1553-3.6992-17.3027
			c0-6.4492,1.2129-12.4443,3.6426-17.9844c2.4277-5.5391,5.7661-10.3584,10.0171-14.457c4.249-4.0977,9.2573-7.3223,15.0254-9.6748
			C326.5654,599.2725,332.7886,598.0947,339.4673,598.0947z M339.4673,681.7598c5.0083,0,9.5044-0.8721,13.4888-2.6182
			c3.9839-1.7451,7.3989-4.249,10.2446-7.5127c2.8457-3.2617,5.0264-7.2285,6.5449-11.8955
			c1.5171-4.667,2.2769-9.8838,2.2769-15.6514c0-6.0703-0.7598-11.5537-2.2769-16.4482c-1.5186-4.8945-3.6816-9.0674-6.4883-12.5215
			c-2.8081-3.4521-6.2231-6.1074-10.2446-7.9678c-4.0229-1.8584-8.5371-2.7891-13.5454-2.7891
			c-5.0088,0-9.5244,0.9307-13.5459,2.7891c-4.0229,1.8604-7.438,4.5156-10.2446,7.9678c-2.8081,3.4541-4.9712,7.627-6.4883,12.5215
			c-1.5186,4.8945-2.2764,10.3779-2.2764,16.4482c0,5.7676,0.7578,10.9844,2.2764,15.6514
			c1.5171,4.667,3.6802,8.6338,6.4883,11.8955c2.8066,3.2637,6.2217,5.7676,10.2446,7.5127
			C329.9429,680.8877,334.4585,681.7598,339.4673,681.7598z"/>
		<path d="M466.73,621.2021c0,6.0723-1.8213,11.1182-5.4639,15.1396c-3.6421,4.0234-9.4478,6.7158-17.4155,8.082l25.1562,30.2783
			c2.0488,2.5039,4.3057,4.3076,6.7729,5.4072c2.4648,1.1006,5.4067,1.917,8.8218,2.4473v4.3252h-21.9692l-27.8882-35.7422
			c-0.9873-1.29-1.9175-2.3145-2.7886-3.0732c-0.8735-0.7578-1.7842-1.3467-2.7319-1.7646
			c-0.9497-0.416-2.0493-0.6826-3.3013-0.7969s-2.7515-0.1709-4.4961-0.1709v23.6768c0,2.8086,0.1704,5.1045,0.5122,6.8867
			c0.3413,1.7842,1.0615,3.1689,2.1626,4.1543c1.0991,0.9873,2.6929,1.6504,4.7808,1.9922
			c2.0864,0.3418,4.8379,0.5127,8.2529,0.5127v4.3252h-40.1821v-4.3252c2.6558-0.0752,4.7988-0.3027,6.4316-0.6836
			c1.6309-0.3789,2.9028-1.0244,3.813-1.9346c0.9106-0.9111,1.5176-2.2002,1.8213-3.8701c0.3027-1.6689,0.4556-3.8311,0.4556-6.4883
			v-53.0449c0-2.6553-0.1333-4.7988-0.3984-6.4307c-0.2666-1.6318-0.7969-2.9209-1.5938-3.8711
			c-0.7969-0.9473-1.9546-1.5928-3.4717-1.9346c-1.519-0.3418-3.4912-0.5869-5.9189-0.7402v-4.3252h35.7422
			c10.4722,0,18.5718,1.9355,24.3027,5.8057C463.8647,608.9092,466.73,614.2979,466.73,621.2021z M421.4263,639.6426h8.0815
			c7.5874,0,13.2222-1.3838,16.9038-4.1543c3.6797-2.7695,5.5205-7.3428,5.5205-13.7168c0-6.1465-1.4619-10.5469-4.3823-13.2041
			c-2.9219-2.6553-7.4946-3.9844-13.7163-3.9844h-10.4722c-1.2915,0-1.9351,0.6455-1.9351,1.9355V639.6426z"/>
		<path d="M568.2656,620.9746h-4.666c-0.2285-3.2617-0.7598-5.9941-1.5938-8.1953c-0.8359-2.2002-2.0312-3.9277-3.5859-5.1797
			c-1.5557-1.252-3.5098-2.1426-5.8613-2.6748c-2.3535-0.5303-5.1621-0.7969-8.4238-0.7969c-2.8086,0-5.0654,0.0566-6.7729,0.1709
			s-3.0161,0.3232-3.9268,0.626c-0.9106,0.3037-1.4995,0.665-1.7646,1.0811c-0.2666,0.418-0.3984,0.9678-0.3984,1.6514v60.8984
			c0,2.4297,0.1709,4.5156,0.5122,6.2607c0.3418,1.7461,1.0244,3.1689,2.0493,4.2686c1.0244,1.1006,2.5039,1.9346,4.439,2.5039
			s4.4971,0.8926,7.6836,0.9678v4.3252h-43.0273v-4.3252c3.187-0.0752,5.7661-0.3984,7.7402-0.9678
			c1.9727-0.5693,3.4717-1.4033,4.4966-2.5039c1.0244-1.0996,1.707-2.5225,2.0488-4.2686c0.3413-1.7451,0.5122-3.8311,0.5122-6.2607
			v-60.8984c0-0.6836-0.1333-1.2334-0.3984-1.6514c-0.2671-0.416-0.7969-0.7773-1.5938-1.0811
			c-0.7969-0.3027-1.9175-0.5117-3.3579-0.626c-1.4424-0.1143-3.3774-0.1709-5.8052-0.1709c-2.9595,0-5.7109,0.1143-8.2529,0.3418
			c-2.543,0.2275-4.7432,0.8926-6.6021,1.9922c-1.8604,1.1006-3.3579,2.7881-4.4961,5.0654
			c-1.1382,2.2764-1.7466,5.4258-1.8213,9.4473h-4.2114v-21.7412h85.9395L568.2656,620.9746z"/>
		<path d="M652.3848,651.5947c0,5.9961-0.5879,11.2695-1.7637,15.8223c-1.1777,4.5537-3.0742,8.3486-5.6914,11.3828
			c-2.6191,3.0361-6.0156,5.332-10.1875,6.8867c-4.1738,1.5547-9.2207,2.334-15.1387,2.334c-5.6172,0-10.5117-0.5518-14.6855-1.6514
			c-4.1738-1.0986-7.666-2.9199-10.4707-5.4629c-2.8086-2.542-4.8965-5.8623-6.2617-9.9609
			c-1.3652-4.0977-2.0488-9.1436-2.0488-15.1387v-30.0508c0-5.6152-0.1328-9.9404-0.3984-12.9766
			c-0.2676-3.0342-1.043-5.2734-2.334-6.7158c-0.9102-0.9854-2.1445-1.6504-3.6992-1.9922
			c-1.5566-0.3418-3.625-0.5127-6.2031-0.5127v-4.3252h38.8164v4.3252c-2.582,0-4.668,0.1533-6.2617,0.4561
			c-1.5938,0.3037-2.8457,1.0635-3.7559,2.2764c-1.0645,1.3662-1.7461,3.5479-2.0488,6.5449
			c-0.3047,2.999-0.4551,7.3047-0.4551,12.9199v30.9609c0,3.8701,0.3984,7.3047,1.1953,10.3018
			c0.7969,2.999,2.1055,5.54,3.9258,7.627c1.8223,2.0879,4.1934,3.6621,7.1152,4.7236c2.9199,1.0635,6.5059,1.5938,10.7559,1.5938
			c7.5879,0,13.2793-2.1064,17.0742-6.3174c3.7949-4.2119,5.6914-10.416,5.6914-18.6113v-27.4326
			c0-6.7539-0.2656-11.876-0.7969-15.3672c-0.5312-3.4893-1.5176-5.9561-2.959-7.3984c-1.0625-0.9854-2.3906-1.6123-3.9844-1.8789
			c-1.5938-0.2646-3.5664-0.3984-5.918-0.3984v-4.3252h33.0098v4.3252c-2.4297,0-4.4219,0.1904-5.9766,0.5693
			c-1.5547,0.3809-2.7871,1.2148-3.6992,2.5039c-1.1367,1.5938-1.8965,4.0801-2.2754,7.4561
			c-0.3809,3.3779-0.5703,8.2158-0.5703,14.5137V651.5947z"/>
		<path d="M747.2031,688.0205l-54.0684-71.2578h-0.4551v48.6055c0,3.7959,0.1309,6.792,0.3984,8.9922
			c0.2656,2.2021,0.7969,3.9092,1.5938,5.123s1.9355,2.0107,3.4141,2.3896c1.4805,0.3809,3.4336,0.6084,5.8633,0.6836v4.3252
			h-30.6211v-4.3252c2.6562-0.0752,4.7988-0.3223,6.4316-0.7402c1.6309-0.416,2.9023-1.1953,3.8145-2.333
			c0.9102-1.1387,1.5156-2.75,1.8203-4.8379c0.3027-2.0869,0.4551-4.9131,0.4551-8.4805v-46.2148
			c0-3.1875-0.1328-5.8232-0.3984-7.9111c-0.2656-2.0859-0.7969-3.7363-1.5938-4.9512c-0.7969-1.2129-1.9531-2.0674-3.4707-2.5615
			c-1.5195-0.4922-3.4922-0.8145-5.9199-0.9678v-4.3252h22.5391l49.7422,66.3623h0.4551v-44.8486
			c0-3.7168-0.1328-6.6963-0.3984-8.9355c-0.2656-2.2373-0.7969-3.9648-1.5918-5.1797c-0.7969-1.2129-1.9355-2.0098-3.416-2.3896
			c-1.4805-0.3789-3.4336-0.6064-5.8613-0.6836v-4.3252h30.6191v4.3252c-2.6562,0.0771-4.8008,0.3242-6.4316,0.7402
			c-1.6328,0.418-2.9023,1.1953-3.8125,2.333c-0.9102,1.1387-1.5195,2.7715-1.8223,4.8955
			c-0.3027,2.125-0.4551,4.9336-0.4551,8.4229v68.0703H747.2031z"/>
		<path d="M800.4766,638.7324c4.0977,0,7.5293-0.2461,10.3008-0.7402c2.7695-0.4922,4.9688-1.2695,6.6016-2.333
			c1.6309-1.0625,2.8066-2.4287,3.5293-4.0986c0.7207-1.668,1.082-3.6426,1.082-5.9189h3.9844v31.0752h-3.9844
			c0-2.2764-0.3242-4.249-0.9688-5.9189c-0.6445-1.668-1.7832-3.0537-3.4141-4.1543c-1.6328-1.0996-3.834-1.9355-6.6016-2.5049
			c-2.7715-0.5684-6.2812-0.8535-10.5293-0.8535v25.7256c0,2.5039,0.3008,4.5723,0.9102,6.2031
			c0.6055,1.6328,1.6504,2.96,3.1309,3.9844c1.4785,1.0244,3.4316,1.7471,5.8613,2.1631c2.4277,0.418,5.4258,0.626,8.9922,0.626
			c4.0215,0,7.4375-0.2852,10.2461-0.8535c2.8047-0.5693,5.1582-1.5371,7.0566-2.9033c1.8965-1.3652,3.4141-3.167,4.5527-5.4062
			c1.1387-2.2373,2.0859-5.0264,2.8457-8.3672h4.3262l-1.707,22.4248H776.002v-4.3252c2.6562-0.0752,4.7988-0.3027,6.4316-0.6836
			c1.6309-0.3789,2.9023-1.0244,3.8145-1.9346c0.9102-0.9111,1.5156-2.2002,1.8203-3.8701
			c0.3027-1.6689,0.4551-3.8311,0.4551-6.4883v-53.0449c0-2.6553-0.1328-4.7988-0.3984-6.4307s-0.7969-2.9209-1.5938-3.8711
			c-0.7969-0.9473-1.9531-1.5928-3.4707-1.9346c-1.5195-0.3418-3.4922-0.5869-5.9199-0.7402v-4.3252h65.793l1.0254,20.0342h-3.9844
			c-0.4551-3.0342-1.1953-5.5205-2.2188-7.4561c-1.0254-1.9355-2.4297-3.4717-4.2129-4.6104
			c-1.7832-1.1377-4.041-1.9346-6.7734-2.3906c-2.7305-0.4551-6.0312-0.6826-9.9023-0.6826h-14.457
			c-1.291,0-1.9336,0.6455-1.9336,1.9355V638.7324z"/>
	</g>
	<g>
		<path d="M316.6699,738.4453c2.3901,0,4.3926-0.1436,6.0093-0.4316c1.6152-0.2881,2.8984-0.7412,3.8511-1.3613
			c0.9517-0.6201,1.6372-1.416,2.0586-2.3906c0.4199-0.9736,0.6309-2.125,0.6309-3.4531h2.3237v18.1279h-2.3237
			c0-1.3281-0.189-2.4785-0.5645-3.4531c-0.377-0.9736-1.041-1.7812-1.9922-2.4238c-0.9526-0.6406-2.2358-1.1289-3.8511-1.4609
			c-1.6167-0.332-3.6636-0.498-6.1421-0.498v15.0068c0,1.4609,0.1763,2.667,0.5312,3.6191
			c0.3535,0.9521,0.9629,1.7256,1.8257,2.3232c0.8633,0.5977,2.0024,1.0195,3.4199,1.2617c1.416,0.2441,3.1641,0.3652,5.2456,0.3652
			c2.3457,0,4.3379-0.166,5.9761-0.498c1.6372-0.332,3.0098-0.8965,4.1167-1.6934c1.106-0.7959,1.9922-1.8477,2.6562-3.1533
			c0.6636-1.3057,1.2168-2.9326,1.6597-4.8809h2.5234l-0.9961,13.0811h-41.2349v-2.5234c1.5493-0.043,2.7993-0.1758,3.752-0.3984
			c0.9512-0.2207,1.6929-0.5977,2.2241-1.1289s0.8853-1.2832,1.0625-2.2568c0.1763-0.9736,0.2656-2.2354,0.2656-3.7852v-30.9424
			c0-1.5488-0.0776-2.7998-0.2324-3.752c-0.1558-0.9512-0.4648-1.7031-0.9297-2.2578c-0.4648-0.5527-1.1401-0.9297-2.0249-1.1289
			c-0.8862-0.1992-2.0366-0.3418-3.4531-0.4316v-2.5225h38.3794l0.5977,11.6865h-2.3237c-0.2656-1.7705-0.6973-3.2207-1.2949-4.3496
			s-1.4175-2.0254-2.457-2.6895c-1.0405-0.6641-2.3569-1.1289-3.9507-1.3945s-3.519-0.3984-5.7769-0.3984h-8.4326
			c-0.7534,0-1.1289,0.377-1.1289,1.1289V738.4453z"/>
		<path d="M350.1357,766.5322v-2.5234c1.6816-0.043,3.043-0.166,4.0835-0.3652c1.0396-0.1992,1.8477-0.5742,2.4233-1.1289
			c0.5747-0.5527,0.9629-1.3047,1.1621-2.2568s0.2988-2.2246,0.2988-3.8184v-30.9424c0-1.5488-0.0776-2.7998-0.2324-3.752
			c-0.1558-0.9512-0.4648-1.7031-0.9297-2.2578c-0.4648-0.5527-1.1401-0.9297-2.0249-1.1289
			c-0.8862-0.1992-2.0366-0.3418-3.4531-0.4316v-2.5225H374.77c3.9839,0,7.6694,0.6641,11.0557,1.9912
			c3.3862,1.3281,6.3081,3.166,8.7646,5.5117c2.457,2.3467,4.3711,5.1357,5.7437,8.3662c1.3716,3.2324,2.0586,6.751,2.0586,10.5576
			c0,3.6309-0.6421,6.9619-1.9258,9.9932c-1.2842,3.0332-3.0874,5.6338-5.4116,7.8027c-2.3237,2.1689-5.1021,3.8623-8.333,5.0791
			c-3.2319,1.2178-6.7729,1.8262-10.624,1.8262H350.1357z M366.2046,718.6572c-0.7534,0-1.1289,0.377-1.1289,1.1289v35.9229
			c0,5.0469,3.2969,7.5693,9.8936,7.5693c6.0645,0,10.7124-1.8027,13.9438-5.4111c3.231-3.6074,4.8477-8.9082,4.8477-15.9033
			c0-3.6738-0.4434-6.9492-1.3281-9.8271c-0.8862-2.877-2.1582-5.3115-3.8179-7.3037c-1.6602-1.9922-3.6636-3.5195-6.0093-4.582
			c-2.3472-1.0625-5.0029-1.5938-7.9683-1.5938H366.2046z"/>
		<path d="M453.4541,745.9482c0,3.4971-0.3433,6.5732-1.0293,9.2295c-0.6865,2.6562-1.7925,4.8701-3.3198,6.6396
			c-1.5273,1.7715-3.5088,3.1113-5.9429,4.0176c-2.4351,0.9072-5.3784,1.3613-8.8311,1.3613c-3.2764,0-6.1318-0.3213-8.5659-0.9629
			c-2.4351-0.6416-4.4717-1.7031-6.1089-3.1875c-1.6382-1.4824-2.855-3.4189-3.6519-5.8096s-1.1953-5.334-1.1953-8.8311V730.875
			c0-3.2754-0.0776-5.7988-0.2324-7.5693c-0.1553-1.7705-0.6089-3.0762-1.3608-3.918c-0.5312-0.5742-1.2515-0.9629-2.1582-1.1621
			c-0.9077-0.1992-2.1143-0.2988-3.6187-0.2988v-2.5225h22.6426v2.5225c-1.5059,0-2.7227,0.0898-3.6523,0.2656
			c-0.9297,0.1777-1.6602,0.6211-2.1909,1.3281c-0.6206,0.7969-1.019,2.0703-1.1953,3.8184
			c-0.1777,1.749-0.2656,4.2607-0.2656,7.5361v18.0615c0,2.2568,0.2324,4.2607,0.6973,6.0088
			c0.4648,1.749,1.228,3.2314,2.2905,4.4492s2.4453,2.1357,4.1504,2.7549c1.7031,0.6211,3.7949,0.9297,6.2744,0.9297
			c4.4263,0,7.7461-1.2285,9.9604-3.6846c2.2129-2.457,3.3198-6.0762,3.3198-10.8564v-16.0029c0-3.9395-0.1558-6.9277-0.4648-8.9639
			c-0.3101-2.0361-0.8862-3.4746-1.7266-4.3164c-0.6201-0.5742-1.394-0.9395-2.3237-1.0957
			c-0.9297-0.1543-2.0815-0.2324-3.4531-0.2324v-2.5225h19.2563v2.5225c-1.4175,0-2.5791,0.1113-3.4858,0.332
			c-0.9082,0.2227-1.627,0.709-2.1582,1.4609c-0.6641,0.9297-1.1069,2.3799-1.3281,4.3496c-0.2222,1.9697-0.332,4.792-0.332,8.4658
			V745.9482z"/>
		<path d="M507.7695,715.4043h1.8589l0.5977,15.2715h-2.4565c-0.9746-3.8945-2.8555-6.9492-5.644-9.1631
			c-2.7891-2.2129-6.1538-3.3203-10.0928-3.3203c-2.7007,0-5.1133,0.5312-7.2378,1.5938c-2.125,1.0625-3.9175,2.5898-5.3784,4.582
			s-2.5791,4.4268-3.3535,7.3037c-0.7749,2.8779-1.1616,6.1318-1.1616,9.7607c0,7.1279,1.4824,12.6064,4.4487,16.4346
			c2.9653,3.8291,7.2593,5.7432,12.8813,5.7432c8.543,0,14.0327-4.5371,16.4673-13.6113h2.7227v16.5332h-2.3242l-1.5269-5.2461
			c-4.6479,3.9404-10.2705,5.9102-16.8657,5.9102c-3.7632,0-7.1611-0.5977-10.1924-1.793c-3.0327-1.1953-5.6226-2.8887-7.769-5.0791
			c-2.1475-2.1914-3.8076-4.8584-4.98-8.002c-1.1733-3.1426-1.7598-6.6396-1.7598-10.4912c0-4.0273,0.6196-7.7021,1.8594-11.0225
			c1.2388-3.3193,2.9766-6.1748,5.2124-8.5654c2.2349-2.3906,4.9136-4.2383,8.0347-5.5439c3.1206-1.3057,6.562-1.959,10.3252-1.959
			c2.6558,0,5.1562,0.376,7.5029,1.1289c2.3457,0.7529,4.8911,1.9697,7.6362,3.6514L507.7695,715.4043z"/>
		<path d="M547.6748,748.0068h-17.729c-0.7529,1.8154-1.394,3.4189-1.9253,4.8135s-0.9629,2.6016-1.2949,3.6191
			c-0.332,1.0186-0.5645,1.8818-0.6973,2.5898s-0.1992,1.2842-0.1992,1.7266c0,1.2393,0.3984,2.0908,1.1953,2.5557
			s2.1245,0.6973,3.9839,0.6973v2.5234H514.873v-2.5234c1.0181-0.1328,1.8926-0.3086,2.623-0.5312
			c0.73-0.2207,1.3716-0.5312,1.9253-0.9297c0.5532-0.3984,1.0396-0.918,1.4609-1.5596c0.4204-0.6416,0.8301-1.4277,1.2285-2.3574
			l17.2642-43.2266h2.8555l15.0723,37.4492c1.0176,2.4795,1.9023,4.4609,2.6562,5.9434c0.752,1.4834,1.4824,2.6006,2.1914,3.3525
			c0.707,0.7539,1.4707,1.2402,2.291,1.4609c0.8184,0.2227,1.8027,0.332,2.9531,0.332v2.5898H545.749v-2.5898
			c2.3467,0,3.9619-0.2207,4.8477-0.6641c0.8848-0.4414,1.3271-1.1719,1.3271-2.1914c0-0.4414-0.0215-0.8516-0.0664-1.2275
			c-0.0439-0.376-0.1211-0.7861-0.2324-1.2285c-0.1104-0.4424-0.2656-0.9404-0.4648-1.4941
			c-0.1992-0.5527-0.4531-1.2061-0.7627-1.959L547.6748,748.0068z M531.2739,744.6865h15.1392l-7.3701-19.5879L531.2739,744.6865z"
			/>
		<path d="M613.875,728.0869h-2.7227c-0.1309-1.9033-0.4414-3.4971-0.9277-4.7812c-0.4883-1.2832-1.1855-2.291-2.0918-3.0215
			c-0.9082-0.7305-2.0488-1.25-3.4199-1.5605c-1.373-0.3086-3.0117-0.4648-4.9141-0.4648c-1.6387,0-2.9551,0.0332-3.9512,0.0996
			s-1.7598,0.1895-2.291,0.3652c-0.5312,0.1777-0.875,0.3887-1.0293,0.6309c-0.1543,0.2441-0.2324,0.5645-0.2324,0.9629v35.5244
			c0,1.417,0.0996,2.6338,0.2988,3.6523s0.5977,1.8486,1.1953,2.4893c0.5977,0.6426,1.4609,1.1289,2.5898,1.4609
			s2.623,0.5215,4.4824,0.5645v2.5234h-25.0996v-2.5234c1.8594-0.043,3.3633-0.2324,4.5156-0.5645
			c1.1504-0.332,2.0254-0.8184,2.623-1.4609c0.5977-0.6406,0.9961-1.4707,1.1953-2.4893s0.2988-2.2354,0.2988-3.6523v-35.5244
			c0-0.3984-0.0781-0.7188-0.2324-0.9629c-0.1562-0.2422-0.4648-0.4531-0.9297-0.6309c-0.4648-0.1758-1.1191-0.2988-1.959-0.3652
			c-0.8418-0.0664-1.9707-0.0996-3.3867-0.0996c-1.7266,0-3.332,0.0664-4.8145,0.1992s-2.7656,0.5215-3.8516,1.1621
			c-1.084,0.6426-1.959,1.627-2.6211,2.9551c-0.6641,1.3281-1.0195,3.165-1.0625,5.5117h-2.457v-12.6826h50.1309L613.875,728.0869z"
			/>
		<path d="M632.2676,753.9824c0,2.2139,0.0898,3.9619,0.2656,5.2461c0.1777,1.2842,0.5215,2.2803,1.0293,2.9873
			c0.5098,0.709,1.2402,1.1738,2.1914,1.3945c0.9512,0.2227,2.2031,0.3555,3.752,0.3984v2.5234h-21.5137v-2.5234
			c1.5488-0.043,2.7988-0.1875,3.752-0.4316c0.9512-0.2422,1.6934-0.6973,2.2246-1.3613s0.8848-1.6035,1.0625-2.8213
			c0.1758-1.2178,0.2656-2.8662,0.2656-4.9473v-26.958c0-1.8594-0.0781-3.3975-0.2324-4.6152
			c-0.1562-1.2168-0.4648-2.1797-0.9297-2.8887c-0.4648-0.707-1.1406-1.2051-2.0254-1.4941
			c-0.8867-0.2871-2.0371-0.4746-3.4531-0.5645v-2.5225h20.1855v2.5225c-1.416,0.0449-2.5566,0.2227-3.4199,0.5312
			c-0.8633,0.3105-1.5273,0.8301-1.9922,1.5605s-0.7734,1.7383-0.9297,3.0215c-0.1543,1.2842-0.2324,2.9219-0.2324,4.9141V753.9824z
			"/>
		<path d="M673.0371,714.7402c3.8945,0,7.5254,0.6865,10.8906,2.0586c3.3633,1.3721,6.2852,3.2529,8.7637,5.6436
			s4.4277,5.2021,5.8438,8.4326c1.416,3.2324,2.125,6.7295,2.125,10.4912c0,3.5859-0.7207,6.9502-2.1582,10.0928
			c-1.4395,3.1436-3.3984,5.877-5.877,8.2012c-2.4785,2.3232-5.4004,4.1611-8.7637,5.5107
			c-3.3652,1.3506-6.9727,2.0254-10.8242,2.0254s-7.459-0.6748-10.8223-2.0254c-3.3652-1.3496-6.2871-3.1875-8.7656-5.5107
			c-2.4785-2.3242-4.4375-5.0576-5.877-8.2012c-1.4375-3.1426-2.1562-6.5068-2.1562-10.0928c0-3.7617,0.707-7.2588,2.123-10.4912
			c1.418-3.2305,3.3652-6.042,5.8438-8.4326s5.4004-4.2715,8.7656-5.6436C665.5117,715.4268,669.1426,714.7402,673.0371,714.7402z
			 M673.0371,763.5439c2.9219,0,5.5449-0.5078,7.8691-1.5273c2.3242-1.0176,4.3164-2.4785,5.9766-4.3818
			s2.9316-4.2168,3.8184-6.9395c0.8848-2.7217,1.3262-5.7646,1.3262-9.1299c0-3.541-0.4414-6.7393-1.3262-9.5947
			c-0.8867-2.8555-2.1484-5.2891-3.7852-7.3037c-1.6387-2.0137-3.6309-3.5625-5.9766-4.6484
			c-2.3477-1.084-4.9805-1.627-7.9023-1.627s-5.5547,0.543-7.9004,1.627c-2.3477,1.0859-4.3398,2.6348-5.9766,4.6484
			c-1.6387,2.0146-2.9004,4.4482-3.7852,7.3037c-0.8867,2.8555-1.3281,6.0537-1.3281,9.5947c0,3.3652,0.4414,6.4082,1.3281,9.1299
			c0.8848,2.7227,2.1465,5.0361,3.7852,6.9395c1.6367,1.9033,3.6289,3.3643,5.9766,4.3818
			C667.4824,763.0361,670.1152,763.5439,673.0371,763.5439z"/>
		<path d="M749.6641,767.1963l-31.5391-41.5664h-0.2656v28.3525c0,2.2139,0.0762,3.9619,0.2324,5.2461
			c0.1543,1.2842,0.4648,2.2803,0.9297,2.9873c0.4648,0.709,1.127,1.1738,1.9902,1.3945c0.8633,0.2227,2.0039,0.3555,3.4199,0.3984
			v2.5234h-17.8613v-2.5234c1.5488-0.043,2.7988-0.1875,3.752-0.4316c0.9512-0.2422,1.6934-0.6973,2.2246-1.3613
			s0.8848-1.6035,1.0625-2.8213c0.1758-1.2178,0.2656-2.8662,0.2656-4.9473v-26.958c0-1.8594-0.0781-3.3975-0.2324-4.6152
			c-0.1562-1.2168-0.4648-2.1797-0.9297-2.8887c-0.4648-0.707-1.1406-1.2051-2.0254-1.4941
			c-0.8867-0.2871-2.0371-0.4746-3.4531-0.5645v-2.5225h13.1465l29.0176,38.7109h0.2656v-26.1611
			c0-2.1689-0.0781-3.9062-0.2324-5.2129c-0.1562-1.3057-0.4648-2.3125-0.9297-3.0215c-0.4648-0.707-1.1289-1.1719-1.9922-1.3945
			c-0.8633-0.2207-2.002-0.3535-3.4199-0.3984v-2.5225h17.8633v2.5225c-1.5508,0.0449-2.8008,0.1895-3.752,0.4316
			c-0.9531,0.2441-1.6934,0.6973-2.2246,1.3613s-0.8867,1.6172-1.0625,2.8555c-0.1777,1.2402-0.2656,2.8779-0.2656,4.9141v39.707
			H749.6641z"/>
	</g>
	<g>
		<path d="M267.8354,825.9971c-1.7847-2.043-2.6768-4.8916-2.6768-8.5469c0-2.3867,0.4194-4.4512,1.2578-6.1924
			s2.0586-3.0801,3.6606-4.0156c1.6016-0.9346,3.499-1.4023,5.6924-1.4023c1.5479,0,3.0205,0.2041,4.4185,0.6123
			c1.3975,0.4092,2.4614,0.9463,3.1929,1.6133L283.0903,812h-0.7739c-0.2798-0.8389-0.4839-2.043-0.6128-3.6123
			c-0.4731-0.3867-1.2256-0.71-2.2573-0.9678c-1.0322-0.2578-2-0.3867-2.9028-0.3867c-2.709,0-4.7788,0.9512-6.2085,2.8545
			c-1.4302,1.9023-2.1445,4.4238-2.1445,7.5625c0,3.2041,0.645,5.7412,1.9351,7.6113c1.29,1.8711,3.2783,2.8057,5.9663,2.8057
			c0.5806,0,1.2632-0.0752,2.0483-0.2256c0.7842-0.1504,1.4453-0.376,1.9834-0.6768v-8.1924
			c-1.0112-0.1934-1.8604-0.3867-2.5479-0.5801v-0.3877h7.6758v0.3232c-0.6885,0.3652-1.4409,0.6016-2.2578,0.709v8.3213
			c-0.7954,0.6016-1.876,1.0693-3.2412,1.4023c-1.3657,0.333-2.7573,0.5-4.1768,0.5
			C272.2002,829.0605,269.6201,828.04,267.8354,825.9971z"/>
		<path d="M311.7295,828.2549v0.2578l-5.1602,0.5156v-2.0957c-0.7959,0.6016-1.7148,1.1074-2.7573,1.5156
			c-1.0435,0.4082-2.1343,0.6123-3.2739,0.6123c-1.6987,0-3.0425-0.4033-4.0312-1.209c-0.9893-0.8066-1.4834-1.8975-1.4834-3.2734
			v-10.8047c-0.9463-0.1719-1.6987-0.3652-2.2578-0.5801v-0.2266l5.1602-0.5479v11.8359c0,1.29,0.3066,2.2256,0.9194,2.8066
			c0.6128,0.5801,1.4458,0.8701,2.4995,0.8701c0.7949,0,1.6821-0.2041,2.6606-0.6123c0.978-0.4082,1.833-0.9355,2.564-1.5801
			v-11.9658c-0.9028-0.1719-1.645-0.3652-2.2251-0.5801v-0.2266l5.1279-0.5479v15.3193
			C310.0952,827.8242,310.8477,827.9961,311.7295,828.2549z"/>
		<path d="M319.7598,828.3838c0.4082-0.1504,0.9033-0.2852,1.4839-0.4033s0.9458-0.1885,1.0962-0.21v-13.9648
			c-0.8599-0.1504-1.6123-0.333-2.2573-0.5479v-0.2588l5.1602-0.5156v15.2871c0.9888,0.1729,1.8491,0.377,2.5801,0.6133v0.3545
			h-8.063V828.3838z M322.2593,810.4834c-0.3335-0.3223-0.4995-0.7412-0.4995-1.2578c0-0.5156,0.166-0.9395,0.4995-1.2734
			c0.333-0.333,0.7686-0.5,1.3062-0.5s0.9727,0.167,1.3062,0.5c0.3335,0.334,0.5,0.7578,0.5,1.2734
			c0,0.5166-0.1665,0.9355-0.5,1.2578c-0.3335,0.3232-0.7686,0.4844-1.3062,0.4844S322.5923,810.8066,322.2593,810.4834z"/>
		<path d="M337.9985,827.0449c-1.2578-1.3438-1.8867-3.4238-1.8867-6.2402c0-2.623,0.6772-4.6816,2.0317-6.1768
			c1.3545-1.4941,3.1929-2.2412,5.5151-2.2412c0.9883,0,1.9189,0.1504,2.7896,0.4512c0.8706,0.3018,1.6934,0.8818,2.4673,1.7422
			v-7.2891c-0.9033-0.1719-1.645-0.3652-2.2256-0.5811v-0.2256l5.1284-0.5479v21.5762c0.8594,0.1729,1.6011,0.3438,2.2251,0.5156
			v0.2266l-4.4829,0.6445c-0.1079-0.6875-0.2046-1.6338-0.2905-2.8379c-0.5591,0.9893-1.3652,1.7363-2.4185,2.2412
			c-1.0537,0.5049-2.2471,0.7578-3.5801,0.7578C341.0137,829.0605,339.2563,828.3887,337.9985,827.0449z M347.5771,826.5938
			c0.8916-0.8926,1.3384-2.0156,1.3384-3.3701v-7.1924c-1.3979-1.6553-2.9243-2.4834-4.5796-2.4834
			c-1.8062,0-3.1445,0.6934-4.0156,2.0801c-0.8706,1.3867-1.3062,3.123-1.3062,5.209c0,2.2363,0.4082,3.9775,1.2256,5.2246
			c0.8169,1.2471,2.0962,1.8701,3.8379,1.8701C345.5181,827.9316,346.6846,827.4863,347.5771,826.5938z"/>
		<path d="M362.9771,827.8672c-0.9033-0.7949-1.3545-1.9453-1.3545-3.4502c0-1.6562,0.5908-2.8545,1.7734-3.5967
			c1.1826-0.7412,2.6875-1.1123,4.5156-1.1123h4.7729v-2.5801c0-1.2256-0.3657-2.1289-1.0967-2.709
			c-0.731-0.5811-1.7632-0.8711-3.0962-0.8711c-0.8384,0-1.7041,0.124-2.5962,0.3711s-1.7148,0.5645-2.4673,0.9512l-0.2256-1
			c0.8599-0.4512,1.833-0.8115,2.9189-1.0801c1.0854-0.2686,2.1978-0.4033,3.3379-0.4033c1.9136,0,3.4185,0.4141,4.5151,1.2412
			c1.0967,0.8281,1.645,1.9307,1.645,3.3066v10.5781c0.7524,0.1504,1.4941,0.3223,2.2251,0.5156v0.2588l-5.1602,0.5156v-2.3545
			c-0.8818,0.9463-1.8223,1.6182-2.8218,2.0156c-1,0.3975-1.9839,0.5967-2.9512,0.5967
			C365.1914,829.0605,363.8799,828.6631,362.9771,827.8672z M370.6367,827.0449c0.9136-0.5479,1.5962-1.1875,2.0479-1.9189v-4.2568
			h-4.0635c-1.3765,0-2.4087,0.3057-3.0962,0.9189c-0.6885,0.6123-1.0322,1.4785-1.0322,2.5967
			c0,1.1602,0.3169,2.0312,0.9517,2.6123c0.6338,0.5801,1.4673,0.8701,2.4995,0.8701
			C368.8252,827.8672,369.7227,827.5938,370.6367,827.0449z"/>
		<path d="M405.0972,828.3838v0.3545h-7.9341v-0.3545c0.9243-0.3008,1.7417-0.5049,2.4512-0.6133v-10.5781
			c0-1.29-0.312-2.2197-0.9351-2.79c-0.624-0.5693-1.4517-0.8545-2.4834-0.8545c-0.8604,0-1.7632,0.2207-2.7095,0.6611
			s-1.7954,1.0693-2.5479,1.8867v11.6748c0.8599,0.1289,1.7202,0.334,2.5801,0.6133v0.3545h-8.0625v-0.3545
			c0.8594-0.2793,1.7197-0.4844,2.5801-0.6133v-13.9971c-0.9033-0.1719-1.6562-0.3652-2.2578-0.5801v-0.2266l5.1602-0.5479v2.4512
			c0.7524-0.7305,1.6719-1.3271,2.7578-1.79c1.0854-0.4619,2.252-0.6934,3.499-0.6934c1.5908,0,2.8755,0.4092,3.854,1.2256
			c0.9785,0.8174,1.4678,1.9248,1.4678,3.3223v10.8359C403.5273,827.9219,404.3877,828.126,405.0972,828.3838z"/>
		<path d="M417.0781,828.0283c-1.2578-0.6875-2.2256-1.6602-2.9028-2.918s-1.0156-2.7148-1.0156-4.3701
			c0-2.623,0.7681-4.6709,2.3057-6.1445c1.5371-1.4727,3.5962-2.209,6.1763-2.209c2.3223,0,4.2461,0.6455,5.7729,1.9355
			l-0.2256,3.5146h-0.645c-0.1289-0.3223-0.2368-0.8008-0.3228-1.4346s-0.1401-1.21-0.1611-1.7256
			c-1.1396-0.7529-2.3438-1.1289-3.6123-1.1289c-2.043,0-3.6118,0.6348-4.7085,1.9023c-1.0967,1.2695-1.645,3.0967-1.645,5.4834
			c0,1.2256,0.2202,2.3701,0.6611,3.4346c0.4404,1.0645,1.1235,1.9297,2.0483,2.5967c0.9238,0.666,2.085,0.999,3.4829,0.999
			c0.8599,0,1.7358-0.1445,2.6284-0.4346c0.8921-0.291,1.6611-0.6719,2.3062-1.1455l0.29,0.8389
			c-0.645,0.5371-1.4834,0.9785-2.5156,1.3223c-1.0317,0.3438-2.1929,0.5156-3.4829,0.5156
			C419.814,829.0605,418.3359,828.7168,417.0781,828.0283z"/>
		<path d="M450.8613,820.7402h-12.417c0.021,2.1074,0.5645,3.8379,1.6289,5.1924c1.064,1.3545,2.6064,2.0312,4.6279,2.0312
			c0.8599,0,1.7578-0.1445,2.6929-0.4346c0.9355-0.291,1.7466-0.6719,2.4351-1.1455l0.2905,0.8389
			c-0.624,0.5156-1.4785,0.9512-2.564,1.3057c-1.0864,0.3555-2.2739,0.5322-3.564,0.5322c-1.6987,0-3.188-0.3486-4.4668-1.0479
			c-1.2798-0.6982-2.269-1.6768-2.9673-2.9346c-0.6987-1.2578-1.0483-2.7041-1.0483-4.3379c0-2.6445,0.7261-4.6982,2.1772-6.1602
			s3.4453-2.1934,5.9824-2.1934c1.6128,0,2.9561,0.3438,4.0317,1.0322c1.0747,0.6885,1.8706,1.6074,2.3867,2.7578
			c0.5156,1.1504,0.7739,2.4238,0.7739,3.8213V820.7402z M448.2812,819.6113c0-0.9678-0.1509-1.9141-0.4517-2.8389
			c-0.3013-0.9238-0.79-1.6924-1.4673-2.3057c-0.6772-0.6123-1.5537-0.9189-2.6289-0.9189c-1.6123,0-2.854,0.5703-3.7246,1.709
			c-0.8711,1.1406-1.3818,2.5918-1.5322,4.3545H448.2812z"/>
		<path d="M475.501,827.8672c-0.9033-0.7949-1.3545-1.9453-1.3545-3.4502c0-1.6562,0.5908-2.8545,1.7734-3.5967
			c1.1826-0.7412,2.6875-1.1123,4.5156-1.1123h4.7729v-2.5801c0-1.2256-0.3657-2.1289-1.0967-2.709
			c-0.731-0.5811-1.7632-0.8711-3.0962-0.8711c-0.8384,0-1.7041,0.124-2.5962,0.3711s-1.7148,0.5645-2.4673,0.9512l-0.2256-1
			c0.8599-0.4512,1.833-0.8115,2.9189-1.0801c1.0854-0.2686,2.1978-0.4033,3.3379-0.4033c1.9136,0,3.4185,0.4141,4.5151,1.2412
			c1.0967,0.8281,1.645,1.9307,1.645,3.3066v10.5781c0.7524,0.1504,1.4941,0.3223,2.2251,0.5156v0.2588l-5.1602,0.5156v-2.3545
			c-0.8818,0.9463-1.8223,1.6182-2.8218,2.0156c-1,0.3975-1.9839,0.5967-2.9512,0.5967
			C477.7153,829.0605,476.4038,828.6631,475.501,827.8672z M483.1606,827.0449c0.9136-0.5479,1.5962-1.1875,2.0479-1.9189v-4.2568
			h-4.0635c-1.3765,0-2.4087,0.3057-3.0962,0.9189c-0.6885,0.6123-1.0322,1.4785-1.0322,2.5967
			c0,1.1602,0.3169,2.0312,0.9517,2.6123c0.6338,0.5801,1.4673,0.8701,2.4995,0.8701
			C481.3491,827.8672,482.2466,827.5938,483.1606,827.0449z"/>
		<path d="M517.6216,828.3838v0.3545h-7.9341v-0.3545c0.9243-0.3008,1.7417-0.5049,2.4512-0.6133v-10.5781
			c0-1.29-0.312-2.2197-0.9351-2.79c-0.624-0.5693-1.4517-0.8545-2.4834-0.8545c-0.8604,0-1.7632,0.2207-2.7095,0.6611
			s-1.7954,1.0693-2.5479,1.8867v11.6748c0.8599,0.1289,1.7202,0.334,2.5801,0.6133v0.3545h-8.0625v-0.3545
			c0.8594-0.2793,1.7197-0.4844,2.5801-0.6133v-13.9971c-0.9033-0.1719-1.6562-0.3652-2.2578-0.5801v-0.2266l5.1602-0.5479v2.4512
			c0.7524-0.7305,1.6719-1.3271,2.7578-1.79c1.0854-0.4619,2.252-0.6934,3.499-0.6934c1.5908,0,2.8755,0.4092,3.854,1.2256
			c0.9785,0.8174,1.4678,1.9248,1.4678,3.3223v10.8359C516.0518,827.9219,516.9121,828.126,517.6216,828.3838z"/>
		<path d="M527.5708,827.0449c-1.2578-1.3438-1.8867-3.4238-1.8867-6.2402c0-2.623,0.6772-4.6816,2.0317-6.1768
			c1.3545-1.4941,3.1929-2.2412,5.5151-2.2412c0.9883,0,1.9189,0.1504,2.7896,0.4512c0.8706,0.3018,1.6934,0.8818,2.4673,1.7422
			v-7.2891c-0.9033-0.1719-1.645-0.3652-2.2256-0.5811v-0.2256l5.1284-0.5479v21.5762c0.8594,0.1729,1.6016,0.3438,2.2246,0.5156
			v0.2266l-4.4824,0.6445c-0.1079-0.6875-0.2046-1.6338-0.2905-2.8379c-0.5591,0.9893-1.3652,1.7363-2.4185,2.2412
			c-1.0537,0.5049-2.2471,0.7578-3.5801,0.7578C530.5859,829.0605,528.8286,828.3887,527.5708,827.0449z M537.1494,826.5938
			c0.8916-0.8926,1.3384-2.0156,1.3384-3.3701v-7.1924c-1.3979-1.6553-2.9243-2.4834-4.5796-2.4834
			c-1.8062,0-3.1445,0.6934-4.0156,2.0801c-0.8706,1.3867-1.3062,3.123-1.3062,5.209c0,2.2363,0.4082,3.9775,1.2256,5.2246
			c0.8169,1.2471,2.0962,1.8701,3.8379,1.8701C535.0903,827.9316,536.2568,827.4863,537.1494,826.5938z"/>
		<path d="M569.2383,825.9971c-1.752-2.043-2.6289-4.8916-2.6289-8.5469c0-3.6338,0.8926-6.4766,2.6777-8.5303
			s4.332-3.0801,7.6426-3.0801c2.8164,0,5.043,0.7412,6.6777,2.2256L583.3164,812h-0.7734
			c-0.2578-0.7529-0.4629-1.957-0.6133-3.6123c-0.5156-0.4082-1.1406-0.7363-1.8711-0.9834s-1.5156-0.3711-2.3535-0.3711
			c-2.6875,0-4.7051,0.9463-6.0469,2.8379c-1.3457,1.8926-2.0156,4.4189-2.0156,7.5791c0,3.2041,0.6289,5.7412,1.8867,7.6113
			c1.2578,1.8711,3.2402,2.8057,5.9492,2.8057c0.8164,0,1.7461-0.1494,2.791-0.4512c1.041-0.3008,1.9922-0.7305,2.8535-1.29
			l0.4199,0.8711c-0.7539,0.666-1.7051,1.1768-2.8555,1.5312c-1.1504,0.3555-2.3926,0.5322-3.7246,0.5322
			C573.5645,829.0605,570.9902,828.04,569.2383,825.9971z"/>
		<path d="M594.5879,826.8682c-1.4941-1.4619-2.2402-3.5049-2.2402-6.1279s0.7461-4.6709,2.2402-6.1445
			c1.4941-1.4727,3.5859-2.209,6.2734-2.209c2.666,0,4.7461,0.7363,6.2402,2.209c1.4941,1.4736,2.2422,3.5215,2.2422,6.1445
			s-0.748,4.666-2.2422,6.1279s-3.5742,2.1924-6.2402,2.1924C598.1738,829.0605,596.082,828.3301,594.5879,826.8682z
			 M604.9258,826.0127c1.0098-1.2783,1.5156-3.0361,1.5156-5.2725s-0.5059-3.9941-1.5156-5.2734
			c-1.0117-1.2793-2.3672-1.9189-4.0645-1.9189c-1.7422,0-3.1133,0.6396-4.1113,1.9189c-1,1.2793-1.5,3.0371-1.5,5.2734
			s0.5,3.9941,1.5,5.2725c0.998,1.2803,2.3691,1.9189,4.1113,1.9189C602.5586,827.9316,603.9141,827.293,604.9258,826.0127z"/>
		<path d="M620.5664,828.5449c-1.0762-0.3438-1.9473-0.8174-2.6133-1.4189l0.2266-4.0312h0.6777
			c0.1074,0.3008,0.209,0.8379,0.3047,1.6123c0.0977,0.7734,0.1562,1.4404,0.1777,1.999c0.9688,0.8174,2.2793,1.2256,3.9355,1.2256
			c1.332,0,2.3809-0.2949,3.1445-0.8867c0.7637-0.5908,1.1445-1.3809,1.1445-2.3701c0-0.8174-0.3438-1.457-1.0312-1.9189
			c-0.6895-0.4619-1.7422-0.9404-3.1621-1.4355c-1.1816-0.4512-2.127-0.8545-2.8379-1.209
			c-0.709-0.3555-1.3164-0.8438-1.8223-1.4678c-0.5039-0.623-0.7578-1.4082-0.7578-2.3545c0-1.29,0.5703-2.2627,1.709-2.9189
			c1.1406-0.6553,2.5703-0.9834,4.291-0.9834c2.4297,0,4.3105,0.5596,5.6426,1.6768l-0.2891,3.3223h-0.7109
			c-0.1289-0.3223-0.2305-0.7627-0.3047-1.3223c-0.0762-0.5586-0.1133-1.0859-0.1133-1.5801
			c-0.9688-0.6455-2.1719-0.9678-3.6133-0.9678c-1.1387,0-2.0527,0.1992-2.7402,0.5967c-0.6895,0.3984-1.0332,1.0049-1.0332,1.8223
			c0,0.5801,0.1895,1.0752,0.5645,1.4834c0.377,0.4082,0.8438,0.7529,1.4043,1.0322c0.5586,0.2793,1.3223,0.6016,2.2891,0.9678
			c1.1816,0.4512,2.1289,0.8652,2.8379,1.2412c0.709,0.377,1.3164,0.876,1.8223,1.5s0.7578,1.3975,0.7578,2.3223
			c0,1.4834-0.5801,2.6172-1.7402,3.4023c-1.1621,0.7852-2.6348,1.1768-4.4199,1.1768
			C622.8887,829.0605,621.6406,828.8887,620.5664,828.5449z"/>
		<path d="M657.752,828.2549v0.2578l-5.1602,0.5156v-2.0957c-0.7949,0.6016-1.7148,1.1074-2.7578,1.5156
			s-2.1348,0.6123-3.2734,0.6123c-1.6992,0-3.043-0.4033-4.0312-1.209c-0.9883-0.8066-1.4844-1.8975-1.4844-3.2734v-10.8047
			c-0.9453-0.1719-1.6973-0.3652-2.2559-0.5801v-0.2266l5.1602-0.5479v11.8359c0,1.29,0.3047,2.2256,0.918,2.8066
			c0.6133,0.5801,1.4453,0.8701,2.5,0.8701c0.7949,0,1.6816-0.2041,2.6602-0.6123s1.834-0.9355,2.5645-1.5801v-11.9658
			c-0.9023-0.1719-1.6445-0.3652-2.2246-0.5801v-0.2266l5.127-0.5479v15.3193C656.1172,827.8242,656.8711,827.9961,657.752,828.2549
			z"/>
		<path d="M665.9434,828.3838c0.4727-0.1504,1.334-0.3555,2.5801-0.6133V807.291c-0.9023-0.1719-1.6562-0.3652-2.2578-0.5811
			v-0.2256l5.1602-0.5479v21.834c0.9258,0.1514,1.7852,0.3555,2.5801,0.6133v0.3545h-8.0625V828.3838z"/>
		<path d="M692.9707,828.5771c-0.9688,0.3223-2.0645,0.4834-3.2891,0.4834c-1.5273,0-2.7207-0.3867-3.5801-1.1611
			c-0.8613-0.7734-1.291-1.9668-1.291-3.5801v-10.4814h-2.8066v-1.1611h2.8066v-1.7734c0.8164-0.3438,1.3223-1.2041,1.5156-2.5801
			h1.3867v4.3535h4.8379v1.1611h-4.8379v10.4814c0,1.291,0.252,2.2051,0.7578,2.7422s1.2305,0.8057,2.1777,0.8057
			c0.623,0,1.3223-0.1289,2.0957-0.3867L692.9707,828.5771z"/>
		<path d="M702.6133,827.8672c-0.9023-0.7949-1.3535-1.9453-1.3535-3.4502c0-1.6562,0.5898-2.8545,1.7734-3.5967
			c1.1816-0.7412,2.6875-1.1123,4.5156-1.1123h4.7734v-2.5801c0-1.2256-0.3672-2.1289-1.0977-2.709
			c-0.7305-0.5811-1.7637-0.8711-3.0957-0.8711c-0.8379,0-1.7051,0.124-2.5957,0.3711c-0.8926,0.2471-1.7148,0.5645-2.4688,0.9512
			l-0.2246-1c0.8594-0.4512,1.832-0.8115,2.918-1.0801s2.1992-0.4033,3.3379-0.4033c1.9141,0,3.4199,0.4141,4.5156,1.2412
			c1.0957,0.8281,1.6445,1.9307,1.6445,3.3066v10.5781c0.752,0.1504,1.4941,0.3223,2.2266,0.5156v0.2588l-5.1602,0.5156v-2.3545
			c-0.8828,0.9463-1.8223,1.6182-2.8223,2.0156s-1.9844,0.5967-2.9512,0.5967
			C704.8281,829.0605,703.5176,828.6631,702.6133,827.8672z M710.2734,827.0449c0.9141-0.5479,1.5957-1.1875,2.0488-1.9189v-4.2568
			h-4.0645c-1.377,0-2.4082,0.3057-3.0957,0.9189c-0.6895,0.6123-1.0332,1.4785-1.0332,2.5967c0,1.1602,0.3184,2.0312,0.9512,2.6123
			c0.6348,0.5801,1.4688,0.8701,2.5,0.8701C708.4609,827.8672,709.3594,827.5938,710.2734,827.0449z"/>
		<path d="M744.7344,828.3838v0.3545h-7.9336v-0.3545c0.9238-0.3008,1.7402-0.5049,2.4512-0.6133v-10.5781
			c0-1.29-0.3125-2.2197-0.9355-2.79c-0.625-0.5693-1.4512-0.8545-2.4844-0.8545c-0.8594,0-1.7617,0.2207-2.709,0.6611
			c-0.9453,0.4404-1.7949,1.0693-2.5469,1.8867v11.6748c0.8594,0.1289,1.7188,0.334,2.5801,0.6133v0.3545h-8.0625v-0.3545
			c0.8594-0.2793,1.7188-0.4844,2.5801-0.6133v-13.9971c-0.9043-0.1719-1.6562-0.3652-2.2578-0.5801v-0.2266l5.1602-0.5479v2.4512
			c0.752-0.7305,1.6719-1.3271,2.7578-1.79c1.084-0.4619,2.252-0.6934,3.498-0.6934c1.5918,0,2.877,0.4092,3.8555,1.2256
			c0.9766,0.8174,1.4668,1.9248,1.4668,3.3223v10.8359C743.1641,827.9219,744.0254,828.126,744.7344,828.3838z"/>
		<path d="M756.7148,828.0283c-1.2578-0.6875-2.2246-1.6602-2.9023-2.918s-1.0156-2.7148-1.0156-4.3701
			c0-2.623,0.7676-4.6709,2.3047-6.1445c1.5371-1.4727,3.5957-2.209,6.1777-2.209c2.3203,0,4.2461,0.6455,5.7715,1.9355
			l-0.2246,3.5146h-0.6465c-0.1289-0.3223-0.2363-0.8008-0.3223-1.4346s-0.1387-1.21-0.1602-1.7256
			c-1.1406-0.7529-2.3438-1.1289-3.6133-1.1289c-2.043,0-3.6113,0.6348-4.709,1.9023c-1.0957,1.2695-1.6445,3.0967-1.6445,5.4834
			c0,1.2256,0.2207,2.3701,0.6621,3.4346c0.4395,1.0645,1.123,1.9297,2.0469,2.5967c0.9258,0.666,2.0859,0.999,3.4844,0.999
			c0.8594,0,1.7363-0.1445,2.6289-0.4346c0.8906-0.291,1.6602-0.6719,2.3047-1.1455l0.291,0.8389
			c-0.6445,0.5371-1.4844,0.9785-2.5156,1.3223c-1.0332,0.3438-2.1934,0.5156-3.4844,0.5156
			C759.4512,829.0605,757.9727,828.7168,756.7148,828.0283z"/>
		<path d="M792.3047,812.6768v0.3555c-0.5371,0.1934-1.2793,0.376-2.2246,0.5479l-6.2246,16.6416
			c-0.4316,1.1611-0.834,2.0645-1.2109,2.709c-0.375,0.6455-0.8652,1.1396-1.4668,1.4844
			c-0.6016,0.3428-1.3984,0.5156-2.3867,0.5156c-1.0312,0-2.0215-0.1934-2.9668-0.5811l0.4512-1.4189
			c0.9453,0.3008,1.7734,0.4521,2.4844,0.4521c0.6445,0,1.1602-0.1084,1.5469-0.3232s0.7422-0.5859,1.0645-1.1123
			c0.3223-0.5273,0.6777-1.3057,1.0645-2.3379l0.3555-0.9678l-6.1934-15.0938c-0.9453-0.1074-1.666-0.2793-2.1602-0.5156v-0.3555
			h7.4824v0.3877c-0.5156,0.1934-1.3652,0.376-2.5488,0.5479l4.5488,11.998l4.4492-12.0625
			c-0.8594-0.0645-1.6445-0.2256-2.3535-0.4834v-0.3877H792.3047z"/>
	</g>
	<g>
		<path class="st2" d="M208.4277,896.376l-0.4858,4.7051h-16.1182v-0.4551c0.9712-0.3232,1.8213-0.5264,2.5498-0.6074v-19.1533
			c-0.7085-0.1016-1.5586-0.3037-2.5498-0.6074v-0.4248h16.1484v4.7354h-0.7891c-0.1821-0.3037-0.3745-0.8496-0.5767-1.6396
			c-0.2026-0.7891-0.3237-1.4062-0.3643-1.8516h-8.4082v9.0762h5.98c0.04-0.3438,0.1108-0.7637,0.2124-1.2598
			c0.1011-0.4951,0.2222-0.9258,0.3643-1.29h0.5767v6.3447h-0.5767c-0.1421-0.3643-0.2632-0.7949-0.3643-1.291
			c-0.1016-0.4951-0.1724-0.915-0.2124-1.2588h-5.98v8.4688h8.5298c0.04-0.4658,0.207-1.083,0.5005-1.8516
			c0.2935-0.7695,0.5513-1.3154,0.7744-1.6396H208.4277z"/>
		<path class="st2" d="M233.8037,900.6865v0.3945h-7.6494v-0.4248c0.8901-0.3037,1.6089-0.4854,2.1553-0.5469l-3.8853-5.251
			l-4.4624,5.251c0.7085,0.1221,1.4673,0.3037,2.2769,0.5469v0.4248h-6.2227v-0.3643c0.7686-0.2832,1.4971-0.4756,2.1855-0.5771
			l5.4028-6.374l-5.0688-6.8301c-0.8301-0.1406-1.5381-0.3438-2.125-0.6064v-0.3643h7.5581v0.4248
			c-0.8906,0.3037-1.5986,0.4961-2.1245,0.5762l3.521,4.7354l4.0371-4.7656c-1.0322-0.2021-1.771-0.3945-2.2158-0.5762v-0.3945
			h6.2227v0.3945c-0.6274,0.2627-1.3765,0.4551-2.2461,0.5762l-5.0088,5.8887l5.4336,7.3154
			C232.3564,900.2617,233.0952,900.4434,233.8037,900.6865z"/>
		<path class="st2" d="M240.3604,907.9414c0.4854-0.1416,1.2949-0.334,2.4282-0.5771v-20.3066
			c-0.8501-0.1621-1.5479-0.334-2.0942-0.5166v-0.3037l5.4639-0.5459v2.0947c0.708-0.8096,1.5024-1.3613,2.3828-1.6543
			c0.8799-0.293,1.7148-0.4404,2.5039-0.4404c2.2461,0,3.9863,0.6221,5.2212,1.8672c1.2339,1.2441,1.8516,3.1113,1.8516,5.5996
			c0,2.8135-0.6377,4.8877-1.9126,6.2227c-1.2749,1.3359-3.0957,2.0039-5.4634,2.0039c-0.9517,0-1.8418-0.167-2.6714-0.501
			c-0.8301-0.334-1.4673-0.8652-1.9121-1.5938v8.1045c0.7891,0.1221,1.5884,0.3135,2.3979,0.5771v0.4248h-8.1958V907.9414z
			 M253.686,898.3037c0.6875-1.2441,1.0317-2.9092,1.0317-4.9932c0-2.1445-0.334-3.749-1.0015-4.8115
			c-0.668-1.0625-1.791-1.5938-3.3696-1.5938c-0.8096,0-1.5835,0.2275-2.3218,0.6836c-0.7393,0.4551-1.3613,1.0273-1.8667,1.7148
			v6.6172c0,1.1738,0.374,2.1758,1.123,3.0049c0.748,0.8301,1.7603,1.2451,3.0352,1.2451
			C251.8745,900.1709,252.9976,899.5479,253.686,898.3037z"/>
		<path class="st2" d="M280.7612,893.6445H269.166c0.0405,1.9023,0.5259,3.4756,1.457,4.7197
			c0.9307,1.2441,2.2964,1.8672,4.0977,1.8672c0.8296,0,1.7002-0.1367,2.6108-0.4102s1.6997-0.6523,2.3677-1.1387l0.3335,0.8809
			c-0.6274,0.5059-1.4771,0.9365-2.5493,1.29c-1.0732,0.3535-2.2466,0.5312-3.5215,0.5312c-1.6592,0-3.1064-0.3232-4.3403-0.9717
			c-1.2349-0.6475-2.1855-1.5635-2.8535-2.7471s-1.002-2.5547-1.002-4.1133c0-2.5088,0.7031-4.4463,2.1099-5.8125
			c1.4062-1.3662,3.354-2.0488,5.8433-2.0488c1.5786,0,2.8936,0.3242,3.9463,0.9717c1.0518,0.6475,1.8311,1.5127,2.3369,2.5947
			c0.5059,1.083,0.7588,2.292,0.7588,3.6279V893.6445z M277.7866,892.4297c0-0.8496-0.1318-1.6992-0.3945-2.5498
			c-0.2632-0.8496-0.6934-1.5576-1.29-2.124c-0.5972-0.5664-1.3813-0.8506-2.3525-0.8506c-1.3765,0-2.4434,0.5215-3.2021,1.5635
			c-0.7593,1.043-1.2095,2.3633-1.3511,3.9609H277.7866z"/>
		<path class="st2" d="M288.3501,900.6562c0.6475-0.2627,1.457-0.4551,2.4287-0.5771v-13.0215
			c-0.8706-0.1826-1.5688-0.3643-2.0947-0.5469v-0.2422l5.0693-0.5771l0.3037,2.7012h0.1211
			c0.3438-0.8086,0.8652-1.4619,1.5635-1.958c0.6982-0.4951,1.4614-0.7432,2.2915-0.7432c0.5464,0,1.0371,0.0508,1.4722,0.1514
			c0.4351,0.1016,0.8652,0.2842,1.29,0.5469l-0.6372,1.6689c-0.5264-0.3838-1.1133-0.5762-1.7607-0.5762
			c-0.8496,0-1.644,0.2881-2.3828,0.8652c-0.7388,0.5762-1.3613,1.2998-1.8667,2.1699v9.5615
			c0.7891,0.1221,1.5884,0.3242,2.3979,0.6074v0.3945h-8.1958V900.6562z"/>
		<path class="st2" d="M318.4917,900.8682c-1.0122,0.3447-2.145,0.5166-3.3999,0.5166c-1.5176,0-2.7119-0.3594-3.5815-1.0781
			c-0.8706-0.7178-1.3052-1.8457-1.3052-3.3838v-9.7441h-2.5195v-1.2139h2.5195v-1.3359c0.9712-0.3438,1.5479-1.2646,1.73-2.7627
			h1.6392v4.0986h4.4927v1.2139h-4.4927v9.7441c0,1.1738,0.2378,1.998,0.7134,2.4736c0.4751,0.4756,1.1484,0.7129,2.0186,0.7129
			c0.627,0,1.2847-0.1211,1.9731-0.3643L318.4917,900.8682z"/>
		<path class="st2" d="M329.1162,900.8682c-1.0928-0.3438-1.9634-0.8086-2.6108-1.3955l0.2432-3.7646h0.7588
			c0.1211,0.3037,0.2222,0.7998,0.3032,1.4873c0.0811,0.6885,0.1313,1.2959,0.1519,1.8213c0.8701,0.7695,2.084,1.1543,3.6426,1.1543
			c1.2144,0,2.1704-0.2637,2.8687-0.79c0.6982-0.5254,1.0474-1.2441,1.0474-2.1553c0-0.5049-0.167-0.9355-0.501-1.29
			c-0.334-0.3535-0.7544-0.6475-1.2598-0.8799c-0.5059-0.2324-1.1943-0.501-2.064-0.8047c-1.1133-0.4043-2.0088-0.7783-2.6865-1.123
			c-0.6782-0.3438-1.2549-0.8145-1.73-1.4111c-0.4761-0.5967-0.7134-1.3506-0.7134-2.2617c0-1.2334,0.5615-2.1699,1.6846-2.8076
			s2.5347-0.9561,4.2344-0.9561c2.4282,0,4.29,0.5459,5.5854,1.6387l-0.2734,3.1572h-0.7891
			c-0.1216-0.3037-0.2178-0.7129-0.2886-1.2295c-0.0713-0.5156-0.106-1.0166-0.106-1.502
			c-0.8706-0.5869-2.0142-0.8809-3.4302-0.8809c-0.9917,0-1.791,0.1719-2.3979,0.5166c-0.6074,0.3438-0.9106,0.8906-0.9106,1.6387
			c0,0.5264,0.1714,0.9717,0.5161,1.3359c0.3438,0.3643,0.7588,0.6631,1.2441,0.8955c0.4858,0.2324,1.1841,0.5205,2.0947,0.8652
			c1.0928,0.3838,1.9829,0.7539,2.6709,1.1074c0.688,0.3545,1.2749,0.835,1.7607,1.4414c0.4858,0.6074,0.7285,1.377,0.7285,2.3076
			c0,1.4365-0.5718,2.5293-1.7148,3.2783c-1.1436,0.749-2.5957,1.123-4.356,1.123
			C331.4429,901.3848,330.209,901.2129,329.1162,900.8682z"/>
		<path class="st2" d="M360.8052,900.6865c0.5259-0.1826,1.3252-0.3838,2.3979-0.6074v-12.9609
			c-0.8301-0.1621-1.5278-0.3438-2.0942-0.5469v-0.2725l5.4639-0.5469v14.3271c0.9507,0.1826,1.7603,0.3848,2.4282,0.6074v0.3945
			h-8.1958V900.6865z M363.2793,883.9307c-0.3545-0.3438-0.5312-0.7891-0.5312-1.3359c0-0.5459,0.1768-0.9961,0.5312-1.3506
			c0.3535-0.3535,0.814-0.5312,1.3809-0.5312c0.5664,0,1.0322,0.1777,1.3965,0.5312c0.3643,0.3545,0.5464,0.8047,0.5464,1.3506
			c0,0.5469-0.1821,0.9922-0.5464,1.3359c-0.3643,0.3447-0.8301,0.5166-1.3965,0.5166
			C364.0933,884.4473,363.6328,884.2754,363.2793,883.9307z"/>
		<path class="st2" d="M395.8643,900.6865v0.3945h-8.0132v-0.3945c0.8091-0.3037,1.5581-0.5059,2.2461-0.6074v-9.8955
			c0-1.1729-0.2734-2.0127-0.8198-2.5195c-0.5459-0.5049-1.2744-0.7588-2.1851-0.7588c-0.749,0-1.5386,0.1924-2.3677,0.5771
			c-0.8301,0.3848-1.5786,0.9609-2.2466,1.7305v10.8662c0.8296,0.1416,1.6392,0.3447,2.4287,0.6074v0.3945h-8.1958v-0.3945
			c0.8296-0.2832,1.6284-0.4854,2.3979-0.6074v-13.0215c-0.8301-0.1621-1.5283-0.3438-2.0947-0.5469v-0.2734l5.4639-0.5459v2.2461
			c0.688-0.668,1.5376-1.209,2.5498-1.624c1.0117-0.4141,2.084-0.6221,3.2178-0.6221c1.5581,0,2.8179,0.3789,3.7793,1.1387
			c0.9604,0.7588,1.4414,1.8057,1.4414,3.1416v10.1074C394.478,900.2412,395.2773,900.4434,395.8643,900.6865z"/>
		<path class="st2" d="M436.6299,900.6865v0.3945h-8.0742v-0.3945c0.8091-0.3037,1.5679-0.5059,2.2764-0.6074v-9.8955
			c0-1.1729-0.2734-2.0127-0.8198-2.5195c-0.5459-0.5049-1.2744-0.7588-2.1851-0.7588c-0.749,0-1.5332,0.1973-2.3525,0.5918
			c-0.8198,0.3945-1.5737,0.9668-2.2617,1.7158v10.8662c0.7896,0.1221,1.5376,0.3242,2.2466,0.6074v0.3945h-8.0137v-0.3945
			c0.8091-0.3232,1.6089-0.5264,2.3979-0.6074v-19.0625c-0.8301-0.1611-1.5283-0.3438-2.0947-0.5459v-0.2734l5.4639-0.5469v8.3174
			c0.688-0.6875,1.5332-1.2393,2.5347-1.6543c1.002-0.4141,2.0796-0.6221,3.2329-0.6221c1.5581,0,2.8179,0.3789,3.7793,1.1387
			c0.9604,0.7588,1.4414,1.8057,1.4414,3.1416v10.1074C435.0308,900.2207,435.8403,900.4238,436.6299,900.6865z"/>
		<path class="st2" d="M445.4023,900.2617c-0.8496-0.749-1.2749-1.8418-1.2749-3.2783c0-1.5791,0.562-2.7217,1.6851-3.4307
			c1.123-0.708,2.585-1.0615,4.3862-1.0615h4.2798v-2.3076c0-1.1328-0.334-1.9619-1.0015-2.4893
			c-0.668-0.5254-1.5991-0.7891-2.793-0.7891c-0.7891,0-1.6084,0.1221-2.4585,0.3643c-0.8501,0.2432-1.6494,0.5469-2.3979,0.9111
			l-0.2124-1.0625c0.8496-0.4453,1.8105-0.7939,2.8833-1.0479c1.0728-0.252,2.1655-0.3789,3.2783-0.3789
			c1.8823,0,3.3643,0.3896,4.4473,1.1689c1.082,0.7793,1.6235,1.8262,1.6235,3.1416v9.835c0.769,0.1621,1.4673,0.334,2.0947,0.5156
			v0.2734l-5.4639,0.5459v-2.125c-0.749,0.8301-1.5835,1.4268-2.5044,1.791s-1.8364,0.5469-2.7471,0.5469
			C447.5273,901.3848,446.2524,901.0107,445.4023,900.2617z M452.7334,899.3965c0.7783-0.4756,1.3604-1.0371,1.7451-1.6846v-4.0068
			h-3.4907c-1.1738,0-2.0542,0.2881-2.6406,0.8652c-0.5874,0.5762-0.8804,1.3711-0.8804,2.3828
			c0,1.0518,0.2729,1.8418,0.8193,2.3672c0.5464,0.5264,1.2749,0.7891,2.1855,0.7891
			C451.2002,900.1094,451.9541,899.8721,452.7334,899.3965z"/>
		<path class="st2" d="M469.959,900.8682c-1.0928-0.3438-1.9634-0.8086-2.6108-1.3955l0.2432-3.7646h0.7588
			c0.1211,0.3037,0.2222,0.7998,0.3032,1.4873c0.0811,0.6885,0.1313,1.2959,0.1519,1.8213c0.8701,0.7695,2.084,1.1543,3.6426,1.1543
			c1.2144,0,2.1704-0.2637,2.8687-0.79c0.6982-0.5254,1.0474-1.2441,1.0474-2.1553c0-0.5049-0.167-0.9355-0.501-1.29
			c-0.334-0.3535-0.7544-0.6475-1.2598-0.8799c-0.5059-0.2324-1.1943-0.501-2.064-0.8047c-1.1133-0.4043-2.0088-0.7783-2.6865-1.123
			c-0.6782-0.3438-1.2549-0.8145-1.73-1.4111c-0.4761-0.5967-0.7134-1.3506-0.7134-2.2617c0-1.2334,0.5615-2.1699,1.6846-2.8076
			s2.5347-0.9561,4.2344-0.9561c2.4282,0,4.29,0.5459,5.5854,1.6387l-0.2734,3.1572h-0.7891
			c-0.1216-0.3037-0.2178-0.7129-0.2886-1.2295c-0.0713-0.5156-0.106-1.0166-0.106-1.502
			c-0.8706-0.5869-2.0142-0.8809-3.4302-0.8809c-0.9917,0-1.791,0.1719-2.3979,0.5166c-0.6074,0.3438-0.9106,0.8906-0.9106,1.6387
			c0,0.5264,0.1714,0.9717,0.5161,1.3359c0.3438,0.3643,0.7588,0.6631,1.2441,0.8955c0.4858,0.2324,1.1841,0.5205,2.0947,0.8652
			c1.0928,0.3838,1.9829,0.7539,2.6709,1.1074c0.688,0.3545,1.2749,0.835,1.7607,1.4414c0.4858,0.6074,0.7285,1.377,0.7285,2.3076
			c0,1.4365-0.5718,2.5293-1.7148,3.2783c-1.1436,0.749-2.5957,1.123-4.356,1.123
			C472.2856,901.3848,471.0518,901.2129,469.959,900.8682z"/>
		<path class="st2" d="M490.6299,900.8682c-1.0928-0.3438-1.9634-0.8086-2.6108-1.3955l0.2432-3.7646h0.7588
			c0.1211,0.3037,0.2222,0.7998,0.3032,1.4873c0.0811,0.6885,0.1313,1.2959,0.1519,1.8213c0.8701,0.7695,2.084,1.1543,3.6426,1.1543
			c1.2144,0,2.1704-0.2637,2.8687-0.79c0.6982-0.5254,1.0474-1.2441,1.0474-2.1553c0-0.5049-0.167-0.9355-0.501-1.29
			c-0.334-0.3535-0.7544-0.6475-1.2598-0.8799c-0.5059-0.2324-1.1943-0.501-2.064-0.8047c-1.1133-0.4043-2.0088-0.7783-2.6865-1.123
			c-0.6782-0.3438-1.2549-0.8145-1.73-1.4111c-0.4761-0.5967-0.7134-1.3506-0.7134-2.2617c0-1.2334,0.5615-2.1699,1.6846-2.8076
			s2.5347-0.9561,4.2344-0.9561c2.4282,0,4.29,0.5459,5.5854,1.6387l-0.2734,3.1572h-0.7891
			c-0.1216-0.3037-0.2178-0.7129-0.2886-1.2295c-0.0713-0.5156-0.106-1.0166-0.106-1.502
			c-0.8706-0.5869-2.0142-0.8809-3.4302-0.8809c-0.9917,0-1.791,0.1719-2.3979,0.5166c-0.6074,0.3438-0.9106,0.8906-0.9106,1.6387
			c0,0.5264,0.1714,0.9717,0.5161,1.3359c0.3438,0.3643,0.7588,0.6631,1.2441,0.8955c0.4858,0.2324,1.1841,0.5205,2.0947,0.8652
			c1.0928,0.3838,1.9829,0.7539,2.6709,1.1074c0.688,0.3545,1.2749,0.835,1.7607,1.4414c0.4858,0.6074,0.7285,1.377,0.7285,2.3076
			c0,1.4365-0.5718,2.5293-1.7148,3.2783c-1.1436,0.749-2.5957,1.123-4.356,1.123
			C492.9565,901.3848,491.7227,901.2129,490.6299,900.8682z"/>
		<path class="st2" d="M508.417,900.6865c0.5864-0.2021,1.3857-0.4043,2.3979-0.6074v-19.0625
			c-0.8301-0.1611-1.5283-0.3438-2.0947-0.5459v-0.2734l5.4639-0.5469v20.4287c0.8906,0.1416,1.7002,0.3447,2.4287,0.6074v0.3945
			h-8.1958V900.6865z"/>
		<path class="st2" d="M539.3779,893.6445h-11.5952c0.0405,1.9023,0.5259,3.4756,1.457,4.7197
			c0.9307,1.2441,2.2964,1.8672,4.0977,1.8672c0.8296,0,1.7002-0.1367,2.6108-0.4102s1.6997-0.6523,2.3677-1.1387l0.3335,0.8809
			c-0.6274,0.5059-1.4771,0.9365-2.5493,1.29c-1.0732,0.3535-2.2466,0.5312-3.5215,0.5312c-1.6592,0-3.1064-0.3232-4.3403-0.9717
			c-1.2349-0.6475-2.1855-1.5635-2.8535-2.7471s-1.002-2.5547-1.002-4.1133c0-2.5088,0.7031-4.4463,2.1099-5.8125
			c1.4062-1.3662,3.354-2.0488,5.8433-2.0488c1.5786,0,2.8936,0.3242,3.9463,0.9717c1.0518,0.6475,1.8311,1.5127,2.3369,2.5947
			c0.5059,1.083,0.7588,2.292,0.7588,3.6279V893.6445z M536.4033,892.4297c0-0.8496-0.1318-1.6992-0.3945-2.5498
			c-0.2632-0.8496-0.6934-1.5576-1.29-2.124c-0.5972-0.5664-1.3813-0.8506-2.3525-0.8506c-1.3765,0-2.4434,0.5215-3.2021,1.5635
			c-0.7593,1.043-1.2095,2.3633-1.3511,3.9609H536.4033z"/>
		<path class="st2" d="M547.7246,891.6709h9.6533v1.8818h-9.6533V891.6709z"/>
		<path class="st2" d="M572.541,881.457c-0.4961,0.5967-0.7441,1.4922-0.7441,2.6865v1.8213h4.5527v1.2139h-4.5527v12.9004
			c1.0312,0.1621,1.8906,0.3643,2.5801,0.6074v0.3945h-8.3789v-0.4248c1.1953-0.3643,2.0039-0.5566,2.4297-0.5771v-12.9004h-2.8535
			v-1.2139h2.8535v-1.0625c0-1.8418,0.4199-3.2373,1.2598-4.1895c0.8379-0.9502,2.0488-1.4268,3.627-1.4268
			c1.2539,0,2.3867,0.1729,3.4004,0.5166l-0.2129,1.123c-0.6895-0.2432-1.3457-0.3643-1.9727-0.3643
			C573.6992,880.5615,573.0352,880.8604,572.541,881.457z"/>
		<path class="st2" d="M584.1504,900.6562c0.6484-0.2627,1.457-0.4551,2.4277-0.5771v-13.0215
			c-0.8691-0.1826-1.5684-0.3643-2.0938-0.5469v-0.2422l5.0684-0.5771l0.3047,2.7012h0.1211
			c0.3438-0.8086,0.8652-1.4619,1.5625-1.958c0.6992-0.4951,1.4629-0.7432,2.293-0.7432c0.5469,0,1.0371,0.0508,1.4727,0.1514
			c0.4336,0.1016,0.8652,0.2842,1.2891,0.5469l-0.6367,1.6689c-0.5273-0.3838-1.1133-0.5762-1.7617-0.5762
			c-0.8496,0-1.6445,0.2881-2.3828,0.8652c-0.7383,0.5762-1.3613,1.2998-1.8652,2.1699v9.5615
			c0.7891,0.1221,1.5879,0.3242,2.3965,0.6074v0.3945h-8.1953V900.6562z"/>
		<path class="st2" d="M617.7227,893.6445H606.127c0.041,1.9023,0.5254,3.4756,1.457,4.7197
			c0.9297,1.2441,2.2969,1.8672,4.0977,1.8672c0.8301,0,1.6992-0.1367,2.6113-0.4102c0.9102-0.2734,1.6992-0.6523,2.3672-1.1387
			l0.334,0.8809c-0.627,0.5059-1.4785,0.9365-2.5508,1.29s-2.2461,0.5312-3.5195,0.5312c-1.6602,0-3.1074-0.3232-4.3418-0.9717
			c-1.2344-0.6475-2.1855-1.5635-2.8535-2.7471s-1.002-2.5547-1.002-4.1133c0-2.5088,0.7031-4.4463,2.1113-5.8125
			c1.4062-1.3662,3.3535-2.0488,5.8418-2.0488c1.5781,0,2.8945,0.3242,3.9473,0.9717c1.0508,0.6475,1.8301,1.5127,2.3359,2.5947
			c0.5059,1.083,0.7598,2.292,0.7598,3.6279V893.6445z M614.748,892.4297c0-0.8496-0.1328-1.6992-0.3945-2.5498
			c-0.2637-0.8496-0.6934-1.5576-1.291-2.124c-0.5957-0.5664-1.3809-0.8506-2.3516-0.8506c-1.377,0-2.4434,0.5215-3.2031,1.5635
			c-0.7578,1.043-1.209,2.3633-1.3496,3.9609H614.748z"/>
		<path class="st2" d="M640.5176,893.6445h-11.5938c0.0391,1.9023,0.5254,3.4756,1.457,4.7197
			c0.9297,1.2441,2.2949,1.8672,4.0977,1.8672c0.8281,0,1.6992-0.1367,2.6094-0.4102s1.6992-0.6523,2.3672-1.1387l0.334,0.8809
			c-0.627,0.5059-1.4766,0.9365-2.5488,1.29s-2.2461,0.5312-3.5215,0.5312c-1.6602,0-3.1074-0.3232-4.3398-0.9717
			c-1.2344-0.6475-2.1855-1.5635-2.8535-2.7471s-1.002-2.5547-1.002-4.1133c0-2.5088,0.7031-4.4463,2.1094-5.8125
			s3.3535-2.0488,5.8438-2.0488c1.5781,0,2.8926,0.3242,3.9453,0.9717s1.832,1.5127,2.3379,2.5947
			c0.5059,1.083,0.7578,2.292,0.7578,3.6279V893.6445z M637.543,892.4297c0-0.8496-0.1309-1.6992-0.3945-2.5498
			c-0.2637-0.8496-0.6934-1.5576-1.2891-2.124c-0.5977-0.5664-1.3809-0.8506-2.3535-0.8506c-1.375,0-2.4434,0.5215-3.2012,1.5635
			c-0.7598,1.043-1.2109,2.3633-1.3516,3.9609H637.543z"/>
		<path class="st2" d="M663.6172,900.2617c-0.8496-0.749-1.2754-1.8418-1.2754-3.2783c0-1.5791,0.5625-2.7217,1.6855-3.4307
			c1.123-0.708,2.584-1.0615,4.3867-1.0615h4.2793v-2.3076c0-1.1328-0.334-1.9619-1.002-2.4893
			c-0.668-0.5254-1.5977-0.7891-2.793-0.7891c-0.7891,0-1.6074,0.1221-2.459,0.3643c-0.8496,0.2432-1.6484,0.5469-2.3965,0.9111
			l-0.2129-1.0625c0.8496-0.4453,1.8105-0.7939,2.8828-1.0479c1.0723-0.252,2.166-0.3789,3.2793-0.3789
			c1.8809,0,3.3633,0.3896,4.4473,1.1689c1.082,0.7793,1.623,1.8262,1.623,3.1416v9.835c0.7695,0.1621,1.4668,0.334,2.0938,0.5156
			v0.2734l-5.4629,0.5459v-2.125c-0.748,0.8301-1.584,1.4268-2.5039,1.791c-0.9219,0.3643-1.8359,0.5469-2.748,0.5469
			C665.7422,901.3848,664.4668,901.0107,663.6172,900.2617z M670.9473,899.3965c0.7793-0.4756,1.3613-1.0371,1.7461-1.6846v-4.0068
			h-3.4902c-1.1738,0-2.0547,0.2881-2.6406,0.8652c-0.5879,0.5762-0.8809,1.3711-0.8809,2.3828
			c0,1.0518,0.2734,1.8418,0.8203,2.3672c0.5449,0.5264,1.2734,0.7891,2.1855,0.7891
			C669.416,900.1094,670.168,899.8721,670.9473,899.3965z"/>
		<path class="st2" d="M687.1113,899.5176c-1.1953-1.2441-1.791-3.1719-1.791-5.7822c0-2.4688,0.6465-4.4268,1.9434-5.874
			c1.2949-1.4463,3.0742-2.1699,5.3418-2.1699c0.9102,0,1.75,0.1318,2.5195,0.3945c0.7695,0.2637,1.4863,0.7588,2.1543,1.4873
			v-6.5566c-0.8301-0.1611-1.5176-0.3438-2.0625-0.5459v-0.2734l5.4316-0.5469v20.1865c0.8516,0.1621,1.5488,0.334,2.0957,0.5156
			v0.2432l-4.7363,0.667c-0.1016-0.667-0.1914-1.5674-0.2734-2.7012c-0.5449,0.9307-1.2988,1.6348-2.2598,2.1094
			c-0.9629,0.4756-2.0703,0.7139-3.3242,0.7139C689.9844,901.3848,688.3047,900.7627,687.1113,899.5176z M696.0957,898.9717
			c0.7891-0.7998,1.1836-1.8262,1.1836-3.0811v-6.8301c-1.1934-1.4365-2.5293-2.1553-4.0059-2.1553
			c-1.5781,0-2.7383,0.6787-3.4766,2.0342s-1.1074,2.9648-1.1074,4.8262c0,2.0439,0.3535,3.623,1.0625,4.7354
			c0.709,1.1133,1.8223,1.6699,3.3398,1.6699C694.3047,900.1709,695.3066,899.7715,696.0957,898.9717z"/>
		<path class="st2" d="M738.168,900.6865v0.3945h-8.0449v-0.3945c0.8906-0.3232,1.6387-0.5264,2.2461-0.6074v-9.8955
			c0-1.1729-0.2734-2.0127-0.8184-2.5195c-0.5469-0.5049-1.2754-0.7588-2.1855-0.7588c-0.668,0-1.332,0.1973-1.9883,0.5918
			c-0.6582,0.3945-1.2598,0.9365-1.8066,1.624c0.041,0.3643,0.0605,0.6484,0.0605,0.8506v10.1074
			c0.8301,0.1221,1.5684,0.3242,2.2168,0.6074v0.3945h-7.6504v-0.3945c0.9102-0.3232,1.6484-0.5264,2.2168-0.6074v-9.8955
			c0-2.1855-0.9727-3.2783-2.9141-3.2783c-0.668,0-1.3359,0.1924-2.0039,0.5771s-1.2852,0.9209-1.8516,1.6084v10.9883
			c0.8301,0.1416,1.6387,0.3447,2.4277,0.6074v0.3945h-8.1953v-0.3945c0.8301-0.2832,1.6289-0.4854,2.3984-0.6074v-13.0215
			c-0.8301-0.1621-1.5293-0.3438-2.0957-0.5469v-0.2734l5.4648-0.5459v2.125c0.5859-0.6074,1.2988-1.1133,2.1406-1.5176
			c0.8379-0.4053,1.7441-0.6074,2.7148-0.6074c1.1543,0,2.1465,0.2178,2.9766,0.6523c0.8281,0.4355,1.4258,1.0479,1.7891,1.8369
			c0.6074-0.708,1.3574-1.2998,2.248-1.7764c0.8887-0.4746,1.8906-0.7129,3.0039-0.7129c1.5586,0,2.8184,0.3789,3.7793,1.1387
			c0.9609,0.7588,1.4414,1.8057,1.4414,3.1416v10.1074C736.6094,900.2207,737.418,900.4238,738.168,900.6865z"/>
		<path class="st2" d="M745.6035,900.6865c0.5273-0.1826,1.3262-0.3838,2.3984-0.6074v-12.9609
			c-0.8301-0.1621-1.5273-0.3438-2.0938-0.5469v-0.2725l5.4629-0.5469v14.3271c0.9512,0.1826,1.7617,0.3848,2.4277,0.6074v0.3945
			h-8.1953V900.6865z M748.0781,883.9307c-0.3535-0.3438-0.5312-0.7891-0.5312-1.3359c0-0.5459,0.1777-0.9961,0.5312-1.3506
			c0.3535-0.3535,0.8145-0.5312,1.3809-0.5312s1.0312,0.1777,1.3965,0.5312c0.3633,0.3545,0.5469,0.8047,0.5469,1.3506
			c0,0.5469-0.1836,0.9922-0.5469,1.3359c-0.3652,0.3447-0.8301,0.5166-1.3965,0.5166S748.4316,884.2754,748.0781,883.9307z"/>
		<path class="st2" d="M764.3926,900.8682c-1.0918-0.3438-1.9629-0.8086-2.6094-1.3955l0.2422-3.7646h0.7598
			c0.1211,0.3037,0.2227,0.7998,0.3027,1.4873c0.0801,0.6885,0.1309,1.2959,0.1523,1.8213c0.8691,0.7695,2.084,1.1543,3.6426,1.1543
			c1.2129,0,2.1699-0.2637,2.8672-0.79c0.6992-0.5254,1.0488-1.2441,1.0488-2.1553c0-0.5049-0.168-0.9355-0.502-1.29
			c-0.334-0.3535-0.7539-0.6475-1.2598-0.8799s-1.1934-0.501-2.0645-0.8047c-1.1133-0.4043-2.0078-0.7783-2.6855-1.123
			c-0.6777-0.3438-1.2559-0.8145-1.7305-1.4111s-0.7129-1.3506-0.7129-2.2617c0-1.2334,0.5605-2.1699,1.6836-2.8076
			s2.5352-0.9561,4.2344-0.9561c2.4297,0,4.291,0.5459,5.5859,1.6387l-0.2734,3.1572h-0.7891
			c-0.1211-0.3037-0.2168-0.7129-0.2871-1.2295c-0.0723-0.5156-0.1074-1.0166-0.1074-1.502
			c-0.8691-0.5869-2.0137-0.8809-3.4297-0.8809c-0.9922,0-1.791,0.1719-2.3984,0.5166c-0.6074,0.3438-0.9102,0.8906-0.9102,1.6387
			c0,0.5264,0.1719,0.9717,0.5156,1.3359s0.7598,0.6631,1.2441,0.8955c0.4863,0.2324,1.1836,0.5205,2.0957,0.8652
			c1.0918,0.3838,1.9824,0.7539,2.6699,1.1074c0.6875,0.3545,1.2754,0.835,1.7617,1.4414c0.4844,0.6074,0.7285,1.377,0.7285,2.3076
			c0,1.4365-0.5723,2.5293-1.7148,3.2783c-1.1445,0.749-2.5957,1.123-4.3574,1.123
			C766.7207,901.3848,765.4863,901.2129,764.3926,900.8682z"/>
		<path class="st2" d="M785.0645,900.8682c-1.0938-0.3438-1.9629-0.8086-2.6113-1.3955l0.2441-3.7646h0.7578
			c0.1211,0.3037,0.2227,0.7998,0.3047,1.4873c0.0801,0.6885,0.1309,1.2959,0.1504,1.8213c0.8711,0.7695,2.084,1.1543,3.6426,1.1543
			c1.2148,0,2.1719-0.2637,2.8691-0.79c0.6973-0.5254,1.0469-1.2441,1.0469-2.1553c0-0.5049-0.166-0.9355-0.5-1.29
			c-0.334-0.3535-0.7539-0.6475-1.2598-0.8799s-1.1953-0.501-2.0645-0.8047c-1.1133-0.4043-2.0078-0.7783-2.6875-1.123
			c-0.6777-0.3438-1.2539-0.8145-1.7285-1.4111c-0.4766-0.5967-0.7148-1.3506-0.7148-2.2617c0-1.2334,0.5625-2.1699,1.6855-2.8076
			s2.5352-0.9561,4.2344-0.9561c2.4277,0,4.2891,0.5459,5.5859,1.6387l-0.2734,3.1572h-0.7891
			c-0.1211-0.3037-0.2188-0.7129-0.2891-1.2295c-0.0703-0.5156-0.1055-1.0166-0.1055-1.502
			c-0.8711-0.5869-2.0137-0.8809-3.4316-0.8809c-0.9902,0-1.7891,0.1719-2.3965,0.5166c-0.6074,0.3438-0.9121,0.8906-0.9121,1.6387
			c0,0.5264,0.1719,0.9717,0.5176,1.3359c0.3438,0.3643,0.7578,0.6631,1.2441,0.8955c0.4844,0.2324,1.1836,0.5205,2.0938,0.8652
			c1.0938,0.3838,1.9824,0.7539,2.6719,1.1074c0.6875,0.3545,1.2754,0.835,1.7598,1.4414c0.4863,0.6074,0.7285,1.377,0.7285,2.3076
			c0,1.4365-0.5723,2.5293-1.7148,3.2783s-2.5957,1.123-4.3555,1.123C787.3906,901.3848,786.1562,901.2129,785.0645,900.8682z"/>
		<path class="st2" d="M802.7305,900.6865c0.5254-0.1826,1.3242-0.3838,2.3984-0.6074v-12.9609
			c-0.8301-0.1621-1.5293-0.3438-2.0957-0.5469v-0.2725l5.4648-0.5469v14.3271c0.9512,0.1826,1.7598,0.3848,2.4277,0.6074v0.3945
			h-8.1953V900.6865z M805.2031,883.9307c-0.3535-0.3438-0.5312-0.7891-0.5312-1.3359c0-0.5459,0.1777-0.9961,0.5312-1.3506
			c0.3555-0.3535,0.8145-0.5312,1.3828-0.5312c0.5645,0,1.0312,0.1777,1.3945,0.5312c0.3652,0.3545,0.5469,0.8047,0.5469,1.3506
			c0,0.5469-0.1816,0.9922-0.5469,1.3359c-0.3633,0.3447-0.8301,0.5166-1.3945,0.5166
			C806.0176,884.4473,805.5586,884.2754,805.2031,883.9307z"/>
		<path class="st2" d="M820.6855,899.3203c-1.4473-1.376-2.1719-3.2979-2.1719-5.7676c0-2.4678,0.7246-4.3955,2.1719-5.7822
			c1.4453-1.3857,3.4844-2.0791,6.1152-2.0791s4.6699,0.6934,6.1172,2.0791c1.4453,1.3867,2.1699,3.3145,2.1699,5.7822
			c0,2.4697-0.7246,4.3916-2.1699,5.7676c-1.4473,1.377-3.4863,2.0645-6.1172,2.0645S822.1309,900.6973,820.6855,899.3203z
			 M830.3672,898.4102c0.8809-1.1738,1.3203-2.793,1.3203-4.8574c0-2.0635-0.4395-3.6875-1.3203-4.8711
			c-0.8789-1.1846-2.0684-1.7764-3.5664-1.7764c-1.5176,0-2.7168,0.5918-3.5977,1.7764c-0.8789,1.1836-1.3203,2.8076-1.3203,4.8711
			c0,2.0645,0.4414,3.6836,1.3203,4.8574c0.8809,1.1738,2.0801,1.7607,3.5977,1.7607
			C828.2988,900.1709,829.4883,899.584,830.3672,898.4102z"/>
		<path class="st2" d="M861.9512,900.6865v0.3945h-8.0137v-0.3945c0.8086-0.3037,1.5566-0.5059,2.2461-0.6074v-9.8955
			c0-1.1729-0.2734-2.0127-0.8203-2.5195c-0.5469-0.5049-1.2754-0.7588-2.1855-0.7588c-0.748,0-1.5371,0.1924-2.3672,0.5771
			s-1.5781,0.9609-2.2461,1.7305v10.8662c0.8301,0.1416,1.6387,0.3447,2.4277,0.6074v0.3945h-8.1953v-0.3945
			c0.8301-0.2832,1.6289-0.4854,2.3984-0.6074v-13.0215c-0.8301-0.1621-1.5293-0.3438-2.0957-0.5469v-0.2734l5.4648-0.5459v2.2461
			c0.6875-0.668,1.5371-1.209,2.5488-1.624c1.0117-0.4141,2.084-0.6221,3.2188-0.6221c1.5566,0,2.8164,0.3789,3.7793,1.1387
			c0.9609,0.7588,1.4414,1.8057,1.4414,3.1416v10.1074C860.5645,900.2412,861.3633,900.4434,861.9512,900.6865z"/>
		<path class="st2" d="M872.3926,900.8682c-1.0938-0.3438-1.9629-0.8086-2.6113-1.3955l0.2441-3.7646h0.7578
			c0.1211,0.3037,0.2227,0.7998,0.3047,1.4873c0.0801,0.6885,0.1309,1.2959,0.1504,1.8213c0.8711,0.7695,2.084,1.1543,3.6426,1.1543
			c1.2148,0,2.1719-0.2637,2.8691-0.79c0.6973-0.5254,1.0469-1.2441,1.0469-2.1553c0-0.5049-0.166-0.9355-0.5-1.29
			c-0.334-0.3535-0.7539-0.6475-1.2598-0.8799s-1.1953-0.501-2.0645-0.8047c-1.1133-0.4043-2.0078-0.7783-2.6875-1.123
			c-0.6777-0.3438-1.2539-0.8145-1.7285-1.4111c-0.4766-0.5967-0.7148-1.3506-0.7148-2.2617c0-1.2334,0.5625-2.1699,1.6855-2.8076
			s2.5352-0.9561,4.2344-0.9561c2.4277,0,4.2891,0.5459,5.5859,1.6387l-0.2734,3.1572h-0.7891
			c-0.1211-0.3037-0.2188-0.7129-0.2891-1.2295c-0.0703-0.5156-0.1055-1.0166-0.1055-1.502
			c-0.8711-0.5869-2.0137-0.8809-3.4316-0.8809c-0.9902,0-1.7891,0.1719-2.3965,0.5166c-0.6074,0.3438-0.9121,0.8906-0.9121,1.6387
			c0,0.5264,0.1719,0.9717,0.5176,1.3359c0.3438,0.3643,0.7578,0.6631,1.2441,0.8955c0.4844,0.2324,1.1836,0.5205,2.0938,0.8652
			c1.0938,0.3838,1.9824,0.7539,2.6719,1.1074c0.6875,0.3545,1.2754,0.835,1.7598,1.4414c0.4863,0.6074,0.7285,1.377,0.7285,2.3076
			c0,1.4365-0.5723,2.5293-1.7148,3.2783s-2.5957,1.123-4.3555,1.123C874.7188,901.3848,873.4844,901.2129,872.3926,900.8682z"/>
	</g>
	<g>
		<path class="st15" d="M878.4254,922.2074c-8.1542-3.212-17.1488-5.0953-26.2272-6.3298
			c-9.1035-1.2214-18.3699-1.7814-27.6573-1.9714c-18.5891-0.3517-37.2874,0.7349-55.8839,2.7239
			c-18.6034,1.9825-37.1393,4.8759-55.4654,8.7951c-9.16,1.97-18.2697,4.2035-27.2532,6.8817
			c-8.9684,2.6964-17.8874,5.7356-26.184,10.1674c8.1064-4.78,16.9378-8.2134,25.8201-11.296
			c8.9029-3.0674,17.954-5.6948,27.0703-8.0607c18.2408-4.7111,36.7475-8.4048,55.4092-11.192
			c18.6612-2.7924,37.4925-4.6925,56.4798-5.1339c9.4933-0.2042,19.0292-0.0363,28.5964,0.8381
			c9.559,0.9065,19.1812,2.4346,28.681,5.7165c2.4768,0.8557,3.791,3.5572,2.9354,6.034c-0.8557,2.4769-3.5572,3.7911-6.0341,2.9354
			c-0.0581-0.0201-0.1156-0.0412-0.1725-0.0633L878.4254,922.2074z"/>
	</g>
</g>
</svg>
