<svg id="Layer_1" data-name="Layer 1" xmlns="http://www.w3.org/2000/svg" xmlns:xlink="http://www.w3.org/1999/xlink" viewBox="0 0 1024.1238 674.289"><defs><style>.cls-1{fill:#fff;stroke:#00144d;stroke-miterlimit:10;}.cls-2{fill:url(#linear-gradient);}.cls-3{fill:url(#linear-gradient-2);}.cls-4{fill:url(#linear-gradient-3);}.cls-5{fill:url(#linear-gradient-4);}.cls-6{fill:url(#linear-gradient-5);}.cls-7{fill:url(#linear-gradient-6);}.cls-8{fill:url(#linear-gradient-7);}.cls-9{fill:url(#linear-gradient-8);}.cls-10{fill:url(#linear-gradient-9);}.cls-11{fill:url(#linear-gradient-10);}.cls-12{fill:url(#linear-gradient-11);}</style><linearGradient id="linear-gradient" x1="705.0111" y1="677.1855" x2="1070.9037" y2="522.8934" gradientUnits="userSpaceOnUse"><stop offset="0" stop-color="#fcca21"/><stop offset="0.1038" stop-color="#fbba20"/><stop offset="0.3253" stop-color="#f99f1f"/><stop offset="0.5487" stop-color="#f88b1f"/><stop offset="0.773" stop-color="#f77f1e"/><stop offset="1" stop-color="#f77b1e"/></linearGradient><linearGradient id="linear-gradient-2" x1="809.1445" y1="585.4224" x2="1040.8126" y2="489.1544" xlink:href="#linear-gradient"/><linearGradient id="linear-gradient-3" x1="892.1252" y1="513.5644" x2="1016.4407" y2="470.1264" xlink:href="#linear-gradient"/><linearGradient id="linear-gradient-4" x1="397.0945" y1="246.7034" x2="363.6454" y2="204.0974" gradientUnits="userSpaceOnUse"><stop offset="1" stop-color="#f77b1e"/><stop offset="1" stop-color="#f77f1e"/><stop offset="1" stop-color="#f88c1f"/><stop offset="1" stop-color="#f9a11f"/><stop offset="1" stop-color="#fbbe21"/><stop offset="1" stop-color="#fcca21"/></linearGradient><linearGradient id="linear-gradient-5" x1="492.8077" y1="288.6967" x2="512.3008" y2="246.2669" xlink:href="#linear-gradient-4"/><linearGradient id="linear-gradient-6" x1="238.8254" y1="218.5447" x2="184.5638" y2="259.4136" gradientUnits="userSpaceOnUse"><stop offset="0" stop-color="#f77b1e"/><stop offset="0.117" stop-color="#f88d1f"/><stop offset="0.3285" stop-color="#faa820"/><stop offset="0.5446" stop-color="#fbbb20"/><stop offset="0.7658" stop-color="#fcc621"/><stop offset="1" stop-color="#fcca21"/></linearGradient><linearGradient id="linear-gradient-7" x1="138.7006" y1="294.6995" x2="88.562" y2="360.2233" gradientUnits="userSpaceOnUse"><stop offset="0" stop-color="#f77b1e"/><stop offset="0.1113" stop-color="#f88c1f"/><stop offset="0.3273" stop-color="#faa720"/><stop offset="0.5466" stop-color="#fbbb20"/><stop offset="0.7692" stop-color="#fcc621"/><stop offset="1" stop-color="#fcca21"/></linearGradient><linearGradient id="linear-gradient-8" x1="61.2816" y1="442.6365" x2="64.0397" y2="495.4896" gradientUnits="userSpaceOnUse"><stop offset="0" stop-color="#f77b1e"/><stop offset="0.219" stop-color="#f77f1e"/><stop offset="0.4477" stop-color="#f88c1f"/><stop offset="0.6808" stop-color="#f9a11f"/><stop offset="0.9155" stop-color="#fbbe21"/><stop offset="1" stop-color="#fcca21"/></linearGradient><linearGradient id="linear-gradient-9" x1="45.2412" y1="575.9258" x2="95.1074" y2="642.0455" xlink:href="#linear-gradient-8"/><linearGradient id="linear-gradient-10" x1="375.2725" y1="321.0697" x2="167.1366" y2="688.3215" gradientUnits="userSpaceOnUse"><stop offset="0" stop-color="#f77b1e"/><stop offset="0.2001" stop-color="#f8841e"/><stop offset="0.5236" stop-color="#f99c1f"/><stop offset="0.9283" stop-color="#fcc221"/><stop offset="1" stop-color="#fcca21"/></linearGradient><linearGradient id="linear-gradient-11" x1="331.7456" y1="755.7403" x2="834.2888" y2="455.8858" gradientUnits="userSpaceOnUse"><stop offset="0" stop-color="#fc0021"/><stop offset="0.0827" stop-color="#fb1321"/><stop offset="0.2706" stop-color="#fa3820"/><stop offset="0.4585" stop-color="#f9551f"/><stop offset="0.6439" stop-color="#f86a1e"/><stop offset="0.8258" stop-color="#f7771e"/><stop offset="1" stop-color="#f77b1e"/></linearGradient></defs><path class="cls-1" d="M678.9484,575.0541h83.1853l-3.7817,12.7073H750.66l-2.7384,6.8841q-9.7788,24.3572-9.7784,30.18,0,1.9855,6.1275,8.87l1.6952,1.8529a24.2907,24.2907,0,0,0,2.6076,2.5147q1.3026,1.3251,1.3039,1.8538a1.6534,1.6534,0,0,1-.2606.9264c-.1749.2646-.3481.3973-.5212.3973a5.35,5.35,0,0,1-2.8691-1.1919,16.6891,16.6891,0,0,1-3.7808-3.1766q-11.4748-12.0441-13.4294-18.1349-4.303,0-10.3-4.8976-5.8673-5.03-5.8673-8.6043a24.1459,24.1459,0,0,0,6.3889,1.1911,16.4283,16.4283,0,0,0,6.78-1.4565,15.5616,15.5616,0,0,0,5.6067-4.2358q2.9981-9.3966,4.4332-12.9727H718.3243q-1.6961,7.0181-7.3014,19.7241a17.853,17.853,0,0,1-7.3015,8.7361,16.6039,16.6039,0,0,1-10.9523,2.5156q4.8225,8.6055,17.4715,20.9151a2.1425,2.1425,0,0,1,.3914.5292,1.2153,1.2153,0,0,1,.13.5291.7667.7667,0,0,1-.2611.53.7519.7519,0,0,1-.5212.2646q-4.0433,0-14.8638-12.84l-8.0841-9.3988a117.0318,117.0318,0,0,1-8.475-10.59q-3-4.4986-3.52-7.1478a5.7086,5.7086,0,0,1,.6519-4.3685,2.897,2.897,0,0,1,2.999-1.721q2.8662,0,6.1279,3.0448a26.668,26.668,0,0,1,5.6067,8.0751q3.6486,0,7.3014-5.2949a40.2567,40.2567,0,0,0,5.737-13.5028H675.1672Z" transform="translate(-24.7853 -166)"/><path class="cls-1" d="M753.9185,546.1967l8.2143,10.4571-11.0826,8.34-8.2144-10.59Z" transform="translate(-24.7853 -166)"/><path class="cls-1" d="M894.109,426.4141h70.5382l-3.7817,12.7077h-7.6923l-2.7384,6.8836q-9.7788,24.3571-9.7788,30.1808,0,1.9856,6.1287,8.8693l1.6943,1.8528a24.4267,24.4267,0,0,0,2.6077,2.5152q1.3026,1.3251,1.3039,1.8533a1.6528,1.6528,0,0,1-.2606.9265c-.1749.265-.3481.3972-.5212.3972a5.3472,5.3472,0,0,1-2.8683-1.1914,16.6821,16.6821,0,0,1-3.7817-3.177,91.2854,91.2854,0,0,1-9.2567-10.9867,32.2984,32.2984,0,0,1-20.6009,6.8832,30.5194,30.5194,0,0,1-15.7768-4.7654q-7.9542-4.7655-7.9529-9.3983a8.4565,8.4565,0,0,1,2.6077-5.8245,18.4867,18.4867,0,0,1,7.04-4.1035,27.8691,27.8691,0,0,1-7.5625-5.1627q-2.8687-2.78-2.8683-5.1626a4.9608,4.9608,0,0,1,2.7384-4.5007,16.548,16.548,0,0,1,7.953-1.5884l8.8663.3973a15.0832,15.0832,0,0,0,2.999-.265c.8675-.2645,1.5194-5.8676,1.9557-6.2213.3464-.6166.6944,3.4416,1.0433,1.5883H890.3282Zm33.5086,18.0026q-.6533,2.3831-.7818,3.177a8.9271,8.9271,0,0,1-1.5644,3.8389,3.3437,3.3437,0,0,1-2.6077,1.4561l-13.0384-.3973a19.2859,19.2859,0,0,0-5.8673.7945q-2.348.7938-2.3471,1.8529a3.3731,3.3731,0,0,0,.5212,1.5888,15.28,15.28,0,0,0,1.6951,1.7205l4.0423-.7941a27.0092,27.0092,0,0,1,3.7808-.53q1.9557,0,4.0422,2.3829a19.5963,19.5963,0,0,1,3.26,6.3541,64.7037,64.7037,0,0,0-12.7778,4.8976q-4.9569,2.6495-4.9547,5.1626a1.9237,1.9237,0,0,0,.7826,1.7206,2.8176,2.8176,0,0,0,2.0856.6619q4.04,0,10.9528-3.3093a124.8856,124.8856,0,0,0,16.1673-9.663q0-6.4842,7.8231-26.21h-9.91Z" transform="translate(-24.7853 -166)"/><path class="cls-2" d="M684.9443,788.9045c-28.99-40.8031-57.3516-117.9536,9.4479-137.4457a96.005,96.005,0,0,1,23.4009-3.4053c29.2806-.5805,56.8292,3.9524,85.3024,6.8649,40.1114,4.295,81.0033,8.288,120.8766,1.1685,33.7066-6.0519,62.624-21.2848,81.846-50.6756.6841-1.1674,3.0919-4.9767,3.799-6.15,1.7516-3.3209,4.0886-7.3966,5.5567-10.8579a175.6561,175.6561,0,0,0,10.2864-28.1313c6.8862-24.9017,9.6854-51.2277,10.7675-77.05.6336-13.67.702-28.8737.509-42.5644q-.0864-5.35-.0919-10.731c1.3111,4.9153,2.4958,10.6784,3.6929,15.6794,17.7009,82.9777,14.3875,187.6556-72.5755,228.1528-65.5972,29.3-141.8133,14.3876-209.8524,3.4669-22.6323-3.0692-54.1858-10.64-74.2714,1.7469-30.5377,19.5269-9.377,82.5363,1.3059,109.932Z" transform="translate(-24.7853 -166)"/><path class="cls-3" d="M790.035,648.0583c-18.0236-22.6488-29.6839-61.2105,3.4857-76.2049,17.7064-7.6356,36.8226-5.1281,55.2-3.8117,24.3165,2.0915,49.7214,5.2361,73.3947,3.3749,22.9878-1.7525,43.8228-8.318,59.1708-25.1974,26.5836-30.5067,29.86-76.3519,34.2055-115.7444,19.2283,78.409,1.0083,162.1928-91.2195,169.0877-31.478,2.453-60.7712-3.6779-91.0226-8.7477-13.0415-1.8982-30.1215-5.5089-41.4343,2.5165-13.6829,11.0716-6.221,39.7524-1.7806,54.727Z" transform="translate(-24.7853 -166)"/><path class="cls-4" d="M884.2264,563.5881c-13.9412-17.7723-27.16-55.2025,1.9738-65.3067,7.925-2.5574,16.4166-1.9443,24.2068-1.6465,17.7095.8981,36.2139,4.4364,52.59-.4853,16.5792-5.0841,23.7144-21.434,27.84-37.9125,2.332-9.0517,3.7289-18.5788,5.337-28.293a116.8735,116.8735,0,0,1,2.8157,14.51c4.8337,35.3137-7.0434,68.3294-45.7628,72.85-19.4461,2.5116-38.7921-2.3548-57.5525-3.2214-7.224-.3857-12.18,1.856-13.9932,8.7361a41.92,41.92,0,0,0-1.2981,12.5269c.2353,9.0869,1.8861,18.606,3.8432,28.2422Z" transform="translate(-24.7853 -166)"/><path class="cls-5" d="M394.0505,233.6039c-4.0692,6.0674-15.512,12.82-25.6065,12.1738,13.9482-9.4684,14.6541-38.0983-6.7934-62.9074A114.0629,114.0629,0,0,0,343.5727,166a114.412,114.412,0,0,1,20.7554,11.4573C391.8309,196.4693,403.2865,219.8324,394.0505,233.6039Z" transform="translate(-24.7853 -166)"/><path class="cls-6" d="M503.8159,289.1611c-7.07,1.5337-19.9388-1.6083-26.7986-9.1545,16.5279,2.935,36.5171-17.2722,37.8877-50.2525a116.8474,116.8474,0,0,0-1.5942-24.8765,117.9644,117.9644,0,0,1,7.2131,22.84C527.4761,260.7525,519.8642,285.68,503.8159,289.1611Z" transform="translate(-24.7853 -166)"/><path class="cls-7" d="M246.0351,261.2021c-2.34,6.945-11.612,16.5341-21.5144,18.6266,10.9788-12.882,4.188-40.6786-22.9674-58.832a112.7763,112.7763,0,0,0-21.8344-11.4046,113.484,113.484,0,0,1,23.0037,5.4649C234.204,225.9916,251.3471,245.4383,246.0351,261.2021Z" transform="translate(-24.7853 -166)"/><path class="cls-8" d="M139.4668,347.78c1.1094,7.2533-2.7062,20.12-10.5141,26.6478,3.8185-16.5878-14.9259-37.9894-47.2817-41.2389a111.711,111.711,0,0,0-24.5537.2128,113.5631,113.5631,0,0,1,22.8681-6.0232C112.8641,322.1948,136.9485,331.3165,139.4668,347.78Z" transform="translate(-24.7853 -166)"/><path class="cls-9" d="M95.5679,482.76c5.5938,4.6505,11.2091,16.8183,9.6846,26.97-8.059-14.9412-36.0864-18.1814-62.32,1.3192a114.05,114.05,0,0,0-18.1471,16.7934,116.8565,116.8565,0,0,1,13.0726-19.9788C58.938,481.7283,82.8711,472.2049,95.5679,482.76Z" transform="translate(-24.7853 -166)"/><path class="cls-10" d="M136.5186,635.9532c7.0149,1.7771,17.2139,10.3411,20.1091,20.18-13.5757-10.0109-40.2784-.7787-55.786,28.2343a116.1265,116.1265,0,0,0-9.3366,23.0566A118.3516,118.3516,0,0,1,94.913,683.69C102.9683,650.9143,120.5963,631.92,136.5186,635.9532Z" transform="translate(-24.7853 -166)"/><path class="cls-1" d="M841.6545,497.402c-7.146-10.1013-15.461-21.28-27.26-25.023-7.0148-2.2285-14.2919-.9568-21.4617-.7146a37.1279,37.1279,0,0,1-9.3411-.6541,31.1384,31.1384,0,0,1-4.51-1.4654c-3.4835-1.3324-6.2393-6.1044-6.9431-5.5715-.68.5208,3.8414,6.4556,3.9726,6.6373,3.4,4.6993,7.1221,9.4351,12.6337,11.5789,5.3445,2.071,11.0351,1.9984,16.654,1.6472,7.3607-.4724,14.6379-1.078,21.4736,2.3012,5.3088,2.6283,9.2934,6.6373,12.8008,11.264H796.8819L793.1,510.1072h39.6428l-4.4379,12.1845a22.0836,22.0836,0,0,0-6.2512-5.0386,21.64,21.64,0,0,0-8.0884-2.3738q-9.6453,0-15.5207,3.3065-5.8515,3.3065-5.8576,8.8658,0,7.812,8.0766,15.6242,7.9631,7.9394,15.9144,7.9454a25.65,25.65,0,0,0,7.0385-.9327,13.4969,13.4969,0,0,0,5.2133-2.7736q2.3442,3.9606,10.1642,12.3056a16.7,16.7,0,0,0,3.7818,3.1733,5.346,5.346,0,0,0,2.8751,1.199c.167,0,.3459-.1332.5249-.4a1.7,1.7,0,0,0,.25-.9326c0-.3513-.4295-.969-1.3-1.8532a24.2137,24.2137,0,0,1-2.6007-2.5071l-1.706-1.8531q-6.12-6.8854-6.12-8.878,0-5.8136,9.7705-30.17l2.7439-6.8916h7.6947L858.69,497.402Zm-16.2126,34.4216a45.503,45.503,0,0,1-10.9516,6.6131A26.5161,26.5161,0,0,1,804.183,540.69a5.396,5.396,0,0,1-2.47-.5329,1.7969,1.7969,0,0,1-1.05-1.4535q0-5.5593,6.6568-10.1981a24.9588,24.9588,0,0,1,14.6021-4.6267,12.0648,12.0648,0,0,1,5.607,1.0537C826.3963,528.4687,825.7043,530.7578,825.4419,531.8236Z" transform="translate(-24.7853 -166)"/><path class="cls-11" d="M335.9,725.5149c-106.7827.9115-196.8359-86.0492-212.2515-191.7153-16.8312-111.148,46.7906-220.6634,150.9806-259.0334,77.8124-29.2573,169.5048-12.1917,229.506,46.5724a199.2161,199.2161,0,0,1,34.128,44.0641,269.3352,269.3352,0,0,0-42.1581-33.6774,231.109,231.109,0,0,0-65.3509-28.5163c-5.7644-1.4046-12.872-2.9025-18.7049-3.9282-7.0463-1.2566-14.8348-1.9338-21.99-2.5194-7.18-.3451-14.8122-.6178-21.9648-.3234-1.6248.0682-4.7128.2874-7.0908.437-1.5076.0949-3.0061.2232-4.5088.3784-2.3958.2474-5.6591.5544-7.0366.718-56.76,6.9541-110.1954,38.258-143.9348,85.14-43.01,58.35-52.4261,138.5127-25.2883,205.8957,15.6409,39.9185,43.242,74.6894,77.6746,99.5713,23.6931,17.0225,49.6935,28.9154,77.99,36.936Z" transform="translate(-24.7853 -166)"/><path class="cls-12" d="M790.2388,764.7862c-13.8972-.5951-27.0448,6.5656-37.9092,15.3837s-20.2428,19.4584-31.4973,27.757c-24.5405,18.0951-55.6346,21.253-84.582,13.8911-34.08-8.6671-59.5071-23.0494-85.7137-41.2206-11.768-8.16-21.7744-18.508-32.0519-28.5118l-61.98-60.8055c-6.48-6.4224-12.8161-12.6737-18.5-18.15l-33.4427-32.8092c-18.6385-18.629-37.0747-37.3044-56.5391-55.4682l-2.1016-2.0617q-.6021-.623-1.1407-1.2226c4.34-1.9379,8.5947-3.9811,12.7172-6.0458A198.3181,198.3181,0,0,0,378.37,563.482c.7907.6069,1.5848,1.2084,2.3951,1.7814,30.7628,21.7539,70.5328,27.8824,105.8676,15.2373q25.4117,24.3106,50.8235,24.3337c5.6211,0,4.7022-.63,9.81-1.5509l-3.5627,13.3159a47.1681,47.1681,0,0,0,5.36,36.8565c10.2741,16.72,26.4769,36.2042,42.8617,54.2967,5.8838,6.7125,14.0516,3.5242,11.0395-.1455l-8.2826-8.2513c-5.3107-6.284-10.504-12.5613-14.2856-17.5569-9.7807-12.9207-10.8-30.058-4.9086-45.2163l26.5936-68.4251.012-.0363c8.9748-24.4391,19.3339-52.8525,28.3684-75.353l9.13-22.9488h25.6354L677.8422,427.46H460.7144l-12.6029,42.3595H591.3526L576.5657,510.41a73.1543,73.1543,0,0,0-20.8615-16.7572,71.3558,71.3558,0,0,0-26.9363-7.9485q-32.1695,0-51.7242,11.0262-19.5488,11.05-19.5607,29.5644a54.47,54.47,0,0,0,4.7119,21.7289,1.1585,1.1585,0,0,0-.1157.0309,112.0594,112.0594,0,0,1-69.9407,5.2579c1.7444-1.4319,3.4666-2.8918,5.1491-4.4006,22.0392-19.7636,48.4294-56.1564,35.17-87.507-5.36-12.6729-16.417-23.3437-26.2644-32.3775-7.2494-6.65-14.9534-13.48-24.6066-16.0693a90.6143,90.6143,0,0,0-54.033,2.5321,101.76,101.76,0,0,0-23.9984,12.7316c-1.9681,1.3908,11.9383,15.78,13.1666,17.0132,1.7416,1.7492,13.8659,15.4108,16.7575,13.3674,14.691-10.3818,31.7681-17.0574,49.7287-18.0956a85.4562,85.4562,0,0,1,22.0447,1.76c2.4276,15.1341-3.8285,30.7214-11.1931,43.6213a132.4761,132.4761,0,0,1-27.3663,33.2439c-15.19,13.46-32.94,23.9546-51.6436,31.9087-.45-.4248-.8872-.8642-1.34-1.2853-11.395-10.5841-26.1258-24.6477-42.9806-22.74-6.9256.7837-12.3868,5.5393-15.2624,11.8233-3.3187,7.2522-2.869,13.5335,1.7446,19.96,8.15,11.3524,19.387,23.41,31.58,30.3521,7.2573,4.1321,15.1107,4.9,23.2461,3.3413a118.599,118.599,0,0,0,13.8477-3.5933l.44.4192c.1.1048.1935.2114.3027.3135.5585.522,1.1307,1.06,1.7,1.5946l16.0364,15.2795c9.0584,8.7116,18.3264,17.6988,26.3864,25.3417,27.6791,26.2471,55.8555,53.4589,83.4274,79.822q23.9654,22.9148,47.9467,45.7743c14.5687,13.931,29.1716,27.8218,45.6377,39.3941,26.287,18.4742,56.0118,32.73,87.386,39.4671,32.2272,6.92,65.6891,4.996,96.4916-7.1083a163.8611,163.8611,0,0,0,24.0281-11.7886c12.8914-7.6932,24.8857-17.2122,38.8849-22.5491s31.1249-5.68,42.5971,4.0575C826.13,781.9783,810.215,765.6417,790.2388,764.7862ZM506.5936,531.1535a83.3378,83.3378,0,0,1,48.681-15.4486q12.1553,0,18.6894,3.538-5.657,17.6478-6.9578,22.9367-18.2418,14.5762-36.5077,22.0643-17.83,7.5062-34.3357,7.5a18.0541,18.0541,0,0,1-8.2587-1.7569c-2.3153-1.4781-3.4729-3.09-3.4729-4.8587Q484.4312,546.59,506.5936,531.1535Z" transform="translate(-24.7853 -166)"/></svg>