<svg id="Слой_1" data-name="Слой 1" xmlns="http://www.w3.org/2000/svg" xmlns:xlink="http://www.w3.org/1999/xlink" viewBox="0 0 727.518 401.85"><defs><style>.cls-1{mask:url(#mask);}.cls-2,.cls-4{mix-blend-mode:multiply;}.cls-2{fill:url(#linear-gradient);}.cls-3{mask:url(#mask-2);}.cls-4{fill:url(#linear-gradient-2);}.cls-5{fill:#fff;}.cls-6{mask:url(#mask-3);}.cls-7{fill:url(#linear-gradient-3);}.cls-8{fill:url(#linear-gradient-4);}.cls-9{fill:url(#linear-gradient-5);}.cls-10{fill:#ededed;}.cls-11{fill:#c7c7c7;}.cls-12{fill:url(#linear-gradient-6);}.cls-13{fill:#f5f5f5;}.cls-14{fill:#eea886;}.cls-15{fill:#1d2033;}.cls-16{fill:#4e5487;}.cls-17{fill:#cf8c6c;}.cls-18{fill:#db9c7c;}.cls-19{fill:#54aaff;}.cls-20{fill:#754836;}.cls-21{fill:#a77860;}.cls-22{fill:#1b1c2e;}.cls-23{fill:#ff6459;}.cls-24{fill:#4da8f2;}.cls-25{fill:#c9c9c9;}.cls-26{fill:#163342;}.cls-27{fill:#6281b5;}.cls-28{fill:#1d3b54;}.cls-29{fill:#2f4563;}.cls-30{fill:#dbdff0;}.cls-31{fill:#c2c6d4;}.cls-32{fill:#455b80;}.cls-33{fill:#a6a6a6;}.cls-34{fill:url(#linear-gradient-7);}.cls-35{fill:url(#linear-gradient-8);}.cls-36{fill:url(#linear-gradient-9);}.cls-37{fill:url(#linear-gradient-10);}.cls-38{fill:url(#linear-gradient-11);}.cls-39{fill:#decbc4;}.cls-40{fill:#292c47;}.cls-41{fill:#424773;}.cls-42{fill:#363a5e;}.cls-43{fill:#5d676c;}.cls-44{fill:#edc585;}.cls-45{fill:#d4b077;}.cls-46{fill:#5b629e;}.cls-47{fill:#595d6b;}.cls-48{fill:#f5e2d9;}.cls-49{fill:#5260bd;}.cls-50{fill:#313454;}.cls-51{fill:#282b45;}.cls-52{fill:#40446e;}.cls-53{fill:#fccca2;}.cls-54{fill:#e66d45;}.cls-55{fill:#efaf8b;}.cls-56{fill:#eb9981;}.cls-57{fill:#a67961;}.cls-58{fill:#b3463e;}.cls-59{fill:#3d7cba;}.cls-60{fill:url(#linear-gradient-12);}.cls-61{mask:url(#mask-4);}.cls-62{fill:url(#linear-gradient-13);}.cls-63{fill:#fca712;stroke:#000;stroke-miterlimit:10;stroke-width:0.25px;}.cls-64{filter:url(#luminosity-noclip-4);}.cls-65{filter:url(#luminosity-noclip-3);}.cls-66{filter:url(#luminosity-noclip-2);}.cls-67{filter:url(#luminosity-noclip);}</style><filter id="luminosity-noclip" x="0" y="-8442" width="727.304" height="32766" filterUnits="userSpaceOnUse" color-interpolation-filters="sRGB"><feFlood flood-color="#fff" result="bg"/><feBlend in="SourceGraphic" in2="bg"/></filter><mask id="mask" x="0" y="-8442" width="727.304" height="32766" maskUnits="userSpaceOnUse"><g class="cls-67"/></mask><linearGradient id="linear-gradient" x1="363.652" y1="48.792" x2="363.652" y2="290.983" gradientUnits="userSpaceOnUse"><stop offset="0" stop-color="#fff"/><stop offset="1"/></linearGradient><filter id="luminosity-noclip-2" x="491.717" y="-8442" width="235.587" height="32766" filterUnits="userSpaceOnUse" color-interpolation-filters="sRGB"><feFlood flood-color="#fff" result="bg"/><feBlend in="SourceGraphic" in2="bg"/></filter><mask id="mask-2" x="491.717" y="-8442" width="235.587" height="32766" maskUnits="userSpaceOnUse"><g class="cls-66"/></mask><linearGradient id="linear-gradient-2" x1="536.54" y1="302.764" x2="774.754" y2="538.219" xlink:href="#linear-gradient"/><filter id="luminosity-noclip-3" x="0" y="30.851" width="727.304" height="278.649" filterUnits="userSpaceOnUse" color-interpolation-filters="sRGB"><feFlood flood-color="#fff" result="bg"/><feBlend in="SourceGraphic" in2="bg"/></filter><mask id="mask-3" x="0" y="0" width="727.304" height="278.649" maskUnits="userSpaceOnUse"><g class="cls-65"><g transform="translate(0 -30.851)"><g class="cls-1"><polygon class="cls-2" points="727.304 94.226 727.304 309.5 0 309.5 0 76.846 62.485 76.846 62.485 111.951 98.733 111.951 98.733 67.898 127.339 67.898 127.339 86.433 142.211 86.433 155.093 73.56 169.732 73.56 169.732 30.851 210.699 30.851 210.699 94.226 252.564 94.226 252.564 109.494 268.794 109.494 268.794 86.445 330.663 86.445 330.663 111.951 354.322 111.951 354.322 76.846 390.412 76.846 390.412 129.234 392.52 129.234 392.52 58.656 424.319 58.656 424.319 76.846 451.304 76.846 451.304 111.951 487.535 111.951 487.535 67.898 516.141 67.898 516.141 86.433 531.026 86.433 543.906 73.56 558.547 73.56 558.547 30.851 599.502 30.851 599.502 94.226 727.304 94.226"/></g></g></g></mask><linearGradient id="linear-gradient-3" x1="363.652" y1="17.941" x2="363.652" y2="260.132" gradientUnits="userSpaceOnUse"><stop offset="0" stop-color="#d3d9e6"/><stop offset="1" stop-color="#fff"/></linearGradient><linearGradient id="linear-gradient-4" x1="645.046" y1="206.138" x2="662.734" y2="206.138" gradientUnits="userSpaceOnUse"><stop offset="0" stop-color="#6165b0"/><stop offset="1" stop-color="#4b5dc4"/></linearGradient><linearGradient id="linear-gradient-5" x1="650.655" y1="206.138" x2="668.343" y2="206.138" gradientUnits="userSpaceOnUse"><stop offset="0" stop-color="#303257"/><stop offset="1" stop-color="#303b7d"/></linearGradient><linearGradient id="linear-gradient-6" x1="651.481" y1="228.446" x2="309.541" y2="228.446" gradientUnits="userSpaceOnUse"><stop offset="0" stop-color="#303461"/><stop offset="1" stop-color="#3da7ff"/></linearGradient><linearGradient id="linear-gradient-7" x1="433.69" y1="248.172" x2="342.426" y2="73.81" xlink:href="#linear-gradient-5"/><linearGradient id="linear-gradient-8" x1="557.557" y1="232.234" x2="528.122" y2="176" xlink:href="#linear-gradient-5"/><linearGradient id="linear-gradient-9" x1="558.386" y1="188.34" x2="527.489" y2="129.311" xlink:href="#linear-gradient-5"/><linearGradient id="linear-gradient-10" x1="1388.401" y1="-546.571" x2="1328.638" y2="-660.749" gradientTransform="translate(-1154.942 793.758)" xlink:href="#linear-gradient-5"/><linearGradient id="linear-gradient-11" x1="238.262" y1="174.49" x2="215.028" y2="130.1" xlink:href="#linear-gradient-5"/><linearGradient id="linear-gradient-12" x1="666.257" y1="351.232" x2="316.561" y2="351.232" xlink:href="#linear-gradient-6"/><filter id="luminosity-noclip-4" x="491.717" y="317.078" width="235.587" height="115.623" filterUnits="userSpaceOnUse" color-interpolation-filters="sRGB"><feFlood flood-color="#fff" result="bg"/><feBlend in="SourceGraphic" in2="bg"/></filter><mask id="mask-4" x="491.717" y="286.228" width="235.587" height="115.623" maskUnits="userSpaceOnUse"><g class="cls-64"><g transform="translate(0 -30.851)"><g class="cls-3"><path class="cls-4" d="M727.3,317.078S697.851,368,628.5,355.443s-136.781,45.4-136.781,77.258H727.3Z"/></g></g></g></mask><linearGradient id="linear-gradient-13" x1="536.54" y1="302.764" x2="774.754" y2="538.219" xlink:href="#linear-gradient-3"/></defs><rect class="cls-5" x="2.539" y="23.988" width="724.979" height="364.555"/><g class="cls-6"><polygon class="cls-7" points="727.304 63.375 727.304 278.649 0 278.649 0 45.995 62.485 45.995 62.485 81.101 98.733 81.101 98.733 37.048 127.339 37.048 127.339 55.582 142.211 55.582 155.093 42.71 169.732 42.71 169.732 0 210.699 0 210.699 63.375 252.564 63.375 252.564 78.644 268.794 78.644 268.794 55.595 330.663 55.595 330.663 81.101 354.322 81.101 354.322 45.995 390.412 45.995 390.412 98.384 392.52 98.384 392.52 27.806 424.319 27.806 424.319 45.995 451.304 45.995 451.304 81.101 487.535 81.101 487.535 37.048 516.141 37.048 516.141 55.582 531.026 55.582 543.906 42.71 558.547 42.71 558.547 0 599.502 0 599.502 63.375 727.304 63.375"/></g><path class="cls-8" d="M676.772,177.606c0-24.852-9.219-45-20.589-45s-20.589,20.148-20.589,45c0,20.438,6.235,37.682,14.773,43.168l-8.481,58.9h28.593L662,220.774C670.535,215.288,676.772,198.044,676.772,177.606Z" transform="translate(0 -30.851)"/><path class="cls-9" d="M682.381,177.606c0-24.852-9.218-45-20.589-45s-20.589,20.148-20.589,45c0,20.438,6.237,37.682,14.775,43.168l-8.483,58.9h28.6l-8.483-58.9C676.147,215.288,682.381,198.044,682.381,177.606Z" transform="translate(0 -30.851)"/><ellipse class="cls-10" cx="624.475" cy="186.507" rx="11.119" ry="33.832"/><path class="cls-11" d="M628.5,212.891c0-6.245-2.316-11.307-5.173-11.307s-5.173,5.062-5.173,11.307c0,5.134,1.567,9.466,3.712,10.845l-2.132,14.8h7.185l-2.131-14.8C626.932,222.357,628.5,218.025,628.5,212.891Z" transform="translate(0 -30.851)"/><rect class="cls-12" y="208.07" width="655.61" height="40.751"/><path class="cls-13" d="M697.86,122.656c0,18.685-4.978,33.832-11.119,33.832s-11.12-15.147-11.12-33.832,4.98-33.834,11.12-33.834S697.86,103.971,697.86,122.656Z" transform="translate(0 -30.851)"/><path class="cls-11" d="M690.765,118.189c0-6.245-2.316-11.307-5.173-11.307s-5.173,5.062-5.173,11.307c0,5.135,1.566,9.467,3.712,10.846L682,143.832h7.185l-2.132-14.8C689.2,127.656,690.765,123.324,690.765,118.189Z" transform="translate(0 -30.851)"/><path class="cls-10" d="M692.688,274.474c0,18.685-4.979,33.833-11.12,33.833s-11.12-15.148-11.12-33.833,4.98-33.833,11.12-33.833S692.688,255.788,692.688,274.474Z" transform="translate(0 -30.851)"/><path class="cls-11" d="M685.592,270.006c0-6.244-2.316-11.307-5.173-11.307s-5.173,5.063-5.173,11.307c0,5.135,1.568,9.469,3.712,10.847l-2.131,14.8h7.184l-2.131-14.8C684.025,279.475,685.592,275.141,685.592,270.006Z" transform="translate(0 -30.851)"/><polygon class="cls-14" points="385.236 197.12 383.375 198.307 386.663 202.757 388.482 201.637 385.236 197.12"/><path class="cls-15" d="M383.375,229.157s1.794,2.353,2.553,3.316,1.815.851,1.265,1.494-2,3.484-1.931,4.783,1.037,9.6-.727,10.25-3.413-2.893-5.118-8.065-3.094-4.927-3.153-8.668C376.244,231.1,383.375,229.157,383.375,229.157Z" transform="translate(0 -30.851)"/><path class="cls-16" d="M433.032,206.246s-13.2,15.283-17.329,16.558c-8.13,2.511-27.9,10.1-27.9,10.1L384.88,228.2s12.726-7.93,17.489-10.671c5.863-3.372,8.707-4.165,10.921-8.976,1.48-3.219,5.792-13.84,5.792-13.84Z" transform="translate(0 -30.851)"/><polygon class="cls-14" points="475.744 215.052 476.984 216.897 481.385 213.481 480.215 211.677 475.744 215.052"/><path class="cls-16" d="M440.549,196.654s-.584.877-1.627,2.3c-.583.793-1.309,1.754-2.155,2.828h0c-.238.3-.485.61-.74.926-.583.721-1.211,1.48-1.882,2.264q-.538.63-1.112,1.277h0c-.132-.017-11.543-1.544-16.725-4.609a41.992,41.992,0,0,0,2.614-7.526h0c1.3-5.609,3.445-12.24,5.453-14.326C426.06,178.031,440.549,196.654,440.549,196.654Z" transform="translate(0 -30.851)"/><path class="cls-14" d="M470.433,162.894s.831-2.393.968-2.754a6.1,6.1,0,0,1,2.1-1.61,7.1,7.1,0,0,1,3-.9,1.084,1.084,0,0,1,.7.585,2.079,2.079,0,0,1,.226,1.036,1.27,1.27,0,0,1,.506,1.119,1.109,1.109,0,0,1,.311,1.193.929.929,0,0,1,.307.977,8.371,8.371,0,0,0-1.145.951,17.676,17.676,0,0,1-4.21,2.34S471,166.852,470.433,162.894Z" transform="translate(0 -30.851)"/><path class="cls-17" d="M473.726,161.446a6.278,6.278,0,0,1-.07,1.638c-.156.369,2.634,1.031,2.634,1.031S475.272,161.383,473.726,161.446Z" transform="translate(0 -30.851)"/><path class="cls-14" d="M469.56,163.8a8.6,8.6,0,0,0,1.395-1.705c.425-.792,2.354,3.382,2.354,3.382a8.481,8.481,0,0,0-3.461.844C468.792,167.069,469.56,163.8,469.56,163.8Z" transform="translate(0 -30.851)"/><path class="cls-18" d="M476.211,157.789s-2.688,1.652-2.475,2.119a.806.806,0,0,0,.574.508l-.8,1.182s-.086,1.081,1.116.859c0,0-.185,1,.951.648,0,0,.172.715.728.645a10.551,10.551,0,0,0,2.24-1.205s.274-.412-.279-.988a1.092,1.092,0,0,0-.312-1.194,1.182,1.182,0,0,0-.5-1.12s.152-1.348-.957-1.608C476.5,157.635,476.324,157.719,476.211,157.789Z" transform="translate(0 -30.851)"/><path class="cls-14" d="M471.48,160.078a10.711,10.711,0,0,1,3.377.258c.277.1.527.24.54.533s-.389.684-1.321.805a7.934,7.934,0,0,0-2.08.7S471,162.221,471.48,160.078Z" transform="translate(0 -30.851)"/><path class="cls-19" d="M444.86,147.255l6.968,17.612s.348,2.441,5.435.791c5.193-1.682,13.555-3.871,13.555-3.871s2.089,4.454,1.476,4.813a187.093,187.093,0,0,1-21.914,8.518c-4.738,1.292-13.8-22.944-13.8-22.944Z" transform="translate(0 -30.851)"/><path class="cls-16" d="M452.86,194.544s12.483,13.27,12.7,17.584,15.131,31.135,15.131,31.135l-4.476,3.339s-15.78-20.847-18.562-25.586c-3.106-5.291-2.286-6.465-7.126-9.371-3.037-1.824-9.977-5.736-9.977-5.736Z" transform="translate(0 -30.851)"/><path class="cls-16" d="M444.009,184.027s6,7.069,11.85,13.836c0,0-9.762,5.239-15.056,8.19,0,0-19.667-13.268-21.013-18.01C419.126,185.7,444.009,184.027,444.009,184.027Z" transform="translate(0 -30.851)"/><path class="cls-19" d="M449.516,173.361c-1.883,4.672-4.594,10.19-3.43,13.112,0,0-7.146,2.134-27.979,3.279,0,0,5.166-7.9,9.659-16.629.239-.458.468-.916.7-1.374a77.582,77.582,0,0,0,4.75-11.284v0c.31-1,.563-1.95.746-2.849A1.771,1.771,0,0,0,434,157.4a20.924,20.924,0,0,0-.192-2.345,20.314,20.314,0,0,1,5.074-13.528c.349-.39.715-.765,1.09-1.119a17,17,0,0,1,3.526-2.578,21.962,21.962,0,0,1,5.437,4.246c.339.371,5.043,7.4,5.537,14.363C455.071,164.948,452.19,166.744,449.516,173.361Z" transform="translate(0 -30.851)"/><path class="cls-15" d="M476.781,247.447s2.438-1.838,3.434-2.611.885-1.861,1.542-1.292,3.569,2.08,4.9,2.015,9.874-1.008,10.531.809-2.994,3.491-8.319,5.212-5.084,3.148-8.93,3.188C478.745,254.781,476.781,247.447,476.781,247.447Z" transform="translate(0 -30.851)"/><path class="cls-14" d="M458.666,126.32s.982,3.707-.018,4.006c-.825.248-.023,3.846.056,4.422s-1.531.594-1.934.854-2.361,4.2-3.642,4.025-6.447-3.487-7.6-5.451-.682-9.475,1.072-12.271S456.918,119.838,458.666,126.32Z" transform="translate(0 -30.851)"/><path class="cls-14" d="M450.381,137.287s-.078.346-.191.885c-.083.4-.183.9-.285,1.437a20.184,20.184,0,0,0-.477,4.08c.142,1.563-5.937-5.862-5.937-5.862a57.6,57.6,0,0,0,1.568-10.352C445.378,121.81,450.381,137.287,450.381,137.287Z" transform="translate(0 -30.851)"/><path class="cls-20" d="M458.877,127.084a5.15,5.15,0,0,0-.022-6.494c-2.652-3.416-9.81-.254-10.535-.242s-4.605-.653-4.334,6.613.461,6.121.461,6.121,1.592-3.016,2.889-3.008c1.408.01,3.686.238,3.686.238s-.42-3.351,1.493-3.352S457.21,125.965,458.877,127.084Z" transform="translate(0 -30.851)"/><path class="cls-14" d="M449.516,128.09c-.058-.459-.008-1.908-1.819-1.217s-.237,4.225.024,4.334S450.007,131.96,449.516,128.09Z" transform="translate(0 -30.851)"/><path class="cls-21" d="M450.19,138.172c-.083.4-.183.9-.285,1.437a28.027,28.027,0,0,1-3.978-4.834A25.631,25.631,0,0,0,450.19,138.172Z" transform="translate(0 -30.851)"/><path class="cls-22" d="M436.026,202.705c-.583.721-1.211,1.48-1.882,2.264a75.073,75.073,0,0,1-7.31-9.307C429.281,197.779,436.026,202.705,436.026,202.705Z" transform="translate(0 -30.851)"/><path class="cls-14" d="M443.491,137.827s12.272,24.108,10.748,16.539c-1.71-8.5-3.049-9.239-4.693-12.567Z" transform="translate(0 -30.851)"/><path class="cls-23" d="M295.829,158.984s-13.654,7.4-13.923,9.108c-.375,2.388,4.848,9.468,4.848,9.468l-3.914,3.267s-11.233-13.216-6.628-16.361c5.534-3.78,16.507-12.03,16.507-12.03Z" transform="translate(0 -30.851)"/><path class="cls-24" d="M623.326,144.844l-6.685-13.725-2.238,4c-22-19.861-27.794-54.038-27.794-54.038l-7.3,9.238s10.213,28.367,33.293,48.007l-1.745,3.119Z" transform="translate(0 -30.851)"/><path class="cls-24" d="M611.724,156.812,601.08,145.867l-.874,4.5C573.1,138.381,556.9,107.734,556.9,107.734l-4.038,11.057s18.576,23.746,46.645,35.18l-.683,3.508Z" transform="translate(0 -30.851)"/><path class="cls-25" d="M386.337,157.083s-8.885,24.347-8.9,27.153-8.683,31.737-8.683,31.737-16.067-11.4-20.355-14.813S380.423,156.366,386.337,157.083Z" transform="translate(0 -30.851)"/><path class="cls-26" d="M390.685,251.657s2.774-1.126,3.913-1.608,1.308-1.539,1.787-.834,2.856,2.871,4.138,3.146,9.611,1.538,9.775,3.426-3.718,2.551-9.2,2.838-5.614,1.7-9.267.768C390.694,259.1,390.685,251.657,390.685,251.657Z" transform="translate(0 -30.851)"/><path class="cls-26" d="M309.916,220.915s1.372,2.556,1.957,3.606,1.625,1.106.993,1.643-2.48,3.063-2.612,4.331-.486,9.457-2.3,9.812-2.854-3.33-3.7-8.6-2.23-5.251-1.708-8.883C302.71,221.691,309.916,220.915,309.916,220.915Z" transform="translate(0 -30.851)"/><polygon class="cls-14" points="390.093 219.081 390.802 221.143 395.834 219.017 395.18 217.012 390.093 219.081"/><polygon class="cls-14" points="311.902 189.204 309.916 190.064 312.409 194.883 314.344 194.081 311.902 189.204"/><path class="cls-27" d="M367.439,201.2h0c-.779.569-1.741,1.254-2.851,2.008h0c-.811-.347-7.97-10.6-7.97-10.6S365.6,197.605,367.439,201.2Z" transform="translate(0 -30.851)"/><path class="cls-14" d="M401.983,162.852s.909-2.618,1.06-3.013a6.67,6.67,0,0,1,2.294-1.761,7.753,7.753,0,0,1,3.285-.978,1.188,1.188,0,0,1,.763.638,2.282,2.282,0,0,1,.246,1.134,1.393,1.393,0,0,1,.554,1.226,1.208,1.208,0,0,1,.34,1.3,1.015,1.015,0,0,1,.335,1.069,9.167,9.167,0,0,0-1.251,1.04,19.421,19.421,0,0,1-4.606,2.56S402.6,167.184,401.983,162.852Z" transform="translate(0 -30.851)"/><path class="cls-17" d="M405.586,161.27a6.818,6.818,0,0,1-.075,1.79c-.172.4,2.881,1.129,2.881,1.129S407.277,161.2,405.586,161.27Z" transform="translate(0 -30.851)"/><path class="cls-14" d="M401.1,163.619a8.408,8.408,0,0,0,1.367-1.672c.417-.777,2.308,3.317,2.308,3.317a8.3,8.3,0,0,0-3.393.827C400.344,166.82,401.1,163.619,401.1,163.619Z" transform="translate(0 -30.851)"/><path class="cls-18" d="M408.307,157.267s-2.943,1.809-2.709,2.318a.876.876,0,0,0,.628.556l-.873,1.293s-.1,1.183,1.22.941c0,0-.2,1.095,1.041.709,0,0,.188.783.8.7a11.472,11.472,0,0,0,2.451-1.318s.3-.442-.306-1.073a1.216,1.216,0,0,0-.34-1.32,1.339,1.339,0,0,0-.554-1.244s.175-1.451-1.038-1.734C408.622,157.1,408.43,157.19,408.307,157.267Z" transform="translate(0 -30.851)"/><path class="cls-14" d="M403.129,159.773a11.716,11.716,0,0,1,3.7.281c.3.106.575.262.59.583s-.426.748-1.446.881a8.639,8.639,0,0,0-2.276.768S402.606,162.115,403.129,159.773Z" transform="translate(0 -30.851)"/><path class="cls-28" d="M357.27,179.473c-2.268,1.709-5.313,8.4-7.439,13.632-.046.094-5.107,10.338-7.032,13.21-2.889,4.316-6.489,3.931-12.689,6.287-5.036,1.914-21.464,6.683-21.464,6.683l4,8.672s21.3-7.009,29.561-8.178c4.193-.594,19.344-13.341,19.346-13.344h0c1.611-1.321,3.067-2.6,4.307-3.746h0c.988-.909,1.839-1.727,2.527-2.4,1.231-1.213,1.932-1.971,1.932-1.971S359.175,178.037,357.27,179.473Z" transform="translate(0 -30.851)"/><path class="cls-25" d="M376.877,147.392l6.833,17.269s.34,2.394,5.329.777c5.092-1.651,13.255-3.825,13.255-3.825s2.474,4.867,1.871,5.218c-1.742,1.017-16.02,6.286-21.876,7.882-4.645,1.267-13.532-22.5-13.532-22.5Z" transform="translate(0 -30.851)"/><path class="cls-28" d="M388.968,215.358c.1-2.885-3.145-11.026-5.591-15.963h0c-3.837-7.891-7.736-16.1-7.736-16.1s-22.27-.011-22.231,2.373c.073,4.522,11.726,15.479,13.45,17.477l-.02.01s5.588,5.458,8.006,7.953c3.852,3.976,2.779,4.88,4.385,10.679,1.44,5.192,8.927,31.7,8.927,31.7l10.328-3.558S388.809,219.837,388.968,215.358Z" transform="translate(0 -30.851)"/><path class="cls-29" d="M352.3,184.238s15.2-16.211,13.891-26.693a20.633,20.633,0,0,1-.159-2.51,20.011,20.011,0,0,1,.24-3.16,18.99,18.99,0,0,1,9.263-13.727s-.045-1.339,6.355,4.808a31.807,31.807,0,0,1,4.4,13.435c.6,8.347-1.8,10.023-4.743,16.371-2.154,4.64-5.252,8.68-5.91,10.531C375.641,183.293,373.932,186.025,352.3,184.238Z" transform="translate(0 -30.851)"/><path class="cls-30" d="M371.305,142.122s1.907-3.115,4.173-1.743,4.625,5.266,4.02,11.519-6.446,7.817-9.063,5.967S368.505,146.546,371.305,142.122Z" transform="translate(0 -30.851)"/><path class="cls-14" d="M390.414,126.864s.964,3.634-.017,3.928c-.809.243-.024,3.77.055,4.336s-1.5.581-1.9.837-2.315,4.117-3.571,3.947-6.322-3.42-7.453-5.346-.668-9.291,1.053-12.031S388.7,120.508,390.414,126.864Z" transform="translate(0 -30.851)"/><path class="cls-14" d="M382.29,137.617s-.076.34-.187.868c-.081.389-.18.878-.28,1.41a19.789,19.789,0,0,0-.468,4c.141,1.533-5.664-5.486-5.664-5.486A74.221,74.221,0,0,0,377.071,128C377.385,122.441,382.29,137.617,382.29,137.617Z" transform="translate(0 -30.851)"/><path class="cls-26" d="M390.621,127.611a5.051,5.051,0,0,0-.021-6.367c-2.6-3.349-9.62-.249-10.33-.237s-4.516-.64-4.25,6.485.551,6.016.551,6.016,1.461-2.971,2.734-2.962c1.38.009,3.613.232,3.613.232s-.412-3.286,1.464-3.287S388.986,126.516,390.621,127.611Z" transform="translate(0 -30.851)"/><path class="cls-14" d="M381.441,128.6c-.056-.452-.007-1.871-1.782-1.194s-.232,4.142.023,4.248S381.924,132.4,381.441,128.6Z" transform="translate(0 -30.851)"/><path class="cls-21" d="M382.1,138.485c-.081.389-.18.878-.28,1.41a27.537,27.537,0,0,1-3.9-4.741A25.048,25.048,0,0,0,382.1,138.485Z" transform="translate(0 -30.851)"/><path class="cls-31" d="M374.6,149.933c-.1.064-6.145,4.215-8.566,5.1a20.011,20.011,0,0,1,.24-3.16v0Z" transform="translate(0 -30.851)"/><path class="cls-25" d="M380.318,162.855a1.958,1.958,0,0,1-.13.29c-.189.343-.4.406-.631.236-2.18-1.6-5.839-24.147-5.839-24.147l.137-.117,2.064-1.846a55.58,55.58,0,0,1,4.472,3.872l0,0a13.954,13.954,0,0,1,2.768,3.411c.014.03.028.06.039.091l0,.008C384.189,147.1,382.254,157.712,380.318,162.855Z" transform="translate(0 -30.851)"/><path class="cls-32" d="M376.315,181.91s-11.023.867-14.141.477-2.989,4.136-2.989,4.136,14.588-1.232,16.584-2.961Z" transform="translate(0 -30.851)"/><path class="cls-25" d="M382.945,144.756l0,.056c-.064.93-.944,13.17-3.012,18.5-.058.148-.114.291-.175.426a11.523,11.523,0,0,1-1.294,2.023c-4.524,6.063-14.767,19.941-16.69,27.38-2.193,8.475-10.5,19.521-10.5,19.521l-19.108-21.631s18.81-12.714,26.769-18.336c7.624-5.383,6.848-30.341,6.848-30.341l7.822-3.07,1.836-.708,4.828,3.974,2.641,2.173Z" transform="translate(0 -30.851)"/><path class="cls-33" d="M383.2,144.648l0,.008c.984,2.446-.951,13.056-2.887,18.2a1.958,1.958,0,0,1-.13.29q-.086.222-.174.427a11.6,11.6,0,0,1-1.3,2.022,10.944,10.944,0,0,0,.838-2.213c1.274-4.69.609-11.1.609-11.1L382.1,150l-.96-1.552c-.048-.517-.421-4.118-.623-6.062-.079-.74-.129-1.24-.129-1.24l0,0a13.954,13.954,0,0,1,2.768,3.411Z" transform="translate(0 -30.851)"/><rect class="cls-34" x="202.195" y="141.082" width="359.513" height="16.486"/><path class="cls-35" d="M516.368,180.176v40.357h5.012a8.626,8.626,0,1,1,17.15,0h4.68a8.624,8.624,0,1,1,17.2-.916,8.394,8.394,0,0,1-.05.916h5.012V180.176Z" transform="translate(0 -30.851)"/><rect class="cls-36" x="513.62" y="134.496" width="54.5" height="40.76"/><path class="cls-37" d="M207.821,180.422c0-.082.006-.164.006-.246s-.006-.164-.006-.247a31.472,31.472,0,1,0-35.358-31.23c0,.084.006.165.007.248a31.468,31.468,0,0,0,0,62.457c0,.082-.007.164-.007.246a31.476,31.476,0,1,0,35.358-31.228Zm-3.882,54.064a22.837,22.837,0,0,1-20.669-32.545,22.835,22.835,0,1,1,0-43.531,22.815,22.815,0,1,1,13.75,12.055,22.85,22.85,0,0,1,0,19.421,22.836,22.836,0,1,1,6.919,44.6Z" transform="translate(0 -30.851)"/><rect class="cls-38" x="194.674" y="139.194" width="60.834" height="20.262"/><path class="cls-14" d="M195.181,147.6s-2.663-.605-3.3-1.441,1.4-2.955,1.4-2.955l1.969-.293Z" transform="translate(0 -30.851)"/><path class="cls-14" d="M194.115,143.559s1.933-1.77,2.236-2.032a4.741,4.741,0,0,1,2.767-.189,20.766,20.766,0,0,1,3.126.439,1.069,1.069,0,0,1,.331.852,2.162,2.162,0,0,1-.3,1.055,1.317,1.317,0,0,1-.09,1.269,1.143,1.143,0,0,1-.3,1.238.963.963,0,0,1-.2,1.041,8.754,8.754,0,0,0-1.509.3,18.335,18.335,0,0,1-4.986.062S193.124,146.66,194.115,143.559Z" transform="translate(0 -30.851)"/><path class="cls-17" d="M197.826,143.861a6.44,6.44,0,0,1-.869,1.457c-.324.259,2.085,1.911,2.085,1.911S199.265,144.562,197.826,143.861Z" transform="translate(0 -30.851)"/><path class="cls-18" d="M201.889,141.752s-3.262.183-3.3.713a.829.829,0,0,0,.273.744l-1.309.685s-.61.942.595,1.331c0,0-.661.821.546,1.058,0,0-.187.719.345.946a10.065,10.065,0,0,0,2.634,0s.468-.223.246-1.021a1.152,1.152,0,0,0,.324-1.256,1.887,1.887,0,0,0,.166-1.57,1.557,1.557,0,0,0-.185-1.631S202.026,141.743,201.889,141.752Z" transform="translate(0 -30.851)"/><path class="cls-14" d="M196.453,141.511a11.1,11.1,0,0,1,2.95,1.9c.2.224.36.477.23.75s-.692.432-1.6.084a8.211,8.211,0,0,0-2.241-.383S194.964,143.226,196.453,141.511Z" transform="translate(0 -30.851)"/><path class="cls-14" d="M202.412,143.385a28.574,28.574,0,0,0-3.853-.058c-.317.168-.243-1.128.039-1.252a25.405,25.405,0,0,1,3.522-.362A1.1,1.1,0,0,1,202.412,143.385Z" transform="translate(0 -30.851)"/><polygon class="cls-39" points="193.025 112.192 193.764 112.278 193.212 116.306 191.675 116.306 193.025 112.192"/><path class="cls-14" d="M201.489,141.6s5.782.419,5.78,1.09c0,.646-1.351,1.1-5.781.6C197.18,142.805,201.489,141.6,201.489,141.6Z" transform="translate(0 -30.851)"/><path class="cls-40" d="M161.469,257.184s2.775,2.9,5.514,3.439,5.826,1.674,5.9,3.389-8.888,2.7-12.056,1.075c-4.728-2.429-5.174-1.636-5.731-2.909s.463-4.761.416-5.17C155.456,256.5,161.469,257.184,161.469,257.184Z" transform="translate(0 -30.851)"/><path class="cls-41" d="M161.121,255.764a12.477,12.477,0,0,1,.348,1.42c-.052.031-6.1.954-5.955-.176.119-.916.3-1.914.3-1.914Z" transform="translate(0 -30.851)"/><path class="cls-40" d="M105.013,251.978s1.338,3.7,3.579,5.266,3.215,3.857,2.6,5.424-7.644.717-9.886-3.861c-1.535-3.134-3.3-4.311-3.293-5.672s1.61-3.287,1.731-3.673C99.9,248.986,105.013,251.978,105.013,251.978Z" transform="translate(0 -30.851)"/><path class="cls-41" d="M105.567,250.639a13.508,13.508,0,0,1-.554,1.339c-.058.008-5.78-1.525-5.265-2.516a9.093,9.093,0,0,1,1.193-1.632Z" transform="translate(0 -30.851)"/><path class="cls-40" d="M96.466,186.709s1.6-3.8,2.842-4.038.221.751.221.751-1.575,2.611-2.107,3.707A6.173,6.173,0,0,1,96.466,186.709Z" transform="translate(0 -30.851)"/><path class="cls-14" d="M104.316,179.659a30.183,30.183,0,0,0-.4,3.705c-.067,1.865.229,2.571-.323,3.456-.417.668-1.43.922-1.555.616s.774-3.161-.4-3.561-.888,3.615-1.493,3.113-2.762-2.918-2.09-4.279,2.107-2.01,2.791-4.156a4.841,4.841,0,0,1,1.505-2.54Z" transform="translate(0 -30.851)"/><path class="cls-40" d="M101.8,183.8s1.415.949-.543,6.179l-1.657-.919a19.2,19.2,0,0,0,1.1-4.668S101.153,183.391,101.8,183.8Z" transform="translate(0 -30.851)"/><polygon class="cls-40" points="105.832 162.083 93.492 153.329 87.544 170.24 98.297 183.263 105.832 162.083"/><path class="cls-40" d="M148.426,182.491s13.767,24.523,16.32,30.46c2.364,5.5.487,11.147.322,15.4-.188,4.874-2.808,25.737-2.522,27.157s-7.615.637-7.615.637,1.609-33.168-.731-37.942c-1.561-3.187-16.395-24.583-17.432-23.267s-12.321,20.963-13.814,24.824c-1.4,3.617-16.594,31.449-16.594,31.449a13.516,13.516,0,0,1-7.194-3.045s13.747-30.628,14.943-35.843c.61-2.653,6.433-21.283,10.753-33.3C127.145,172.674,148.426,182.491,148.426,182.491Z" transform="translate(0 -30.851)"/><path class="cls-39" d="M99.923,179.08s2.918,2.888,4.269,2.64,9.882-17.41,10.976-19.988,6.713-8.482,6.713-8.482l0,.012,0,.009,0,.01c.151.554,2.216,8.221,2.289,11.9.076,3.823,1.074,10.9,1.074,10.9l1.178.165L146,179l1.755.246s.994-1.312.843-4.283c-.095-1.889-.322-5.44-.228-8.734,0-.017,0-.034,0-.051,0-.041,0-.083,0-.125,0-.016,0-.032,0-.049.061-1.809-1.037-3.35-.7-4.652a17.854,17.854,0,0,0,.3-7.046l.12-7.165c.188.409,12.973-.819,14.032-.43,1.078.4,19.01.78,20.138-.272a3.377,3.377,0,0,0,.819-2.934l-20.48-1.406-11.523-2.661c-.163-.129-2.553-.021-3.949-.685-2.149-1.024-5.142-2.4-7.062-3.283-1.126-.517-1.884-.862-1.884-.862s-8.019-.768-8.644-.728a19.67,19.67,0,0,0-2.414.824,63.949,63.949,0,0,0-7.683,3.347c-1.225.879-9.478,18.869-10.2,20.143S99.923,179.08,99.923,179.08Z" transform="translate(0 -30.851)"/><path class="cls-42" d="M147.757,179.245s.519.62.669,3.246c0,0-21.311-2.487-23.564-3.466,0,0-.088-2.893.39-2.943C125.777,176.026,147.757,179.245,147.757,179.245Z" transform="translate(0 -30.851)"/><path class="cls-14" d="M129.584,133.156c.067,3.345,6.542,5.174,6.542,5.174s2.709-3.4,2.062-3.721c-.254-.127-.357-.634-.389-1.2a11.929,11.929,0,0,1,.036-1.515c.02-.238.038-.39.038-.39s-.925-.976-2.1-2.14c-2.057-2.033-4.885-4.638-4.889-3.6a.888.888,0,0,0,.024.195C131.4,128.288,129.584,133.156,129.584,133.156Z" transform="translate(0 -30.851)"/><path class="cls-43" d="M130.122,176.6s-.466,2.932-.506,3.7l-.986-.2s.271-3.1.431-3.624Z" transform="translate(0 -30.851)"/><path class="cls-40" d="M145.98,178.9s.373,2.667.382,3.674l-1.043-.135s-.214-3.33-.333-3.677Z" transform="translate(0 -30.851)"/><path class="cls-21" d="M132.079,128.256h0c.013.019.287.431.756,1.02a13.557,13.557,0,0,0,4.964,4.129,11.929,11.929,0,0,1,.036-1.515,3.425,3.425,0,0,0,.644-.079,20.281,20.281,0,0,0-1.408-2.062l-1.3-.389Z" transform="translate(0 -30.851)"/><path class="cls-14" d="M130.835,125.805c.56,1.218,1.092,2.1,1.244,2.451h0a4.336,4.336,0,0,0,.756,1.02c1.067,1.15,3.051,2.666,5,2.614a3.425,3.425,0,0,0,.644-.079,3.057,3.057,0,0,0,2.229-1.539c4.04-7.91,1.115-14.378,1.115-14.378s-11.047-3.124-12.775.2C127.835,118.43,129.519,122.941,130.835,125.805Z" transform="translate(0 -30.851)"/><path class="cls-40" d="M141.823,115.9s1.026-.057,1.279-2c.25-1.922-.256-2.454-.256-2.454s-.23,1.3-5.952-1.528c-1.485-.733-5.911-1.117-6.854-.037,0,0-2.294-.533-2.919,3.273-.991,6.042,3.378,11.906,3.378,11.906s-.037-3.947.833-4.469,1.621.721,1.621.721l1.78.319s-2.7-5.838.54-6.055S139.966,116.234,141.823,115.9Z" transform="translate(0 -30.851)"/><path class="cls-14" d="M132.9,119.732c-.169-1.738-3.313-2.4-3.1-.58s1.758,3.573,2.474,3.512S133.033,121.058,132.9,119.732Z" transform="translate(0 -30.851)"/><path class="cls-44" d="M115.168,161.732c-1.234,2.514-8.942,19.311-10.294,19.561s-4.951-2.863-4.951-2.863,8.6-18.961,9.324-20.236,8.975-19.264,10.2-20.143a51.523,51.523,0,0,1,6.336-2.824c.471-.186.926-.364,1.347-.523.546.606,9.321,10.525,8.5,19.316-.248,2.642-.58,6.949-1.311,11.484-.756,4.713-1.978,10.041-2.767,14.061a73.639,73.639,0,0,1-4.577,14.2l-8.217-4.113a2.859,2.859,0,0,1-1.414-3.519c1.848-5.177,5.539-15.632,5.542-20.174,0,0-.292-10.256-1-12.7C121.884,153.262,116.583,158.852,115.168,161.732Z" transform="translate(0 -30.851)"/><path class="cls-44" d="M168.159,140.838l25.227,2.07s-.352,3.283-.667,4.414c-.2.714-23.888.693-25.037.714-1.263.024-18.243.609-18.43.2l-.359,6.33c.159,5.692-.583,9.607-.242,14.025.659,8.514,3.994,18.045,5.055,21.467a1.551,1.551,0,0,1-.43,1.6l-2.559,2.362s-3.559-10.963-3.98-14.921c-.405-3.824-1.682-8.946-2.242-13.938v0c-.709-6.332-1.448-12.605-1.974-16.292a105.323,105.323,0,0,0-2.5-13.354l.051-.041,2.135.983c1.632.753,8.346,1.917,9.936,2.175C152.143,138.627,166.149,140.315,168.159,140.838Z" transform="translate(0 -30.851)"/><path class="cls-45" d="M128.928,143.005l3.151,1.776-1.347,1.373,3.584,19.35c.731-4.535,1.063-8.842,1.311-11.484.824-8.791-7.951-18.71-8.5-19.316-.421.159-.876.337-1.347.523Z" transform="translate(0 -30.851)"/><path class="cls-45" d="M139.973,135.424a101.961,101.961,0,0,1,2.548,13.44c.526,3.687,1.265,9.96,1.974,16.292l.734-18.121-1.5-1.627,1.334-1.667-2.854-7.289-2.135-.983Z" transform="translate(0 -30.851)"/><path class="cls-44" d="M125.783,135.227c-2.573,1.013-7.561,2.595-8.268,3.1-1.225.879-7.546,18.59-8.268,19.864Z" transform="translate(0 -30.851)"/><polygon class="cls-40" points="98.297 183.263 96.466 182.97 86.113 170.005 92.324 153.003 93.492 153.329 98.297 183.263"/><path class="cls-46" d="M136.988,177.51s3.135.375,4.172.633l-.136,3.515-4.106-.438Z" transform="translate(0 -30.851)"/><path class="cls-47" d="M138.121,141.115s-.864,9.5-8.12,10.7S112.993,158.1,110.093,161l-3.545,3.783.115-4.322s1.621-7.068,23.072-9.456c0,0,6.144-.139,6.184-10.134C135.919,140.871,138.173,140.7,138.121,141.115Z" transform="translate(0 -30.851)"/><path class="cls-47" d="M138.659,141.2a3.728,3.728,0,0,1-3.787.229s.762-2.989,1.224-3.095S138.884,140.656,138.659,141.2Z" transform="translate(0 -30.851)"/><path class="cls-48" d="M126.972,134.743l2.612-1.587s.074,1.433,6.542,5.174l-1.837,5.175Z" transform="translate(0 -30.851)"/><path class="cls-48" d="M137.847,133.879a12.175,12.175,0,0,1-1.721,4.451l3.585,4.675.262-7.581Z" transform="translate(0 -30.851)"/><path class="cls-25" d="M375.728,144.215s3.753,6.465-9.129,10.758l-2.747-11.481S372.373,136.977,375.728,144.215Z" transform="translate(0 -30.851)"/><path class="cls-14" d="M359.729,186.626a3,3,0,0,1-.657-.7s-.212-.549-.386-.93a2.9,2.9,0,0,0-.147-.287,5.535,5.535,0,0,1-.836-1.551c-.223-.751-.887-3.541-.887-3.541l2.4-.793,1.533-1.33s3.675,3.249,3.963,3.925a1.609,1.609,0,0,1,.072.2,7.02,7.02,0,0,1,.142,1.442c.022.119.167,1.318-.082,1.58a1.179,1.179,0,0,1-1.068.414,2.822,2.822,0,0,1-1.365.736,1.753,1.753,0,0,1-1.468.485S360.226,186.856,359.729,186.626Z" transform="translate(0 -30.851)"/><path class="cls-25" d="M373.984,149.311l-18.2,8.607s-1.4,1.307.665,6.457c2.11,5.258,5.288,13.117,5.288,13.117s-5.125,3.4-5.539,2.791c-1.2-1.765-7.921-16.3-10.03-22.364-1.673-4.814,19.868-15.669,19.868-15.669Z" transform="translate(0 -30.851)"/><path class="cls-49" d="M657.869,133.424a9.8,9.8,0,0,1,3.923-.818h-5.609Z" transform="translate(0 -30.851)"/><polygon class="cls-50" points="298.275 206.324 297.638 207.642 293.525 205.349 294.489 204.136 298.275 206.324"/><path class="cls-51" d="M293.525,236.2s3.939,1.5,4.1,1.482.333-.2.647.315-.006,1.33.273,1.875,2.376,3.328,3.305,5.147c.336.658,1.943,3.191,1.733,4.148s-1.113,1.957-4.783-1.179-8.3-5.742-8.828-6.8S292.47,237.15,293.525,236.2Z" transform="translate(0 -30.851)"/><polygon class="cls-50" points="248.141 211.948 249.083 210.788 245.911 208.118 244.684 209.257 248.141 211.948"/><path class="cls-51" d="M244.684,240.107s3.047,2.12,3.874,2.178,1.231.41,1.18,1.67,1.453,6.5,2.364,6.547,4-.051,4.637,1.965-9.737,1.98-10.442.335-5.473-9.57-4.969-10.241A6.364,6.364,0,0,1,244.684,240.107Z" transform="translate(0 -30.851)"/><path class="cls-52" d="M316.855,214.27c-2.036,2.85-8.808,11.113-13.625,16.937l-.223.272c-2.086,2.521-3.775,4.548-4.5,5.42l-.115.138-.115.138c-.1.122-.155.185-.155.185l-5.085-2.9a75.321,75.321,0,0,1,3.988-7.35c3.148-5.063,6.178-11.283,9.745-14.043,2.582-2,0-2.834-2.185-3.715-11.142-4.49-17.705-7.488-17.705-7.488L295.71,188.1s18.859,13.628,21.169,17.043S319.79,210.162,316.855,214.27Z" transform="translate(0 -30.851)"/><path class="cls-52" d="M295.182,189.379s-10.627,19.006-21.127,29.1c-2.972,2.859-6.114,4.624-10.369,8.3-2.262,1.953-6.246,6.031-9.481,9.419l-.135.142c-2.307,2.42-4.212,4.465-4.8,5.1a.734.734,0,0,0-.055.058l-.065.07-.067.073-4.213-3.323a43.807,43.807,0,0,0,4.212-6.525c2.822-5.356,7-11.878,9.2-13.638,3.77-3.014,7.237-5.112,8.573-7.887s6.564-16.928,6.564-16.928.948-7.3,7.091-10.137C286.5,180.438,295.182,189.379,295.182,189.379Z" transform="translate(0 -30.851)"/><path class="cls-53" d="M295.829,128.249s-3.884-4-7.7-.421-.05,12.471-3.113,14.332-13.433-1.435-13.43,5.578c0,0,2.584-4.291,7.293-2.49s11.176,1.225,11.367-5.493,3.208-4.4,3.88-6.263S295.829,128.249,295.829,128.249Z" transform="translate(0 -30.851)"/><path class="cls-54" d="M295.39,128.174s-1.871,1.19-1.762,5.382C293.628,133.556,291.606,129.352,295.39,128.174Z" transform="translate(0 -30.851)"/><path class="cls-55" d="M302.56,143.979a6.762,6.762,0,0,0-.758,1.814v0a14.917,14.917,0,0,0-.312,1.479,22.5,22.5,0,0,0-.289,3s-7.615-1.965-6.283-3.711.793-7.2.793-7.2S303.62,142.342,302.56,143.979Z" transform="translate(0 -30.851)"/><path class="cls-55" d="M307.451,129.354s1.9,1.782.831,6.666c0,0,.283,3.933.856,4.64s-1.645.873-1.9,1.356-.78,2.769-2.374,4.1-9.059-3.15-9.34-5.527-5.173-12.713,3.209-12.854S307.451,129.354,307.451,129.354Z" transform="translate(0 -30.851)"/><path class="cls-23" d="M301.884,176.682a7.964,7.964,0,0,0-.558.8c-.133.216-.266.445-.39.687-.242.463-.476.972-.695,1.512v0a58.79,58.79,0,0,0-2.657,8.982c-.1.457-.146.695-.146.695-9.224.508-16.927-6.164-16.927-6.164.16-.269.316-.536.471-.8,2.524-4.222,4.379-6.722,5.4-9.865h0a20.6,20.6,0,0,0,.93-6.32,28.3,28.3,0,0,1,3.939-14.985,31.9,31.9,0,0,1,3.7-5.285l6.81,4.131c.728,2.1,2.56,4.08,5,9.183C309.354,164.692,309.45,167.412,301.884,176.682Z" transform="translate(0 -30.851)"/><path class="cls-53" d="M308.559,134.26s1.335-10.175-8.637-8.735-5.3,12.99-4.108,16.679c0,0,.059-5.847,4.834-5.847S306.449,135.292,308.559,134.26Z" transform="translate(0 -30.851)"/><path class="cls-55" d="M299.928,134.9a1.365,1.365,0,0,0-2.448,1c.172,1.589,1.75,3.229,2.322,2.485A3.064,3.064,0,0,0,299.928,134.9Z" transform="translate(0 -30.851)"/><path class="cls-23" d="M300.163,155.812s-1.418-4.494-5.384-3.05-2.21,5.959-2.21,5.959Z" transform="translate(0 -30.851)"/><path class="cls-23" d="M300.163,155.812s5.209,17.026,6.781,17.4c2.2.523,13.1-2.93,13.1-2.93l.824,3.7s-16.565,8.7-19.159,4.182c-3.118-5.427-9.136-19.445-9.136-19.445Z" transform="translate(0 -30.851)"/><path class="cls-56" d="M322.8,166.665s1.2-1,1.534-1.334.673.485.349.948S322.8,166.665,322.8,166.665Z" transform="translate(0 -30.851)"/><path class="cls-55" d="M327.807,170.713a3.7,3.7,0,0,1-.742.686s-.571.259-.968.464c-.126.065-.235.124-.3.168a7.023,7.023,0,0,1-1.621.951c-.779.292-3.607,1.086-3.607,1.086l-.816-1.972-.669-1.544s2.792-3.476,3.5-3.821c.069-.033.138-.063.2-.088a8.425,8.425,0,0,1,1.49-.3c.122-.035,1.361-.308,1.624-.109a.9.9,0,0,1,.4.936,2.1,2.1,0,0,1,.72,1.171,1.324,1.324,0,0,1,.458,1.3S328.058,170.229,327.807,170.713Z" transform="translate(0 -30.851)"/><path class="cls-57" d="M301.8,145.793v0a14.917,14.917,0,0,0-.312,1.479c-2.221-.879-4.515-4.55-4.515-4.55A16.42,16.42,0,0,0,301.8,145.793Z" transform="translate(0 -30.851)"/><path class="cls-58" d="M301.326,177.483c-.133.216-.266.445-.39.687-.242.463-.476.972-.695,1.512l-2.877-10.227S300.671,176.426,301.326,177.483Z" transform="translate(0 -30.851)"/><path class="cls-19" d="M445.731,146.512s3.617,6.23-8.8,10.365l-2.594-10.155S442.5,139.536,445.731,146.512Z" transform="translate(0 -30.851)"/><path class="cls-14" d="M430.312,187.381a2.881,2.881,0,0,1-.632-.676s-.2-.529-.372-.9a2.973,2.973,0,0,0-.142-.278,5.288,5.288,0,0,1-.806-1.494c-.213-.722-.854-3.412-.854-3.412l2.233-1.1,1.554-.944s3.542,3.131,3.82,3.782a1.752,1.752,0,0,1,.069.19,6.785,6.785,0,0,1,.136,1.389c.022.115.16,1.27-.079,1.522a1.133,1.133,0,0,1-1.029.4,2.708,2.708,0,0,1-1.315.71,1.691,1.691,0,0,1-1.417.466S430.791,187.6,430.312,187.381Z" transform="translate(0 -30.851)"/><path class="cls-19" d="M444.663,152.309l-17.1,8.154s-2.411.514-.419,5.477c2.034,5.065,4.293,12.639,4.293,12.639s-3.9,2.925-4.3,2.337a186.61,186.61,0,0,1-9.9-21.2c-1.612-4.639,21.95-15.333,21.95-15.333Z" transform="translate(0 -30.851)"/><path class="cls-59" d="M442.2,153.484l-8.976,6.991a.016.016,0,0,0,0-.01v0c.31-1,.563-1.95.746-2.849A1.771,1.771,0,0,0,434,157.4Z" transform="translate(0 -30.851)"/><path class="cls-60" d="M670.479,271.916S387.355,282.673,401.913,336.3s-94.566,94.246-183.45,94.246H0V271.918Z" transform="translate(0 -30.851)"/><g class="cls-61"><path class="cls-62" d="M727.3,317.078S697.851,368,628.5,355.443s-136.781,45.4-136.781,77.258H727.3Z" transform="translate(0 -30.851)"/></g><path class="cls-5" d="M41.4,294.21a27.351,27.351,0,0,1-9.441,1.776c-4.651,0-8.482-1.248-11.493-4.272-2.645-2.689-4.287-7.009-4.287-12.049.046-9.648,6.34-16.705,16.647-16.705a18.189,18.189,0,0,1,7.662,1.487l-.957,3.409a15.26,15.26,0,0,0-6.8-1.392c-7.48,0-12.36,4.9-12.36,13.009,0,8.209,4.7,13.057,11.858,13.057a12.366,12.366,0,0,0,5.291-.864v-9.648H31.277v-3.361H41.4Z" transform="translate(0 -30.851)"/><path class="cls-5" d="M65.806,289.313c0,2.4.046,4.513.183,6.337H62.431l-.228-3.792h-.091a8.253,8.253,0,0,1-7.3,4.321c-3.466,0-7.616-2.017-7.616-10.177V272.416h4.013v12.865c0,4.417,1.278,7.393,4.926,7.393a5.828,5.828,0,0,0,5.291-3.84,6.472,6.472,0,0,0,.364-2.16V272.416h4.014Z" transform="translate(0 -30.851)"/><path class="cls-5" d="M84.691,295.65l-.319-2.928h-.138a8.1,8.1,0,0,1-6.75,3.457,6.451,6.451,0,0,1-6.75-6.673c0-5.616,4.744-8.689,13.272-8.641v-.48c0-1.92-.5-5.376-5.016-5.376a10.6,10.6,0,0,0-5.747,1.727l-.912-2.784a13.187,13.187,0,0,1,7.252-2.063c6.75,0,8.392,4.847,8.392,9.5v8.688a34.476,34.476,0,0,0,.364,5.568ZM84.1,283.793c-4.379-.1-9.35.721-9.35,5.232,0,2.737,1.733,4.034,3.786,4.034a5.524,5.524,0,0,0,5.336-3.889,4.644,4.644,0,0,0,.228-1.344Z" transform="translate(0 -30.851)"/><path class="cls-5" d="M94.453,279.665c0-2.736-.046-5.089-.182-7.249h3.511l.137,4.561H98.1c1-3.121,3.42-5.088,6.111-5.088a4.189,4.189,0,0,1,1.141.143v3.985a5.752,5.752,0,0,0-1.369-.144c-2.828,0-4.835,2.256-5.381,5.424a12.4,12.4,0,0,0-.183,1.969V295.65H94.453Z" transform="translate(0 -30.851)"/><path class="cls-5" d="M121.364,295.65l-.319-2.928h-.137a8.1,8.1,0,0,1-6.75,3.457,6.45,6.45,0,0,1-6.75-6.673c0-5.616,4.743-8.689,13.272-8.641v-.48c0-1.92-.5-5.376-5.017-5.376a10.6,10.6,0,0,0-5.746,1.727L109,273.952a13.192,13.192,0,0,1,7.252-2.063c6.75,0,8.392,4.847,8.392,9.5v8.688a34.355,34.355,0,0,0,.365,5.568Zm-.593-11.857c-4.378-.1-9.35.721-9.35,5.232,0,2.737,1.733,4.034,3.786,4.034a5.523,5.523,0,0,0,5.336-3.889,4.611,4.611,0,0,0,.228-1.344Z" transform="translate(0 -30.851)"/><path class="cls-5" d="M131.126,278.705c0-2.4-.045-4.368-.182-6.289H134.5l.228,3.841h.092a8.064,8.064,0,0,1,7.3-4.368c3.056,0,7.8,1.92,7.8,9.888V295.65H145.9V282.257c0-3.744-1.322-6.864-5.108-6.864a5.757,5.757,0,0,0-5.381,4.32,6.352,6.352,0,0,0-.274,1.969V295.65h-4.014Z" transform="translate(0 -30.851)"/><path class="cls-5" d="M161.094,265.744v6.672h5.746v3.217h-5.746v12.529c0,2.88.775,4.512,3.01,4.512a8.51,8.51,0,0,0,2.326-.288l.182,3.169a9.381,9.381,0,0,1-3.557.576,5.42,5.42,0,0,1-4.333-1.777c-1.14-1.248-1.551-3.312-1.551-6.048V275.633H153.75v-3.217h3.421v-5.568Z" transform="translate(0 -30.851)"/><path class="cls-5" d="M173.318,284.8c.091,5.712,3.557,8.064,7.571,8.064a13.882,13.882,0,0,0,6.111-1.2l.685,3.024a17.11,17.11,0,0,1-7.343,1.441c-6.8,0-10.855-4.7-10.855-11.714s3.922-12.528,10.353-12.528c7.206,0,9.122,6.672,9.122,10.944a16.7,16.7,0,0,1-.137,1.969Zm11.767-3.025c.046-2.688-1.049-6.865-5.564-6.865-4.059,0-5.838,3.937-6.157,6.865Z" transform="translate(0 -30.851)"/><path class="cls-5" d="M196.17,284.8c.091,5.712,3.558,8.064,7.571,8.064a13.89,13.89,0,0,0,6.112-1.2l.684,3.024a17.11,17.11,0,0,1-7.343,1.441c-6.8,0-10.855-4.7-10.855-11.714s3.922-12.528,10.353-12.528c7.206,0,9.122,6.672,9.122,10.944a16.7,16.7,0,0,1-.137,1.969Zm11.767-3.025c.046-2.688-1.049-6.865-5.564-6.865-4.059,0-5.838,3.937-6.157,6.865Z" transform="translate(0 -30.851)"/><path class="cls-5" d="M235.852,261.567v28.082c0,2.065.045,4.417.182,6h-3.6l-.182-4.032h-.091a8.117,8.117,0,0,1-7.526,4.561c-5.336,0-9.441-4.753-9.441-11.81-.045-7.728,4.516-12.48,9.9-12.48a7.292,7.292,0,0,1,6.659,3.551h.091V261.567Zm-4.014,20.306a7.878,7.878,0,0,0-.182-1.776,5.984,5.984,0,0,0-5.793-4.9c-4.15,0-6.613,3.841-6.613,8.978,0,4.7,2.189,8.593,6.522,8.593a6.113,6.113,0,0,0,5.884-5.042,7.75,7.75,0,0,0,.182-1.824Z" transform="translate(0 -30.851)"/><path class="cls-5" d="M257.291,285.474,254.1,295.65h-4.1L260.438,263.3h4.789l10.49,32.354h-4.241l-3.285-10.176Zm10.08-3.265L264.36,272.9c-.684-2.112-1.14-4.032-1.6-5.9h-.091c-.456,1.92-.958,3.888-1.551,5.857l-3.01,9.36Z" transform="translate(0 -30.851)"/><path class="cls-5" d="M298.616,261.567v28.082c0,2.065.046,4.417.182,6h-3.6l-.182-4.032h-.091a8.116,8.116,0,0,1-7.526,4.561c-5.336,0-9.441-4.753-9.441-11.81-.045-7.728,4.516-12.48,9.9-12.48a7.29,7.29,0,0,1,6.658,3.551h.092V261.567ZM294.6,281.873a7.822,7.822,0,0,0-.183-1.776,5.984,5.984,0,0,0-5.792-4.9c-4.15,0-6.613,3.841-6.613,8.978,0,4.7,2.189,8.593,6.522,8.593a6.112,6.112,0,0,0,5.883-5.042,7.7,7.7,0,0,0,.183-1.824Z" transform="translate(0 -30.851)"/><path class="cls-5" d="M305.278,278.705c0-2.4-.046-4.368-.183-6.289h3.512l.183,3.745h.136a7.571,7.571,0,0,1,6.933-4.272,6.559,6.559,0,0,1,6.248,4.656h.091a9.439,9.439,0,0,1,2.463-3.024,7.288,7.288,0,0,1,4.881-1.632c2.918,0,7.251,2.015,7.251,10.08V295.65h-3.922V282.5c0-4.464-1.551-7.152-4.789-7.152a5.247,5.247,0,0,0-4.743,3.84,7.271,7.271,0,0,0-.319,2.112V295.65H319.1V281.729c0-3.7-1.551-6.384-4.606-6.384-2.509,0-4.333,2.112-4.972,4.224a6.1,6.1,0,0,0-.319,2.064V295.65h-3.922Z" transform="translate(0 -30.851)"/><path class="cls-5" d="M347.789,265.888a2.488,2.488,0,1,1-4.972,0,2.513,2.513,0,0,1,2.509-2.64A2.45,2.45,0,0,1,347.789,265.888Zm-4.47,29.762V272.416h4.014V295.65Z" transform="translate(0 -30.851)"/><path class="cls-5" d="M353.445,291.33a10.152,10.152,0,0,0,5.291,1.68c2.919,0,4.287-1.536,4.287-3.456,0-2.016-1.14-3.12-4.105-4.273-3.968-1.488-5.837-3.792-5.837-6.576,0-3.744,2.873-6.816,7.616-6.816a10.607,10.607,0,0,1,5.428,1.439l-1,3.072a8.287,8.287,0,0,0-4.515-1.343c-2.372,0-3.694,1.44-3.694,3.168,0,1.921,1.322,2.784,4.2,3.936,3.831,1.536,5.793,3.553,5.793,7.009,0,4.08-3.01,6.961-8.255,6.961a12.086,12.086,0,0,1-6.2-1.585Z" transform="translate(0 -30.851)"/><path class="cls-5" d="M371.508,291.33a10.145,10.145,0,0,0,5.29,1.68c2.919,0,4.288-1.536,4.288-3.456,0-2.016-1.141-3.12-4.106-4.273-3.967-1.488-5.837-3.792-5.837-6.576,0-3.744,2.873-6.816,7.617-6.816a10.606,10.606,0,0,1,5.427,1.439l-1,3.072a8.288,8.288,0,0,0-4.516-1.343c-2.371,0-3.693,1.44-3.693,3.168,0,1.921,1.322,2.784,4.195,3.936,3.831,1.536,5.792,3.553,5.792,7.009,0,4.08-3.01,6.961-8.255,6.961a12.086,12.086,0,0,1-6.2-1.585Z" transform="translate(0 -30.851)"/><path class="cls-5" d="M394.588,265.888a2.488,2.488,0,1,1-4.971,0,2.512,2.512,0,0,1,2.508-2.64A2.45,2.45,0,0,1,394.588,265.888Zm-4.47,29.762V272.416h4.014V295.65Z" transform="translate(0 -30.851)"/><path class="cls-5" d="M420.768,283.842c0,8.593-5.656,12.337-10.992,12.337-5.974,0-10.581-4.609-10.581-11.953,0-7.777,4.834-12.337,10.946-12.337C416.48,271.889,420.768,276.736,420.768,283.842Zm-17.514.239c0,5.089,2.782,8.929,6.7,8.929,3.831,0,6.7-3.792,6.7-9.025,0-3.936-1.87-8.928-6.613-8.928S403.254,279.665,403.254,284.081Z" transform="translate(0 -30.851)"/><path class="cls-5" d="M425.833,278.705c0-2.4-.045-4.368-.182-6.289h3.557l.229,3.841h.09a8.068,8.068,0,0,1,7.3-4.368c3.056,0,7.8,1.92,7.8,9.888V295.65H440.61V282.257c0-3.744-1.322-6.864-5.108-6.864a5.759,5.759,0,0,0-5.382,4.32,6.384,6.384,0,0,0-.273,1.969V295.65h-4.014Z" transform="translate(0 -30.851)"/><path class="cls-5" d="M19.413,313.051a1.555,1.555,0,1,1-3.107,0,1.571,1.571,0,0,1,1.568-1.65A1.532,1.532,0,0,1,19.413,313.051Zm-2.793,18.6V317.131h2.508V331.65Z" transform="translate(0 -30.851)"/><path class="cls-5" d="M23.291,321.061c0-1.5-.029-2.73-.114-3.93H25.4l.142,2.4H25.6a5.04,5.04,0,0,1,4.56-2.73c1.91,0,4.874,1.2,4.874,6.179v8.67H32.526v-8.37c0-2.34-.827-4.289-3.193-4.289a3.6,3.6,0,0,0-3.363,2.7,3.992,3.992,0,0,0-.171,1.231v8.729H23.291Z" transform="translate(0 -30.851)"/><path class="cls-5" d="M61.432,322.771c-.143-2.82-.314-6.21-.286-8.73h-.085c-.656,2.37-1.454,4.89-2.423,7.68l-3.392,9.809H53.365l-3.107-9.63c-.912-2.849-1.682-5.459-2.223-7.859h-.057c-.057,2.52-.2,5.91-.371,8.939l-.513,8.67H44.729l1.339-20.218h3.164l3.278,9.779c.8,2.49,1.453,4.71,1.938,6.81h.086c.484-2.041,1.168-4.26,2.023-6.81l3.421-9.779h3.164l1.2,20.218H61.916Z" transform="translate(0 -30.851)"/><path class="cls-5" d="M69.644,324.871c.057,3.569,2.223,5.039,4.731,5.039a8.683,8.683,0,0,0,3.82-.75l.428,1.891a10.7,10.7,0,0,1-4.59.9c-4.246,0-6.783-2.939-6.783-7.319s2.451-7.83,6.47-7.83c4.5,0,5.7,4.17,5.7,6.84a10.385,10.385,0,0,1-.085,1.23ZM77,322.98c.028-1.679-.656-4.289-3.477-4.289-2.538,0-3.649,2.459-3.849,4.289Z" transform="translate(0 -30.851)"/><path class="cls-5" d="M94.444,310.352V327.9c0,1.29.029,2.76.115,3.75H92.307l-.115-2.519h-.056a5.072,5.072,0,0,1-4.7,2.849c-3.335,0-5.9-2.969-5.9-7.379-.028-4.83,2.822-7.8,6.186-7.8a4.557,4.557,0,0,1,4.161,2.22h.057v-8.669Zm-2.508,12.689a4.867,4.867,0,0,0-.114-1.11,3.739,3.739,0,0,0-3.62-3.06c-2.594,0-4.133,2.4-4.133,5.609,0,2.941,1.369,5.371,4.076,5.371a3.819,3.819,0,0,0,3.677-3.151,4.783,4.783,0,0,0,.114-1.139Z" transform="translate(0 -30.851)"/><path class="cls-5" d="M101.4,313.051a1.555,1.555,0,1,1-3.107,0,1.571,1.571,0,0,1,1.568-1.65A1.532,1.532,0,0,1,101.4,313.051Zm-2.794,18.6V317.131h2.509V331.65Z" transform="translate(0 -30.851)"/><path class="cls-5" d="M115.113,331.11a8.836,8.836,0,0,1-3.962.84c-4.161,0-6.869-2.97-6.869-7.409,0-4.47,2.907-7.71,7.411-7.71a8.031,8.031,0,0,1,3.477.75l-.57,2.04a5.584,5.584,0,0,0-2.907-.69c-3.164,0-4.874,2.46-4.874,5.49,0,3.359,2.052,5.43,4.788,5.43a6.84,6.84,0,0,0,3.079-.72Z" transform="translate(0 -30.851)"/><path class="cls-5" d="M125.69,331.65l-.2-1.83h-.085a5.06,5.06,0,0,1-4.218,2.16,4.031,4.031,0,0,1-4.219-4.169c0-3.51,2.964-5.43,8.294-5.4v-.3c0-1.2-.313-3.359-3.135-3.359a6.62,6.62,0,0,0-3.591,1.08l-.571-1.74a8.245,8.245,0,0,1,4.533-1.29c4.218,0,5.244,3.03,5.244,5.94v5.43a21.488,21.488,0,0,0,.228,3.479Zm-.371-7.41c-2.736-.059-5.843.45-5.843,3.271a2.277,2.277,0,0,0,2.366,2.519,3.452,3.452,0,0,0,3.335-2.429,2.913,2.913,0,0,0,.142-.84Z" transform="translate(0 -30.851)"/><path class="cls-5" d="M131.792,310.352H134.3v21.3h-2.508Z" transform="translate(0 -30.851)"/><path class="cls-5" d="M156.678,331.65c-.542-.57-1.055-1.139-1.8-1.979a7.663,7.663,0,0,1-5.615,2.309,5.562,5.562,0,0,1-5.9-5.669,6.657,6.657,0,0,1,3.762-5.911v-.089a7.153,7.153,0,0,1-1.6-4.23,4.786,4.786,0,0,1,4.874-4.979,4.1,4.1,0,0,1,4.247,4.289c0,2.13-1.169,3.81-4.218,5.4v.09c1.624,1.979,3.448,4.2,4.674,5.64a15.364,15.364,0,0,0,1.853-5.91h2.28c-.513,3.18-1.34,5.7-2.765,7.469,1.026,1.141,2.024,2.28,3.164,3.57Zm-3.022-3.479c-1.14-1.32-3.278-3.78-5.415-6.36a4.986,4.986,0,0,0-2.48,4.11A3.891,3.891,0,0,0,149.694,330,5.25,5.25,0,0,0,153.656,328.171Zm-5.843-12.33a5.822,5.822,0,0,0,1.454,3.63c1.938-1.17,3.192-2.25,3.192-3.96a2.341,2.341,0,0,0-2.223-2.61C148.64,312.9,147.813,314.281,147.813,315.841Z" transform="translate(0 -30.851)"/><path class="cls-5" d="M177.888,322.171H170.42v7.29h8.323v2.189h-10.8V311.432h10.375v2.189h-7.9v6.39h7.468Z" transform="translate(0 -30.851)"/><path class="cls-5" d="M181.88,321.061c0-1.5-.028-2.73-.113-3.93h2.223l.142,2.4h.057a5.043,5.043,0,0,1,4.561-2.73c1.91,0,4.874,1.2,4.874,6.179v8.67h-2.508v-8.37c0-2.34-.827-4.289-3.193-4.289a3.6,3.6,0,0,0-3.363,2.7,3.992,3.992,0,0,0-.171,1.231v8.729H181.88Z" transform="translate(0 -30.851)"/><path class="cls-5" d="M209.588,317.131c-.057,1.05-.114,2.22-.114,3.99v8.43c0,3.329-.627,5.369-1.967,6.63a7.081,7.081,0,0,1-5.016,1.739,8.558,8.558,0,0,1-4.589-1.2l.627-2.01a7.479,7.479,0,0,0,4.047,1.141c2.566,0,4.447-1.411,4.447-5.071v-1.62h-.057a4.871,4.871,0,0,1-4.39,2.431c-3.42,0-5.871-3.061-5.871-7.08,0-4.92,3.049-7.71,6.213-7.71a4.562,4.562,0,0,1,4.305,2.52h.056l.115-2.19ZM207,322.86a3.943,3.943,0,0,0-.143-1.2,3.649,3.649,0,0,0-3.506-2.79c-2.394,0-4.1,2.13-4.1,5.489,0,2.851,1.368,5.22,4.075,5.22a3.692,3.692,0,0,0,3.478-2.7,4.8,4.8,0,0,0,.2-1.41Z" transform="translate(0 -30.851)"/><path class="cls-5" d="M216.261,313.051a1.555,1.555,0,1,1-3.107,0,1.571,1.571,0,0,1,1.568-1.65A1.532,1.532,0,0,1,216.261,313.051Zm-2.794,18.6V317.131h2.509V331.65Z" transform="translate(0 -30.851)"/><path class="cls-5" d="M220.138,321.061c0-1.5-.028-2.73-.114-3.93h2.224l.142,2.4h.057a5.041,5.041,0,0,1,4.561-2.73c1.909,0,4.874,1.2,4.874,6.179v8.67h-2.508v-8.37c0-2.34-.827-4.289-3.193-4.289a3.6,3.6,0,0,0-3.363,2.7,3.99,3.99,0,0,0-.172,1.231v8.729h-2.508Z" transform="translate(0 -30.851)"/><path class="cls-5" d="M237.357,324.871c.057,3.569,2.223,5.039,4.731,5.039a8.683,8.683,0,0,0,3.82-.75l.427,1.891a10.694,10.694,0,0,1-4.589.9c-4.246,0-6.784-2.939-6.784-7.319s2.452-7.83,6.471-7.83c4.5,0,5.7,4.17,5.7,6.84a10.385,10.385,0,0,1-.085,1.23Zm7.354-1.891c.028-1.679-.656-4.289-3.478-4.289-2.537,0-3.648,2.459-3.848,4.289Z" transform="translate(0 -30.851)"/><path class="cls-5" d="M251.64,324.871c.056,3.569,2.223,5.039,4.731,5.039a8.675,8.675,0,0,0,3.819-.75l.428,1.891a10.7,10.7,0,0,1-4.589.9c-4.247,0-6.784-2.939-6.784-7.319s2.451-7.83,6.47-7.83c4.5,0,5.7,4.17,5.7,6.84a10.607,10.607,0,0,1-.085,1.23Zm7.353-1.891c.029-1.679-.655-4.289-3.477-4.289-2.537,0-3.648,2.459-3.848,4.289Z" transform="translate(0 -30.851)"/><path class="cls-5" d="M264.525,321.661c0-1.71-.028-3.181-.114-4.53h2.195l.085,2.849h.114a4.184,4.184,0,0,1,3.82-3.179,2.581,2.581,0,0,1,.712.09v2.49a3.583,3.583,0,0,0-.855-.09c-1.767,0-3.021,1.41-3.363,3.39a7.809,7.809,0,0,0-.114,1.23v7.739h-2.48Z" transform="translate(0 -30.851)"/><path class="cls-5" d="M276.754,313.051a1.555,1.555,0,1,1-3.107,0,1.571,1.571,0,0,1,1.568-1.65A1.531,1.531,0,0,1,276.754,313.051Zm-2.793,18.6V317.131h2.508V331.65Z" transform="translate(0 -30.851)"/><path class="cls-5" d="M280.632,321.061c0-1.5-.028-2.73-.114-3.93h2.223l.143,2.4h.057a5.04,5.04,0,0,1,4.56-2.73c1.91,0,4.874,1.2,4.874,6.179v8.67h-2.508v-8.37c0-2.34-.826-4.289-3.192-4.289a3.6,3.6,0,0,0-3.363,2.7,3.96,3.96,0,0,0-.172,1.231v8.729h-2.508Z" transform="translate(0 -30.851)"/><path class="cls-5" d="M308.34,317.131c-.057,1.05-.114,2.22-.114,3.99v8.43c0,3.329-.627,5.369-1.967,6.63a7.081,7.081,0,0,1-5.016,1.739,8.558,8.558,0,0,1-4.589-1.2l.627-2.01a7.479,7.479,0,0,0,4.047,1.141c2.566,0,4.447-1.411,4.447-5.071v-1.62h-.057a4.871,4.871,0,0,1-4.39,2.431c-3.42,0-5.871-3.061-5.871-7.08,0-4.92,3.049-7.71,6.213-7.71a4.562,4.562,0,0,1,4.305,2.52h.056l.115-2.19Zm-2.593,5.729a3.943,3.943,0,0,0-.143-1.2,3.649,3.649,0,0,0-3.506-2.79c-2.394,0-4.1,2.13-4.1,5.489,0,2.851,1.368,5.22,4.075,5.22a3.692,3.692,0,0,0,3.478-2.7,4.834,4.834,0,0,0,.2-1.41Z" transform="translate(0 -30.851)"/><path class="cls-63" d="M27.417,357.506H19.034v7.775h9.343v2.336H16.25V346.051H27.9v2.336H19.034V355.2h8.383Z" transform="translate(0 -30.851)"/><path class="cls-63" d="M33.21,352.13l2.207,3.328c.577.864,1.057,1.664,1.568,2.528h.1c.511-.928,1.023-1.728,1.535-2.56l2.176-3.3h3.04l-5.28,7.488,5.44,8h-3.2l-2.272-3.487c-.607-.9-1.12-1.761-1.664-2.689h-.064c-.511.928-1.055,1.76-1.631,2.689l-2.24,3.487h-3.1l5.5-7.9-5.248-7.584Z" transform="translate(0 -30.851)"/><path class="cls-63" d="M57.273,367.041a10.369,10.369,0,0,1-4.448.9c-4.671,0-7.711-3.168-7.711-7.9,0-4.768,3.263-8.223,8.319-8.223a9.431,9.431,0,0,1,3.9.8l-.64,2.176a6.53,6.53,0,0,0-3.264-.736c-3.552,0-5.472,2.624-5.472,5.855,0,3.584,2.3,5.792,5.376,5.792a8.016,8.016,0,0,0,3.456-.767Z" transform="translate(0 -30.851)"/><path class="cls-63" d="M60.57,344.9h2.816v22.719H60.57Z" transform="translate(0 -30.851)"/><path class="cls-63" d="M81.081,363.394c0,1.6.031,3.007.127,4.223h-2.5l-.16-2.527h-.064a5.829,5.829,0,0,1-5.12,2.879c-2.431,0-5.344-1.344-5.344-6.783V352.13h2.816v8.576c0,2.943.9,4.928,3.456,4.928a3.963,3.963,0,0,0,3.968-4v-9.5h2.816Z" transform="translate(0 -30.851)"/><path class="cls-63" d="M85.369,364.737a7.38,7.38,0,0,0,3.712,1.12c2.048,0,3.008-1.024,3.008-2.3,0-1.344-.8-2.08-2.88-2.848-2.784-.992-4.1-2.528-4.1-4.384,0-2.5,2.016-4.544,5.344-4.544a7.741,7.741,0,0,1,3.808.96l-.7,2.048a6.029,6.029,0,0,0-3.168-.895c-1.664,0-2.592.96-2.592,2.111,0,1.28.928,1.855,2.944,2.624,2.688,1.023,4.064,2.368,4.064,4.672,0,2.72-2.112,4.64-5.792,4.64a8.826,8.826,0,0,1-4.351-1.057Z" transform="translate(0 -30.851)"/><path class="cls-63" d="M101.561,347.778a1.744,1.744,0,0,1-3.488,0,1.716,1.716,0,0,1,1.76-1.759A1.671,1.671,0,0,1,101.561,347.778Zm-3.136,19.839V352.13h2.816v15.487Z" transform="translate(0 -30.851)"/><path class="cls-63" d="M107,352.13l3.04,8.7a39.666,39.666,0,0,1,1.248,3.968h.1c.351-1.281.8-2.561,1.311-3.968l3.008-8.7h2.944l-6.08,15.487h-2.687l-5.888-15.487Z" transform="translate(0 -30.851)"/><path class="cls-63" d="M122.553,360.386c.064,3.807,2.5,5.376,5.311,5.376a10.181,10.181,0,0,0,4.288-.8l.48,2.017a12.561,12.561,0,0,1-5.152.96c-4.768,0-7.615-3.136-7.615-7.808s2.752-8.352,7.263-8.352c5.056,0,6.4,4.448,6.4,7.3a10.638,10.638,0,0,1-.1,1.312Zm8.255-2.016c.032-1.792-.736-4.576-3.9-4.576-2.847,0-4.095,2.624-4.32,4.576Z" transform="translate(0 -30.851)"/><path class="cls-63" d="M137.017,344.9h2.816v22.719h-2.816Z" transform="translate(0 -30.851)"/><path class="cls-63" d="M145.592,352.13l3.392,9.151c.352,1.025.736,2.24.992,3.168h.064c.288-.928.608-2.111.992-3.231l3.072-9.088h2.975l-4.224,11.04c-2.015,5.311-3.391,8.031-5.311,9.695a7.615,7.615,0,0,1-3.456,1.823l-.7-2.367a7.467,7.467,0,0,0,2.464-1.376,8.542,8.542,0,0,0,2.368-3.135,2.036,2.036,0,0,0,.224-.672,2.459,2.459,0,0,0-.192-.737l-5.727-14.271Z" transform="translate(0 -30.851)"/><path class="cls-63" d="M166.712,367.617V354.274h-2.176V352.13h2.176V351.4c0-2.176.48-4.161,1.791-5.409a5.394,5.394,0,0,1,3.776-1.439,6.53,6.53,0,0,1,2.4.448l-.384,2.176a4.2,4.2,0,0,0-1.792-.353c-2.4,0-3.007,2.113-3.007,4.481v.831h3.743v2.144H169.5v13.343Z" transform="translate(0 -30.851)"/><path class="cls-63" d="M189.367,359.746c0,5.728-3.968,8.223-7.712,8.223-4.191,0-7.423-3.072-7.423-7.967,0-5.184,3.392-8.224,7.68-8.224C186.359,351.778,189.367,355.01,189.367,359.746Zm-12.287.159c0,3.393,1.952,5.952,4.7,5.952,2.687,0,4.7-2.528,4.7-6.015,0-2.624-1.312-5.951-4.639-5.951S177.08,356.962,177.08,359.905Z" transform="translate(0 -30.851)"/><path class="cls-63" d="M192.92,356.962c0-1.824-.032-3.392-.128-4.832h2.464l.1,3.04h.127a4.648,4.648,0,0,1,4.288-3.392,3.083,3.083,0,0,1,.8.1v2.656a4.235,4.235,0,0,0-.96-.095c-1.983,0-3.391,1.5-3.775,3.615a7.924,7.924,0,0,0-.128,1.311v8.256H192.92Z" transform="translate(0 -30.851)"/><path class="cls-63" d="M228.438,358.146c-.16-3.008-.352-6.624-.32-9.311h-.1c-.736,2.527-1.632,5.215-2.72,8.191L221.5,367.489h-2.112L215.9,357.218c-1.024-3.04-1.888-5.823-2.5-8.383h-.064c-.064,2.687-.224,6.3-.416,9.535l-.576,9.247h-2.655l1.5-21.566h3.552l3.68,10.431c.9,2.656,1.632,5.024,2.176,7.263h.1c.544-2.176,1.311-4.543,2.271-7.263l3.84-10.431h3.552l1.344,21.566h-2.72Z" transform="translate(0 -30.851)"/><path class="cls-63" d="M244.662,367.617l-.224-1.952h-.1a5.767,5.767,0,0,1-4.736,2.3,4.412,4.412,0,0,1-4.735-4.448c0-3.744,3.328-5.792,9.311-5.759v-.32c0-1.28-.352-3.584-3.519-3.584a7.726,7.726,0,0,0-4.032,1.152l-.64-1.856a9.61,9.61,0,0,1,5.088-1.376c4.735,0,5.887,3.232,5.887,6.336v5.791a21.8,21.8,0,0,0,.256,3.712Zm-.416-7.9c-3.072-.065-6.559.479-6.559,3.487a2.492,2.492,0,0,0,2.655,2.689,3.855,3.855,0,0,0,3.744-2.592,2.945,2.945,0,0,0,.16-.9Z" transform="translate(0 -30.851)"/><path class="cls-63" d="M251.511,344.9h2.816v9.664h.064a5.223,5.223,0,0,1,2.015-1.984,5.806,5.806,0,0,1,2.88-.8c2.08,0,5.408,1.281,5.408,6.624v9.215h-2.816v-8.9c0-2.5-.928-4.608-3.584-4.608a4.045,4.045,0,0,0-3.775,2.816,3.383,3.383,0,0,0-.192,1.343v9.344h-2.816Z" transform="translate(0 -30.851)"/><path class="cls-63" d="M277.846,367.617l-.224-1.952h-.1a5.769,5.769,0,0,1-4.736,2.3,4.411,4.411,0,0,1-4.735-4.448c0-3.744,3.327-5.792,9.311-5.759v-.32c0-1.28-.352-3.584-3.52-3.584a7.726,7.726,0,0,0-4.032,1.152l-.64-1.856a9.612,9.612,0,0,1,5.088-1.376c4.736,0,5.887,3.232,5.887,6.336v5.791a21.691,21.691,0,0,0,.257,3.712Zm-.416-7.9c-3.072-.065-6.56.479-6.56,3.487a2.493,2.493,0,0,0,2.656,2.689,3.855,3.855,0,0,0,3.744-2.592,2.945,2.945,0,0,0,.16-.9Z" transform="translate(0 -30.851)"/><path class="cls-63" d="M284.694,356.962c0-1.824-.032-3.392-.128-4.832h2.464l.1,3.04h.128a4.647,4.647,0,0,1,4.288-3.392,3.089,3.089,0,0,1,.8.1v2.656a4.235,4.235,0,0,0-.96-.095c-1.984,0-3.392,1.5-3.776,3.615a7.924,7.924,0,0,0-.128,1.311v8.256h-2.784Z" transform="translate(0 -30.851)"/><path class="cls-63" d="M303.574,367.617l-.224-1.952h-.1a5.769,5.769,0,0,1-4.736,2.3,4.411,4.411,0,0,1-4.735-4.448c0-3.744,3.327-5.792,9.311-5.759v-.32c0-1.28-.352-3.584-3.52-3.584a7.726,7.726,0,0,0-4.032,1.152l-.64-1.856a9.612,9.612,0,0,1,5.088-1.376c4.736,0,5.887,3.232,5.887,6.336v5.791a21.691,21.691,0,0,0,.257,3.712Zm-.416-7.9c-3.072-.065-6.56.479-6.56,3.487a2.493,2.493,0,0,0,2.656,2.689A3.855,3.855,0,0,0,303,363.3a2.945,2.945,0,0,0,.16-.9Z" transform="translate(0 -30.851)"/><path class="cls-63" d="M310.038,364.737a7.38,7.38,0,0,0,3.712,1.12c2.048,0,3.008-1.024,3.008-2.3,0-1.344-.8-2.08-2.88-2.848-2.784-.992-4.1-2.528-4.1-4.384,0-2.5,2.016-4.544,5.344-4.544a7.741,7.741,0,0,1,3.808.96l-.705,2.048a6.021,6.021,0,0,0-3.167-.895c-1.664,0-2.592.96-2.592,2.111,0,1.28.928,1.855,2.944,2.624,2.688,1.023,4.064,2.368,4.064,4.672,0,2.72-2.112,4.64-5.792,4.64a8.832,8.832,0,0,1-4.352-1.057Z" transform="translate(0 -30.851)"/><path class="cls-63" d="M323.094,344.9h2.815v9.664h.065a5.23,5.23,0,0,1,2.015-1.984,5.806,5.806,0,0,1,2.88-.8c2.08,0,5.407,1.281,5.407,6.624v9.215h-2.815v-8.9c0-2.5-.928-4.608-3.584-4.608a4.046,4.046,0,0,0-3.775,2.816,3.382,3.382,0,0,0-.193,1.343v9.344h-2.815Z" transform="translate(0 -30.851)"/><path class="cls-63" d="M344.118,347.683v4.447h4.032v2.144h-4.032v8.352c0,1.919.544,3.008,2.112,3.008a6.255,6.255,0,0,0,1.632-.193l.128,2.112a6.89,6.89,0,0,1-2.5.385,3.9,3.9,0,0,1-3.04-1.185c-.8-.832-1.088-2.208-1.088-4.031v-8.448h-2.4V352.13h2.4v-3.711Z" transform="translate(0 -30.851)"/><path class="cls-63" d="M351.318,356.962c0-1.824-.032-3.392-.128-4.832h2.464l.1,3.04h.128a4.647,4.647,0,0,1,4.288-3.392,3.094,3.094,0,0,1,.8.1v2.656a4.235,4.235,0,0,0-.96-.095c-1.985,0-3.392,1.5-3.776,3.615a7.924,7.924,0,0,0-.128,1.311v8.256h-2.784Z" transform="translate(0 -30.851)"/><path class="cls-63" d="M370.2,367.617l-.223-1.952h-.1a5.765,5.765,0,0,1-4.735,2.3,4.412,4.412,0,0,1-4.736-4.448c0-3.744,3.327-5.792,9.312-5.759v-.32c0-1.28-.353-3.584-3.521-3.584a7.725,7.725,0,0,0-4.031,1.152l-.64-1.856a9.611,9.611,0,0,1,5.087-1.376c4.737,0,5.888,3.232,5.888,6.336v5.791a21.8,21.8,0,0,0,.256,3.712Zm-.416-7.9c-3.071-.065-6.559.479-6.559,3.487a2.493,2.493,0,0,0,2.656,2.689,3.852,3.852,0,0,0,3.743-2.592,2.915,2.915,0,0,0,.16-.9Z" transform="translate(0 -30.851)"/><path class="cls-63" d="M19.738,399.234l-2.24,6.784h-2.88l7.328-21.567h3.36l7.359,21.567H29.689l-2.3-6.784Zm7.072-2.175L24.7,390.851c-.48-1.409-.8-2.688-1.12-3.936h-.064c-.32,1.28-.672,2.592-1.088,3.9l-2.112,6.241Z" transform="translate(0 -30.851)"/><path class="cls-63" d="M35.643,394.723c0-1.6-.033-2.912-.128-4.193H38.01l.16,2.561h.064a5.694,5.694,0,0,1,5.12-2.912c2.144,0,5.472,1.28,5.472,6.592v9.247H46.01V397.09c0-2.495-.928-4.575-3.584-4.575a4,4,0,0,0-3.776,2.88,4.043,4.043,0,0,0-.192,1.311v9.312H35.643Z" transform="translate(0 -30.851)"/><path class="cls-63" d="M66.777,383.3v18.719c0,1.376.032,2.944.128,4H64.377l-.127-2.688h-.064a5.729,5.729,0,0,1-5.28,3.039c-3.744,0-6.624-3.167-6.624-7.871-.032-5.151,3.168-8.319,6.944-8.319a5.177,5.177,0,0,1,4.671,2.368h.064V383.3Zm-2.816,13.535a4.92,4.92,0,0,0-.128-1.184,4.14,4.14,0,0,0-4.063-3.263c-2.912,0-4.64,2.559-4.64,5.983,0,3.136,1.536,5.728,4.576,5.728a4.232,4.232,0,0,0,4.127-3.36,4.845,4.845,0,0,0,.128-1.216Z" transform="translate(0 -30.851)"/><path class="cls-63" d="M81.817,399.234l-2.239,6.784H76.7l7.327-21.567h3.36l7.36,21.567H91.769l-2.3-6.784Zm7.072-2.175-2.112-6.208c-.48-1.409-.8-2.688-1.12-3.936h-.064c-.32,1.28-.672,2.592-1.088,3.9l-2.111,6.241Z" transform="translate(0 -30.851)"/><path class="cls-63" d="M97.722,383.3h2.816v22.719H97.722Z" transform="translate(0 -30.851)"/><path class="cls-63" d="M105.274,383.3h2.816v22.719h-2.816Z" transform="translate(0 -30.851)"/><path class="cls-63" d="M138.136,395.011c0,7.423-4.512,11.358-10.015,11.358-5.7,0-9.7-4.415-9.7-10.942,0-6.848,4.256-11.327,10.015-11.327C134.328,384.1,138.136,388.611,138.136,395.011Zm-16.735.351c0,4.608,2.5,8.736,6.88,8.736,4.415,0,6.911-4.064,6.911-8.959,0-4.288-2.24-8.768-6.88-8.768C123.705,386.371,121.4,390.627,121.4,395.362Z" transform="translate(0 -30.851)"/><path class="cls-63" d="M143.193,390.53l3.039,8.7a39.312,39.312,0,0,1,1.248,3.968h.1c.351-1.28.8-2.56,1.311-3.968l3.008-8.7h2.944l-6.08,15.488h-2.687l-5.888-15.488Z" transform="translate(0 -30.851)"/><path class="cls-63" d="M158.745,398.786c.064,3.808,2.5,5.376,5.311,5.376a10.165,10.165,0,0,0,4.288-.8l.48,2.017a12.561,12.561,0,0,1-5.152.96c-4.768,0-7.615-3.136-7.615-7.808s2.752-8.351,7.263-8.351c5.056,0,6.4,4.447,6.4,7.3a10.618,10.618,0,0,1-.1,1.311ZM167,396.771c.032-1.792-.736-4.577-3.9-4.577-2.847,0-4.1,2.624-4.32,4.577Z" transform="translate(0 -30.851)"/><path class="cls-63" d="M173.208,395.362c0-1.824-.032-3.391-.127-4.832h2.463l.1,3.04h.128a4.646,4.646,0,0,1,4.288-3.391,3.091,3.091,0,0,1,.8.1v2.657a4.174,4.174,0,0,0-.96-.1c-1.984,0-3.392,1.5-3.776,3.615a7.926,7.926,0,0,0-.128,1.312v8.256h-2.784Z" transform="translate(0 -30.851)"/><path class="cls-63" d="M193.336,384.451v21.567h-2.784V384.451Z" transform="translate(0 -30.851)"/><path class="cls-63" d="M198.424,394.723c0-1.6-.032-2.912-.128-4.193h2.5l.16,2.561h.064a5.692,5.692,0,0,1,5.119-2.912c2.144,0,5.472,1.28,5.472,6.592v9.247h-2.816V397.09c0-2.495-.928-4.575-3.584-4.575a4,4,0,0,0-3.775,2.88,4.043,4.043,0,0,0-.192,1.311v9.312h-2.816Z" transform="translate(0 -30.851)"/><path class="cls-63" d="M229.559,383.3v18.719c0,1.376.031,2.944.128,4h-2.528l-.128-2.688h-.064a5.728,5.728,0,0,1-5.28,3.039c-3.744,0-6.624-3.167-6.624-7.871-.031-5.151,3.168-8.319,6.944-8.319a5.178,5.178,0,0,1,4.672,2.368h.064V383.3Zm-2.816,13.535a4.971,4.971,0,0,0-.128-1.184,4.141,4.141,0,0,0-4.064-3.263c-2.912,0-4.64,2.559-4.64,5.983,0,3.136,1.536,5.728,4.576,5.728a4.233,4.233,0,0,0,4.128-3.36,4.891,4.891,0,0,0,.128-1.216Z" transform="translate(0 -30.851)"/><path class="cls-63" d="M237.367,386.179a1.744,1.744,0,0,1-3.488,0,1.716,1.716,0,0,1,1.76-1.76A1.672,1.672,0,0,1,237.367,386.179Zm-3.136,19.839V390.53h2.816v15.488Z" transform="translate(0 -30.851)"/><path class="cls-63" d="M250.294,406.018l-.224-1.953h-.095a5.77,5.77,0,0,1-4.736,2.3,4.412,4.412,0,0,1-4.736-4.447c0-3.744,3.328-5.792,9.311-5.76v-.319c0-1.281-.352-3.584-3.519-3.584a7.725,7.725,0,0,0-4.032,1.151l-.64-1.855a9.612,9.612,0,0,1,5.088-1.376c4.735,0,5.887,3.231,5.887,6.336v5.791a21.815,21.815,0,0,0,.256,3.712Zm-.416-7.9c-3.071-.064-6.559.48-6.559,3.488a2.492,2.492,0,0,0,2.656,2.688,3.853,3.853,0,0,0,3.744-2.592,2.968,2.968,0,0,0,.159-.9Z" transform="translate(0 -30.851)"/><path class="cls-63" d="M263.383,404.386a1.877,1.877,0,0,1,1.888-1.985,1.986,1.986,0,0,1,0,3.968A1.874,1.874,0,0,1,263.383,404.386Zm.8-4.576-.448-15.359h3.072l-.449,15.359Z" transform="translate(0 -30.851)"/></svg>